<?xml version="1.0" encoding="utf-8" ?>
<svg baseProfile="full" height="200mm" version="1.1" viewBox="0,0,200,200" width="200mm" xmlns="http://www.w3.org/2000/svg" xmlns:ev="http://www.w3.org/2001/xml-events" xmlns:xlink="http://www.w3.org/1999/xlink"><defs /><rect fill="#1a1a1a" height="200" width="200" x="0" y="0" /><text alignment-baseline="middle" fill="#e1ed5e" style="dominant-baseline: central; font-size:9.0px; font-family:Arial;" text-anchor="middle" x="100.0" y="100.0">2020</text><line stroke="#e1ed5e" stroke-width="0.3" x1="100.0" x2="100.0" y1="15.0" y2="10.0" /><path d="M 100.0 14.0 a86.0,86.0 0 0,1 42.35913384403234,11.155469271406648" fill="none" id="id13" stroke="none" /><text fill="#e1ed5e" style="font-size:6.75px; font-family:Arial;" text-anchor="middle"><textPath startOffset="22.145653131862478" xlink:href="#id13">January</textPath></text><path d="M 104.9986988182912 79.60360301121754 l 2.2071022998460537 -9.0057305588785 a30.272242633856376,30.272242633856376 0 0,0 0.5036648256412363,0.12802962911202284 l -2.3613724187126843 8.96651569793121" fill="#ff3104" stroke="none" /><line stroke="#e1ed5e" stroke-width="0.3" x1="143.13028292997686" x2="145.6673583964461" y1="26.7553504044142" y2="22.446841604673864" /><path d="M 143.63769802327073 25.89364864446614 a86.0,86.0 0 0,1 29.32050498858742,28.57503671076993" fill="none" id="id14" stroke="none" /><text fill="#e1ed5e" style="font-size:6.75px; font-family:Arial;" text-anchor="middle"><textPath startOffset="20.669276256404974" xlink:href="#id14">February</textPath></text><line stroke="#e1ed5e" stroke-width="0.3" x1="172.87174338648825" x2="177.1583165268699" y1="56.24261187166439" y2="53.66864786411523" /><path d="M 173.72905801456457 55.72781907015455 a86.0,86.0 0 0,1 12.242430191666344,42.057860355516425" fill="none" id="id15" stroke="none" /><text fill="#e1ed5e" style="font-size:6.75px; font-family:Arial;" text-anchor="middle"><textPath startOffset="22.145653131862474" xlink:href="#id15">March</textPath></text><line stroke="#e1ed5e" stroke-width="0.3" x1="184.99686870605535" x2="189.99668451229388" y1="99.2704041080226" y2="99.22748670261217" /><path d="M 185.99683186730306 99.26182062694052 a86.0,86.0 0 0,1 -10.086455211305974,41.156179273409016" fill="none" id="id16" stroke="none" /><text fill="#e1ed5e" style="font-size:6.75px; font-family:Arial;" text-anchor="middle"><textPath startOffset="21.40746469413373" xlink:href="#id16">April</textPath></text><line stroke="#e1ed5e" stroke-width="0.3" x1="174.33088141563837" x2="178.70328620479359" y1="141.23008692659167" y2="143.65538615756765" /><path d="M 175.20536237346943 141.71514677278685 a86.0,86.0 0 0,1 -30.301960400862466,31.631185727798858" fill="none" id="id17" stroke="none" /><text fill="#e1ed5e" style="font-size:6.75px; font-family:Arial;" text-anchor="middle"><textPath startOffset="22.145653131862474" xlink:href="#id17">May</textPath></text><line stroke="#e1ed5e" stroke-width="0.3" x1="143.1302829299769" x2="145.66735839644613" y1="173.24464959558577" y2="177.55315839532614" /><path d="M 143.63769802327073 174.10635135553383 a86.0,86.0 0 0,1 -40.68552437913181,11.842963189579606" fill="none" id="id18" stroke="none" /><text fill="#e1ed5e" style="font-size:6.75px; font-family:Arial;" text-anchor="middle"><textPath startOffset="21.407464694133747" xlink:href="#id18">June</textPath></text><line stroke="#e1ed5e" stroke-width="0.3" x1="101.45913802915013" x2="101.54496967792366" y1="184.9874750549273" y2="189.98673829345242" /><path d="M 101.47630435890484 185.9873277026323 a86.0,86.0 0 0,1 -42.54439059252881,-10.42667462771756" fill="none" id="id19" stroke="none" /><text fill="#e1ed5e" style="font-size:6.75px; font-family:Arial;" text-anchor="middle"><textPath startOffset="22.145653131862474" xlink:href="#id19">July</textPath></text><path d="M 95.35216902796893 120.47920084513623 l -1.3847229466226632 6.101344801349798 a27.256505895774538,27.256505895774538 0 0,0 -0.45540150096316473,-0.10747351423330803 l 1.4892566013257158 -6.076675143470262" fill="#ff0200" stroke="none" /><path d="M 95.00130118170881 120.39639698878247 l -1.5033473659425383 6.134170271592113 a27.315702512276115,27.315702512276115 0 0,0 -0.4544743747437857,-0.11552560885165367 l 1.6084270339117026 -6.107459430905196" fill="#ff0300" stroke="none" /><path d="M 93.61358852112213 120.00534299687104 l -1.9847380436360784 6.217163653359678 a27.526278341789677,27.526278341789677 0 0,0 -0.44891068805915896,-0.1475658596642939 l 2.091171469342981 -6.182176872293362" fill="#ff0601" stroke="none" /><path d="M 93.27111125876986 119.89276391827306 l -2.0234817433943832 5.982064225202412 a27.315027376052846,27.315027376052846 0 0,0 -0.44288615037991463,-0.15405879318340765 l 2.1258736658193196 -5.946446999450413" fill="#ff0300" stroke="none" /><path d="M 92.59220618246901 119.65005319985036 l -2.2696818248856983 6.020600694931647 a27.434212330505414,27.434212330505414 0 0,0 -0.43924491153133266,-0.16990936783572766 l 2.372698998910559 -5.980751438957879" fill="#ff0500" stroke="none" /><path d="M 91.26138138417905 119.09545874513695 l -4.41817711905423 9.65451435915334 a31.617435498576498,31.617435498576498 0 0,0 -0.4915928347012106,-0.23009026861753654 l 4.58325866762693 -9.577247858965277" fill="#ff4606" stroke="none" /><path d="M 90.28995756902619 118.62028667847754 l -4.824840071842956 9.25226701676854 a31.43472695706239,31.43472695706239 0 0,0 -0.4763276995444243,-0.25361767074303343 l 4.982956587173942 -9.168078878302934" fill="#ff4306" stroke="none" /><line stroke="#e1ed5e" stroke-width="0.3" x1="58.13341422392154" x2="55.67067388415222" y1="173.97424548756322" y2="178.32567169271397" /><path d="M 57.64086615596768 174.84453072859336 a86.0,86.0 0 0,1 -31.369924170532247,-30.572349798747897" fill="none" id="id20" stroke="none" /><text fill="#e1ed5e" style="font-size:6.75px; font-family:Arial;" text-anchor="middle"><textPath startOffset="22.145653131862474" xlink:href="#id20">August</textPath></text><path d="M 87.2517909369889 116.68781488649013 l -10.13153967851148 13.262510665964431 a37.689586136932,37.689586136932 0 0,0 -0.5107657812088005,-0.3971745608071707 l 10.357715404355508 -13.086635053536467" fill="#ffa00e" stroke="none" /><path d="M 85.60350026404147 115.28858382429668 l -14.984945285886512 15.913492606369426 a42.858358404829644,42.858358404829644 0 0,0 -0.5312957096867957,-0.5089692714847761 l 15.255913481438622 -15.653911204579066" fill="#ffe715" stroke="none" /><path d="M 84.3458050057657 113.99807769240083 l -15.938492306455075 14.252298102052858 a42.38138298129256,42.38138298129256 0 0,0 -0.4803000116038681,-0.5464932457481496 l 16.180803382017533 -13.97659257849341" fill="#ffe115" stroke="none" /><path d="M 83.8745106332314 113.45245675266167 l -7.063297909953462 5.892454331378562 a30.198434400056072,30.198434400056072 0 0,0 -0.32866420172125677,-0.4009168860482526 l 7.163408930913349 -5.770335163631814" fill="#ff3004" stroke="none" /><path d="M 83.20337586046588 112.60449989151573 l -16.88032717235364 12.667312207807903 a42.10464981978568,42.10464981978568 0 0,0 -0.4288618839324855,-0.5818335108640479 l 17.095291075869955 -12.375672387674975" fill="#ffdd14" stroke="none" /><path d="M 82.78059297857968 112.02048342749411 l -30.940486790394026 21.598862738994278 a58.73360033768925,58.73360033768925 0 0,0 -0.5700243115527601,-0.8316825059384145 l 31.30670083876211 -21.06454549798581" fill="#54ff2b" stroke="none" /><line stroke="#e1ed5e" stroke-width="0.3" x1="26.387840678322732" x2="22.057713659400548" y1="142.50000000000003" y2="145.00000000000006" /><path d="M 25.521815274538298 143.00000000000003 a86.0,86.0 0 0,1 -11.493303480769221,-40.785679425670985" fill="none" id="id21" stroke="none" /><text fill="#e1ed5e" style="font-size:6.75px; font-family:Arial;" text-anchor="middle"><textPath startOffset="21.40746469413373" xlink:href="#id21">September</textPath></text><path d="M 81.81346652052679 110.50000000000001 l -25.55225209388707 14.752599624806896 a50.50519924961377,50.50519924961377 0 0,0 -0.42704944188946314,-0.7545554447314878 l 25.80173490079791 -14.311787409976287" fill="#b4ff20" stroke="none" /><path d="M 81.4637452351635 109.86951160357371 l -5.422294250375721 2.887066276386835 a27.142998178569464,27.142998178569464 0 0,0 -0.2154532752473895,-0.41316006386606496 l 5.47105559459806 -2.793559969416267" fill="#ff0000" stroke="none" /><path d="M 80.68587082218212 108.24405325689762 l -33.304155445361395 14.215563572127678 a57.21117255215576,57.21117255215576 0 0,0 -0.3777957636546476,-0.9065723010525103 l 33.54327705355253 -13.641758761633888" fill="#65ff29" stroke="none" /><path d="M 79.94057633289273 106.21446072829308 l -20.098825266074805 6.226667444372231 a42.041249120216506,42.041249120216506 0 0,0 -0.20765109859014394,-0.691202972346921 l 20.202752684668578 -5.880726868434587" fill="#ffdc14" stroke="none" /><path d="M 79.64726062577567 105.17358676015961 l -20.47308765380958 5.2041788222118885 a42.12417561217784,42.12417561217784 0 0,0 -0.17213236679728597,-0.7023587968471243 l 20.559407547123158 -4.851964200756665" fill="#ffdd14" stroke="none" /><path d="M 79.34024301695615 103.76489593502545 l -20.83343721124938 3.796546258197308 a42.17654054669228,42.17654054669228 0 0,0 -0.12368809271972492,-0.7134000499758196 l 20.895540121461337 -3.438353175300896" fill="#ffde14" stroke="none" /><path d="M 79.17382384314188 102.69636545807758 l -20.84974566748746 2.6994170031065914 a42.02376623147178,42.02376623147178 0 0,0 -0.08648473828742403,-0.716217697796985 l 20.893012492034547 -2.3411056283862073" fill="#ffdc14" stroke="none" /><line stroke="#e1ed5e" stroke-width="0.3" x1="15.003131293944662" x2="10.003315487706104" y1="100.72959589197737" y2="100.7725132973878" /><path d="M 14.003168132696942 100.73817937305945 a86.0,86.0 0 0,1 10.791469493833604,-42.45332614584628" fill="none" id="id22" stroke="none" /><text fill="#e1ed5e" style="font-size:6.75px; font-family:Arial;" text-anchor="middle"><textPath startOffset="22.145653131862435" xlink:href="#id22">October</textPath></text><path d="M 79.94057633289273 93.78553927170692 l -20.009756764709696 -6.199073794970968 a41.948004241415006,41.948004241415006 0 0,0 0.21899911274211217,-0.6860116014927027 l 19.900392936190325 6.541654430155063" fill="#ffdb14" stroke="none" /><path d="M 80.83023694016515 91.42560881287825 l -19.112782940957583 -8.548904704705791 a41.937579692942066,41.937579692942066 0 0,0 0.2995851647771823,-0.6546476515522223 l 18.963213311325354 8.875741338472684" fill="#ffdb14" stroke="none" /><line stroke="#e1ed5e" stroke-width="0.3" x1="26.387840678322718" x2="22.05771365940052" y1="57.49999999999999" y2="54.99999999999999" /><path d="M 25.521815274538284 56.99999999999999 a86.0,86.0 0 0,1 29.574782752854787,-30.34633250058573" fill="none" id="id23" stroke="none" /><text fill="#e1ed5e" style="font-size:6.75px; font-family:Arial;" text-anchor="middle"><textPath startOffset="21.40746469413373" xlink:href="#id23">November</textPath></text><path d="M 81.99639281039701 89.18935116829357 l -18.37582400750203 -11.03415433619697 a42.434165947610424,42.434165947610424 0 0,0 0.38035568728363606,-0.6212824303381911 l 18.183700355763 11.347973882659703" fill="#ffe215" stroke="none" /><path d="M 82.78059297857968 87.97951657250589 l -17.22734554063416 -12.026025130441855 a42.009681454377805,42.009681454377805 0 0,0 0.4178661033992837,-0.5877810052369009 l 17.018364338704902 12.319983362388276" fill="#ffdc14" stroke="none" /><path d="M 83.8745106332314 86.54754324733833 l -15.273078998353023 -12.741345706304086 a40.88991786050123,40.88991786050123 0 0,0 0.4542781016477368,-0.5351384614749949 l 15.052106333198173 13.001650950228637" fill="#ffcd13" stroke="none" /><path d="M 85.34317274990677 84.96080404539775 l -14.640005526018891 -15.021935383788968 a41.97589818044974,41.97589818044974 0 0,0 0.5203562488994161,-0.49848951551108206 l 14.379976791254174 15.271037029605619" fill="#ffdb14" stroke="none" /><path d="M 86.96720088162412 83.53348406188908 l -13.016480109304599 -16.445897403249326 a41.97370486666877,41.97370486666877 0 0,0 0.5688237615175793,-0.4423207974558336 l 12.732246403151775 16.666919252325965" fill="#ffdb14" stroke="none" /><path d="M 87.83215693770416 82.88440491214696 l -15.824860793448025 -22.25964850759609 a48.31150253672861,48.31150253672861 0 0,0 0.6800532048870506,-0.4747299526046534 l 15.440412497387209 22.52802327600587" fill="#cfff1d" stroke="none" /><path d="M 89.03521579738668 82.08984904055464 l -23.231031774078126 -37.94614452314031 a65.49259175929492,65.49259175929492 0 0,0 0.9638864190930753,-0.5787860999591189 l 22.576212598427617 38.339344623635355" fill="#34ff5b" stroke="none" /><line stroke="#e1ed5e" stroke-width="0.3" x1="56.869717070023135" x2="54.33264160355391" y1="26.7553504044142" y2="22.446841604673864" /><path d="M 56.362301976729285 25.89364864446614 a86.0,86.0 0 0,1 42.16139366436587,-11.88097634709845" fill="none" id="id24" stroke="none" /><text fill="#e1ed5e" style="font-size:6.75px; font-family:Arial;" text-anchor="middle"><textPath startOffset="22.145653131862474" xlink:href="#id24">December</textPath></text><path d="M 94.6519064749342 79.69241777938228 l -5.371742321716701 -20.397380553454617 a42.09286014302875,42.09286014302875 0 0,0 0.7003344060466048,-0.17802226738065696 l 5.020802622444718 20.486588052670534" fill="#ffdd14" stroke="none" /><path d="M 96.41257539226777 79.30868818359171 l -3.605849064448123 -20.797579186636742 a42.10785274489111,42.10785274489111 0 0,0 0.7132719294993423,-0.11736862456731577 l 3.248299631895708 20.856413809699728" fill="#ffdd14" stroke="none" /><path d="M 98.1996594967304 79.07731436759882 l -5.4010215098087775 -62.76805689720356 a84.0,84.0 0 0,0 1.4377240208991313,-0.1112889320197854 l 4.322728494134429 62.8515235962184" fill="#4dd2ff" stroke="none" /></svg>