<?xml version="1.0" encoding="utf-8" ?>
<svg baseProfile="full" height="200mm" version="1.1" viewBox="0,0,200,200" width="200mm" xmlns="http://www.w3.org/2000/svg" xmlns:ev="http://www.w3.org/2001/xml-events" xmlns:xlink="http://www.w3.org/1999/xlink"><defs /><rect fill="#1a1a1a" height="200" width="200" x="0" y="0" /><text alignment-baseline="middle" fill="#e1ed5e" style="dominant-baseline: central; font-size:9.0px; font-family:Arial;" text-anchor="middle" x="100.0" y="100.0">2024</text><line stroke="#e1ed5e" stroke-width="0.3" x1="100.0" x2="100.0" y1="15.0" y2="10.0" /><path d="M 100.0 14.0 a86.0,86.0 0 0,1 42.35913384403234,11.155469271406648" fill="none" id="id61" stroke="none" /><text fill="#e1ed5e" style="font-size:6.75px; font-family:Arial;" text-anchor="middle"><textPath startOffset="22.145653131862478" xlink:href="#id61">January</textPath></text><path d="M 100.0 79.0 l 0.0 -19.100605003955977 a40.10060500395598,40.10060500395598 0 0,0 0.6883802088611768,0.00590891617714233 l -0.327887284012322 19.09779048597327" fill="#ffe015" stroke="none" /><path d="M 100.36049292484886 79.00309439819443 l 0.4364204651479129 -25.41930417427418 a46.42305031908391,46.42305031908391 0 0,0 0.7966785359629459,0.020519613073086466 l -0.8727123151816002 25.40806684385105" fill="#cfff1d" stroke="none" /><path d="M 101.08105385017728 79.02784411241856 l 0.9621867365159406 -18.666165638156205 a39.69094815537753,39.69094815537753 0 0,0 0.6801434220442966,0.04091573932507729 l -1.2824745106926994 18.646897921006435" fill="#ffda14" stroke="none" /><path d="M 101.44090949804482 79.04949213459386 l 1.6416693629884642 -23.86951224095296 a44.92590004406058,44.92590004406058 0 0,0 0.7689410196887656,0.05952089804679919 l -2.0511793774524634 23.83781357591111" fill="#e2ff1b" stroke="none" /><path d="M 101.80034050326958 79.07731436759882 l 1.280213514552981 -14.87802160685636 a35.93299948359099,35.93299948359099 0 0,0 0.6141128192165196,0.05815712247049516 l -1.5354258971545134 14.85385272888068" fill="#ffa90f" stroke="none" /><path d="M 102.15924093988457 79.11130261209362 l 1.2311242545082428 -11.910010376474846 a32.97347126349652,32.97347126349652 0 0,0 0.5625338549194582,0.06303309177706279 l -1.4353940110284975 11.887121524190812" fill="#ff800b" stroke="none" /><path d="M 102.87502721639298 79.19773525538626 l 3.0860166446094146 -22.328879142921757 a43.54112558214457,43.54112558214457 0 0,0 0.7395250651778129,0.10868471763688534 l -3.4688668153949096 22.27261335198599" fill="#f3ff19" stroke="none" /><path d="M 103.23170211078529 79.25015418208739 l 2.441081644895624 -15.67349527404689 a36.86245043184112,36.86245043184112 0 0,0 0.6244191862474734,0.1027479394776542 l -2.709778334196168 15.629281336073566" fill="#ffb510" stroke="none" /><path d="M 103.58742460773223 79.30868818359171 l 1.2906947758523792 -7.4443844783271835 a28.555445272488665,28.555445272488665 0 0,0 0.4822678383874046,0.08788526534113741 l -1.4182973477908374 7.42113103905468" fill="#ff4106" stroke="none" /><path d="M 104.64783097203109 79.52079915486377 l 3.6592643450424895 -16.123393883840635 a37.53342208619767,37.53342208619767 0 0,0 0.6271081414360005,0.14799581385195354 l -3.9355046402183747 16.058201926342452" fill="#ffbe11" stroke="none" /><path d="M 105.3480935250658 79.69241777938227 l 4.596806903320122 -17.45482454709465 a39.049973232009776,39.049973232009776 0 0,0 0.6467765230045422,0.17628181743233365 l -4.895764827259357 17.373342235518173" fill="#ffd213" stroke="none" /><path d="M 106.04205211174951 79.88797359093562 l 4.5706771817677625 -15.214297805916097 a36.88602995172286,36.88602995172286 0 0,0 0.6048595204787324,0.18738702559600123 l -4.8311773351181255 15.133594192513447" fill="#ffb610" stroke="none" /><path d="M 107.06938296918511 80.22567764915836 l 10.663054917450125 -29.826462380307436 a52.675204786969445,52.675204786969445 0 0,0 0.8488505113690973,0.3117096655794477 l -11.173494580473347 29.639021865719265" fill="#87ff25" stroke="none" /><path d="M 107.40779381753099 80.34994680014964 l 4.342115584634986 -11.517977462609084 a33.30925556561,33.30925556561 0 0,0 0.5333093160404753,0.20629550023342424 l -4.539197163168987 11.44174207423762" fill="#ff850c" stroke="none" /><path d="M 107.74402155503746 80.48000691201159 l 4.702535837291339 -11.853462233745113 a33.752192369464595,33.752192369464595 0 0,0 0.5367330508011802,0.2182846591504961 l -4.905323349282958 11.770990318015324" fill="#ff8b0c" stroke="none" /><path d="M 108.73861861582097 80.90454125486305 l 4.980656149005838 -10.88363255090045 a32.96914337693594,32.96914337693594 0 0,0 0.5126094003122907,0.23992708251213024 l -5.166754263189634 10.796529236817785" fill="#ff800b" stroke="none" /><path d="M 109.06512990194946 81.05736502329252 l 6.821362832748529 -14.254024772071618 a36.80215849492829,36.80215849492829 0 0,0 0.5675238968388323,0.27760437692901363 l -7.065046978849429 14.134826645045385" fill="#ffb410" stroke="none" /><path d="M 109.3889696526874 81.21577127319529 l 7.352223396855284 -14.70937185291305 a37.444476555504494,37.444476555504494 0 0,0 0.5724953390074566,0.29232019928799785 l -7.60364595757632 14.580993701952217" fill="#ffbd11" stroke="none" /><path d="M 110.02825361518725 81.54914285379988 l 5.852312886718544 -10.767596551824305 a33.255231602336636,33.255231602336636 0 0,0 0.499233573183407,0.27691644747124355 l -6.036290648058052 10.665547188919914" fill="#ff840c" stroke="none" /><line stroke="#e1ed5e" stroke-width="0.3" x1="143.13028292997686" x2="145.6673583964461" y1="26.7553504044142" y2="22.446841604673864" /><path d="M 143.63769802327073 25.89364864446614 a86.0,86.0 0 0,1 29.32050498858742,28.57503671076993" fill="none" id="id62" stroke="none" /><text fill="#e1ed5e" style="font-size:6.75px; font-family:Arial;" text-anchor="middle"><textPath startOffset="20.669276256404974" xlink:href="#id62">February</textPath></text><path d="M 110.65571695917076 81.90426304109057 l 6.100736577619824 -10.360384457208498 a33.02316734020931,33.02316734020931 0 0,0 0.4860180618848123,0.29183988172867975 l -6.2776873960620705 10.254130574943897" fill="#ff810b" stroke="none" /><path d="M 111.5731344415666 82.4767994020092 l 10.94623553627008 -16.57399575399308 a40.86246227608457,40.86246227608457 0 0,0 0.5820054354415792,0.39159923104241456 l -11.229137259808661 16.383646848893548" fill="#ffea15" stroke="none" /><path d="M 112.16784306229584 82.88440491214696 l 18.33503649133447 -25.790524984588316 a52.64371568130457,52.64371568130457 0 0,0 0.7320459363530792,0.5299448041468074 l -18.77506343806152 25.471979409068435" fill="#87ff25" stroke="none" /><path d="M 113.59037401385872 83.9905735841838 l 14.557693301485315 -17.14892610435057 a43.494712729719105,43.494712729719105 0 0,0 0.5650595311660433,0.48808496483427344 l -14.84993231241422 16.896497007051575" fill="#f3ff19" stroke="none" /><path d="M 113.86319453409587 84.22622945171908 l 14.792298445440853 -16.83092024613892 a43.407408811169596,43.407408811169596 0 0,0 0.5554804210731634,0.4967140177858719 l -15.079043893337392 16.57451069846966" fill="#f4ff19" stroke="none" /><path d="M 114.13192950727249 84.46653392183569 l 10.07013713471444 -11.068844739428636 a35.964190114320644,35.964190114320644 0 0,0 0.4530978096692312,0.4193805682723143 l -10.258664715697636 10.894346425023947" fill="#ffa90f" stroke="none" /><path d="M 114.39649973595853 84.71141617570332 l 5.187086007777621 -5.508505587345432 a28.566339607623902,28.566339607623902 0 0,0 0.3541240084752384,0.3392427895101264 l -5.280882502118172 5.418650667529726" fill="#ff4106" stroke="none" /><path d="M 114.65682725009322 84.96080404539774 l 22.083567365909044 -22.659685573523667 a52.64088016942006,52.64088016942006 0 0,0 0.6417376502305696,0.6362527460074554 l -22.469296936269576 22.27725281728755" fill="#87ff25" stroke="none" /><path d="M 115.41159269507618 85.73525988315684 l 8.83874076986188 -8.18100650184635 a33.04376211073894,33.04376211073894 0 0,0 0.3817377457571105,0.41959665319739003 l -8.977876216460869 8.028072273091288" fill="#ff810b" stroke="none" /><path d="M 115.8921839302757 86.27271002978787 l 9.730897317159126 -8.405317338954628 a33.85844944640006,33.85844944640006 0 0,0 0.3761600155745115,0.44311555250587203 l -9.87375189624075 8.237035003999203" fill="#ff8c0c" stroke="none" /><path d="M 116.1254893667686 86.54754324733833 l 9.4312946815916 -7.867921459002735 a33.28224358397332,33.28224358397332 0 0,0 0.36222679209485154,0.44185778910317425 l -9.56496829292508 7.704861388201065" fill="#ff840c" stroke="none" /><path d="M 116.35404254752997 86.82634096563983 l 9.583098731001584 -7.719465985729126 a33.305524628919855,33.305524628919855 0 0,0 0.3548363764087474,0.4483241700025776 l -9.714201538051892 7.553821871811871" fill="#ff850c" stroke="none" /><path d="M 116.7966241395341 87.39550010848427 l 7.1890550808373455 -5.394800957249279 a29.98812496150621,29.98812496150621 0 0,0 0.30544758884447815,0.41439831717550774 l -7.280604689265649 5.270596330804897" fill="#ff5608" stroke="none" /><path d="M 117.01052211995028 87.68569379921539 l 12.145905915109118 -8.79269921698393 a35.99448532024466,35.99448532024466 0 0,0 0.358033548551623,0.5036190238075396 l -12.295054562190703 8.582902966466888" fill="#ffaa0f" stroke="none" /><path d="M 117.42321728460499 88.27688183743584 l 13.639765812217584 -9.177443161867496 a37.439850194008706,37.439850194008706 0 0,0 0.3542087259056527,0.5363171566823388 l -13.795298977043961 8.941946126846098" fill="#ffbd11" stroke="none" /><path d="M 117.81537515405839 88.88188828441811 l 13.56682264495166 -8.46670072831431 a36.99198855372312,36.99198855372312 0 0,0 0.3315751097290362,0.5416030229054845 l -13.710165719136098 8.23256058928427" fill="#ffb711" stroke="none" /><line stroke="#e1ed5e" stroke-width="0.3" x1="172.87174338648825" x2="177.1583165268699" y1="56.24261187166439" y2="53.66864786411523" /><path d="M 173.72905801456457 55.72781907015455 a86.0,86.0 0 0,1 12.242430191666344,42.057860355516425" fill="none" id="id63" stroke="none" /><text fill="#e1ed5e" style="font-size:6.75px; font-family:Arial;" text-anchor="middle"><textPath startOffset="22.145653131862474" xlink:href="#id63">March</textPath></text><path d="M 118.36410011445183 89.81374322990088 l 55.08812417299978 -30.55645385899869 a83.99522440103661,83.99522440103661 0 0,0 0.6885794519400672,1.2669086352497336 l -55.604548974555186 29.606290390274353" fill="#4dd2ff" stroke="none" /><path d="M 118.70294669586156 90.45014215332178 l 22.34047502153636 -11.40720572818325 a46.08428126761831,46.08428126761831 0 0,0 0.3537080216328306,0.7076529828760248 l -22.53300295638093 11.022020889143475" fill="#d3ff1c" stroke="none" /><path d="M 119.58574465831526 92.42381321644754 l 11.854278148266673 -4.585489446648281 a33.7102566410673,33.7102566410673 0 0,0 0.2041385850230591,0.5415018498965499 l -11.931247417104172 4.381319316557573" fill="#ff8a0c" stroke="none" /><path d="M 119.71291397450082 92.76114493625339 l 11.738202389150374 -4.310430508340682 a33.50460741070625,33.50460741070625 0 0,0 0.1936244503860833,0.5416020483864598 l -11.810467009580401 4.1082935035733055" fill="#ff880c" stroke="none" /><path d="M 119.83427380445688 93.10060997987247 l 14.270381918891744 -4.963979602443832 a36.10909969536606,36.10909969536606 0 0,0 0.19862511565293595,0.5871998610577652 l -14.353492456117044 4.718278066911905" fill="#ffab0f" stroke="none" /><path d="M 119.94978838288452 93.4421083053983 l 14.298767657238502 -4.700288938547905 a36.051494032870146,36.051494032870146 0 0,0 0.18821503785467789,0.589580925360847 l -14.377347410870437 4.454138979495671" fill="#ffaa0f" stroke="none" /><path d="M 120.16314734710363 94.1308016681162 l 11.51094253529497 -3.3506676097503325 a32.98869348519233,32.98869348519233 0 0,0 0.15360400921292938,0.5450864400073347 l -11.566765036582481 3.1525732458399847" fill="#ff800b" stroke="none" /><path d="M 120.26092885502905 94.47779374421319 l 15.909215421085623 -4.3361274081554475 a37.489546270721505,37.489546270721505 0 0,0 0.16390165273857282,0.622361272009122 l -15.981306554628926 4.062385631773527" fill="#ffbe11" stroke="none" /><path d="M 120.35273937422433 94.82641323984039 l 12.295215276122624 -3.1253956431250423 a33.686229408782744,33.686229408782744 0 0,0 0.13765231751939527,0.5616684294476559 l -12.347055120158311 2.9138713890692913" fill="#ff8a0c" stroke="none" /><path d="M 120.43855184770803 95.1765574152323 l 15.25868671448223 -3.6010085173679376 a36.6778436844125,36.6778436844125 0 0,0 0.13935683559532666,0.6140319306947981 l -15.318254411635223 3.338542252734113" fill="#ffb310" stroke="none" /><path d="M 120.51834098615036 95.52812308129327 l 12.682219236499424 -2.7640306553030336 a33.979928745031344,33.979928745031344 0 0,0 0.11932179674683391,0.570997992410274 l -12.727798744070626 2.5459162116073553" fill="#ff8e0d" stroke="none" /><path d="M 120.592083275326 95.88100663000786 l 14.652151184249163 -2.9308405942763596 a35.94240144405016,35.94240144405016 0 0,0 0.11582645571438248,0.6060529598990978 l -14.700303932245703 2.678885069343947" fill="#ffa90f" stroke="none" /><path d="M 120.77682067341334 96.94652285012252 l 31.74033334336215 -4.664735963066308 a53.081279936325345,53.081279936325345 0 0,0 0.12475486824406831,0.9026640800459997 l -31.815732728161432 4.119183574820222" fill="#82ff25" stroke="none" /><path d="M 120.82617615685814 97.30363454192243 l 14.848614758560592 -1.9224504601195926 a35.97254741250658,35.97254741250658 0 0,0 0.07403135481399374,0.613085817909925 l -14.87942819963425 1.6672709652862547" fill="#ffa90f" stroke="none" /><path d="M 120.93736805541906 98.37931529534042 l 12.841823147150892 -0.9940383289552963 a33.88023811667054,33.88023811667054 0 0,0 0.03990775646622718,0.5802500204703589 l -12.856994864782186 0.7734448843306032" fill="#ff8d0d" stroke="none" /><path d="M 120.98066250479742 99.09900007780936 l 32.82407666380453 -1.40960708525315 a53.854330018524394,53.854330018524394 0 0,0 0.03173639002639413,0.9239703681795619 l -32.843437740827774 0.845930452509468" fill="#7aff26" stroke="none" /><line stroke="#e1ed5e" stroke-width="0.3" x1="184.99686870605535" x2="189.99668451229388" y1="99.2704041080226" y2="99.22748670261217" /><path d="M 185.99683186730306 99.26182062694052 a86.0,86.0 0 0,1 -10.086455211305974,41.156179273409016" fill="none" id="id64" stroke="none" /><text fill="#e1ed5e" style="font-size:6.75px; font-family:Arial;" text-anchor="middle"><textPath startOffset="21.40746469413373" xlink:href="#id64">April</textPath></text><path d="M 120.99922638620191 99.81974689727618 l 14.936329401739041 -0.12821042396769727 a35.93687965774874,35.93687965774874 0 0,0 0.0,0.6169270533830464 l -14.936329401739041 -0.12821042396769547" fill="#ffa90f" stroke="none" /><path d="M 120.99922638620191 100.18025310272382 l 18.080945471132424 0.15520317088887758 a39.08161157514225,39.08161157514225 0 0,0 -0.011517106022240103,0.6708136867218512 l -18.075616933511515 -0.46556377357979983" fill="#ffd313" stroke="none" /><path d="M 120.98066250479742 100.90099992219065 l 12.39722142542906 0.5323900299686756 a33.4086477190356,33.4086477190356 0 0,0 -0.029524352384314268,0.5727645487615698 l -12.386255483588172 -0.745126372106976" fill="#ff860c" stroke="none" /><path d="M 120.9064616781168 101.97986365728391 l 12.193809932876873 1.1547664784998262 a33.248366678826756,33.248366678826756 0 0,0 -0.05868749555601915,0.5677482825002926 l -12.172190044839187 -1.3639192832830502" fill="#ff840c" stroke="none" /><path d="M 120.86939407059847 102.33845913500097 l 15.176343439357032 1.7005409372031153 a36.27132082265378,36.27132082265378 0 0,0 -0.07464622926483412,0.6181778604174962 l -15.144915123832533 -1.96081247454402" fill="#ffad10" stroke="none" /><path d="M 120.82617615685814 102.69636545807757 l 18.225728512194557 2.359685447700293 a39.37784794834015,39.37784794834015 0 0,0 -0.09254822488122628,0.6696328523938838 l -18.182535770758122 -2.672206608294262" fill="#ffd614" stroke="none" /><path d="M 120.7213421655516 103.40968896794604 l 15.404572853503437 2.534816600916519 a36.61173148626305,36.61173148626305 0 0,0 -0.10736857930984861,0.6192734333695862 l -15.358789456701354 -2.798883067206693" fill="#ffb210" stroke="none" /><path d="M 120.65975698304385 103.76489593502545 l 10.611233621963803 1.9337202447117534 a31.78598873375562,31.78598873375562 0 0,0 -0.10243217671860748,0.5359684323096584 l -10.576475152963036 -2.1155912420547263" fill="#ff700a" stroke="none" /><path d="M 120.592083275326 104.11899336999214 l 14.644248900464403 2.9292599162030406 a35.93434262079944,35.93434262079944 0 0,0 -0.1261847945180646,0.6038399211787466 l -14.591806395121974 -3.1802162886671965" fill="#ffa90f" stroke="none" /><path d="M 120.43855184770803 104.8234425847677 l 16.001627730393977 3.776340574199606 a37.441193331217164,37.441193331217164 0 0,0 -0.15299625761587204,0.6242769411737026 l -15.93444394626181 -4.050473339981409" fill="#ffbd11" stroke="none" /><path d="M 120.35273937422433 105.17358676015961 l 15.19303119783633 3.862009118603651 a36.676202072268836,36.676202072268836 0 0,0 -0.16034576925550614,0.6088590032359767 l -15.124495947776094 -4.122248626212431" fill="#ffb310" stroke="none" /><path d="M 120.26092885502905 105.52220625578681 l 15.13644672140631 4.125505862708076 a36.68858878208013,36.68858878208013 0 0,0 -0.17083169213178354,0.606221409074418 l -15.063396537199948 -4.3847351956855025" fill="#ffb310" stroke="none" /><path d="M 120.16314734710363 105.8691983318838 l 15.779131763866431 4.593075288931155 a37.43402993277208,37.43402993277208 0 0,0 -0.1848950162724476,0.615455375325975 l -15.697960427590354 -4.863268267847854" fill="#ffbd11" stroke="none" /><path d="M 120.05942366710727 106.21446072829308 l 14.852477288323747 4.601335430065382 a36.54890251240092,36.54890251240092 0 0,0 -0.19081187214173712,0.5977154717787271 l -14.771300700404755 -4.855619935535493" fill="#ffb110" stroke="none" /><path d="M 119.94978838288452 106.5578916946017 l 14.192720637650028 4.665429176847719 a35.939864407100856,35.939864407100856 0 0,0 -0.1976942040825057,0.5844477864119363 l -14.110541011995158 -4.908378637733816" fill="#ffa90f" stroke="none" /><path d="M 119.83427380445688 106.89939002012753 l 14.130697316833093 4.915390046863918 a35.96120536496852,35.96120536496852 0 0,0 -0.2078212270527341,0.5813129594196991 l -14.044235919736415 -5.157237962664538" fill="#ffa90f" stroke="none" /><path d="M 119.71291397450082 107.23885506374661 l 6.258973700232254 2.2983818385445156 a27.667631577700607,27.667631577700607 0 0,0 -0.1675463708671512,0.4444366544314354 l -6.218596645550662 -2.40548677317011" fill="#ff3405" stroke="none" /><path d="M 119.4528033332814 107.91128576633889 l 11.799666668727642 4.798821710397744 a33.73816404750963,33.73816404750963 0 0,0 -0.22279101934180498,0.5346173421975371 l -11.715549804849353 -5.000671562036559" fill="#ff8b0c" stroke="none" /><path d="M 119.31412917781788 108.2440532568976 l 5.802940831227474 2.476930376659618 a27.30946165544622,27.30946165544622 0 0,0 -0.18774099825730006,0.42958814470457324 l -5.759565950953208 -2.5761805911400364" fill="#ff2f04" stroke="none" /><path d="M 119.16976305983485 108.57439118712176 l 11.591742920683512 5.184839167404195 a33.698466881126436,33.698466881126436 0 0,0 -0.24072826393982627,0.5260347012431741 l -11.50103019188863 -5.383062850862057" fill="#ff8a0c" stroke="none" /><path d="M 118.8641267826498 109.22738970284198 l 13.451726722209717 6.579913614454968 a35.974785974520664,35.974785974520664 0 0,0 -0.2761151964553617,0.5524153551481042 l -13.336791612542623 -6.809860825766818" fill="#ffa90f" stroke="none" /><path d="M 118.70294669586154 109.54985784667822 l 11.138006022796626 5.6871452366749065 a33.5059505479147,33.5059505479147 0 0,0 -0.2659605522696076,0.5100144271902702 l -11.03873740155207 -5.87750590696968" fill="#ff880c" stroke="none" /><line stroke="#e1ed5e" stroke-width="0.3" x1="174.33088141563837" x2="178.70328620479359" y1="141.23008692659167" y2="143.65538615756765" /><path d="M 175.20536237346943 141.71514677278685 a86.0,86.0 0 0,1 -30.301960400862466,31.631185727798858" fill="none" id="id65" stroke="none" /><text fill="#e1ed5e" style="font-size:6.75px; font-family:Arial;" text-anchor="middle"><textPath startOffset="22.145653131862474" xlink:href="#id65">May</textPath></text><path d="M 118.36410011445183 110.18625677009912 l 3.0799256373462978 1.7083828327711688 a24.522004235501463,24.522004235501463 0 0,0 -0.20734713214426206,0.36636251488043914 l -3.0501451401806574 -1.7610021177507305" fill="#ff0600" stroke="none" /><path d="M 118.18653347947321 110.5 l 28.456949453818517 16.429627427477687 a53.85925485495539,53.85925485495539 0 0,0 -0.4691558888472577,0.7967292665367555 l -28.170719854841494 -16.915707862307993" fill="#7aff26" stroke="none" /><path d="M 118.00360718960297 110.81064883170644 l 25.571548382956525 15.354980073703224 a50.82749570053962,50.82749570053962 0 0,0 -0.4555887132069876,0.7441699242025995 l -25.304191705294134 -15.791687114030381" fill="#9cff22" stroke="none" /><path d="M 117.62189284568427 111.42229804090321 l 12.552007659547504 8.136059715864443 a35.9582206156164,35.9582206156164 0 0,0 -0.3401914122009467,0.5150931571571719 l -12.410491808425832 -8.350332751360675" fill="#ffa90f" stroke="none" /><path d="M 117.01052211995028 112.31430620078461 l 18.216078493301374 13.187036045234331 a43.48829551861204,43.48829551861204 0 0,0 -0.442955170627275,0.6009537609596082 l -17.987021303090273 -13.497796115462817" fill="#f3ff19" stroke="none" /><path d="M 116.1254893667686 113.45245675266167 l 3.7338988409513862 3.1149512138357967 a25.862604407006106,25.862604407006106 0 0,0 -0.28732791476282776,0.3384715611148459 l -3.679876362681444 -3.178589557400199" fill="#ff1a02" stroke="none" /><path d="M 115.41159269507618 114.26474011684316 l 5.505621419050172 5.095920991317615 a28.50201825908572,28.50201825908572 0 0,0 -0.33543369235598264,0.3562189571864249 l -5.41733189295793 -5.189681408448537" fill="#ff4106" stroke="none" /><path d="M 115.16444852881244 114.52719865689866 l 8.657450071033344 8.293641328606359 a32.988991960127535,32.988991960127535 0 0,0 -0.3952602758999045,0.40557186360308495 l -8.513802993982631 -8.441035884277182" fill="#ff800b" stroke="none" /><path d="M 114.91283532996324 114.78537596483092 l 8.938247893352775 8.861853071263305 a33.58668801788954,33.58668801788954 0 0,0 -0.4094506432692295,0.40595108615018344 l -8.784805329953581 -9.01398416764215" fill="#ff890c" stroke="none" /><path d="M 113.86319453409587 115.77377054828091 l 9.984944303847128 11.361033706833208 a36.125217341867504,36.125217341867504 0 0,0 -0.46931907566134307,0.40538663964754346 l -9.788445748422928 -11.530764478945468" fill="#ffab0f" stroke="none" /><path d="M 113.59037401385872 116.0094264158162 l 7.92202528381244 9.332125864681817 a33.24120328038167,33.24120328038167 0 0,0 -0.4381913443500693,0.36555480427204373 l -7.760659605300475 -9.46674285286573" fill="#ff840c" stroke="none" /><path d="M 113.03279911837588 116.46651593811092 l 9.29238274587454 11.74062204121798 a35.97299512490939,35.97299512490939 0 0,0 -0.48750269877307334,0.37908504719965624 l -9.089470102466237 -11.898408140038429" fill="#ffa90f" stroke="none" /><path d="M 112.45986205192187 116.90419585922612 l 2.7156351779033217 3.6842806716629246 a25.576963894008234,25.576963894008234 0 0,0 -0.35566472162046614,0.257473830372 l -2.6519894459088875 -3.7303552734080014" fill="#ff1502" stroke="none" /><path d="M 112.16784306229584 117.11559508785304 l 6.961461486593659 9.792167388600365 a33.014511567088164,33.014511567088164 0 0,0 -0.4647262705586664,0.32441502931097177 l -6.792340124861234 -9.910227233716459" fill="#ff810b" stroke="none" /><path d="M 111.5731344415666 117.5232005979908 l 7.308538604280978 11.066058956422106 a34.26168908387145,34.26168908387145 0 0,0 -0.49355491481020414,0.31991633281866483 l -7.117498057213764 -11.189889130944664" fill="#ff920d" stroke="none" /><path d="M 111.27062007382361 117.71928675628689 l 4.013649608330116 6.310123833775231 a28.478438739203973,28.478438739203973 0 0,0 -0.41474895821491337,0.25883402462642696 l -3.904736521325488 -6.378093655243206" fill="#ff4006" stroke="none" /><line stroke="#e1ed5e" stroke-width="0.3" x1="143.1302829299769" x2="145.66735839644613" y1="173.24464959558577" y2="177.55315839532614" /><path d="M 143.63769802327073 174.10635135553383 a86.0,86.0 0 0,1 -40.68552437913181,11.842963189579606" fill="none" id="id66" stroke="none" /><text fill="#e1ed5e" style="font-size:6.75px; font-family:Arial;" text-anchor="middle"><textPath startOffset="21.407464694133747" xlink:href="#id66">June</textPath></text><path d="M 110.65571695917076 118.09573695890943 l 7.581091318644229 12.874350443926739 a35.94061059443889,35.94061059443889 0 0,0 -0.5343299684419133,0.30849555111602406 l -7.358968882341917 -13.002592892318935" fill="#ffa90f" stroke="none" /><path d="M 110.34350942703117 118.27599006163325 l 1.553489040977836 2.7448662829629358 a24.15398464038508,24.15398464038508 0 0,0 -0.36260400176522967,0.2011303273684174 l -1.5061408510565117 -2.771129525764497" fill="#ff0000" stroke="none" /><path d="M 109.71004243097381 118.62028667847754 l 14.6384158168292 28.071092476244086 a52.65863942806517,52.65863942806517 0 0,0 -0.8051074124738848,0.41109358142659763 l -14.154381182641734 -28.31824400934352" fill="#87ff25" stroke="none" /><path d="M 109.3889696526874 118.78422872680471 l 5.389161734645652 10.781933525618784 a33.05376102106854,33.05376102106854 0 0,0 -0.5097200823816173,0.2493296346919065 l -5.203281403001966 -10.872856910407915" fill="#ff810b" stroke="none" /><path d="M 109.06512990194946 118.94263497670748 l 5.4793286589029115 11.449689505352735 a33.69324356976023,33.69324356976023 0 0,0 -0.5238678234191911,0.24519659299726884 l -5.281972121612214 -11.542062329920538" fill="#ff8a0c" stroke="none" /><path d="M 108.4095320186766 119.2426549942271 l 9.166705845973024 20.975216889106072 a43.89078896874541,43.89078896874541 0 0,0 -0.6929831497682163,0.2957932993108031 l -8.805287621034378 -21.12948483807628" fill="#eeff19" stroke="none" /><path d="M 107.74402155503746 119.51999308798841 l 5.965438766455655 15.036802604492376 a37.17689377608695,37.17689377608695 0 0,0 -0.5952334705643859,0.2302490934856215 l -5.70643303339774 -15.136991586116038" fill="#ffb911" stroke="none" /><path d="M 107.407793817531 119.65005319985036 l 4.27115170437059 11.329737339191606 a33.108083459277125,33.108083459277125 0 0,0 -0.5335302195504732,0.19591968678251173 l -4.0760323331659905 -11.40138787498284" fill="#ff820c" stroke="none" /><path d="M 107.06938296918513 119.77432235084164 l 2.6008676357093083 7.27508967113088 a28.72602369796232,28.72602369796232 0 0,0 -0.46576406005971843,0.16201691775516536 l -2.4755978036045683 -7.318665021454636" fill="#ff4406" stroke="none" /><path d="M 104.64783097203109 120.47920084513623 l 2.6430956271969825 11.645967017301928 a32.942131395299256,32.942131395299256 0 0,0 -0.5525455597188145,0.12042473300878898 l -2.442787650859032 -11.689623208444434" fill="#ff800b" stroke="none" /><path d="M 103.94208987418118 120.62667999033965 l 1.2283580660237599 6.42728845614851 a27.543615242120026,27.543615242120026 0 0,0 -0.4651792208958887,0.08477114998238779 l -1.117844111576814 -6.447427780062261" fill="#ff3304" stroke="none" /><path d="M 103.58742460773223 120.69131181640829 l 2.5547481145118467 14.735108226612061 a35.95493739132907,35.95493739132907 0 0,0 -0.6090466717340015,0.10021839806438675 l -2.301423939724773 -14.776792623172119" fill="#ffa90f" stroke="none" /><path d="M 103.2317021107853 120.74984581791261 l 1.2291990949111284 7.892339957263499 a28.987487741208017,28.987487741208017 0 0,0 -0.4923385299425658,0.07235680929313941 l -1.0935354593608773 -7.912277839855521" fill="#ff4806" stroke="none" /><path d="M 102.875027216393 120.80226474461374 l 1.6395472230460926 11.862946966425886 a32.975709825510606,32.975709825510606 0 0,0 -0.5614070286435386,0.0726853796181832 l -1.4356623725117785 -11.889343942244462" fill="#ff800b" stroke="none" /><path d="M 102.51750503828377 120.84855314841334 l 0.9937246818382748 8.229465891484015 a29.289245900707336,29.289245900707336 0 0,0 -0.4996802512099714,0.05599021438134368 l -0.8523085290275041 -8.24531186637233" fill="#ff4c07" stroke="none" /><path d="M 102.15924093988457 120.88869738790638 l 0.8528302503653074 8.25035904704813 a29.29431997460594,29.29431997460594 0 0,0 -0.5006544871059591,0.04741250045744226 l -0.711076199874333 -8.263783303010756" fill="#ff4c07" stroke="none" /><path d="M 101.80034050326958 120.92268563240118 l 1.409307020197876 16.378283824413277 a37.43880553173547,37.43880553173547 0 0,0 -0.6407936907945782,0.04960148433003898 l -1.127944334628062 -16.40006307573837" fill="#ffbd11" stroke="none" /><path d="M 101.44090949804482 120.95050786540614 l 0.5234734033927769 7.611188398711065 a28.629168581486027,28.629168581486027 0 0,0 -0.4905889527523585,0.02951261315774514 l -0.3927400985079532 -7.619052989693502" fill="#ff4206" stroke="none" /><path d="M 101.08105385017728 120.97215588758144 l 0.27716368095051785 5.376901365567425 a26.38404011882145,26.38404011882145 0 0,0 -0.45251674200351016,0.019433015961333455 l -0.18482117834617812 -5.38086694995459" fill="#ff2103" stroke="none" /><path d="M 100.72087961077811 120.9876233191556 l 0.7715696335814478 22.46340802540846 a43.47665499613878,43.47665499613878 0 0,0 -0.7461146480641948,0.019217266683273043 l -0.38584167144650916 -22.473343009441777" fill="#f3ff19" stroke="none" /><line stroke="#e1ed5e" stroke-width="0.3" x1="101.45913802915013" x2="101.54496967792366" y1="184.9874750549273" y2="189.98673829345242" /><path d="M 101.47630435890484 185.9873277026323 a86.0,86.0 0 0,1 -42.54439059252881,-10.42667462771756" fill="none" id="id67" stroke="none" /><text fill="#e1ed5e" style="font-size:6.75px; font-family:Arial;" text-anchor="middle"><textPath startOffset="22.145653131862474" xlink:href="#id67">July</textPath></text><path d="M 100.0 121.0 l 1.4664735363019953e-15 11.974665163237361 a32.97466516323736,32.97466516323736 0 0,0 -0.5660539757431899,-0.004858892587772259 l 0.20556105089433635 -11.972900668844025" fill="#ff800b" stroke="none" /><path d="M 99.63950707515114 120.99690560180557 l -0.12818264411941974 7.465996397831613 a28.467096691665915,28.467096691665915 0 0,0 -0.4885315540351033,-0.012582839891217746 l 0.25632751222526695 -7.462695840590348" fill="#ff4006" stroke="none" /><path d="M 99.27912038922189 120.98762331915562 l -0.773541974786733 22.52083058758748 a43.53411142116708,43.53411142116708 0 0,0 -0.7466602604303425,-0.03206480426425028 l 1.1600279958179143 -22.5042332148974" fill="#f3ff19" stroke="none" /><path d="M 98.55909050195518 120.95050786540614 l -0.529863094590468 7.704093106381015 a28.722292761272165,28.722292761272165 0 0,0 -0.49160393140685776,-0.038053253411447524 l 0.6620360207725619 -7.693862085974515" fill="#ff4406" stroke="none" /><path d="M 98.19965949673042 120.92268563240118 l -0.8742406674154011 10.160001743100292 a31.197545398985184,31.197545398985184 0 0,0 -0.5331815554767424,-0.05049284765042094 l 1.0485217862771588 -10.143497139944687" fill="#ff6709" stroke="none" /><path d="M 97.48249496171623 120.84855314841334 l -2.2482251623672265 18.61852948630721 a39.75377712923965,39.75377712923965 0 0,0 -0.6768027136816046,-0.08762566134846031 l 2.5675056979396254 -18.577192228758353" fill="#ffdb14" stroke="none" /><path d="M 97.12497278360702 120.80226474461374 l -1.4755638966227373 10.676445304629231 a31.777929910504895,31.777929910504895 0 0,0 -0.5397328473731298,-0.07932214184247659 l 1.658621849603552 -10.649542089487873" fill="#ff6f0a" stroke="none" /><path d="M 96.76829788921471 120.74984581791261 l -1.4141002927947872 9.079538286846262 a30.18899859290388,30.18899859290388 0 0,0 -0.5113764742759676,-0.08414680424053815 l 1.5697542701238185 -9.053925484110055" fill="#ff5908" stroke="none" /><path d="M 96.41257539226777 120.69131181640829 l -2.8136926863476734 16.228631705118964 a37.470742349803146,37.470742349803146 0 0,0 -0.6328367056920294,-0.11532392867690841 l 3.0918641255907597 -16.17793960251069" fill="#ffbd11" stroke="none" /><path d="M 96.05791012581884 120.62667999033965 l -1.4210427828370271 7.435496315326776 a28.570070544314053,28.570070544314053 0 0,0 -0.48093430219254624,-0.09620032978919316 l 1.5484735705605313 -7.4100065888747215" fill="#ff4206" stroke="none" /><path d="M 95.70440661134978 120.55596938700252 l -3.5238954182597437 16.86311524087417 a38.22737631056554,38.22737631056554 0 0,0 -0.6411961262202132,-0.1397457113683685 l 3.8128539610990932 -16.800138071372082" fill="#ffc712" stroke="none" /><path d="M 95.00130118170881 120.39639698878247 l -5.030196306972011 20.52491749114459 a42.13232388794398,42.13232388794398 0 0,0 -0.7009909976457886,-0.17818917039758833 l 5.381792597843178 -20.435543088911736" fill="#fffa17" stroke="none" /><path d="M 94.6519064749342 120.30758222061772 l -3.3690838041539575 12.792959966078032 a34.229155315933355,34.229155315933355 0 0,0 -0.5669303261512701,-0.1545193814197055 l 3.5881955312399225 -12.733240090514181" fill="#ff920d" stroke="none" /><path d="M 94.30408787586889 120.21278271476187 l -3.5197063120075005 12.49019601320412 a33.97664552074401,33.97664552074401 0 0,0 -0.5600321742792793,-0.1630172039363398 l 3.7335984986683863 -12.427935114965264" fill="#ff8e0d" stroke="none" /><path d="M 93.95794788825049 120.11202640906438 l -2.227844445889265 7.415769593228212 a28.743186006737005,28.743186006737005 0 0,0 -0.4713326353587081,-0.14602005526223247 l 2.3548177141196063 -7.37643295015933" fill="#ff4406" stroke="none" /><path d="M 93.61358852112213 120.00534299687104 l -3.202388704023888 10.031437004206271 a31.530195714278946,31.530195714278946 0 0,0 -0.5142083385551002,-0.16903049435845013 l 3.374119780226732 -9.974985588445799" fill="#ff6c09" stroke="none" /><path d="M 93.27111125876986 119.89276391827306 l -5.58374742768587 16.50735710305611 a38.42616061741672,38.42616061741672 0 0,0 -0.6230421853667283,-0.2167264139951398 l 5.86629538509762 -16.409072256492376" fill="#ffca12" stroke="none" /><path d="M 92.59220618246901 119.65005319985036 l -2.672674508266553 7.08958666601036 a28.576636992888716,28.576636992888716 0 0,0 -0.4575360953172723,-0.1769847906635102 l 2.7939828660773536 -7.04266198720881" fill="#ff4206" stroke="none" /><path d="M 92.25597844496254 119.51999308798841 l -4.434523929280605 11.177897147221701 a33.0254059022234,33.0254059022234 0 0,0 -0.5251755699248756,-0.21358433229349644 l 4.6257539603959215 -11.100125558348912" fill="#ff810b" stroke="none" /><path d="M 91.26138138417905 119.09545874513695 l -1.894589384228199 4.140019723484092 a25.55293666172367,25.55293666172367 0 0,0 -0.39730105779903585,-0.18595695595639333 l 1.9653791558987246 -4.106886535957172" fill="#ff1502" stroke="none" /><path d="M 90.6110303473126 118.78422872680471 l -6.727694755467089 13.45989621498523 a36.04761385871239,36.04761385871239 0 0,0 -0.5511384539148934,-0.28141522158590304 l 6.957760431095565 -13.34242304172649" fill="#ffaa0f" stroke="none" /><path d="M 89.97174638481275 118.45085714620012 l -9.413415952226385 17.319625096961335 a40.71247862114055,40.71247862114055 0 0,0 -0.6111831190421418,-0.3390129734271011 l 9.70934325942463 -17.155479208101088" fill="#ffe815" stroke="none" /><line stroke="#e1ed5e" stroke-width="0.3" x1="58.13341422392154" x2="55.67067388415222" y1="173.97424548756322" y2="178.32567169271397" /><path d="M 57.64086615596768 174.84453072859336 a86.0,86.0 0 0,1 -31.369924170532247,-30.572349798747897" fill="none" id="id68" stroke="none" /><text fill="#e1ed5e" style="font-size:6.75px; font-family:Arial;" text-anchor="middle"><textPath startOffset="22.145653131862474" xlink:href="#id68">August</textPath></text><path d="M 89.03521579738668 117.91015095944536 l -3.1550514208151688 5.153539384582176 a27.042625063366703,27.042625063366703 0 0,0 -0.39383832362228144,-0.2457842420967751 l 3.2430538732271628 -5.098619345643853" fill="#ff2b04" stroke="none" /><path d="M 88.1277618465304 117.32195027204791 l -6.510542295916351 9.499075779655731 a32.51605842528414,32.51605842528414 0 0,0 -0.45770983267593507,-0.31951701074479505 l 6.672647219766051 -9.385913953105808" fill="#ff7a0b" stroke="none" /><path d="M 87.83215693770417 117.11559508785305 l -7.004783626617792 9.853105403924554 a33.08927953835877,33.08927953835877 0 0,0 -0.4601284751545395,-0.3330975319157169 l 7.172893112146285 -9.731407100635773" fill="#ff820b" stroke="none" /><path d="M 87.54013794807813 116.9041958592261 l -4.458231946664526 6.0484478638872 a28.513957256494198,28.513957256494198 0 0,0 -0.3915197309160127,-0.2938037051291674 l 4.561404666491305 -5.971025131494018" fill="#ff4106" stroke="none" /><path d="M 87.2517909369889 116.68781488649013 l -5.896785801848151 7.719081903986457 a30.71371752900655,30.71371752900655 0 0,0 -0.41622945581133014,-0.3236625423802457 l 6.02842520229471 -7.616718309985418" fill="#ff6008" stroke="none" /><path d="M 86.68645165197938 116.24036423190432 l -12.356975894547615 15.073501375172556 a40.49115945668086,40.49115945668086 0 0,0 -0.5337615322453645,-0.4452828540858144 l 12.613911760954872 -14.859156337174872" fill="#ffe515" stroke="none" /><path d="M 86.40962598614128 116.0094264158162 l -4.8765486209114 5.744562013526539 a28.535298214361855,28.535298214361855 0 0,0 -0.37071499542686,-0.3202147836230144 l 4.9744430961011235 -5.6600030974388025" fill="#ff4106" stroke="none" /><path d="M 86.13680546590413 115.77377054828092 l -15.820447224473394 18.00076482200978 a44.96485102310575,44.96485102310575 0 0,0 -0.5754108587421641,-0.5145359380466706 l 16.12712311003893 -17.72653335407973" fill="#e1ff1b" stroke="none" /><path d="M 85.60350026404147 115.28858382429668 l -16.545474342757334 17.570720386301844 a45.13468326124137,45.13468326124137 0 0,0 -0.5595142806978748,-0.5360020241834891 l 16.844661109320523 -17.28410623181277" fill="#dfff1b" stroke="none" /><path d="M 85.34317274990678 115.03919595460226 l -14.346084985833134 14.720347016572081 a41.554774888308785,41.554774888308785 0 0,0 -0.5065884823136945,-0.5022586922428998 l 14.59666538827679 -14.47190831410052" fill="#fff216" stroke="none" /><path d="M 85.08716467003676 114.78537596483092 l -5.780293059037787 5.730889141722115 a29.13970995816613,29.13970995816613 0 0,0 -0.3491397921957996,-0.35824818432982275 l 5.877819652384396 -5.630818265324555" fill="#ff4a06" stroke="none" /><path d="M 84.83555147118756 114.52719865689866 l -6.637468193502394 6.358544383770395 a30.191684867320788,30.191684867320788 0 0,0 -0.35531898974437065,-0.3773364539091925 l 6.745643016983017 -6.243666469916713" fill="#ff5908" stroke="none" /><path d="M 84.58840730492382 114.26474011684316 l -5.499378597015005 5.0901427284417835 a28.493511723432178,28.493511723432178 0 0,0 -0.3291710216758808,-0.361816615097441 l 5.585947319532766 -4.994988537786668" fill="#ff4006" stroke="none" /><path d="M 84.3458050057657 113.99807769240083 l -9.54601596315198 8.536106337906004 a33.805917857802754,33.805917857802754 0 0,0 -0.3831159248991283,-0.43591559491489046 l 9.6911429520097 -8.370978465179814" fill="#ff8c0c" stroke="none" /><path d="M 83.8745106332314 113.45245675266167 l -6.327103790522908 5.278295013298408 a29.239699061462147,29.239699061462147 0 0,0 -0.31822982023821056,-0.38818863724563324 l 6.416780429999749 -5.168904094354279" fill="#ff4b07" stroke="none" /><path d="M 83.64595745247003 113.17365903436017 l -9.337408050913567 7.521554965380924 a32.99003662240078,32.99003662240078 0 0,0 -0.3514751736569203,-0.44407740012747593 l 9.465149655212048 -7.360157621338767" fill="#ff800b" stroke="none" /><path d="M 83.20337586046588 112.60449989151573 l -19.743849846430713 14.8161530067042 a45.68477256683707,45.68477256683707 0 0,0 -0.4653276470389751,-0.6313063219705851 l 19.995279513053518 -14.475040375464735" fill="#d8ff1c" stroke="none" /><path d="M 82.78059297857968 112.02048342749411 l -9.838956067876456 6.868355467213775 a32.999140107924745,32.999140107924745 0 0,0 -0.32026492525067174,-0.4672760971739784 l 9.955410729942452 -6.6984446349697455" fill="#ff810b" stroke="none" /><path d="M 82.37810715431573 111.42229804090323 l -9.208095012509785 5.968575938061047 a31.973281755601143,31.973281755601143 0 0,0 -0.2945840171604537,-0.46313500408094155 l 9.30919672129613 -5.8096272593014335" fill="#ff720a" stroke="none" /><path d="M 82.18462484594161 111.11811171558189 l -8.471066428554757 5.28657196878238 a30.98532972004946,30.98532972004946 0 0,0 -0.2777348421535884,-0.4536589920741847 l 8.560569235163749 -5.140375860583638" fill="#ff6409" stroke="none" /><path d="M 81.99639281039703 110.81064883170644 l -23.557974145962888 14.145886599075522 a48.478796435356486,48.478796435356486 0 0,0 -0.42228792234732815,-0.7171372131037085 l 23.797335778439987 -13.739398217678255" fill="#b7ff1f" stroke="none" /><line stroke="#e1ed5e" stroke-width="0.3" x1="26.387840678322732" x2="22.057713659400548" y1="142.50000000000003" y2="145.00000000000006" /><path d="M 25.521815274538298 143.00000000000003 a86.0,86.0 0 0,1 -11.493303480769221,-40.785679425670985" fill="none" id="id69" stroke="none" /><text fill="#e1ed5e" style="font-size:6.75px; font-family:Arial;" text-anchor="middle"><textPath startOffset="21.40746469413373" xlink:href="#id69">September</textPath></text><path d="M 81.81346652052679 110.50000000000001 l -9.441750130116848 5.451196979244153 a31.902393958488297,31.902393958488297 0 0,0 -0.26975241633195607,-0.4766266724812566 l 9.533935911470182 -5.288313536663775" fill="#ff710a" stroke="none" /><path d="M 81.63589988554817 110.18625677009913 l -6.591040863921073 3.655939262130304 a28.537089063973127,28.537089063973127 0 0,0 -0.23394250432402353,-0.43042785846279574 l 6.652828717860426 -3.5422565701929214" fill="#ff4106" stroke="none" /><path d="M 81.4637452351635 109.86951160357371 l -15.625532426815413 8.319715905665177 a38.70239916995541,38.70239916995541 0 0,0 -0.3072084596639138,-0.5891127283593056 l 15.766048955454277 -8.050256934201368" fill="#ffce13" stroke="none" /><path d="M 81.29705330413844 109.54985784667822 l -9.216610599634683 4.7060670431239995 a31.348573716202452,31.348573716202452 0 0,0 -0.24060789677456057,-0.4813769703894082 l 9.29603840962098 -4.547158216570838" fill="#ff6909" stroke="none" /><path d="M 80.9802524753101 108.90220220490708 l -13.5375569098097 6.33626018511136 a35.94702780554595,35.94702780554595 0 0,0 -0.25679107681519786,-0.5611348462520427 l 13.644332451479954 -6.102936356644628" fill="#ffa90f" stroke="none" /><path d="M 80.83023694016515 108.57439118712176 l -25.678416794244573 11.485629215789961 a49.13006874398905,49.13006874398905 0 0,0 -0.337748442895676,-0.7728345343171228 l 25.871799119157217 -11.043132611696988" fill="#afff20" stroke="none" /><path d="M 80.68587082218212 108.24405325689762 l -13.73747897332496 5.863712892718548 a35.936581182813526,35.936581182813526 0 0,0 -0.23730833551298533,-0.5694536161649775 l 13.83611315337443 -5.627026767112289" fill="#ffa90f" stroke="none" /><path d="M 80.41425534168474 107.57618678355246 l -16.825759301983904 6.508565156485124 a39.04072050901821,39.04072050901821 0 0,0 -0.23641817764397957,-0.6271273043698491 l 16.935008163442323 -6.21876957192113" fill="#ffd213" stroke="none" /><path d="M 80.28708602549918 107.23885506374661 l -7.174466630332475 2.634563523375716 a28.642898428505777,28.642898428505777 0 0,0 -0.1655284420348603,-0.46301251259093096 l 7.2186352424112785 -2.5110160544038638" fill="#ff4306" stroke="none" /><path d="M 80.16572619554312 106.89939002012753 l -14.79317726605171 5.1458349623287045 a36.66262146271669,36.66262146271669 0 0,0 -0.20166986963417127,-0.5962011351859721 l 14.879332557258248 -4.891132152668571" fill="#ffb310" stroke="none" /><path d="M 79.94057633289273 106.21446072829308 l -29.042937429664846 8.997576255736616 a51.40474622523961,51.40474622523961 0 0,0 -0.2538994975124466,-0.8451488508827114 l 29.19311324718092 -8.497689801263181" fill="#95ff23" stroke="none" /><path d="M 79.64726062577567 105.17358676015961 l -14.541872361821603 3.6964870888255255 a36.00433499310665,36.00433499310665 0 0,0 -0.14712481151878332,-0.6003194374616702 l 14.60318469985668 -3.4463118267557555" fill="#ffaa0f" stroke="none" /><path d="M 79.407916724674 104.11899336999214 l -13.241300851491648 2.648631014556827 a34.50360301886077,34.50360301886077 0 0,0 -0.11118984504337488,-0.5817922536232089 l 13.28481698881718 -2.4209361959003033" fill="#ff950d" stroke="none" /><path d="M 79.22317932658666 103.0534771498775 l -7.500988121531967 1.1023869431529134 a28.581561829319714,28.581561829319714 0 0,0 -0.06717413341395992,-0.48603856662629613 l 7.518806771501139 -0.9734600683265316" fill="#ff4206" stroke="none" /><path d="M 79.17382384314188 102.69636545807758 l -7.418017286610936 0.9604108516317096 a28.479931113880035,28.479931113880035 0 0,0 -0.058611581248116905,-0.4853879726877943 l 7.433410954118714 -0.832929202020516" fill="#ff4006" stroke="none" /><path d="M 79.13060592940153 102.33845913500099 l -17.820698446478527 1.9968464313478014 a38.93222487006865,38.93222487006865 0 0,0 -0.06872021101424877,-0.664805703612886 l 17.852351049974445 -1.690636205451984" fill="#ffd113" stroke="none" /><path d="M 79.0935383218832 101.97986365728391 l -10.071597011682165 0.9537907084062327 a31.116658691542735,31.116658691542735 0 0,0 -0.04579539018602109,-0.5322118513332058 l 10.086486024565927 -0.7807578096973647" fill="#ff6609" stroke="none" /><path d="M 79.06263194458094 101.62068470465958 l -13.5348980103651 1.0476867066798567 a34.57538624077926,34.57538624077926 0 0,0 -0.04072657603736931,-0.5921554773285571 l 13.550888547567537 -0.8151878051969563" fill="#ff960d" stroke="none" /><path d="M 79.03789590574601 101.26102812881392 l -13.59051407775665 0.8175715786942617 a34.61508340716245,34.61508340716245 0 0,0 -0.03059052042214762,-0.5934479238664562 l 13.60254618763537 -0.5841518614510747" fill="#ff970d" stroke="none" /><path d="M 79.00696218219943 100.54070618675478 l -33.40184838940927 0.8603131299980006 a54.41292585977363,54.41292585977363 0 0,0 -0.01603514826666301,-0.9339669970144147 l 33.41169496927459 -0.28679921701453354" fill="#74ff27" stroke="none" /><line stroke="#e1ed5e" stroke-width="0.3" x1="15.003131293944662" x2="10.003315487706104" y1="100.72959589197737" y2="100.7725132973878" /><path d="M 14.003168132696942 100.73817937305945 a86.0,86.0 0 0,1 10.791469493833604,-42.45332614584628" fill="none" id="id70" stroke="none" /><text fill="#e1ed5e" style="font-size:6.75px; font-family:Arial;" text-anchor="middle"><textPath startOffset="22.145653131862435" xlink:href="#id70">October</textPath></text><path d="M 79.00077361379809 99.81974689727619 l -25.49090970374723 -0.2188088018505364 a46.491848791650284,46.491848791650284 0 0,0 0.013700856492933521,-0.7980062037738491 l 25.48339741565563 0.6563619215934379" fill="#cfff1d" stroke="none" /><path d="M 79.00696218219943 99.45929381324524 l -21.03774448563162 -0.5418576719326206 a42.04472149445927,42.04472149445927 0 0,0 0.02477698041067536,-0.7213547505999612 l 21.025342818224093 0.9029186870967203" fill="#fff917" stroke="none" /><path d="M 79.01933749520258 99.09900007780938 l -14.93371138765739 -0.6413178227913371 a35.94747551794877,35.94747551794877 0 0,0 0.03176800041247524,-0.6162907211124593 l 14.920501797788344 0.8975803372805083" fill="#ffa90f" stroke="none" /><path d="M 79.03789590574601 98.7389718711861 l -15.65133958390791 -0.9415457236631418 a36.679634534023776,36.679634534023776 0 0,0 0.04320518401356575,-0.6281938933227507 l 15.632870438729281 1.2100830411402175" fill="#ffb310" stroke="none" /><path d="M 79.0935383218832 98.0201363427161 l -14.866187685154188 -1.4078434301011558 a35.93270100865577,35.93270100865577 0 0,0 0.06342567895536085,-0.6135859087554371 l 14.839829613717164 1.6628338611395055" fill="#ffa90f" stroke="none" /><path d="M 79.13060592940154 97.66154086499901 l -24.12844173351635 -2.70364222335385 a45.279443604819186,45.279443604819186 0 0,0 0.09318490894872802,-0.7717047224549268 l 24.078474738307953 3.117440622732213" fill="#ddff1b" stroke="none" /><path d="M 79.22317932658666 96.9465228501225 l -14.828338157340504 -2.1792550672603537 a35.987620396734776,35.987620396734776 0 0,0 0.09507330862406163,-0.6104388423562728 l 14.788743356578173 2.4334820915480764" fill="#ffa90f" stroke="none" /><path d="M 79.407916724674 95.88100663000787 l -21.987958292516097 -4.398207467190009 a43.423526457671045,43.423526457671045 0 0,0 0.1524833450032065,-0.7296880054326137 l 21.909217236688523 4.775011923908032" fill="#f4ff19" stroke="none" /><path d="M 79.48165901384962 95.52812308129327 l -7.352843773724865 -1.6025180778880195 a28.525448541499863,28.525448541499863 0 0,0 0.10838195060988232,-0.47755087219909265 l 7.32425096155732 1.7285032840261203" fill="#ff4106" stroke="none" /><path d="M 79.56144815229197 95.17655741523228 l -21.84449933295151 -5.15524236308865 a43.44456894060349,43.44456894060349 0 0,0 0.1775279009631615,-0.7243744174744472 l 21.75278390547205 5.5294726051712155" fill="#f4ff19" stroke="none" /><path d="M 79.64726062577567 94.8264132398404 l -4.717068662582932 -1.1990604080750615 a25.867081531034287,25.867081531034287 0 0,0 0.11308905644908339,-0.42941756746177295 l 4.695790125329123 1.279858479909619" fill="#ff1a02" stroke="none" /><path d="M 79.73907114497095 94.47779374421319 l -11.816435415796924 -3.2206220179297427 a33.24747125402112,33.24747125402112 0 0,0 0.15480894637738915,-0.5493623369241752 l 11.759407977344953 3.4229922787569307" fill="#ff840c" stroke="none" /><path d="M 79.83685265289637 94.1308016681162 l -7.2284242731566115 -2.104088957731758 a28.528433290851982,28.528433290851982 0 0,0 0.14090828978372044,-0.4690378687524637 l 7.191239663369262 2.2278644300749453" fill="#ff4106" stroke="none" /><path d="M 80.05021161711548 93.44210830539832 l -37.91748046649121 -12.464228966195728 a60.913560711223134,60.913560711223134 0 0,0 0.3350668707658615,-0.990565665938057 l 37.697928174152985 13.113296306607946" fill="#30ff2f" stroke="none" /><path d="M 80.28708602549916 92.7611449362534 l -27.526848097044095 -10.108239907809816 a50.32411772230461,50.32411772230461 0 0,0 0.30474683992320484,-0.8083771989989201 l 27.349270573306455 10.579285387002882" fill="#a2ff22" stroke="none" /><path d="M 80.41425534168474 92.42381321644754 l -8.22664744919808 -3.182243961865336 a29.820680522852285,29.820680522852285 0 0,0 0.18878098962474568,-0.47585141472412024 l 8.170807784607202 3.322996393803039" fill="#ff5407" stroke="none" /><path d="M 80.5471966667186 92.08871423366112 l -11.073618407417149 -4.503544203245153 a32.95436886764295,32.95436886764295 0 0,0 0.21761520340732143,-0.522197268144404 l 10.99467735947335 4.69297398083082" fill="#ff800b" stroke="none" /><path d="M 80.68587082218212 91.75594674310238 l -7.7817713805393245 -3.3215754696229025 a29.461018225921837,29.461018225921837 0 0,0 0.2025320396715911,-0.46343294204983254 l 7.723605458850756 3.454670481448602" fill="#ff4e07" stroke="none" /><path d="M 80.83023694016515 91.42560881287825 l -20.462003060672767 -9.152393702867299 a43.41561687188793,43.41561687188793 0 0,0 0.31014366660402515,-0.6777198835500698 l 20.301874929213696 9.502302568632041" fill="#f4ff19" stroke="none" /><path d="M 80.9802524753101 91.09779779509293 l -10.852374738294465 -5.079459346046073 a32.982276274085265,32.982276274085265 0 0,0 0.2444155384735509,-0.5107344713222775 l 10.763579941861009 5.2650063194334376" fill="#ff800b" stroke="none" /><path d="M 81.29705330413844 90.45014215332179 l -12.26364920478048 -6.26190666592107 a34.769842661069866,34.769842661069866 0 0,0 0.2759929626005357,-0.5292528968227086 l 12.154348173205005 6.471505805848265" fill="#ff990e" stroke="none" /><path d="M 81.46374523516351 90.13048839642627 l -19.83176309745539 -10.559296820896265 a43.46770074808242,43.46770074808242 0 0,0 0.3563412773957472,-0.6556278148536556 l 19.647576470444292 10.89817946922454" fill="#f4ff19" stroke="none" /><path d="M 81.63589988554816 89.8137432299009 l -10.492236502785184 -5.819866720606079 a32.99824468311911,32.99824468311911 0 0,0 0.27901844136109344,-0.4929988508543723 l 10.390784696402722 5.9991223415595565" fill="#ff800b" stroke="none" /><line stroke="#e1ed5e" stroke-width="0.3" x1="26.387840678322718" x2="22.05771365940052" y1="57.49999999999999" y2="54.99999999999999" /><path d="M 25.521815274538284 56.99999999999999 a86.0,86.0 0 0,1 29.574782752854787,-30.34633250058573" fill="none" id="id71" stroke="none" /><text fill="#e1ed5e" style="font-size:6.75px; font-family:Arial;" text-anchor="middle"><textPath startOffset="21.40746469413373" xlink:href="#id71">November</textPath></text><path d="M 81.99639281039701 89.18935116829357 l -15.5891434319642 -9.360832718422806 a39.18369000298475,39.18369000298475 0 0,0 0.3512202728290803,-0.5736919204380763 l 15.426155194679726 9.627061754985426" fill="#ffd413" stroke="none" /><path d="M 82.18462484594161 88.88188828441811 l -19.040876945141804 -11.882915470938523 a43.44456894060349,43.44456894060349 0 0,0 0.4002740707117204,-0.6292973229148228 l 18.834085182804195 12.208026468532017" fill="#f4ff19" stroke="none" /><path d="M 82.576782715395 88.27688183743585 l -12.467696138578107 -8.388822377635265 a36.027168325650365,36.027168325650365 0 0,0 0.3496526980118956,-0.5101537358968321 l 12.321853703750898 8.601610848602132" fill="#ffaa0f" stroke="none" /><path d="M 82.78059297857968 87.97951657250589 l -12.269112014196349 -8.564793053167024 a35.962846977112186,35.962846977112186 0 0,0 0.3577188451140839,-0.5031763540112498 l 12.120278070552292 8.774146633887794" fill="#ffa90f" stroke="none" /><path d="M 82.98947788004972 87.6856937992154 l -16.330497741426555 -11.822020992718102 a41.16048949889375,41.16048949889375 0 0,0 0.41924502746451475,-0.5687863980944844 l 16.125150694378224 12.10061370008145" fill="#ffed16" stroke="none" /><path d="M 83.8745106332314 86.54754324733833 l -5.849350843651035 -4.879736513145523 a28.61752805901276,28.61752805901276 0 0,0 0.3179345178645414,-0.3745260626094557 l 5.764721762279379 4.979429358204535" fill="#ff4206" stroke="none" /><path d="M 84.10781606972428 86.27271002978789 l -9.762858923230974 -8.432925013040627 a33.90068364973256,33.90068364973256 0 0,0 0.38418988727981856,-0.4371375669595609 l 9.616657971992563 8.599274857811489" fill="#ff8d0d" stroke="none" /><path d="M 84.34580500576568 86.00192230759919 l -6.907342250254712 -6.176588032963716 a30.266154363656177,30.266154363656177 0 0,0 0.34964945882371345,-0.38432600481708246 l 6.800295090589133 6.2942516133384565" fill="#ff5a08" stroke="none" /><path d="M 84.58840730492382 85.73525988315684 l -12.937865336708063 -11.975095004542736 a38.62927281082848,38.62927281082848 0 0,0 0.45461902010506267,-0.4827896450159635 l 12.730390482866728 12.19542610950321" fill="#ffcd13" stroke="none" /><path d="M 84.83555147118756 85.47280134310135 l -10.815589053077462 -10.361089654325792 a35.97762148640518,35.97762148640518 0 0,0 0.43106878234190604,-0.44231454576982243 l 10.636133469584754 10.545226892163345" fill="#ffa90f" stroke="none" /><path d="M 85.08716467003674 85.21462403516908 l -12.743520941239014 -12.634602613316666 a38.945208529750374,38.945208529750374 0 0,0 0.47477562170662163,-0.4707177347934962 l 12.524753399402416 12.851500358338836" fill="#ffd113" stroke="none" /><path d="M 85.60350026404147 84.71141617570332 l -8.893243613926424 -9.444316532149932 a33.97246687165104,33.97246687165104 0 0,0 0.42800492044104105,-0.39615496461778327 l 8.72980892217143 9.59558924290008" fill="#ff8e0d" stroke="none" /><path d="M 85.86807049272753 84.46653392183569 l -10.057683912898506 -11.05515646716957 a35.9456846683375,35.9456846683375 0 0,0 0.4599934573885948,-0.4113289860572953 l 9.86642542868652 11.226180983110266" fill="#ffa90f" stroke="none" /><path d="M 86.13680546590413 84.22622945171909 l -3.0041530010578237 -3.4181746504436594 a25.550698099709578,25.550698099709578 0 0,0 0.33194070228500777,-0.28672247270568235 l 2.9450328190099677 3.4692412556140524" fill="#ff1502" stroke="none" /><path d="M 86.68645165197937 83.75963576809568 l -8.139302211096428 -9.928625265510272 a33.83845162574086,33.83845162574086 0 0,0 0.45238662982371597,-0.36441064621670616 l 7.9676648109174675 10.066884205520376" fill="#ff8c0c" stroke="none" /><path d="M 87.25179093698888 83.31218511350988 l -19.221878307390305 -25.162055734956965 a52.66401197689899,52.66401197689899 0 0,0 0.7231195450241507,-0.5426423876067481 l 18.7871057734554 25.48831714982771" fill="#87ff25" stroke="none" /><path d="M 87.54013794807813 83.09580414077388 l -8.889722825027944 -12.06061633285308 a35.98284479777139,35.98284479777139 0 0,0 0.5003654277007394,-0.36222598257386074 l 8.681376386953238 12.21144308680002" fill="#ffa90f" stroke="none" /><path d="M 87.83215693770416 82.88440491214696 l -7.812512389023969 -10.989277062893018 a34.48330672326635,34.48330672326635 0 0,0 0.48540165428372534,-0.3388480528822829 l 7.622715643566479 11.121769931580427" fill="#ff950d" stroke="none" /><path d="M 88.12776184653039 82.6780497279521 l -9.300172061255736 -13.569228976381448 a37.45044605420873,37.45044605420873 0 0,0 0.5334079727255853,-0.35890068929124497 l 9.065867800433162 13.726879339729802" fill="#ffbd11" stroke="none" /><path d="M 88.4268655584334 82.4767994020092 l -6.258927746355479 -9.476814339406497 a32.357120522283765,32.357120522283765 0 0,0 0.46611875508485157,-0.3021325455589674 l 6.095323359013601 9.58286072666937" fill="#ff780b" stroke="none" /><line stroke="#e1ed5e" stroke-width="0.3" x1="56.869717070023135" x2="54.33264160355391" y1="26.7553504044142" y2="22.446841604673864" /><path d="M 56.362301976729285 25.89364864446614 a86.0,86.0 0 0,1 42.16139366436587,-11.88097634709845" fill="none" id="id72" stroke="none" /><text fill="#e1ed5e" style="font-size:6.75px; font-family:Arial;" text-anchor="middle"><textPath startOffset="22.145653131862474" xlink:href="#id72">December</textPath></text><path d="M 89.34428304082924 81.90426304109057 l -16.498053422822828 -28.01730153093992 a53.513919354915124,53.513919354915124 0 0,0 0.795592795091221,-0.45933571441124077 l 16.014668159871206 28.296384142627335" fill="#7eff26" stroke="none" /><path d="M 89.97174638481275 81.54914285379989 l -8.234102107081926 -15.149820450782151 a38.24289700719656,38.24289700719656 0 0,0 0.5794913116386936,-0.3085464834696682 l 7.972821979656671 15.288937401974396" fill="#ffc812" stroke="none" /><path d="M 90.28995756902619 81.37971332152246 l -6.051864577287948 -11.605248295204767 a34.0884243839809,34.0884243839809 0 0,0 0.5211840535414863,-0.2661202913216925 l 5.85175330203288 11.707426538199293" fill="#ff900d" stroke="none" /><path d="M 91.5904679813234 80.7573450057729 l -25.22859605602979 -57.7279649826813 a84.0,84.0 0 0,0 1.3262596993182754,-0.5661014013623844 l 24.233901281541083 58.15254103370309" fill="#4dd2ff" stroke="none" /><path d="M 91.92203290615298 80.6158196554323 l -3.3446143193708973 -8.025856802399193 a29.694873337660432,29.694873337660432 0 0,0 0.47221287983936305,-0.19204486731038667 l 3.2063469783410934 8.082088926288872" fill="#ff5207" stroke="none" /><path d="M 92.25597844496254 80.48000691201159 l -5.722632085112054 -14.424771154442828 a36.5184580690093,36.5184580690093 0 0,0 0.584691358750853,-0.22617117816579163 l 5.474168463867672 14.52088222074666" fill="#ffb110" stroke="none" /><path d="M 92.592206182469 80.34994680014964 l -4.224140765886831 -11.20503523962795 a32.97481440070497,32.97481440070497 0 0,0 0.5313826150185847,-0.1951310566509799 l 4.0311689992141195 11.275897145287653" fill="#ff800b" stroke="none" /><path d="M 92.93061703081487 80.22567764915836 l -4.045637801205315 -11.316368959567843 a33.01779479137549,33.01779479137549 0 0,0 0.5353508831555179,-0.18622282705806179 l 3.8507811460047927 11.38415021919449" fill="#ff810b" stroke="none" /><path d="M 93.95794788825049 79.88797359093562 l -3.442735662078739 -11.459747329969066 a32.965710915181006,32.965710915181006 0 0,0 0.5433690841910337,-0.15816682126212908 l 3.245506565506081 11.517157845533715" fill="#ff800b" stroke="none" /><path d="M 94.30408787586887 79.78721728523814 l -3.245547043768038 -11.517301488605408 a32.96586015264861,32.96586015264861 0 0,0 0.5460066331084559,-0.14881653583735632 l 3.047359009724904 11.571318518586905" fill="#ff800b" stroke="none" /><path d="M 94.6519064749342 79.69241777938228 l -3.816305972617825 -14.49113538399038 a35.98523259725309,35.98523259725309 0 0,0 0.5987166567397051,-0.15219143287996045 l 3.5669840226527416 14.554512048705604" fill="#ffa90f" stroke="none" /><path d="M 95.35216902796891 79.52079915486377 l -2.6745732409823533 -11.784663191649765 a33.084354701927765,33.084354701927765 0 0,0 0.554931102282045,-0.12094465090733307 l 2.4718797220811903 11.828839300690813" fill="#ff820b" stroke="none" /><path d="M 96.41257539226777 79.30868818359171 l -5.380372085650216 -31.032556411788246 a52.495522875971815,52.495522875971815 0 0,0 0.889230403617868,-0.14632252452346714 l 4.846864178979275 31.120344934807385" fill="#89ff24" stroke="none" /><path d="M 96.76829788921471 79.25015418208739 l -2.7681898005852306 -17.77376428513212 a38.988039682953286,38.988039682953286 0 0,0 0.6621930922133692,-0.09731958068385244 l 2.4626716027641766 17.818664939114857" fill="#ffd113" stroke="none" /><path d="M 97.48249496171623 79.15144685158666 l -1.832282754041254 -15.173929664344225 a36.28415524486789,36.28415524486789 0 0,0 0.6190147697609154,-0.06936189609296314 l 1.5715320826795394 15.20314732094416" fill="#ffad10" stroke="none" /><path d="M 97.84075906011542 79.11130261209362 l -1.6924947093237102 -16.37335100527753 a37.460594202005936,37.460594202005936 0 0,0 0.6402201721407945,-0.060629515936136934 l 1.4111749737979 16.39999227671885" fill="#ffbd11" stroke="none" /><path d="M 98.1996594967304 79.07731436759882 l -1.2820814681530035 -14.899730059161932 a35.95478815386146,35.95478815386146 0 0,0 0.6153936023231684,-0.047635356840962775 l 1.0261188710546179 14.919543182997948" fill="#ffa90f" stroke="none" /></svg>