<?xml version="1.0" encoding="utf-8" ?>
<svg baseProfile="full" height="200mm" version="1.1" viewBox="0,0,200,200" width="200mm" xmlns="http://www.w3.org/2000/svg" xmlns:ev="http://www.w3.org/2001/xml-events" xmlns:xlink="http://www.w3.org/1999/xlink"><defs /><rect fill="#1a1a1a" height="200" width="200" x="0" y="0" /><text alignment-baseline="middle" fill="#e1ed5e" style="dominant-baseline: central; font-size:9.0px; font-family:Arial;" text-anchor="middle" x="100.0" y="100.0">2025</text><line stroke="#e1ed5e" stroke-width="0.3" x1="100.0" x2="100.0" y1="15.0" y2="10.0" /><path d="M 100.0 14.0 a86.0,86.0 0 0,1 42.46469731375804,11.215312516191453" fill="none" id="id73" stroke="none" /><text fill="#e1ed5e" style="font-size:6.75px; font-family:Arial;" text-anchor="middle"><textPath startOffset="22.20632615414155" xlink:href="#id73">January</textPath></text><path d="M 100.0 79.0 l 0.0 -15.000389109409063 a36.00038910940906,36.00038910940906 0 0,0 0.6196875194888904,0.005333846122572991 l -0.25820704021636204 14.998166639895048" fill="#ffba11" stroke="none" /><path d="M 101.08401301168833 79.027996857942 l 0.8442320242938204 -16.333048104782822 a37.35485212724325,37.35485212724325 0 0,0 0.6418594432139866,0.03871871445677518 l -1.1252535163474189 16.316096120945744" fill="#ffcc13" stroke="none" /><path d="M 101.80526077348638 79.07773832637324 l 1.2143681500310088 -14.07404878908402 a35.12634203611562,35.12634203611562 0 0,0 0.60195656552532,0.05716302915513607 l -1.456449842646573 14.051060215413706" fill="#ffaf10" stroke="none" /><path d="M 102.16513564639614 79.11191278185805 l 1.0742278083248789 -10.363583542579663 a31.419108850002793,31.419108850002793 0 0,0 0.5374661926177746,0.06039058912065572 l -1.2524607044523788 10.343556999988406" fill="#ff7e0b" stroke="none" /><path d="M 102.88285421437855 79.19881850522331 l 0.9965550116013913 -7.190624334195948 a28.259352602448704,28.259352602448704 0 0,0 0.48125814683999285,0.07092494077091063 l -1.12018213887004 7.172404909264069" fill="#ff5207" stroke="none" /><path d="M 103.2404852339499 79.25152402106235 l 2.2596474022607724 -14.468277576296247 a35.643669704254485,35.643669704254485 0 0,0 0.605383617597151,0.09989348403052666 l -2.5083602259967988 14.427237829326094" fill="#ffb610" stroke="none" /><path d="M 104.307194497241 79.44645832069477 l 2.9559196808538166 -14.105380753068896 a35.41177391401577,35.41177391401577 0 0,0 0.5955202670649986,0.13015766450679905 l -3.1982826720723434 14.052409590466226" fill="#ffb310" stroke="none" /><path d="M 105.01212808612495 79.60689891045804 l 3.4408748278850534 -14.000062846712105 a35.416704869458265,35.416704869458265 0 0,0 0.5907693765636677,0.15060026811495672 l -3.681353093133746 13.93875958242828" fill="#ffb310" stroke="none" /><path d="M 105.36241919743992 79.69619591428918 l 3.681496994358924 -13.939304437684115 a35.41726840722312,35.41726840722312 0 0,0 0.5880988691204325,0.16074963649409815 l -3.9208937527030674 13.873868260363723" fill="#ffb310" stroke="none" /><path d="M 105.71112130821622 79.79150937346287 l 3.921161955414473 -13.874817281000292 a35.41825459831162,35.41825459831162 0 0,0 0.5852609912750638,0.1708537322662753 l -4.159413164412964 13.805265219815313" fill="#ffb310" stroke="none" /><path d="M 106.74666289553966 80.11325718540242 l 2.3562890837741293 -6.945495236888032 a28.334303125174706,28.334303125174706 0 0,0 0.4605241694737311,0.160667840100279 l -2.4754952573111337 6.903906543615546" fill="#ff5307" stroke="none" /><path d="M 107.08798089147638 80.2323363322302 l 7.433998944500206 -20.73267311120338 a43.02516911723598,43.02516911723598 0 0,0 0.6949951333900172,0.25597257293274767 l -7.789776403662799 20.601637270464305" fill="#ecff1a" stroke="none" /><path d="M 107.4271985657038 80.35727306442388 l 5.099840822048086 -13.487559245415431 a35.41952255828255,35.41952255828255 0 0,0 0.5684273995150134,0.2205409999623242 l -5.331251386562766 13.397775541562561" fill="#ffb310" stroke="none" /><path d="M 109.08828744355905 81.06846463323043 l 9.298740211441995 -19.369923131566114 a42.48628612959132,42.48628612959132 0 0,0 0.6565724098604064,0.3221772300558323 l -9.630783888312832 19.206990741375453" fill="#f2ff19" stroke="none" /><path d="M 110.05341064243156 81.56283822128135 l 7.734049969481479 -14.18363733101583 a37.1552188740426,37.1552188740426 0 0,0 0.5588780289317201,0.311015018016099 l -7.977052087485234 14.048406915439552" fill="#ffc912" stroke="none" /><path d="M 110.36928655335952 81.73862282372117 l 7.804391031575767 -13.744333086503287 a36.80554369094873,36.80554369094873 0 0,0 0.5482330633294706,0.3175719762761334 l -8.039820827370566 13.607956952837105" fill="#ffc512" stroke="none" /><line stroke="#e1ed5e" stroke-width="0.3" x1="143.23703022742887" x2="145.7803849466894" y1="26.81831364943548" y2="22.513508569990506" /><path d="M 143.74570117128098 25.957352633546492 a86.0,86.0 0 0,1 28.547481713284135,27.462654790039103" fill="none" id="id74" stroke="none" /><text fill="#e1ed5e" style="font-size:6.75px; font-family:Arial;" text-anchor="middle"><textPath startOffset="19.985693538727396" xlink:href="#id74">February</textPath></text><path d="M 110.68208982089419 81.91981866633111 l 1.3503613920396442 -2.2855807471593184 a23.65468552580086,23.65468552580086 0 0,0 0.3487803785943112,0.21013627557278025 l -1.3895038368515928 2.2619978621279238" fill="#ff1001" stroke="none" /><path d="M 111.2981086023043 82.29822771554956 l 22.753368734784317 -35.64976813598151 a63.292100408117626,63.292100408117626 0 0,0 0.913313972906279,0.5940448134591981 l -23.363649733474876 35.25282439836278" fill="#33ff53" stroke="none" /><path d="M 111.60114157652 82.49532879139004 l 0.8542570354596091 -1.2889669895613767 a22.546347626768043,22.546347626768043 0 0,0 0.32165618605990054,0.21718369266992024 l -0.8763179159260515 1.2740713845927862" fill="#ff0000" stroke="none" /><path d="M 112.19680574252982 82.90503203632743 l 8.3699531016048 -11.731274823083142 a35.4110694918097,35.4110694918097 0 0,0 0.4931491964667243,0.35829386388474405 l -8.570647614425313 11.585461724381723" fill="#ffb310" stroke="none" /><path d="M 112.48926042617603 83.11751280151076 l 6.724636193553102 -9.090096657302066 a32.307103482976466,32.307103482976466 0 0,0 0.444228590077876,0.33458376422215425 l -6.880110937389361 8.972996303574064" fill="#ff8a0c" stroke="none" /><path d="M 112.77801427241765 83.33499621200491 l 8.766230711672803 -11.432861546555902 a35.406842958573264,35.406842958573264 0 0,0 0.48046655084647333,0.3750117639698196 l -8.961729817678707 11.280271393362858" fill="#ffb310" stroke="none" /><path d="M 113.06298171725822 83.55741782278167 l 1.753522901642219 -2.207187075198489 a23.818956784256724,23.818956784256724 0 0,0 0.3188298953235153,0.25780493555194034 l -1.7912561955302253 2.176676042382419" fill="#ff1302" stroke="none" /><path d="M 113.34407831869373 83.78471172551755 l 4.657051254319449 -5.659096626556841 a28.328949516408567,28.328949516408567 0 0,0 0.3738645163970615,0.31310078071463565 l -4.753773307675628 5.5780946884483855" fill="#ff5307" stroke="none" /><path d="M 113.6212207817346 84.01681056812373 l 10.15526090774865 -11.916219656047923 a36.65648795214402,36.65648795214402 0 0,0 0.47671972283622416,0.4134066459694176 l -10.358874429231637 11.739648016658835" fill="#ffc312" stroke="none" /><path d="M 113.89432698308785 84.25364557470407 l 9.534396391559055 -10.805272180184906 a35.41036506960362,35.41036506960362 0 0,0 0.4535713870922919,0.40722086972144383 l -9.718978766247336 10.639552301694165" fill="#ffb310" stroke="none" /><path d="M 114.16331599549186 84.49514656593476 l 7.38342127419709 -8.082772758499733 a31.94742550455638,31.94742550455638 0 0,0 0.4028298288884747,0.37438642397111377 l -7.521458986880411 7.954481748453977" fill="#ff850c" stroke="none" /><path d="M 114.42810811169701 84.74124197986012 l 12.715481112046142 -13.447532268009228 a39.50728462011517,39.50728462011517 0 0,0 0.49010998299587616,0.47148541532840227 l -12.945074338654436 13.226663765918524" fill="#ffe715" stroke="none" /><path d="M 115.4437574822437 85.77008943001954 l 5.220848255360382 -4.810500544225296 a28.099166992788057,28.099166992788057 0 0,0 0.32468769353295274,0.35852826075071653 l -5.30287958950937 4.71991949620503" fill="#ff5007" stroke="none" /><path d="M 115.68641384162765 86.03803664274999 l 6.337356794607152 -5.640673785700874 a29.484061049924527,29.484061049924527 0 0,0 0.3341641154594995,0.3820073500784308 l -6.4335127736445 5.530750879419496" fill="#ff6309" stroke="none" /><path d="M 116.38621287248628 86.86637796730983 l 8.824205113933969 -7.072639395521039 a32.308794096271036,32.308794096271036 0 0,0 0.3440823790743258,0.43694967931172113 l -8.94464157360226 6.91969732225628" fill="#ff8a0c" stroke="none" /><path d="M 116.82858285166822 87.43820079747576 l 50.48574855500462 -37.68539760757273 a84.0,84.0 0 0,0 0.8549495499454944,1.1661502253140252 l -51.126960717463746 36.81078493858721" fill="#4dd2ff" stroke="none" /><path d="M 117.2510076193507 88.02491185347247 l 8.10873549175728 -5.628820322457459 a30.870927489237992,30.870927489237992 0 0,0 0.29926502661540055,0.43913449919338676 l -8.204424984041413 5.488407799993666" fill="#ff760a" stroke="none" /><line stroke="#e1ed5e" stroke-width="0.3" x1="172.23445277983987" x2="176.4835382374775" y1="55.19839476539836" y2="52.563006222186495" /><path d="M 173.08426987136738 54.67131705675599 a86.0,86.0 0 0,1 12.851231095245387,41.99856678651699" fill="none" id="id75" stroke="none" /><text fill="#e1ed5e" style="font-size:6.75px; font-family:Arial;" text-anchor="middle"><textPath startOffset="22.20632615414155" xlink:href="#id75">March</textPath></text><path d="M 118.03404312379186 89.2402003453031 l 3.651734937812331 -2.1787646870535013 a25.252315089170907,25.252315089170907 0 0,0 0.21950313413119635,0.3752020092165573 l -3.688697746413855 2.115583265483049" fill="#ff2703" stroke="none" /><path d="M 118.21658344932153 89.55222093294921 l 6.123142934386025 -3.511813549034132 a28.05873315815956,28.05873315815956 0 0,0 0.23668524638012403,0.421036643260736 l -6.182685822058582 3.405893395838602" fill="#ff4f07" stroke="none" /><path d="M 118.3937258080291 89.86733742301442 l 12.620068239864498 -6.952093040185492 a35.408251802985404,35.408251802985404 0 0,0 0.28949095501932304,0.5363827735944006 l -12.737867294102285 6.733829283258633" fill="#ffb310" stroke="none" /><path d="M 118.56541770881063 90.18545643968196 l 12.73911280767363 -6.734487719680191 a35.40966064739755,35.40966064739755 0 0,0 0.28022626545709145,0.5413079506342396 l -12.853148506290838 6.514207046785606" fill="#ffb310" stroke="none" /><path d="M 118.89224826269711 90.83032412892265 l 6.593349227084028 -3.2001948352835994 a28.328949516408567,28.328949516408567 0 0,0 0.20915102378998532,0.4405253962628316 l -6.647458444715769 3.0862270233802276" fill="#ff5307" stroke="none" /><path d="M 119.04729006885535 91.15688171328212 l 13.071039086330059 -6.068513912104025 a35.4110694918097,35.4110694918097 0 0,0 0.25192055885363235,0.5550735580984778 l -13.173561962147039 5.842618345163483" fill="#ffb310" stroke="none" /><path d="M 119.196687751892 91.48605970444005 l 12.89280758657288 -5.718100718880793 a35.103941409962545,35.103941409962545 0 0,0 0.24022678579761153,0.5544765425745882 l -12.989325082213172 5.495325031719601" fill="#ffaf10" stroke="none" /><path d="M 119.34039704204932 91.81776055985345 l 6.680854544832245 -2.8264337816725824 a28.254139878123777,28.254139878123777 0 0,0 0.18564088375547327,0.44954412491669354 l -6.728517115473916 2.7110150863025857" fill="#ff5207" stroke="none" /><path d="M 119.7369772167798 92.82701384747503 l 10.989061641471393 -3.99374160074033 a32.692281545256336,32.692281545256336 0 0,0 0.18766446769423667,0.5305527213406068 l -11.05617918997544 3.8039912529731086" fill="#ff8f0d" stroke="none" /><path d="M 119.97218684219823 93.5106431181261 l 8.667886659643175 -2.8163671004325215 a30.113955386593616,30.113955386593616 0 0,0 0.1559394052543307,0.49437052894144706 l -8.715081548665712 2.6667464050646554" fill="#ff6c09" stroke="none" /><path d="M 120.08093135843002 93.85539295169968 l 28.67081441293281 -8.773043698904946 a50.983026779225135,50.983026779225135 0 0,0 0.2495597381095479,0.8413913741140069 l -28.81758004815406 8.27822293804441" fill="#90ff24" stroke="none" /><path d="M 120.18372546131832 94.20196356495316 l 13.853887087147534 -3.9797084166770027 a35.41416894951641,35.41416894951641 0 0,0 0.16326476493862438,0.5873502259013379 l -13.920338622652523 3.740646887356713" fill="#ffb310" stroke="none" /><path d="M 120.28053869075195 94.5502522615342 l 6.862751975590285 -1.844145642722971 a28.106211214848773,28.106211214848773 0 0,0 0.12153081312077642,0.4683077984930749 l -6.893479120581365 1.7257414186810456" fill="#ff5007" stroke="none" /><path d="M 120.45610955862082 95.25157060432595 l 14.041260241451042 -3.259365261598193 a35.41459160284005,35.41459160284005 0 0,0 0.13272986386542945,0.5950019539978335 l -14.095284492318507 3.017185138050396" fill="#ffb310" stroke="none" /><path d="M 120.6074358757038 95.95851677861258 l 14.735324729978284 -2.8898582054119153 a36.01602728238385,36.01602728238385 0 0,0 0.11407523725383428,0.6093944788636867 l -14.782885691141978 2.635785649085666" fill="#ffbb11" stroke="none" /><path d="M 120.67395015179393 96.31383870115 l 31.37881913574234 -5.594837360665213 a52.8736959803209,52.8736959803209 0 0,0 0.152044955942726,0.8973779367454346 l -31.470475953205288 5.053873635603941" fill="#7cff26" stroke="none" /><path d="M 120.73433829027371 96.67025291283417 l 8.360040685942531 -1.342546877209145 a29.467154916978814,29.467154916978814 0 0,0 0.0761152138741551,0.5015041582194404 l -8.381911793255986 1.1984436065976223" fill="#ff6309" stroke="none" /><path d="M 120.78858239683441 97.02765380044208 l 14.27295928322492 -2.040744071534121 a35.41811371387041,35.41811371387041 0 0,0 0.0810973625327338,0.6042695477308447 l -14.305972644815489 1.7947561817386117" fill="#ffb310" stroke="none" /><path d="M 120.83666639777658 97.38593545837742 l 7.013197650873491 -0.8798408993338495 a28.068172415720916,28.068172415720916 0 0,0 0.0560155808465365,0.47990728855439235 l -7.027303584723616 0.7589898724546044" fill="#ff4f07" stroke="none" /><path d="M 120.91429891909075 98.10471618934814 l 14.34804857695234 -1.3002407724756055 a35.406842958573264,35.406842958573264 0 0,0 0.04978120546066492,0.607456797789717 l -14.368304266232501 1.0530700574781198" fill="#ffb310" stroke="none" /><path d="M 120.94382443527127 98.46500227214037 l 14.370411879805683 -1.0532245269760876 a35.40895622519148,35.40895622519148 0 0,0 0.03931980630104703,0.6082600001189946 l -14.386412277111146 0.8057054626040578" fill="#ffb310" stroke="none" /><path d="M 120.98425023603335 99.18683210126433 l 7.36596807804533 -0.2854411626245634 a28.371496617655282,28.371496617655282 0 0,0 0.014710358282079207,0.4881651757233105 l -7.369790130783054 0.15860583947625384" fill="#ff5407" stroke="none" /><line stroke="#e1ed5e" stroke-width="0.3" x1="184.98032266829074" x2="189.97916517819016" y1="98.17113171792111" y2="98.06355123074" /><path d="M 185.9800911702706 98.14961562048488 a86.0,86.0 0 0,1 -9.607161424134198,41.387399972396054" fill="none" id="id76" stroke="none" /><text fill="#e1ed5e" style="font-size:6.75px; font-family:Arial;" text-anchor="middle"><textPath startOffset="21.466115282336823" xlink:href="#id76">April</textPath></text><path d="M 120.99513854157772 99.54816195383933 l 14.407733357754688 -0.3100699753459474 a35.4110694918097,35.4110694918097 0 0,0 0.007869676632016945,0.6095151278376439 l -14.41093604150442 0.062018589447840757" fill="#ffb310" stroke="none" /><path d="M 120.99980553446 99.90962569577887 l 10.18021544979088 -0.04381135275687723 a31.180309722144575,31.180309722144575 0 0,0 -0.002309871064232184,0.5367326872013698 l -10.179461281437145 -0.13143081264817724" fill="#ff7a0b" stroke="none" /><path d="M 120.9904718944345 100.63252640178507 l 15.508141320411843 0.4673219771860085 a36.51518085760608,36.51518085760608 0 0,0 -0.024339745264717053,0.6281006740555206 l -15.497799442295923 -0.7341998982555352" fill="#ffc112" stroke="none" /><path d="M 120.95626037817324 101.35467743843564 l 19.518248750277564 1.2617199224779114 a40.55898697377984,40.55898697377984 0 0,0 -0.05103371490169352,0.6963144933583427 l -19.493638476711535 -1.5975075523330242" fill="#fff417" stroke="none" /><path d="M 120.89721153311464 102.0752229133903 l 16.865441141166382 1.6748430691397314 a37.948398278079054,37.948398278079054 0 0,0 -0.0701461658512607,0.649466377129641 l -16.834112673814072 -1.9649057681541637" fill="#ffd313" stroke="none" /><path d="M 120.81339534386255 102.79330883721812 l 14.725509204909045 1.9762702968469956 a35.85753228601778,35.85753228601778 0 0,0 -0.08736593655318838,0.6110371567695299 l -14.689309217339254 -2.229452925596935" fill="#ffb911" stroke="none" /><path d="M 120.76222939487914 103.15116336523771 l 13.952608163370341 2.1176409747583884 a35.1123944764354,35.1123944764354 0 0,0 -0.0958371834077935,0.5967782325640656 l -13.91408922560126 -2.3574984370156593" fill="#ffaf10" stroke="none" /><path d="M 120.70491114924044 103.5080841355445 l 13.922423510851697 2.358910535510428 a35.12084754290826,35.12084754290826 0 0,0 -0.10612108212669008,0.5951833856608748 l -13.879755986385819 -2.598212671904521" fill="#ffaf10" stroke="none" /><path d="M 120.5718875245553 104.21870165774334 l 14.117280985431394 2.895047750235809 a35.4110694918097,35.4110694918097 0 0,0 -0.12759107680444418,0.5960630335737348 l -14.065355869902508 -3.137624603225713" fill="#ffb310" stroke="none" /><path d="M 120.32669344350535 105.2749913415812 l 21.971511249181514 5.7018389106427945 a43.699301168446354,43.699301168446354 0 0,0 -0.19521502405390356,0.7264677262760467 l -21.87010814878583 -6.079197570094389" fill="#e4ff1b" stroke="none" /><path d="M 120.13307415673323 105.97154293290107 l 7.293154618439988 2.1631761538878056 a28.607196287806786,28.607196287806786 0 0,0 -0.14408930861485256,0.47089219750493927 l -7.254838537319002 -2.288395323944802" fill="#ff5708" stroke="none" /><path d="M 120.02730092923936 106.31721596034902 l 14.103913455430968 4.448800539764683 a35.788921563146424,35.788921563146424 0 0,0 -0.1903761841131041,0.5859176477151498 l -14.025245020301618 -4.6909170874576285" fill="#ffb811" stroke="none" /><path d="M 119.9155931802556 106.66101706037122 l 13.665568539005154 4.570618828879759 a35.40966064739755,35.40966064739755 0 0,0 -0.19830956025345745,0.5763804087440514 l -13.584868147808466 -4.805171940713111" fill="#ffb310" stroke="none" /><path d="M 119.67450827220406 107.3425965602758 l 13.503706051127956 5.0396311933279065 a35.41346452731034,35.41346452731034 0 0,0 -0.21805540679969795,0.5692738591052576 l -13.414956364734751 -5.271328619266308" fill="#ffb310" stroke="none" /><path d="M 119.41010516605496 108.01547362559984 l 13.316892591793659 5.499259299797122 a35.40768826522055,35.40768826522055 0 0,0 -0.23748276906690055,0.5613391147982462 l -13.220258841534449 -5.727672940261531" fill="#ffb310" stroke="none" /><path d="M 119.26925614724726 108.34839909993367 l 19.411672184741885 8.410100802902937 a42.15520769273775,42.15520769273775 0 0,0 -0.29420102439883544,0.6633456432172113 l -19.264030075611775 -8.742994782612836" fill="#f6ff19" stroke="none" /><path d="M 118.97047184881838 109.00673069616215 l 10.571199190741106 5.018954984634342 a32.70214345614133,32.70214345614133 0 0,0 -0.24580604029858763,0.5064332483592885 l -10.483239893827804 -5.2001771889589055" fill="#ff8f0d" stroke="none" /><path d="M 118.64920377521936 109.65438752849418 l 21.31057558472486 11.032136150690986 a44.99684687202996,44.99684687202996 0 0,0 -0.3620049722294299,0.6847769823223437 l -21.117518104270534 -11.397328148099465" fill="#d4ff1c" stroke="none" /><line stroke="#e1ed5e" stroke-width="0.3" x1="174.80103733775053" x2="179.2010983576182" y1="140.37084112569926" y2="142.7455964860345" /><path d="M 175.68104954172406 140.8457921977663 a86.0,86.0 0 0,1 -30.038265399797805,32.042727171017184" fill="none" id="id77" stroke="none" /><text fill="#e1ed5e" style="font-size:6.75px; font-family:Arial;" text-anchor="middle"><textPath startOffset="22.206326154141568" xlink:href="#id77">May</textPath></text><path d="M 118.12598468904814 110.60418214915192 l 12.444881353455719 7.280585908050821 a35.41811371387041,35.41811371387041 0 0,0 -0.3123862860239851,0.5235773838017995 l -12.317714191733506 -7.493725385738725" fill="#ffb310" stroke="none" /><path d="M 117.94076556474637 110.91462005526583 l 8.707494950175496 5.297377008318037 a31.192284899647788,31.192284899647788 0 0,0 -0.28301110680637864,0.4563040168700658 l -8.615019203701154 -5.446477356553376" fill="#ff7b0b" stroke="none" /><path d="M 117.75023020441432 111.22182372390056 l 7.241403245242479 4.578067427631637 a29.567182870240956,29.567182870240956 0 0,0 -0.2756719337921221,0.4278489631161259 l -7.161526448073307 -4.702037990669216" fill="#ff6409" stroke="none" /><path d="M 117.55443506779139 111.5257021239791 l 12.988731326393767 8.528001479870216 a36.53814502152401,36.53814502152401 0 0,0 -0.349716842065669,0.5227792286839447 l -12.840011378917378 -8.750317622759967" fill="#ffc112" stroke="none" /><path d="M 117.35343817320211 111.8261652097733 l 11.909811987154303 8.116397613639903 a35.41247833622184,35.41247833622184 0 0,0 -0.3476141028271083,0.500764041407331 l -11.768336977165058 -8.320202917234253" fill="#ffb310" stroke="none" /><path d="M 117.14729908036423 112.12312394758627 l 11.769372314729027 8.32093489989559 a35.41374629619276,35.41374629619276 0 0,0 -0.35619518311616966,0.49472395563725846 l -11.624397339237255 -8.52229246098398" fill="#ffb310" stroke="none" /><path d="M 116.498646956653 112.99209946851258 l 17.099855548722463 13.465529917082849 a42.76523732319562,42.76523732319562 0 0,0 -0.46040257835703596,0.5744230066330503 l -16.865535058310574 -13.75788075729415" fill="#efff19" stroke="none" /><path d="M 116.27256486870786 113.27417163493432 l 10.955119704197461 8.936522325033774 a35.13775367585397,35.13775367585397 0 0,0 -0.3863546608814301,0.46538907786895306 l -10.799669043422487 -9.123772660016497" fill="#ffaf10" stroke="none" /><path d="M 116.0416608686014 113.55231037782055 l 11.007590922763718 9.29942915009275 a35.40994241627998,35.40994241627998 0 0,0 -0.39736276981256075,0.4622226730320915 l -10.845885643380377 -9.487528922286371" fill="#ffb310" stroke="none" /><path d="M 115.56566222782051 114.09645910891815 l 5.427261792168309 4.914996407281453 a28.322046178789066,28.322046178789066 0 0,0 -0.3303612830669247,0.35854192562332016 l -5.341854101105663 -5.007689587706108" fill="#ff5307" stroke="none" /><path d="M 115.07121518719521 114.62390073753431 l 10.131172997754522 9.830479256896776 a35.11662100967183,35.11662100967183 0 0,0 -0.4246759581799002,0.43019450352458993 l -9.960456414519086 -10.003414254402031" fill="#ffaf10" stroke="none" /><path d="M 114.81725581225074 114.88116024355365 l 7.961506134683114 7.995842824843443 a32.28357578129368,32.28357578129368 0 0,0 -0.3971649209798513,0.38870946731387873 l -7.822691261327469 -8.131702395079893" fill="#ff890c" stroke="none" /><path d="M 114.0293411484842 115.62618273729858 l 8.35313262320997 9.303899264953865 a33.50349415776821,33.50349415776821 0 0,0 -0.43244658551488263,0.3815838320145465 l -8.1917436847885 -9.4463062387407" fill="#ff9a0e" stroke="none" /><path d="M 113.20401910651253 116.32954008644616 l 5.658586927969455 6.998030018552652 a29.99955722032761,29.99955722032761 0 0,0 -0.40434047109575333,0.3212325244625872 l -5.5372889641563505 -7.094396457020365" fill="#ff6a09" stroke="none" /><path d="M 112.92097659922987 116.55440617244103 l 3.5523114286561683 4.551235410834464 a26.773444400961594,26.773444400961594 0 0,0 -0.3657396208529811,0.2804335453325614 l -3.4734430793096935 -4.611708297994397" fill="#ff3d05" stroke="none" /><path d="M 112.63410532772338 116.77436683061366 l 8.670724258839016 11.512165335974393 a35.41219656733941,35.41219656733941 0 0,0 -0.4900626929981408,0.36253666453569877 l -8.47127659542231 -11.65971194924986" fill="#ffb310" stroke="none" /><path d="M 112.34349029814194 116.9893568818739 l 8.472270312984188 11.661079684136084 a35.41388718063398,35.41388718063398 0 0,0 -0.496254248185871,0.3540642297131213 l -8.270288736949434 -11.805188175693425" fill="#ffb310" stroke="none" /><path d="M 111.7513745106137 117.40417183066458 l 8.062466486791067 11.94077782036054 a35.407829149661765,35.407829149661765 0 0,0 -0.5080607040707481,0.3367149309546645 l -7.855731083980355 -12.077790772406521" fill="#ffb310" stroke="none" /><line stroke="#e1ed5e" stroke-width="0.3" x1="143.8653032363475" x2="146.44561519142675" y1="172.8068346515853" y2="177.08958963109032" /><path d="M 144.38136562736335 173.6633856474863 a86.0,86.0 0 0,1 -40.68145358897372,12.25698825130547" fill="none" id="id78" stroke="none" /><text fill="#e1ed5e" style="font-size:6.75px; font-family:Arial;" text-anchor="middle"><textPath startOffset="21.466115282336833" xlink:href="#id78">June</textPath></text><line stroke="#e1ed5e" stroke-width="0.3" x1="102.19456741930631" x2="102.32365962044197" y1="184.97166512339345" y2="189.96999836594603" /><path d="M 102.22038585953345 185.97133177190398 a86.0,86.0 0 0,1 -42.740103519485714,-10.115201625700543" fill="none" id="id79" stroke="none" /><text fill="#e1ed5e" style="font-size:6.75px; font-family:Arial;" text-anchor="middle"><textPath startOffset="22.20632615414155" xlink:href="#id79">July</textPath></text><line stroke="#e1ed5e" stroke-width="0.3" x1="58.666819895761336" x2="56.23545636021788" y1="174.27360380694188" y2="178.64263932499728" /><path d="M 58.180547188652646 175.14741091055294 a86.0,86.0 0 0,1 -31.652253787137756,-30.449443065178592" fill="none" id="id80" stroke="none" /><text fill="#e1ed5e" style="font-size:6.75px; font-family:Arial;" text-anchor="middle"><textPath startOffset="22.20632615414155" xlink:href="#id80">August</textPath></text><line stroke="#e1ed5e" stroke-width="0.3" x1="26.63291911575756" x2="22.317208475507996" y1="142.92168965132927" y2="145.44649492493687" /><path d="M 25.769776987707644 143.4266507060508 a86.0,86.0 0 0,1 -11.730757126820373,-40.83630448921669" fill="none" id="id81" stroke="none" /><text fill="#e1ed5e" style="font-size:6.75px; font-family:Arial;" text-anchor="middle"><textPath startOffset="21.46611528233685" xlink:href="#id81">September</textPath></text><line stroke="#e1ed5e" stroke-width="0.3" x1="15.007084014347285" x2="10.007500721073583" y1="101.09737516637583" y2="101.16192664675087" /><path d="M 14.007167355692545 101.11028546245083 a86.0,86.0 0 0,1 10.666146001902534,-42.60595125391555" fill="none" id="id82" stroke="none" /><text fill="#e1ed5e" style="font-size:6.75px; font-family:Arial;" text-anchor="middle"><textPath startOffset="22.20632615414155" xlink:href="#id82">October</textPath></text><line stroke="#e1ed5e" stroke-width="0.3" x1="26.266209847984243" x2="21.928928074336255" y1="57.711370442889674" y2="55.22380399835377" /><path d="M 25.398753493254645 57.213857153982495 a86.0,86.0 0 0,1 29.58750427330803,-30.492523968695096" fill="none" id="id83" stroke="none" /><text fill="#e1ed5e" style="font-size:6.75px; font-family:Arial;" text-anchor="middle"><textPath startOffset="21.46611528233685" xlink:href="#id83">November</textPath></text><line stroke="#e1ed5e" stroke-width="0.3" x1="56.762969772571076" x2="54.21961505331055" y1="26.818313649435495" y2="22.513508569990535" /><path d="M 56.25429882871897 25.957352633546506 a86.0,86.0 0 0,1 42.265352541879196,-11.944610805530505" fill="none" id="id84" stroke="none" /><text fill="#e1ed5e" style="font-size:6.75px; font-family:Arial;" text-anchor="middle"><textPath startOffset="22.20632615414155" xlink:href="#id84">December</textPath></text></svg>