<?xml version="1.0" encoding="utf-8" ?>
<svg baseProfile="full" height="200mm" version="1.1" viewBox="0,0,200,200" width="200mm" xmlns="http://www.w3.org/2000/svg" xmlns:ev="http://www.w3.org/2001/xml-events" xmlns:xlink="http://www.w3.org/1999/xlink"><defs /><rect fill="#1a1a1a" height="200" width="200" x="0" y="0" /><text alignment-baseline="middle" fill="#e1ed5e" style="dominant-baseline: central; font-size:9.0px; font-family:Arial;" text-anchor="middle" x="100.0" y="100.0">2024</text><line stroke="#e1ed5e" stroke-width="0.3" x1="100.0" x2="100.0" y1="15.0" y2="10.0" /><path d="M 100.0 14.0 a86.0,86.0 0 0,1 42.35913384403234,11.155469271406648" fill="none" id="id61" stroke="none" /><text fill="#e1ed5e" style="font-size:6.75px; font-family:Arial;" text-anchor="middle"><textPath startOffset="22.145653131862478" xlink:href="#id61">January</textPath></text><path d="M 100.0 79.0 l 0.0 -19.102052999900494 a40.10205299990049,40.10205299990049 0 0,0 0.6884050656370438,0.005909129542667866 l -0.32791214078818903 19.09923826855226" fill="#ffe015" stroke="none" /><path d="M 100.36049292484886 79.00309439819443 l 0.43645354970536593 -25.421231183881954 a46.424977612682824,46.424977612682824 0 0,0 0.796711610770228,0.020520464962797635 l -0.8727784745463353 25.409993001569113" fill="#cfff1d" stroke="none" /><path d="M 101.08105385017728 79.02784411241856 l 0.9622596788385557 -18.667580699728237 a39.69236509568505,39.69236509568505 0 0,0 0.6801677027096467,0.04091719998961054 l -1.2825717336806648 18.648311521913936" fill="#ffda14" stroke="none" /><path d="M 101.44090949804482 79.04949213459386 l 1.6417938161447576 -23.871321762531757 a44.92771384033697,44.92771384033697 0 0,0 0.7689720641944272,0.05952330108787658 l -2.0513348751144185 23.839620694448826" fill="#e2ff1b" stroke="none" /><path d="M 101.80034050326958 79.07731436759882 l 1.280310566137306 -14.87914949337853 a35.93413153792578,35.93413153792578 0 0,0 0.6141321665877114,0.05815895468666241 l -1.5355422961100302 14.854978783186684" fill="#ffa90f" stroke="none" /><path d="M 102.15924093988457 79.11130261209362 l 1.2312175846895304 -11.910913261316487 a32.9743789592385,32.9743789592385 0 0,0 0.5625493403859639,0.06303482695588436 l -1.435502826676291 11.888022673853634" fill="#ff800b" stroke="none" /><path d="M 102.87502721639298 79.19773525538626 l 3.086250592151138 -22.33057187079283 a43.54283440018573,43.54283440018573 0 0,0 0.7395540886299256,0.10868898308486843 l -3.469129786388746 22.27430181440908" fill="#f3ff19" stroke="none" /><path d="M 103.23170211078529 79.25015418208739 l 2.4412667006214144 -15.674683464556484 a36.863652946834264,36.863652946834264 0 0,0 0.6244395558491866,0.10275129128786457 l -2.7099837595236718 15.630466174772952" fill="#ffb510" stroke="none" /><path d="M 103.58742460773223 79.30868818359171 l 1.290792622009643 -7.444948828960677 a28.55601804251932,28.55601804251932 0 0,0 0.4822775117986206,0.08788702815889925 l -1.4184048673593173 7.421693626870412" fill="#ff4106" stroke="none" /><path d="M 104.64783097203109 79.52079915486377 l 3.6595417498645073 -16.12461618067107 a37.53467546681702,37.53467546681702 0 0,0 0.6271290829102126,0.14800075598284695 l -3.935802986514605 16.059419281041997" fill="#ffbe11" stroke="none" /><path d="M 105.3480935250658 79.69241777938227 l 4.597155382216595 -17.456147778225354 a39.05134158071042,39.05134158071042 0 0,0 0.6467991866773085,0.17628799451712698 l -4.896135969828597 17.374659289564086" fill="#ffd213" stroke="none" /><path d="M 106.04205211174951 79.88797359093562 l 4.571023679798665 -15.215451185168591 a36.887234254253585,36.887234254253585 0 0,0 0.6048792687100328,0.1873931436485389 l -4.831543581380328 15.134741453713406" fill="#ffb610" stroke="none" /><path d="M 107.06938296918511 80.22567764915836 l 10.663863271964209 -29.82872349175166 a52.6776060495506,52.6776060495506 0 0,0 0.8488892072408681,0.31172387523955564 l -11.174341630859201 29.641268767503384" fill="#87ff25" stroke="none" /><path d="M 107.40779381753099 80.34994680014964 l 4.342444755661554 -11.518850627864925 a33.31018871679215,33.31018871679215 0 0,0 0.5333242565790812,0.20630127955471633 l -4.539541274734161 11.44260946017217" fill="#ff850c" stroke="none" /><path d="M 107.74402155503746 80.48000691201159 l 4.702892331382491 -11.854360831733992 a33.75315909920069,33.75315909920069 0 0,0 0.5367484239003517,0.21829091125609637 l -4.905695216473282 11.771882663898602" fill="#ff8b0c" stroke="none" /><path d="M 108.73861861582097 80.90454125486305 l 4.981033727093199 -10.884457627163329 a32.970050744585585,32.970050744585585 0 0,0 0.5126235082064944,0.2399336857189669 l -5.167145949171198 10.797347709873828" fill="#ff800b" stroke="none" /><path d="M 109.06512990194946 81.05736502329252 l 6.821879952793468 -14.255105354077212 a36.80335643925575,36.80335643925575 0 0,0 0.5675423702670419,0.2776134132084663 l -7.065582572322577 14.135898190771526" fill="#ffb410" stroke="none" /><path d="M 109.3889696526874 81.21577127319529 l 7.352780760858137 -14.710486954282096 a37.44572319326059,37.44572319326059 0 0,0 0.5725143990764027,0.2923299314950101 l -7.604222381648118 14.582099071114254" fill="#ffbd11" stroke="none" /><path d="M 110.02825361518725 81.54914285379988 l 5.852756544148468 -10.768412831525184 a33.256160658021294,33.256160658021294 0 0,0 0.49924752033598385,0.276924183721671 l -6.036748252640551 10.666355732370368" fill="#ff840c" stroke="none" /><line stroke="#e1ed5e" stroke-width="0.3" x1="143.13028292997686" x2="145.6673583964461" y1="26.7553504044142" y2="22.446841604673864" /><path d="M 143.63769802327073 25.89364864446614 a86.0,86.0 0 0,1 29.32050498858742,28.57503671076993" fill="none" id="id62" stroke="none" /><text fill="#e1ed5e" style="font-size:6.75px; font-family:Arial;" text-anchor="middle"><textPath startOffset="20.669276256404974" xlink:href="#id62">February</textPath></text><path d="M 110.65571695917076 81.90426304109057 l 6.1011990677776575 -10.361169866606504 a33.02407880335644,33.02407880335644 0 0,0 0.48603147633254473,0.2918479367191147 l -6.278163300667636 10.25490792935147" fill="#ff810b" stroke="none" /><path d="M 111.5731344415666 82.4767994020092 l 10.947065358396713 -16.575252210457755 a40.86396802759444,40.86396802759444 0 0,0 0.5820268819113795,0.3916136611844217 l -11.229988528405094 16.384888875216216" fill="#ffea15" stroke="none" /><path d="M 112.16784306229584 82.88440491214696 l 18.336426450368574 -25.792480136039124 a52.64611455673111,52.64611455673111 0 0,0 0.7320792943139506,0.5299689527379857 l -18.776486755056492 25.473910411928063" fill="#87ff25" stroke="none" /><path d="M 113.59037401385872 83.9905735841838 l 14.558796904269512 -17.15022614565538 a43.496418029252766,43.496418029252766 0 0,0 0.5650816854853735,0.488104101207655 l -14.851058069517745 16.897777911983006" fill="#f3ff19" stroke="none" /><path d="M 113.86319453409587 84.22622945171908 l 14.793419833384046 -16.83219617976793 a43.40910749228881,43.40910749228881 0 0,0 0.5555021589314971,0.4967334559128362 l -15.08018701913892 16.575767193971707" fill="#f4ff19" stroke="none" /><path d="M 114.13192950727249 84.46653392183569 l 10.070900540780832 -11.06968385642466 a35.96532453318298,35.96532453318298 0 0,0 0.45311210173865185,0.41939379679840183 l -10.25944241383345 10.895172313493884" fill="#ffa90f" stroke="none" /><path d="M 114.39649973595853 84.71141617570332 l 5.187479235086474 -5.508923181120562 a28.56691320354217,28.56691320354217 0 0,0 0.3541311190847394,0.3392496013131798 l -5.281282840036526 5.419061449501802" fill="#ff4106" stroke="none" /><path d="M 114.65682725009322 84.96080404539774 l 22.085241496962997 -22.66140337946792 a52.64327882988955,52.64327882988955 0 0,0 0.6417668919668104,0.6362817378158284 l -22.471000309059768 22.278941631423432" fill="#87ff25" stroke="none" /><path d="M 115.41159269507618 85.73525988315684 l 8.839410825118602 -8.181626694988626 a33.044675135153064,33.044675135153064 0 0,0 0.3817482934629226,0.41960824697376364 l -8.978556819423403 8.028680872457192" fill="#ff810b" stroke="none" /><path d="M 115.8921839302757 86.27271002978787 l 9.731635005826522 -8.40595453685578 a33.85942423136878,33.85942423136878 0 0,0 0.3761708452236836,0.44312830980536594 l -9.87450041455732 8.237659444600862" fill="#ff8c0c" stroke="none" /><path d="M 116.1254893667686 86.54754324733833 l 9.432009657711347 -7.868517917510835 a33.28317468740672,33.28317468740672 0 0,0 0.36223692574491445,0.44187015050854256 l -9.565693402694889 7.705445485303797" fill="#ff840c" stroke="none" /><path d="M 116.35404254752997 86.82634096563983 l 9.583825215220045 -7.720051189990398 a33.30645749726377,33.30645749726377 0 0,0 0.3548463151689534,0.4483367273014242 l -9.714937961030557 7.554394518774296" fill="#ff850c" stroke="none" /><path d="M 116.7966241395341 87.39550010848427 l 7.189600075228877 -5.395209931200942 a29.98880634141488,29.98880634141488 0 0,0 0.30545452912001914,0.4144077329921976 l -7.281156623932722 5.270995888939869" fill="#ff5608" stroke="none" /><path d="M 117.01052211995028 87.68569379921539 l 12.14682668293317 -8.793365781880954 a35.99562203575337,35.99562203575337 0 0,0 0.3580448553471962,0.5036349282315021 l -12.295986636810326 8.583553626939947" fill="#ffaa0f" stroke="none" /><path d="M 117.42321728460499 88.27688183743584 l 13.640799827924223 -9.178138893781577 a37.441096481045406,37.441096481045406 0 0,0 0.35422051670452326,0.5363350094546248 l -13.79634478354947 8.942624005987893" fill="#ffbd11" stroke="none" /><path d="M 117.81537515405839 88.88188828441811 l 13.56785113091668 -8.467342579622974 a36.993200888859405,36.993200888859405 0 0,0 0.3315859764104869,0.5416207728129714 l -13.711205071782569 8.233184690685448" fill="#ffb711" stroke="none" /><line stroke="#e1ed5e" stroke-width="0.3" x1="172.87174338648825" x2="177.1583165268699" y1="56.24261187166439" y2="53.66864786411523" /><path d="M 173.72905801456457 55.72781907015455 a86.0,86.0 0 0,1 12.242430191666344,42.057860355516425" fill="none" id="id63" stroke="none" /><text fill="#e1ed5e" style="font-size:6.75px; font-family:Arial;" text-anchor="middle"><textPath startOffset="22.145653131862474" xlink:href="#id63">March</textPath></text><path d="M 118.36410011445183 89.81374322990088 l 55.092300343355504 -30.558770310297362 a84.0,84.0 0 0,0 0.6886186015386349,1.2669806661015868 l -55.60876429450948 29.60853481072117" fill="#4dd2ff" stroke="none" /><path d="M 118.70294669586156 90.45014215332178 l 22.342168628478298 -11.408070495955231 a46.08618287950648,46.08618287950648 0 0,0 0.353722616964696,0.7076821833167808 l -22.534711158654734 11.022856456474699" fill="#d3ff1c" stroke="none" /><path d="M 119.58574465831526 92.42381321644754 l 11.855176808109142 -4.58583706758076 a33.71122019170176,33.71122019170176 0 0,0 0.2041444199790255,0.5415173278104853 l -11.93215191190261 4.381651459576117" fill="#ff8a0c" stroke="none" /><path d="M 119.71291397450082 92.76114493625339 l 11.739092249416684 -4.31075727735632 a33.5055553712978,33.5055553712978 0 0,0 0.19362992868780693,0.5416173721713913 l -11.811362348148434 4.108604948804012" fill="#ff880c" stroke="none" /><path d="M 119.83427380445688 93.10060997987247 l 14.271463740914713 -4.964355916300463 a36.11024509966502,36.11024509966502 0 0,0 0.1986314161717323,0.5872184874220578 l -14.35458057865881 4.718635754404244" fill="#ffab0f" stroke="none" /><path d="M 119.94978838288452 93.4421083053983 l 14.299851631153205 -4.700645262304126 a36.05263507014693,36.05263507014693 0 0,0 0.18822099489973257,0.5895995857196356 l -14.378437341830194 4.454476642893103" fill="#ffaa0f" stroke="none" /><path d="M 120.16314734710363 94.1308016681162 l 11.511815167240675 -3.3509216201918535 a32.98960233491427,32.98960233491427 0 0,0 0.1536082410556098,0.5451014573240908 l -11.567641900370866 3.1528122389647493" fill="#ff800b" stroke="none" /><path d="M 120.26092885502905 94.47779374421319 l 15.910421481281386 -4.336456125224914 a37.490796325163345,37.490796325163345 0 0,0 0.16390711788844556,0.6223820240733611 l -15.982518079974563 4.062693596778755" fill="#ffbe11" stroke="none" /><path d="M 120.35273937422433 94.82641323984039 l 12.2961473629258 -3.125632575945512 a33.68719113793904,33.68719113793904 0 0,0 0.1376562474411916,0.5616844648696742 l -12.347991136883282 2.914092286467743" fill="#ff8a0c" stroke="none" /><path d="M 120.43855184770803 95.1765574152323 l 15.259843458809266 -3.6012815058794665 a36.679032204570326,36.679032204570326 0 0,0 0.13936135135720354,0.6140518279748415 l -15.319415671724137 3.338795343965599" fill="#ffb310" stroke="none" /><path d="M 120.51834098615036 95.52812308129327 l 12.683180661648947 -2.7642401934395777 a33.98091273921263,33.98091273921263 0 0,0 0.11932525207937977,0.5710145274273505 l -12.728763624552693 2.5461092147268225" fill="#ff8e0d" stroke="none" /><path d="M 120.592083275326 95.88100663000786 l 14.653261947781992 -2.9310627780916723 a35.943534211137276,35.943534211137276 0 0,0 0.11583010612146656,0.606072060371477 l -14.701418346185616 2.6790881526868806" fill="#ffa90f" stroke="none" /><path d="M 120.77682067341334 96.94652285012252 l 31.74273954326783 -4.665089591590398 a53.0837119830188,53.0837119830188 0 0,0 0.12476058418884525,0.902705437775011 l -31.81814464401189 4.119495845615302" fill="#82ff25" stroke="none" /><path d="M 120.82617615685814 97.30363454192243 l 14.8497404157818 -1.922596198983321 a35.97368246492654,35.97368246492654 0 0,0 0.07403369074721168,0.613105162787931 l -14.880556192788676 1.6673973592719769" fill="#ffa90f" stroke="none" /><path d="M 120.93736805541906 98.37931529534042 l 12.84279667169807 -0.9941136859122472 a33.88121455341448,33.88121455341448 0 0,0 0.039908906617523277,0.5802667434177806 l -12.857969539480658 0.7735035183401325" fill="#ff8d0d" stroke="none" /><path d="M 120.98066250479742 99.09900007780936 l 32.826565021104315 -1.4097139460223451 a53.85682066929786,53.85682066929786 0 0,0 0.03173785776843714,0.9240130998876971 l -32.845927565869594 0.845994581570528" fill="#7aff26" stroke="none" /><line stroke="#e1ed5e" stroke-width="0.3" x1="184.99686870605535" x2="189.99668451229388" y1="99.2704041080226" y2="99.22748670261217" /><path d="M 185.99683186730306 99.26182062694052 a86.0,86.0 0 0,1 -10.086455211305974,41.156179273409016" fill="none" id="id64" stroke="none" /><text fill="#e1ed5e" style="font-size:6.75px; font-family:Arial;" text-anchor="middle"><textPath startOffset="21.40746469413373" xlink:href="#id64">April</textPath></text><path d="M 120.99922638620191 99.81974689727618 l 14.937461708511279 -0.12822014345950983 a35.93801200623528,35.93801200623528 0 0,0 0.0,0.6169464923666717 l -14.937461708511279 -0.12822014345950802" fill="#ffa90f" stroke="none" /><path d="M 120.99922638620191 100.18025310272382 l 18.082316167804596 0.15521493667126918 a39.08298232231103,39.08298232231103 0 0,0 -0.011517509972840815,0.6708372148192043 l -18.076987226233086 -0.46559906745954455" fill="#ffd313" stroke="none" /><path d="M 120.98066250479742 100.90099992219065 l 12.398161245206682 0.5324303898737223 a33.409588405028025,33.409588405028025 0 0,0 -0.029525183700354264,0.5727806760706577 l -12.387194472049755 -0.7451828593211107" fill="#ff860c" stroke="none" /><path d="M 120.9064616781168 101.97986365728391 l 12.19473433225205 1.1548540200817499 a33.24929521408909,33.24929521408909 0 0,0 -0.0586891345360511,0.567764138145339 l -12.173112805234334 -1.3640226805100202" fill="#ff840c" stroke="none" /><path d="M 120.86939407059847 102.33845913500097 l 15.177493941330566 1.7006698533489673 a36.27247852475871,36.27247852475871 0 0,0 -0.07464861181101069,0.6181975913176674 l -15.14606324325989 -1.9609611215900433" fill="#ffad10" stroke="none" /><path d="M 120.82617615685814 102.69636545807757 l 18.22711018471049 2.3598643328695283 a39.37924115286392,39.37924115286392 0 0,0 -0.09255149927564572,0.6696565442807652 l -18.183914168879635 -2.672409185350378" fill="#ffd614" stroke="none" /><path d="M 120.7213421655516 103.40968896794604 l 15.405740657298884 2.535008762586658 a36.61291499452754,36.61291499452754 0 0,0 -0.10737205009901378,0.6192934519591645 l -15.359953789707635 -2.799095247466411" fill="#ffb210" stroke="none" /><path d="M 120.65975698304385 103.76489593502545 l 10.612038047962237 1.9338668379255077 a31.78680640774767,31.78680640774767 0 0,0 -0.1024348117200716,0.5359822197507643 l -10.577276943960007 -2.1157516227095865" fill="#ff700a" stroke="none" /><path d="M 120.592083275326 104.11899336999214 l 14.645359064933748 2.9294819801888785 a35.935474776955985,35.935474776955985 0 0,0 -0.1261887701269545,0.6038589459064714 l -14.592912583982429 -3.180457377380759" fill="#ffa90f" stroke="none" /><path d="M 120.43855184770803 104.8234425847677 l 16.002840796265684 3.776626854442321 a37.44243972007561,37.44243972007561 0 0,0 -0.1530013507449609,0.6242977228784197 l -15.935651919004425 -4.05078040192884" fill="#ffbd11" stroke="none" /><path d="M 120.35273937422433 105.17358676015961 l 15.194182964890562 3.862301893284887 a36.677390467977844,36.677390467977844 0 0,0 -0.1603509648377468,0.6088787317080091 l -15.125642519248085 -4.122561129365699" fill="#ffb310" stroke="none" /><path d="M 120.26092885502905 105.52220625578681 l 15.13759419885336 4.125818612788875 a36.68977811681204,36.68977811681204 0 0,0 -0.1708372299862366,0.606241060966218 l -15.064538476792546 -4.385067597658102" fill="#ffb310" stroke="none" /><path d="M 120.16314734710363 105.8691983318838 l 15.780327962562621 4.59342348493803 a37.43527577858114,37.43527577858114 0 0,0 -0.18490116978254398,0.6154758583597653 l -15.699150472776447 -4.863636946888518" fill="#ffbd11" stroke="none" /><path d="M 120.05942366710727 106.21446072829308 l 14.853603238359112 4.60168425226451 a36.55008125766973,36.55008125766973 0 0,0 -0.19081802604995485,0.5977347488085699 l -14.772420496531902 -4.855988034764463" fill="#ffb110" stroke="none" /><path d="M 119.94978838288452 106.5578916946017 l 14.193796572256334 4.665782857923588 a35.94099698185798,35.94099698185798 0 0,0 -0.19770043402991558,0.5844662041444644 l -14.111610716654052 -4.908750736542213" fill="#ffa90f" stroke="none" /><path d="M 119.83427380445688 106.89939002012753 l 14.13176854951938 4.915762677199561 a35.962339557560284,35.962339557560284 0 0,0 -0.20782778159654713,0.5813312936453007 l -14.04530059787889 -5.157628927225783" fill="#ffa90f" stroke="none" /><path d="M 119.71291397450082 107.23885506374661 l 6.259448186173035 2.2985560763542856 a27.66813704354748,27.66813704354748 0 0,0 -0.16754943180744178,0.44444477393921766 l -6.2190680705511525 -2.405669130487662" fill="#ff3405" stroke="none" /><path d="M 119.4528033332814 107.91128576633889 l 11.800561188533669 4.799185503815478 a33.739129713774005,33.739129713774005 0 0,0 -0.22279739614912272,0.5346326442137045 l -11.71643794784806 -5.0010506574704605" fill="#ff8b0c" stroke="none" /><path d="M 119.31412917781788 108.2440532568976 l 5.803380745815948 2.4771181500384993 a27.30993996882359,27.30993996882359 0 0,0 -0.1877442864594653,0.4295956687546246 l -5.760002577339518 -2.5763758885689687" fill="#ff2f04" stroke="none" /><path d="M 119.16976305983485 108.57439118712176 l 11.59262167801793 5.1852322243825375 a33.6994295379921,33.6994295379921 0 0,0 -0.24073514077243885,0.5260497283635033 l -11.501902072390434 -5.383470934960729" fill="#ff8a0c" stroke="none" /><path d="M 118.8641267826498 109.22738970284198 l 13.452746482878899 6.580412430499123 a35.97592119664356,35.97592119664356 0 0,0 -0.2761239095601375,0.5524327871943334 l -13.337802660107029 -6.810377073857203" fill="#ffa90f" stroke="none" /><path d="M 118.70294669586154 109.54985784667822 l 11.138850382833796 5.6875763729261894 a33.506898610328015,33.506898610328015 0 0,0 -0.26596807771505554,0.5100288582241839 l -11.03957423614379 -5.877951474254876" fill="#ff880c" stroke="none" /><line stroke="#e1ed5e" stroke-width="0.3" x1="174.33088141563837" x2="178.70328620479359" y1="141.23008692659167" y2="143.65538615756765" /><path d="M 175.20536237346943 141.71514677278685 a86.0,86.0 0 0,1 -30.301960400862466,31.631185727798858" fill="none" id="id65" stroke="none" /><text fill="#e1ed5e" style="font-size:6.75px; font-family:Arial;" text-anchor="middle"><textPath startOffset="22.145653131862474" xlink:href="#id65">May</textPath></text><path d="M 118.36410011445183 110.18625677009912 l 3.080159123135433 1.708512343402535 a24.522271234784917,24.522271234784917 0 0,0 -0.2073493897711337,0.3663665038907997 l -3.050376368342921 -1.7611356173924575" fill="#ff0600" stroke="none" /><path d="M 118.18653347947321 110.5 l 28.459106743987814 16.43087293953765 a53.861745879075315,53.861745879075315 0 0,0 -0.46917758759964984,0.7967661157621178 l -28.1728554462584 -16.916990223593317" fill="#7aff26" stroke="none" /><path d="M 118.00360718960297 110.81064883170644 l 25.573486934031003 15.356144117924352 a50.82975689031872,50.82975689031872 0 0,0 -0.4556089812238863,0.7442030304850029 l -25.306109988351714 -15.79288426453391" fill="#9cff22" stroke="none" /><path d="M 117.62189284568427 111.42229804090321 l 12.552959213500007 8.136676501640105 a35.95935458193758,35.95935458193758 0 0,0 -0.3402021403626184,0.5151094009613003 l -12.411432634216661 -8.350965780940466" fill="#ffa90f" stroke="none" /><path d="M 117.01052211995028 112.31430620078461 l 18.21745943425994 13.188035739993204 a43.49000033166395,43.49000033166395 0 0,0 -0.4429725352019793,0.6009773193401576 l -17.988384879474133 -13.498819368602238" fill="#f3ff19" stroke="none" /><path d="M 116.1254893667686 113.45245675266167 l 3.7341819037327935 3.115187354875523 a25.86297303572021,25.86297303572021 0 0,0 -0.2873320101477348,0.33847638546796865 l -3.680155330077944 -3.1788305227930485" fill="#ff1a02" stroke="none" /><path d="M 115.41159269507618 114.26474011684316 l 5.506038794179661 5.096307307506422 a28.502586978873005,28.502586978873005 0 0,0 -0.33544038548825245,0.3562260650609521 l -5.417742574955149 -5.19007483251187" fill="#ff4106" stroke="none" /><path d="M 115.16444852881244 114.52719865689866 l 8.658106382840757 8.294270060471488 a32.989900832476536,32.989900832476536 0 0,0 -0.3952711656274796,0.4055830374229097 l -8.51444841606247 -8.441675789962135" fill="#ff800b" stroke="none" /><path d="M 114.91283532996324 114.78537596483092 l 8.93892549213554 8.862524878638283 a33.587642200922026,33.587642200922026 0 0,0 -0.4094622755818957,0.4059626190419713 l -8.78547129642368 -9.014667507908916" fill="#ff890c" stroke="none" /><path d="M 113.86319453409587 115.77377054828091 l 9.985701251538325 11.361894974354819 a36.12636396802759,36.12636396802759 0 0,0 -0.46933397200160554,0.40539950675147174 l -9.789187799773863 -11.531638613571008" fill="#ffab0f" stroke="none" /><path d="M 113.59037401385872 116.0094264158162 l 7.922625843872238 9.332833322922172 a33.242131272594605,33.242131272594605 0 0,0 -0.438203577305414,0.3655650094384724 l -7.761247932404928 -9.467460516272514" fill="#ff840c" stroke="none" /><path d="M 113.03279911837588 116.46651593811092 l 9.29308719123259 11.741512084915462 a35.97413021126994,35.97413021126994 0 0,0 -0.4875180813583206,0.3790970087909853 l -9.090159165239038 -11.89931014532724" fill="#ffa90f" stroke="none" /><path d="M 112.45986205192187 116.90419585922612 l 2.7158410472317316 3.6845599729452623 a25.577310868627904,25.577310868627904 0 0,0 -0.35566954653369764,0.25747732323709294 l -2.6521904903240663 -3.7306380675554323" fill="#ff1502" stroke="none" /><path d="M 112.16784306229584 117.11559508785304 l 6.961989227364095 9.79290972208477 a33.015422374050615,33.015422374050615 0 0,0 -0.46473909146386133,0.3244239792985195 l -6.792855044726474 -9.910978517188411" fill="#ff810b" stroke="none" /><path d="M 111.5731344415666 117.5232005979908 l 7.309092656587553 11.066897862230977 a34.26269443799542,34.26269443799542 0 0,0 -0.49356939738483124,0.31992572024856464 l -7.1180376269457115 -11.190737424183437" fill="#ff920d" stroke="none" /><path d="M 111.27062007382361 117.71928675628689 l 4.013953878710788 6.310602197351613 a28.479005671453685,28.479005671453685 0 0,0 -0.41475721479674704,0.2588391773441453 l -3.905032535124325 -6.378577171537306" fill="#ff4006" stroke="none" /><line stroke="#e1ed5e" stroke-width="0.3" x1="143.1302829299769" x2="145.66735839644613" y1="173.24464959558577" y2="177.55315839532614" /><path d="M 143.63769802327073 174.10635135553383 a86.0,86.0 0 0,1 -40.68552437913181,11.842963189579606" fill="none" id="id66" stroke="none" /><text fill="#e1ed5e" style="font-size:6.75px; font-family:Arial;" text-anchor="middle"><textPath startOffset="21.407464694133747" xlink:href="#id66">June</textPath></text><path d="M 110.65571695917076 118.09573695890943 l 7.581666032873552 12.875326434332662 a35.94174322576365,35.94174322576365 0 0,0 -0.5343468073005194,0.3085052730355732 l -7.359526757712635 -13.003578604644407" fill="#ffa90f" stroke="none" /><path d="M 110.34350942703117 118.27599006163325 l 1.5536068092805013 2.7450743682694045 a24.15422374050612,24.15422374050612 0 0,0 -0.3626075911796473,0.20113231835608816 l -1.5062550299447597 -2.7713396020586365" fill="#ff0000" stroke="none" /><path d="M 109.71004243097381 118.62028667847754 l 14.639525539098866 28.073220515018537 a52.66103943484461,52.66103943484461 0 0,0 -0.805144106609341,0.41111231771361767 l -14.155454210775943 -28.320390784404992" fill="#87ff25" stroke="none" /><path d="M 109.3889696526874 118.78422872680471 l 5.389570281094027 10.78275089218995 a33.05467480348911,33.05467480348911 0 0,0 -0.5097341737659651,0.24933652749411933 l -5.203675858065992 -10.873681169781294" fill="#ff810b" stroke="none" /><path d="M 109.06512990194946 118.94263497670748 l 5.479744040807051 11.450557493773326 a33.69420583065238,33.69420583065238 0 0,0 -0.5238827848021191,0.24520359567992367 l -5.282372542133426 -11.542937321023782" fill="#ff8a0c" stroke="none" /><path d="M 108.4095320186766 119.2426549942271 l 9.167400763902945 20.97680699732435 a43.89252429438493,43.89252429438493 0 0,0 -0.6930105484879887,0.29580499419504536 l -8.805955140244524 -21.131086641178797" fill="#eeff19" stroke="none" /><path d="M 107.74402155503746 119.51999308798841 l 5.965890999834617 15.037942528028067 a37.17812012868562,37.17812012868562 0 0,0 -0.595253105505321,0.23025668870258176 l -5.7068656318357665 -15.138139104868689" fill="#ffb911" stroke="none" /><path d="M 107.407793817531 119.65005319985036 l 4.27147549570312 11.330596234169867 a33.10900135982223,33.10900135982223 0 0,0 -0.5335450113362906,0.19592511853115147 l -4.076341332712703 -11.402252201709741" fill="#ff820c" stroke="none" /><path d="M 107.06938296918513 119.77432235084164 l 2.6010648046360494 7.275641187710466 a28.726609399356573,28.726609399356573 0 0,0 -0.4657735566284827,0.16202022115474546 l -2.475785475962545 -7.319219841433802" fill="#ff4406" stroke="none" /><path d="M 104.64783097203109 120.47920084513623 l 2.6432959973815064 11.64684988530572 a32.94303671520016,32.94303671520016 0 0,0 -0.552560744847104,0.12042804253682302 l -2.442972835915267 -11.690509385976263" fill="#ff800b" stroke="none" /><path d="M 103.94208987418118 120.62667999033965 l 1.2284511865033285 6.427775701846582 a27.54411130642433,27.54411130642433 0 0,0 -0.4651875988377297,0.08477267672247514 l -1.1179288541145416 -6.447916552500421" fill="#ff3304" stroke="none" /><path d="M 103.58742460773223 120.69131181640829 l 2.5549417871682008 14.736225279027405 a35.95607110875261,35.95607110875261 0 0,0 -0.6090658759622269,0.10022155811283318 l -2.3015984081529015 -14.77791283563591" fill="#ffa90f" stroke="none" /><path d="M 103.2317021107853 120.74984581791261 l 1.2292922791481762 7.892938266911207 a28.98809326390501,28.98809326390501 0 0,0 -0.49234881445418494,0.07235832076218082 l -1.0936183590863058 -7.91287766097227" fill="#ff4806" stroke="none" /><path d="M 102.875027216393 120.80226474461374 l 1.6396715153252808 11.863846283441962 a32.97661769095552,32.97661769095552 0 0,0 -0.5614224849307432,0.07268738074400748 l -1.4357712085037622 -11.890245260386365" fill="#ff800b" stroke="none" /><path d="M 102.51750503828377 120.84855314841334 l 0.9938000150179819 8.230089758279544 a29.289874299359887,29.289874299359887 0 0,0 -0.4996909718136234,0.05599141564734393 l -0.8523731416035593 -8.245936934433859" fill="#ff4c07" stroke="none" /><path d="M 102.15924093988457 120.88869738790638 l 0.8528949024924856 8.250984497730899 a29.294948757918476,29.294948757918476 0 0,0 -0.5006652333252641,0.04741351813558325 l -0.7111301057822063 -8.264409771371666" fill="#ff4c07" stroke="none" /><path d="M 101.80034050326958 120.92268563240118 l 1.4094138582194682 16.37952544417093 a37.44005173957746,37.44005173957746 0 0,0 -0.6408150205915957,0.049603135391227196 l -1.1280298428526367 -16.40130634655721" fill="#ffbd11" stroke="none" /><path d="M 101.44090949804482 120.95050786540614 l 0.5235130873381294 7.611765394567062 a28.629746940399986,28.629746940399986 0 0,0 -0.49059886350101006,0.029513209363773458 l -0.39276987170465416 -7.619630581755526" fill="#ff4206" stroke="none" /><path d="M 101.08105385017728 120.97215588758144 l 0.2771846924255944 5.37730898257065 a26.38444827700574,26.38444827700574 0 0,0 -0.4525237423874902,0.019433316587942354 l -0.18483518943727462 -5.381274867584422" fill="#ff2103" stroke="none" /><path d="M 100.72087961077811 120.9876233191556 l 0.771628125430272 22.46511095176677 a43.47835892673543,43.47835892673543 0 0,0 -0.7461438896785177,0.019218019843530856 l -0.38587092168101045 -22.475046688960347" fill="#f3ff19" stroke="none" /><line stroke="#e1ed5e" stroke-width="0.3" x1="101.45913802915013" x2="101.54496967792366" y1="184.9874750549273" y2="189.98673829345242" /><path d="M 101.47630435890484 185.9873277026323 a86.0,86.0 0 0,1 -42.54439059252881,-10.42667462771756" fill="none" id="id67" stroke="none" /><text fill="#e1ed5e" style="font-size:6.75px; font-family:Arial;" text-anchor="middle"><textPath startOffset="22.145653131862474" xlink:href="#id67">July</textPath></text><path d="M 100.0 121.0 l 1.466584708054559e-15 11.975572949487578 a32.97557294948758,32.97557294948758 0 0,0 -0.566069559101308,-0.004859026352159574 l 0.20557663425245437 -11.973808321329853" fill="#ff800b" stroke="none" /><path d="M 99.63950707515114 120.99690560180557 l -0.1281923615052724 7.466562386841051 a28.467662764087425,28.467662764087425 0 0,0 -0.48854126855719776,-0.012583090102847116 l 0.25634694413321407 -7.463261579388157" fill="#ff4006" stroke="none" /><path d="M 99.27912038922189 120.98762331915562 l -0.7736006161565836 22.522537867087333 a43.535819707472385,43.535819707472385 0 0,0 -0.7466895595122801,-0.03206606249289487 l 1.1601159362697024 -22.50593923616861" fill="#f3ff19" stroke="none" /><path d="M 98.55909050195518 120.95050786540614 l -0.5299032629313118 7.704677145241148 a28.7228781798282,28.7228781798282 0 0,0 -0.49161395129162316,-0.038054029013898545 l 0.6620862089981712 -7.694445349232195" fill="#ff4406" stroke="none" /><path d="M 98.19965949673042 120.92268563240118 l -0.8743069426428453 10.160771961704224 a31.198318463732548,31.198318463732548 0 0,0 -0.5331947675374739,-0.05049409884630874 l 1.0486012735653345 -10.144266107352733" fill="#ff6709" stroke="none" /><path d="M 97.48249496171623 120.84855314841334 l -2.2483955978543118 18.61994093663475 a39.75519883254287,39.75519883254287 0 0,0 -0.6768269179892994,-0.08762879508067851 l 2.567700337734405 -18.578600545353677" fill="#ffdb14" stroke="none" /><path d="M 97.12497278360702 120.80226474461374 l -1.4756757575055608 10.677254674253906 a31.778746973566385,31.778746973566385 0 0,0 -0.5397467247960426,-0.07932418134574946 l 1.6587475879092883 -10.650349419609274" fill="#ff6f0a" stroke="none" /><path d="M 96.76829788921471 120.74984581791261 l -1.4142074941891247 9.080226596699 a30.189695200822527,30.189695200822527 0 0,0 -0.5113882742335016,-0.08414874591905996 l 1.5698732714756898 -9.054611852284271" fill="#ff5908" stroke="none" /><path d="M 96.41257539226777 120.69131181640829 l -2.813905989308397 16.229861979913366 a37.47199097874034,37.47199097874034 0 0,0 -0.6328577935641583,-0.11532777158968426 l 3.0920985164236128 -16.179166034392313" fill="#ffbd11" stroke="none" /><path d="M 96.05791012581884 120.62667999033965 l -1.4211505105339304 7.436059992158365 a28.570644423070544,28.570644423070544 0 0,0 -0.48094396258098904,-0.09620226213743667 l 1.5485909586458775 -7.410568333358068" fill="#ff4206" stroke="none" /><path d="M 95.70440661134978 120.55596938700252 l -3.5241625609116913 16.86439361517047 a38.22868229909456,38.22868229909456 0 0,0 -0.6412180318508506,-0.13975048559860975 l 3.8131430093816787 -16.801411671438142" fill="#ffc712" stroke="none" /><path d="M 95.00130118170881 120.39639698878247 l -5.030577640644487 20.526473462658725 a42.13392590627177,42.13392590627177 0 0,0 -0.7010176517754975,-0.17819594577313014 l 5.3822005856453625 -20.43709228505033" fill="#fffa17" stroke="none" /><path d="M 94.6519064749342 120.30758222061772 l -3.3693392107070026 12.79392978636097 a34.230158203708,34.230158203708 0 0,0 -0.5669469367713081,-0.154523908718061 l 3.5884675484130057 -12.734205383498763" fill="#ff920d" stroke="none" /><path d="M 94.30408787586889 120.21278271476187 l -3.519973137087892 12.491142881283414 a33.97762926602766,33.97762926602766 0 0,0 -0.5600483892116748,-0.16302192386684114 l 3.7338815386811737 -12.428877263114057" fill="#ff8e0d" stroke="none" /><path d="M 93.95794788825049 120.11202640906438 l -2.228013336336557 7.416331774598608 a28.74377300918709,28.74377300918709 0 0,0 -0.4713422610630993,-0.14602303733005823 l 2.35499623027129 -7.376992149461901" fill="#ff4406" stroke="none" /><path d="M 93.61358852112213 120.00534299687104 l -3.202631473603975 10.032197476458162 a31.53099399688236,31.53099399688236 0 0,0 -0.5142213572998906,-0.16903477387844787 l 3.374375568551609 -9.975741781177693" fill="#ff6c09" stroke="none" /><path d="M 93.27111125876986 119.89276391827306 l -5.584170725462503 16.50860850771764 a38.42748167556631,38.42748167556631 0 0,0 -0.6230636050179059,-0.21673386486170676 l 5.866740102525431 -16.41031621028734" fill="#ffca12" stroke="none" /><path d="M 92.59220618246901 119.65005319985036 l -2.672877120793654 7.090124119810312 a28.577211369440484,28.577211369440484 0 0,0 -0.4575452915710093,-0.1769883479720137 l 2.7941946748581916 -7.043195883700258" fill="#ff4206" stroke="none" /><path d="M 92.25597844496254 119.51999308798841 l -4.4348601056825645 11.17874453136132 a33.02631753507346,33.02631753507346 0 0,0 -0.5251900668640809,-0.21359022807246594 l 4.626104633737087 -11.100967046709563" fill="#ff810b" stroke="none" /><path d="M 91.26138138417905 119.09545874513695 l -1.89473301097428 4.14033357384478 a25.55328181486518,25.55328181486518 0 0,0 -0.3973064242940904,-0.18595946774704908 l 1.9655281491398604 -4.107197874527204" fill="#ff1502" stroke="none" /><path d="M 90.6110303473126 118.78422872680471 l -6.72820477463768 13.460916594974709 a36.048754601837416,36.048754601837416 0 0,0 -0.5511558949417725,-0.28142412709849984 l 6.958287891293034 -13.343434516203374" fill="#ffaa0f" stroke="none" /><path d="M 89.97174638481275 118.45085714620012 l -9.414129572979245 17.320938078769817 a40.713973002553814,40.713973002553814 0 0,0 -0.6112055529671725,-0.33902541714714723 l 9.71007931410252 -17.15677974618952" fill="#ffe815" stroke="none" /><line stroke="#e1ed5e" stroke-width="0.3" x1="58.13341422392154" x2="55.67067388415222" y1="173.97424548756322" y2="178.32567169271397" /><path d="M 57.64086615596768 174.84453072859336 a86.0,86.0 0 0,1 -31.369924170532247,-30.572349798747897" fill="none" id="id68" stroke="none" /><text fill="#e1ed5e" style="font-size:6.75px; font-family:Arial;" text-anchor="middle"><textPath startOffset="22.145653131862474" xlink:href="#id68">August</textPath></text><path d="M 89.03521579738668 117.91015095944536 l -3.1552906018076627 5.153930068758265 a27.043083148154288,27.043083148154288 0 0,0 -0.39384499499180997,-0.24578840552477324 l 3.243299725589185 -5.099005866391944" fill="#ff2b04" stroke="none" /><path d="M 88.1277618465304 117.32195027204791 l -6.511035852996831 9.499795894186285 a32.51693144505987,32.51693144505987 0 0,0 -0.4577221216726592,-0.31952558941892006 l 6.673153065843255 -9.386625488962236" fill="#ff7a0b" stroke="none" /><path d="M 87.83215693770417 117.11559508785305 l -7.005314651592209 9.853852357053153 a33.09019601339922,33.09019601339922 0 0,0 -0.4601412193505076,-0.33310675773079346 l 7.173436881316671 -9.732144827949293" fill="#ff820b" stroke="none" /><path d="M 87.54013794807813 116.9041958592261 l -4.458569920345316 6.048906390094916 a28.5145268813638,28.5145268813638 0 0,0 -0.39152755232689807,-0.2938095744617093 l 4.56175046158298 -5.971477788369192" fill="#ff4106" stroke="none" /><path d="M 87.2517909369889 116.68781488649013 l -5.897232830721061 7.719667079130915 a30.714453915293024,30.714453915293024 0 0,0 -0.41623943525009377,-0.3236703024521885 l 6.028882210606382 -7.617295725057933" fill="#ff6008" stroke="none" /><path d="M 86.68645165197938 116.24036423190432 l -12.357912663355629 15.074644080801857 a40.492637060130676,40.492637060130676 0 0,0 -0.5337810102719759,-0.44529910334837364 l 12.614868007789498 -14.860282793541613" fill="#ffe515" stroke="none" /><path d="M 86.40962598614128 116.0094264158162 l -4.876918306721084 5.744997502480785 a28.5358694570661,28.5358694570661 0 0,0 -0.37072241669980066,-0.3202211939418259 l 4.974820203183747 -5.660432176074237" fill="#ff4106" stroke="none" /><path d="M 86.13680546590413 115.77377054828092 l -15.821646555249403 18.002129440274768 a44.9666677722132,44.9666677722132 0 0,0 -0.5754341075051479,-0.5145567272338897 l 16.128345689577923 -17.727877183157496" fill="#e1ff1b" stroke="none" /><path d="M 85.60350026404147 115.28858382429668 l -16.546728637045057 17.572052403369177 a45.13651288514477,45.13651288514477 0 0,0 -0.5595369617189496,-0.5360237520886133 l 16.84593808462932 -17.28541652097498" fill="#dfff1b" stroke="none" /><path d="M 85.34317274990678 115.03919595460226 l -14.347172546822692 14.721462949956262 a41.556333123279494,41.556333123279494 0 0,0 -0.5066074785395439,-0.5022775261088201 l 14.597771945492198 -14.473005413618782" fill="#fff216" stroke="none" /><path d="M 85.08716467003676 114.78537596483092 l -5.780731256723459 5.731323594150927 a29.140327020662664,29.140327020662664 0 0,0 -0.3491471855800207,-0.35825577059335517 l 5.878265243454289 -5.631245131489835" fill="#ff4a06" stroke="none" /><path d="M 84.83555147118756 114.52719865689866 l -6.637971372696145 6.3590264180556355 a30.192381678882956,30.192381678882956 0 0,0 -0.3553271903592552,-0.3773451626780164 l 6.7461543967916535 -6.244139795433129" fill="#ff5908" stroke="none" /><path d="M 84.58840730492382 114.26474011684316 l -5.499795498882993 5.09052860658681 a28.494079798348313,28.494079798348313 0 0,0 -0.32917758435591643,-0.36182382863241247 l 5.58637078408079 -4.995367202396723" fill="#ff4006" stroke="none" /><path d="M 84.3458050057657 113.99807769240083 l -9.546739636166423 8.53675345077791 a33.80688866040927,33.80688866040927 0 0,0 -0.38312692681719646,-0.43592811307805773 l 9.691877626942212 -8.371613059888553" fill="#ff8c0c" stroke="none" /><path d="M 83.8745106332314 113.45245675266167 l -6.327583441331213 5.278695155062068 a29.240323704023083,29.240323704023083 0 0,0 -0.3182366185260268,-0.3881969300513829 l 6.41726687909587 -5.16929594331219" fill="#ff4b07" stroke="none" /><path d="M 83.64595745247003 113.17365903436017 l -9.338115909590677 7.522125166224517 a32.99094557394448,32.99094557394448 0 0,0 -0.3514848576080272,-0.44408963548334984 l 9.465867197840264 -7.360715586826486" fill="#ff800b" stroke="none" /><path d="M 83.20337586046588 112.60449989151573 l -19.7453466060622 14.817276203035556 a45.68664389240821,45.68664389240821 0 0,0 -0.4653467076466117,-0.6313321813455398 l 19.996795333292642 -14.476137712421137" fill="#d8ff1c" stroke="none" /><path d="M 82.78059297857968 112.02048342749411 l -9.839701948359389 6.868876149718861 a33.000049749593714,33.000049749593714 0 0,0 -0.3202737535510506,-0.4672889779280681 l 9.956165438725765 -6.698952436720742" fill="#ff810b" stroke="none" /><path d="M 82.37810715431573 111.42229804090323 l -9.20879306810709 5.969028409265551 a31.974113628072036,31.974113628072036 0 0,0 -0.29459168157026044,-0.4631470538061823 l 9.309902441303239 -5.810067680780696" fill="#ff720a" stroke="none" /><path d="M 82.18462484594161 111.11811171558189 l -8.471708610822375 5.286972738012969 a30.98608669695864,30.98608669695864 0 0,0 -0.2777416272633253,-0.45367007504101914 l 8.561218202541106 -5.140765546847393" fill="#ff6409" stroke="none" /><path d="M 81.99639281039703 110.81064883170644 l -23.559760050179925 14.146958983244657 a48.48087957281682,48.48087957281682 0 0,0 -0.4223060680905143,-0.7171680285426769 l 23.799139828400207 -13.740439786408421" fill="#b7ff1f" stroke="none" /><line stroke="#e1ed5e" stroke-width="0.3" x1="26.387840678322732" x2="22.057713659400548" y1="142.50000000000003" y2="145.00000000000006" /><path d="M 25.521815274538298 143.00000000000003 a86.0,86.0 0 0,1 -11.493303480769221,-40.785679425670985" fill="none" id="id69" stroke="none" /><text fill="#e1ed5e" style="font-size:6.75px; font-family:Arial;" text-anchor="middle"><textPath startOffset="21.40746469413373" xlink:href="#id69">September</textPath></text><path d="M 81.81346652052679 110.50000000000001 l -9.442465898852696 5.451610228516471 a31.903220457032933,31.903220457032933 0 0,0 -0.26975940483506966,-0.4766390204966329 l 9.534658668709143 -5.288714437920717" fill="#ff710a" stroke="none" /><path d="M 81.63589988554817 110.18625677009913 l -6.591540523509822 3.6562164148814285 a28.53766044243972,28.53766044243972 0 0,0 -0.23394718839355463,-0.43043647662315526 l 6.6533330615187065 -3.5425251047836865" fill="#ff4106" stroke="none" /><path d="M 81.4637452351635 109.86951160357371 l -15.626716981314102 8.32034661421543 a38.70374116944711,38.70374116944711 0 0,0 -0.30721911206804264,-0.5891331557487949 l 15.767244162357093 -8.050867215362132" fill="#ffce13" stroke="none" /><path d="M 81.29705330413844 109.54985784667822 l -9.217309300789317 4.706423804911998 a31.34935823024112,31.34935823024112 0 0,0 -0.24061391810983862,-0.48138901709349685 l 9.296743132110892 -4.5475029316547495" fill="#ff6909" stroke="none" /><path d="M 80.9802524753101 108.90220220490708 l -13.538583177171393 6.33674053005591 a35.94816092335246,35.94816092335246 0 0,0 -0.256799171352061,-0.56115253427592 l 13.64536681337851 -6.1033990135653005" fill="#ffa90f" stroke="none" /><path d="M 80.83023694016515 108.57439118712176 l -25.680363446896262 11.48649992876064 a49.132201253689765,49.132201253689765 0 0,0 -0.3377631029979166,-0.7728680795000141 l 25.873760431911148 -11.043969779484776" fill="#afff20" stroke="none" /><path d="M 80.68587082218212 108.24405325689762 l -13.738520396559318 5.864157414370442 a35.93771350867301,35.93771350867301 0 0,0 -0.2373158128621412,-0.5694715590809183 l 13.837162053957945 -5.6274533458482425" fill="#ffa90f" stroke="none" /><path d="M 80.41425534168474 107.57618678355246 l -16.827034844367393 6.509058563680829 a39.04208815628006,39.04208815628006 0 0,0 -0.23642645968050685,-0.6271492734557027 l 16.936291987862337 -6.219241010030982" fill="#ffd213" stroke="none" /><path d="M 80.28708602549918 107.23885506374661 l -7.175010518789551 2.634763246750795 a28.643477828264402,28.643477828264402 0 0,0 -0.1655317904089643,-0.46302187858923255 l 7.219182479242459 -2.5112064117806407" fill="#ff4306" stroke="none" /><path d="M 80.16572619554312 106.89939002012753 l -14.794298720617334 5.146225062440983 a36.66380882889457,36.66380882889457 0 0,0 -0.20167640097243206,-0.5962204439269974 l 14.880460543162133 -4.891502944039825" fill="#ffb310" stroke="none" /><path d="M 79.94057633289273 106.21446072829308 l -29.04513914294076 8.99825835213755 a51.407051175748734,51.407051175748734 0 0,0 -0.25391088217668545,-0.8451867467273012 l 29.195326345121074 -8.498334001819524" fill="#95ff23" stroke="none" /><path d="M 79.64726062577567 105.17358676015961 l -14.542974765237686 3.6967673154629783 a36.00547245530828,36.00547245530828 0 0,0 -0.14712945953997453,-0.6003384029742714 l 14.604291751293953 -3.4465730878806076" fill="#ffaa0f" stroke="none" /><path d="M 79.407916724674 104.11899336999214 l -13.24230466000605 2.648831804373004 a34.504626712215185,34.504626712215185 0 0,0 -0.11119314395408246,-0.5818095149180178 l 13.285824096242289 -2.421119724421672" fill="#ff950d" stroke="none" /><path d="M 79.22317932658666 103.0534771498775 l -7.501556763225652 1.102470513899633 a28.582136579217934,28.582136579217934 0 0,0 -0.06717548422629738,-0.4860483404314635 l 7.519376764007162 -0.9735338652680837" fill="#ff4206" stroke="none" /><path d="M 79.17382384314188 102.69636545807758 l -7.418579638376501 0.9604836593264366 a28.480498159265032,28.480498159265032 0 0,0 -0.058612748225190026,-0.4853976369320211 l 7.433974472861353 -0.8329923454710163" fill="#ff4006" stroke="none" /><path d="M 79.13060592940153 102.33845913500099 l -17.8220494141088 1.996997810088622 a38.93358429239494,38.93358429239494 0 0,0 -0.06872261056345079,-0.66482891707472 l 17.853704417153917 -1.6907643707309705" fill="#ffd113" stroke="none" /><path d="M 79.0935383218832 101.97986365728391 l -10.072360528420237 0.9538630142351535 a31.117425624357402,31.117425624357402 0 0,0 -0.04579651890577993,-0.5322249687677347 l 10.087250670023758 -0.7808169980917568" fill="#ff6609" stroke="none" /><path d="M 79.06263194458094 101.62068470465958 l -13.535924076158537 1.0477661306615622 a34.576415375941096,34.576415375941096 0 0,0 -0.04072778826248025,-0.5921731028156233 l 13.551915825586082 -0.8152496036915957" fill="#ff960d" stroke="none" /><path d="M 79.03789590574601 101.26102812881392 l -13.591544359743246 0.8176335579001593 a34.616115551723,34.616115551723 0 0,0 -0.0305914325632188,-0.5934656191595566 l 13.603577381763037 -0.5841961453638719" fill="#ff970d" stroke="none" /><path d="M 79.00696218219943 100.54070618675478 l -33.40438054695073 0.8603783493940876 a54.415458857085994,54.415458857085994 0 0,0 -0.016035894725097675,-0.9340104744759901 l 33.4142278732745 -0.28682095894904525" fill="#74ff27" stroke="none" /><line stroke="#e1ed5e" stroke-width="0.3" x1="15.003131293944662" x2="10.003315487706104" y1="100.72959589197737" y2="100.7725132973878" /><path d="M 14.003168132696942 100.73817937305945 a86.0,86.0 0 0,1 10.791469493833604,-42.45332614584628" fill="none" id="id70" stroke="none" /><text fill="#e1ed5e" style="font-size:6.75px; font-family:Arial;" text-anchor="middle"><textPath startOffset="22.145653131862435" xlink:href="#id70">October</textPath></text><path d="M 79.00077361379809 99.81974689727619 l -25.49284214169177 -0.2188253895061442 a46.49378130078605,46.49378130078605 0 0,0 0.013701425991265562,-0.7980393741966064 l 25.485329284101837 0.6564116796718029" fill="#cfff1d" stroke="none" /><path d="M 79.00696218219943 99.45929381324524 l -21.0393393339985 -0.5418987495692348 a42.046316871745546,42.046316871745546 0 0,0 0.024777920567498016,-0.7213821222400518 l 21.02693672643415 0.9029871363734252" fill="#fff917" stroke="none" /><path d="M 79.01933749520258 99.09900007780938 l -14.934843495960845 -0.6413664403930497 a35.948608669695865,35.948608669695865 0 0,0 0.031769001817014794,-0.6163101480929993 l 14.92163290468726 0.897648381862761" fill="#ffa90f" stroke="none" /><path d="M 79.03789590574601 98.7389718711861 l -15.652526094818908 -0.9416171012131809 a36.68082318994395,36.68082318994395 0 0,0 0.043206584139232555,-0.6282142508426606 l 15.634055549514612 1.2101747762101664" fill="#ffb310" stroke="none" /><path d="M 79.0935383218832 98.0201363427161 l -14.867314674559719 -1.407950157169586 a35.9338330403635,35.9338330403635 0 0,0 0.06342767713188659,-0.613605239300724 l 14.840954604946168 1.6629599187532227" fill="#ffa90f" stroke="none" /><path d="M 79.13060592940154 97.66154086499901 l -24.13027088425637 -2.7038471835095126 a45.281284202845676,45.281284202845676 0 0,0 0.09318869689190609,-0.7717360920583517 l 24.080300101104793 3.1176769524913004" fill="#ddff1b" stroke="none" /><path d="M 79.22317932658666 96.9465228501225 l -14.829462277414784 -2.1794202742000723 a35.988756591821165,35.988756591821165 0 0,0 0.09507631026253938,-0.6104581150285301 l 14.789864475013978 2.4336665711600522" fill="#ffa90f" stroke="none" /><path d="M 79.407916724674 95.88100663000787 l -21.989625175550916 -4.398540890480755 a43.425226360651386,43.425226360651386 0 0,0 0.152489314276404,-0.7297165705657648 l 21.910878150450145 4.775373912331928" fill="#f4ff19" stroke="none" /><path d="M 79.48165901384962 95.52812308129327 l -7.3534011847578045 -1.602639563028271 a28.526019037511194,28.526019037511194 0 0,0 0.10838411819965511,-0.4775604229995788 l 7.324806205000487 1.7286343199668581" fill="#ff4106" stroke="none" /><path d="M 79.56144815229197 95.17655741523228 l -21.846155340519736 -5.155633176365677 a43.446270438791416,43.446270438791416 0 0,0 0.17753485380926312,-0.7244027874592064 l 21.754432960194176 5.529891788433001" fill="#f4ff19" stroke="none" /><path d="M 79.64726062577567 94.8264132398404 l -4.717426258391655 -1.1991513075312712 a25.86745049915426,25.86745049915426 0 0,0 0.1130906695516863,-0.42942369267510094 l 4.696146108035243 1.2799555045791569" fill="#ff1a02" stroke="none" /><path d="M 79.73907114497095 94.47779374421319 l -11.8173312068233 -3.2208661697573864 a33.24839972140228,33.24839972140228 0 0,0 0.15481326956503624,-0.5493776783919931 l 11.76029944518368 3.4232517720523927" fill="#ff840c" stroke="none" /><line stroke="#e1ed5e" stroke-width="0.3" x1="26.387840678322718" x2="22.05771365940052" y1="57.49999999999999" y2="54.99999999999999" /><path d="M 25.521815274538284 56.99999999999999 a86.0,86.0 0 0,1 29.574782752854787,-30.34633250058573" fill="none" id="id71" stroke="none" /><text fill="#e1ed5e" style="font-size:6.75px; font-family:Arial;" text-anchor="middle"><textPath startOffset="21.40746469413373" xlink:href="#id71">November</textPath></text><line stroke="#e1ed5e" stroke-width="0.3" x1="56.869717070023135" x2="54.33264160355391" y1="26.7553504044142" y2="22.446841604673864" /><path d="M 56.362301976729285 25.89364864446614 a86.0,86.0 0 0,1 42.16139366436587,-11.88097634709845" fill="none" id="id72" stroke="none" /><text fill="#e1ed5e" style="font-size:6.75px; font-family:Arial;" text-anchor="middle"><textPath startOffset="22.145653131862474" xlink:href="#id72">December</textPath></text></svg>