<?xml version="1.0" encoding="utf-8" ?>
<svg baseProfile="full" height="200mm" version="1.1" viewBox="0,0,200,200" width="200mm" xmlns="http://www.w3.org/2000/svg" xmlns:ev="http://www.w3.org/2001/xml-events" xmlns:xlink="http://www.w3.org/1999/xlink"><defs /><rect fill="#1a1a1a" height="200" width="200" x="0" y="0" /><text alignment-baseline="middle" fill="#e1ed5e" style="dominant-baseline: central; font-size:9.0px; font-family:Arial;" text-anchor="middle" x="100.0" y="100.0">2023</text><line stroke="#e1ed5e" stroke-width="0.3" x1="100.0" x2="100.0" y1="15.0" y2="10.0" /><path d="M 100.0 14.0 a86.0,86.0 0 0,1 42.46469731375804,11.215312516191453" fill="none" id="id49" stroke="none" /><text fill="#e1ed5e" style="font-size:6.75px; font-family:Arial;" text-anchor="middle"><textPath startOffset="22.20632615414155" xlink:href="#id49">January</textPath></text><path d="M 101.08401301168833 79.027996857942 l 0.3068824925804187 -5.937143308469405 a26.945069177861214,26.945069177861214 0 0,0 0.4629906455244935,0.027928860110646495 l -0.4090351869445241 5.930981178978455" fill="#ff2d04" stroke="none" /><path d="M 101.44485096284872 79.0497635885617 l 1.0166699079723596 -14.741641506347055 a35.77665767362264,35.77665767362264 0 0,0 0.6140123055904132,0.0476591722948882 l -1.270272402925114 14.7219570718637" fill="#ffa90f" stroke="none" /><path d="M 102.52436894288641 79.15227682838746 l 3.7443092534339653 -30.922707635296383 a52.148574594728544,52.148574594728544 0 0,0 0.8902140915009572,0.11557533839232223 l -4.276038073442769 30.853673973739923" fill="#8cff24" stroke="none" /><path d="M 103.2404852339499 79.25152402106235 l 1.1459025736117916 -7.337090067158332 a28.426034161098613,28.426034161098613 0 0,0 0.482796960502976,0.07966563524697833 l -1.2720287402536428 7.316278168971729" fill="#ff4206" stroke="none" /><path d="M 103.59715602781102 79.31037775812273 l 1.9529131616417172 -11.232494579932064 a32.40100014494854,32.40100014494854 0 0,0 0.5486644634613961,0.10026492372257771 l -2.1459727462060143 11.197214174858747" fill="#ff7b0b" stroke="none" /><path d="M 103.95276090670814 79.375362276772 l 2.2317761703085846 -11.6449175850308 a32.85685162412505,32.85685162412505 0 0,0 0.5545510426068836,0.11123772220159255 l -2.4318936223825935 11.604775906752" fill="#ff810b" stroke="none" /><path d="M 104.66035177308747 79.52364482259891 l 3.1684526004891373 -13.921344132225 a35.277356699661944,35.277356699661944 0 0,0 0.590939927310238,0.13985638829102723 l -3.407616214761899 13.864741831793104" fill="#ffa20f" stroke="none" /><path d="M 105.01212808612495 79.60689891045804 l 8.670340159215705 -35.27745506685625 a57.32731251373504,57.32731251373504 0 0,0 0.9562499051970056,0.24376939262702418 l -9.276298953097735 35.12298267806036" fill="#54ff2b" stroke="none" /><path d="M 105.71112130821622 79.79150937346287 l 3.2430332199414784 -11.475295811428897 a32.92475066512678,32.92475066512678 0 0,0 0.5440576457055282,0.15882534582439864 l -3.440081083370434 11.417772136685794" fill="#ff820c" stroke="none" /><path d="M 106.0581310904928 79.89281104454417 l 2.1393061332536836 -7.100445997677866 a28.415724111488807,28.415724111488807 0 0,0 0.46712017182393645,0.1451365112101808 l -2.261211677788338 7.062569351585164" fill="#ff4206" stroke="none" /><path d="M 106.40334571778207 80.00007090966166 l 4.955946887835328 -15.479187084485782 a37.25320406417012,37.25320406417012 0 0,0 0.6090316610351518,0.20078816321114767 l -5.221661371112897 15.391585197015397" fill="#ffbd11" stroke="none" /><path d="M 107.76421540070413 80.48803036053334 l 8.200875144938548 -20.609323490765842 a43.18104073054066,43.18104073054066 0 0,0 0.6882567076415619,0.28075719214375183 l -8.554415722168496 20.46510541243851" fill="#f5ff19" stroke="none" /><path d="M 108.43124777332544 80.76684994638697 l 19.122606411098886 -43.62200808336407 a68.62933618242943,68.62933618242943 0 0,0 1.077865822415239,0.48360697548313186 l -19.870654351980903 43.286380777364414" fill="#39ff8c" stroke="none" /><path d="M 109.08828744355905 81.06846463323043 l 5.466829970193265 -11.387787365613937 a33.6320200683596,33.6320200683596 0 0,0 0.5197408028887844,0.255034554768002 l -5.662042040092481 11.291997650711103" fill="#ff8c0c" stroke="none" /><path d="M 109.73455568895987 81.39251694778311 l 11.046771920554296 -21.115768183086203 a44.83079595453292,44.83079595453292 0 0,0 0.680691493246732,0.36360182185314555 l -11.408608460329338 20.922487634731304" fill="#e1ff1b" stroke="none" /><path d="M 110.05341064243156 81.56283822128135 l 7.178230811605185 -13.16430885653527 a35.99419972038958,35.99419972038958 0 0,0 0.5414143154667218,0.30129648038038886 l -7.4037692161439415 13.038796978594702" fill="#ffac0f" stroke="none" /><path d="M 110.36928655335952 81.73862282372117 l 7.542240347520602 -13.282658843640373 a36.27463306977636,36.27463306977636 0 0,0 0.5403249406117763,0.31299108116404295 l -7.769762020597707 13.15086360508628" fill="#ffb010" stroke="none" /><line stroke="#e1ed5e" stroke-width="0.3" x1="143.23703022742887" x2="145.7803849466894" y1="26.81831364943548" y2="22.513508569990506" /><path d="M 143.74570117128098 25.957352633546492 a86.0,86.0 0 0,1 28.547481713284135,27.462654790039103" fill="none" id="id50" stroke="none" /><text fill="#e1ed5e" style="font-size:6.75px; font-family:Arial;" text-anchor="middle"><textPath startOffset="19.985693538727396" xlink:href="#id50">February</textPath></text><path d="M 110.68208982089419 81.91981866633111 l 10.607818806564534 -17.954472466824384 a41.85399005933539,41.85399005933539 0 0,0 0.6171230001200071,0.37180970253592655 l -10.915303872902179 17.76921615482984" fill="#fff817" stroke="none" /><path d="M 111.2981086023043 82.29822771554956 l 6.3549582713315145 -9.956889967702354 a32.812076551533885,32.812076551533885 0 0,0 0.4734829117907235,0.3079664566127263 l -6.525408208906518 9.8460245869301" fill="#ff800b" stroke="none" /><path d="M 111.60114157652 82.49532879139004 l 6.763811237063031 -10.205744929578358 a33.24362577091584,33.24362577091584 0 0,0 0.4742682962796234,0.3202280707360578 l -6.938484227749196 10.087804946543631" fill="#ff860c" stroke="none" /><path d="M 111.90073688211348 82.69761687909136 l 12.964835893174707 -18.84946788972102 a43.87770551131767,43.87770551131767 0 0,0 0.6186105842104753,0.43337624703750877 l -13.287377616968833 18.623506799919575" fill="#edff1a" stroke="none" /><path d="M 112.19680574252982 82.90503203632743 l 7.1028034283229 -9.955245629275613 a33.22933898788511,33.22933898788511 0 0,0 0.4627655153083169,0.33621882736580605 l -7.273114259985005 9.831507567093132" fill="#ff860c" stroke="none" /><path d="M 112.48926042617603 83.11751280151076 l 7.275041353645439 -9.834112535917738 a33.232579289191044,33.232579289191044 0 0,0 0.456954051918258,0.34416831825383865 l -7.44324155932208 9.707427628158053" fill="#ff860c" stroke="none" /><path d="M 112.77801427241765 83.33499621200491 l 9.013211405519138 -11.75497217429212 a35.81274284725696,35.81274284725696 0 0,0 0.4859745629483431,0.37931085478196924 l -9.214218523626911 11.598082930286928" fill="#ffa90f" stroke="none" /><path d="M 113.6212207817346 84.01681056812373 l 20.278594110658133 -23.794975228461457 a52.2637525775124,52.2637525775124 0 0,0 0.6796930921385619,0.5894231516956105 l -20.68518100144346 23.442387083346176" fill="#8aff24" stroke="none" /><path d="M 114.42810811169701 84.74124197986012 l 12.676920093034033 -13.406751227725868 a39.45115935455816,39.45115935455816 0 0,0 0.4894137176561474,0.47081560862323346 l -12.905817054302599 13.186552532340333" fill="#ffd914" stroke="none" /><path d="M 114.94478906791727 85.2469230424477 l 2.1153191078158007 -2.088183743883145 a23.97238730250761,23.97238730250761 0 0,0 0.28736697944719014,0.29615693259096604 l -2.1509503509661 2.051462615742065" fill="#ff0000" stroke="none" /><path d="M 115.4437574822437 85.77008943001954 l 23.307748052218972 -21.475807992455426 a52.69323978697239,52.69323978697239 0 0,0 0.6088737967072848,0.6723336538407882 l -23.673965489542294 21.07142155134509" fill="#85ff25" stroke="none" /><path d="M 115.9244219780498 86.31012108654704 l 9.012563581655721 -7.74790471533163 a32.88513061734052,32.88513061734052 0 0,0 0.365321521291209,0.43242545286935424 l -9.144595716434047 7.591620312833169" fill="#ff810b" stroke="none" /><path d="M 116.60985879189232 87.15038557335679 l 7.233092611807711 -5.59561958583888 a30.144866717476585,30.144866717476585 0 0,0 0.3139717918975943,0.4131500747774712 l -7.328340343929419 5.470284735180375" fill="#ff5b08" stroke="none" /><path d="M 117.04232023915458 87.72973835380427 l 5.993885444215704 -4.315524039319383 a28.385824967620366,28.385824967620366 0 0,0 0.28208397367610594,0.398987776031508 l -6.067282037695693 4.211709762956082" fill="#ff4206" stroke="none" /><path d="M 117.2510076193507 88.02491185347247 l 51.75302285805209 -35.92526443958259 a84.0,84.0 0 0,0 0.8143021373250665,1.1948879069183742 l -52.36374946104589 35.02909850939381" fill="#4dd2ff" stroke="none" /><line stroke="#e1ed5e" stroke-width="0.3" x1="172.23445277983987" x2="176.4835382374775" y1="55.19839476539836" y2="52.563006222186495" /><path d="M 173.08426987136738 54.67131705675599 a86.0,86.0 0 0,1 12.851231095245387,41.99856678651699" fill="none" id="id51" stroke="none" /><text fill="#e1ed5e" style="font-size:6.75px; font-family:Arial;" text-anchor="middle"><textPath startOffset="22.20632615414155" xlink:href="#id51">March</textPath></text><path d="M 118.03404312379186 89.2402003453031 l 3.879525578926425 -2.314673293059278 a25.517569166171814,25.517569166171814 0 0,0 0.2218088277294734,0.3791431869775739 l -3.918794081126226 2.247550693727809" fill="#ff1802" stroke="none" /><path d="M 118.73160827565052 90.50648371742162 l 7.267629985182828 -3.6833657091674383 a29.147737633785166,29.147737633785166 0 0,0 0.2229662950442242,0.4494864452214111 l -7.3299562931804605 3.5577196754470775" fill="#ff4d07" stroke="none" /><path d="M 119.34039704204932 91.81776055985345 l 12.93566353553542 -5.472622725107626 a35.04567515628726,35.04567515628726 0 0,0 0.2302639590475627,0.5576024412070707 l -13.02794918146918 5.249145713447252" fill="#ff9f0e" stroke="none" /><path d="M 119.7369772167798 92.82701384747503 l 11.65508699538497 -4.235794402868056 a33.40092767067691,33.40092767067691 0 0,0 0.19173232994259454,0.5420531157009361 l -11.726272406137374 4.034543660740504" fill="#ff890c" stroke="none" /><path d="M 119.85752413597 93.16781622104841 l 11.621538726990918 -3.998508969865917 a33.290168280582975,33.290168280582975 0 0,0 0.18176860884975354,0.5434650045155365 l -11.68864462961244 3.797870862428067" fill="#ff870c" stroke="none" /><path d="M 119.97218684219823 93.5106431181261 l 18.450195804908354 -5.994832016368466 a40.399683918660486,40.399683918660486 0 0,0 0.2092020992215293,0.6632278241611178 l -18.55065338789809 5.676354025780929" fill="#ffe615" stroke="none" /><path d="M 120.18372546131832 94.20196356495316 l 14.19138557087539 -4.076659225345967 a35.765316619051845,35.765316619051845 0 0,0 0.16488360969556826,0.5931740718122889 l -14.259455951137321 3.831773850114726" fill="#ffa90f" stroke="none" /><path d="M 120.45610955862082 95.25157060432595 l 11.925086718693073 -2.7681427965925587 a33.24215290668587,33.24215290668587 0 0,0 0.12458781056631948,0.5585027255541379 l -11.97096891626143 2.562461901488457" fill="#ff860c" stroke="none" /><path d="M 120.78858239683441 97.02765380044208 l 28.27102957591843 -4.042184585436974 a49.558542846321814,49.558542846321814 0 0,0 0.11347490575784779,0.8455198521828355 l -28.336420480734112 3.554946391189474" fill="#a9ff21" stroke="none" /><path d="M 120.91429891909075 98.10471618934814 l 14.75067844781455 -1.3367276697358066 a35.811122696603995,35.811122696603995 0 0,0 0.05034961345812572,0.6143928150834008 l -14.77150254509217 1.082620937444637" fill="#ffa90f" stroke="none" /><path d="M 120.94382443527127 98.46500227214037 l 8.530630855247443 -0.6252200509264106 a29.553511729142606,29.553511729142606 0 0,0 0.03281763939369904,0.5076743559895144 l -8.540129085645557 0.478286630683861" fill="#ff5207" stroke="none" /><line stroke="#e1ed5e" stroke-width="0.3" x1="184.98032266829074" x2="189.97916517819016" y1="98.17113171792111" y2="98.06355123074" /><path d="M 185.9800911702706 98.14961562048488 a86.0,86.0 0 0,1 -9.607161424134198,41.387399972396054" fill="none" id="id52" stroke="none" /><text fill="#e1ed5e" style="font-size:6.75px; font-family:Arial;" text-anchor="middle"><textPath startOffset="21.466115282336823" xlink:href="#id52">April</textPath></text><path d="M 120.99513854157772 99.54816195383933 l 18.050926441788924 -0.38847542342699554 a39.055106163118545,39.055106163118545 0 0,0 0.008679519165720845,0.6722383245507959 l -18.05493896807236 0.07770084081573694" fill="#ffd413" stroke="none" /><path d="M 120.99824983174949 100.27111621757518 l 26.624956836891972 0.3437647255632878 a47.62717598155881,47.62717598155881 0 0,0 -0.017640056632127758,0.8196641164234184 l -26.615094717574838 -0.802018657776821" fill="#bfff1e" stroke="none" /><path d="M 120.9904718944345 100.63252640178507 l 15.411094560557853 0.4643975723358431 a36.418090045775685,36.418090045775685 0 0,0 -0.02427502791779464,0.6264306068965195 l -15.400817399788854 -0.7296054262463688" fill="#ffb110" stroke="none" /><path d="M 120.95626037817324 101.35467743843564 l 15.081581791220483 0.9749200582451018 a36.11305986374837,36.11305986374837 0 0,0 -0.045439586607667455,0.6199870573419797 l -15.062565645948478 -1.2343802520838516" fill="#ffad10" stroke="none" /><path d="M 120.89721153311464 102.0752229133903 l 20.270302026844625 2.012966905215613 a41.37000687336641,41.37000687336641 0 0,0 -0.07647087874808325,0.7080253635209213 l -20.23264884659549 -2.3615885906213254" fill="#fff216" stroke="none" /><path d="M 120.8583938346157 102.4346265915055 l 28.184710952381316 3.2897665708414485 a49.37605496822822,49.37605496822822 0 0,0 -0.10580228347213982,0.8433482990682443 l -28.12390715966233 -3.774432624197088" fill="#abff21" stroke="none" /><path d="M 120.81339534386255 102.79330883721812 l 11.872069934345227 1.5933180202362756 a32.97851020952078,32.97851020952078 0 0,0 -0.08035127480613485,0.5619766288484433 l -11.84288460852249 -1.7974401210651283" fill="#ff830c" stroke="none" /><path d="M 120.76222939487914 103.15116336523771 l 19.049558315926806 2.8912246920801934 a40.267715283654944,40.267715283654944 0 0,0 -0.1099083236161064,0.6843992360731822 l -18.99696823794941 -3.218703157846581" fill="#ffe415" stroke="none" /><path d="M 120.64145759157962 103.86396538481128 l 11.650650219105819 2.1809365427533156 a32.853022177127116,32.853022177127116 0 0,0 -0.1088374740387965,0.5549599353175344 l -11.611382812091358 -2.381160205138795" fill="#ff810b" stroke="none" /><path d="M 120.5718875245553 104.21870165774334 l 2.8832231066904614 0.5912660219107378 a23.943224590754152,23.943224590754152 0 0,0 -0.0862708145093317,0.40302852435459735 l -2.872618253456687 -0.6408083656815042" fill="#ff0000" stroke="none" /><path d="M 120.49622156327973 104.57218783832717 l 14.748205829712024 3.289951131898526 a36.11070328098041,36.11070328098041 0 0,0 -0.1405556404779556,0.605510020496153 l -14.689389623303516 -3.5433298097432444" fill="#ffad10" stroke="none" /><path d="M 120.41448212921028 104.9243191809786 l 30.41096251068091 7.335639721621498 a52.28319438534804,52.28319438534804 0 0,0 -0.21856537712121704,0.8730600351579016 l -30.280185819264634 -7.858027596176796" fill="#8aff24" stroke="none" /><path d="M 120.23288151984713 105.62410040840565 l 24.288085716566822 6.751318771077705 a46.208955014518224,46.208955014518224 0 0,0 -0.21961875963085326,0.764521713549496 l -24.16827432004987 -7.1683979601317835" fill="#d0ff1d" stroke="none" /><path d="M 120.13307415673323 105.97154293290107 l 11.443485002986533 3.3941792229722605 a32.93623900612057,32.93623900612057 0 0,0 -0.16589391910413226,0.542150926190225 l -11.383364311376267 -3.5906571217145427" fill="#ff820c" stroke="none" /><path d="M 120.02730092923936 106.31721596034902 l 11.293748111790153 3.562389464064045 a32.84227026824832,32.84227026824832 0 0,0 -0.17470171824676467,0.537676602164301 l -11.230754142527141 -3.7562649662061416" fill="#ff810b" stroke="none" /><path d="M 119.79798401119884 107.00284435728193 l 33.77475771814493 11.94663918160995 a56.82536038416039,56.82536038416039 0 0,0 -0.3341215889085008,0.9193591131637626 l -33.5641118682312 -12.526246091779843" fill="#59ff2a" stroke="none" /><path d="M 119.67450827220406 107.3425965602758 l 13.985276594933454 5.219355035446593 a35.92747897077183,35.92747897077183 0 0,0 -0.22122040717641847,0.5775366763633517 l -13.893361908163529 -5.459315278643089" fill="#ffab0f" stroke="none" /><path d="M 119.12269723197855 108.67885076344098 l 4.153821189407587 1.8852149235831097 a25.561607806647995,25.561607806647995 0 0,0 -0.18529169250271185,0.39910182132803157 l -4.120754880065044 -1.9564368121899718" fill="#ff1802" stroke="none" /><path d="M 118.97047184881838 109.00673069616215 l 9.422346657891776 4.473507013943923 a31.43038261739663,31.43038261739663 0 0,0 -0.2362468352147405,0.4867384545435437 l -9.343946566062321 -4.635034424452742" fill="#ff6d0a" stroke="none" /><path d="M 118.81262510543309 109.33194174019688 l 14.050291512401152 6.969601588916146 a36.68394203928573,36.68394203928573 0 0,0 -0.2854732669306419,0.5632658385100076 l -13.928239575684241 -7.210421639128848" fill="#ffb510" stroke="none" /><line stroke="#e1ed5e" stroke-width="0.3" x1="174.80103733775053" x2="179.2010983576182" y1="140.37084112569926" y2="142.7455964860345" /><path d="M 175.68104954172406 140.8457921977663 a86.0,86.0 0 0,1 -30.038265399797805,32.042727171017184" fill="none" id="id53" stroke="none" /><text fill="#e1ed5e" style="font-size:6.75px; font-family:Arial;" text-anchor="middle"><textPath startOffset="22.206326154141568" xlink:href="#id53">May</textPath></text><path d="M 118.30583269289576 110.29060199501025 l 20.579200578486063 11.568573037973332 a44.60795159653807,44.60795159653807 0 0,0 -0.38203100239850696,0.6661032541708204 l -20.377017579935174 -11.921096138002467" fill="#e4ff1a" stroke="none" /><path d="M 118.12598468904814 110.60418214915192 l 16.57026331310227 9.694043851737003 a40.197606946308255,40.197606946308255 0 0,0 -0.35454121702962255,0.5942314729143491 l -16.40094122037442 -9.977837418537456" fill="#ffe315" stroke="none" /><path d="M 117.94076556474637 110.91462005526583 l 12.629436937807917 7.683368092105274 a35.782990989811516,35.782990989811516 0 0,0 -0.3246630991429416,0.5234602907996886 l -12.495309198997013 -7.899624714270236" fill="#ffa90f" stroke="none" /><path d="M 117.55443506779139 111.5257021239791 l 12.35674010755705 8.11305548444782 a35.78210727127353,35.78210727127353 0 0,0 -0.3424805925422113,0.5119620174736038 l -12.215256409604116 -8.32455441612723" fill="#ffa90f" stroke="none" /><path d="M 117.35343817320211 111.8261652097733 l 20.824466597953883 14.19163049620415 a46.20041240198439,46.20041240198439 0 0,0 -0.45351005244191683,0.6533150549205929 l -20.577095638349828 -14.547986813311763" fill="#d0ff1d" stroke="none" /><path d="M 116.93607887273984 112.41649034213515 l 17.853285824394867 13.088930010286113 a43.13729666291047,43.13729666291047 0 0,0 -0.44418830421837113,0.5950628217157605 l -17.625336253481404 -13.394305711511187" fill="#f6ff19" stroke="none" /><path d="M 116.71984013943494 112.70617746262583 l 15.268036505858408 11.602884939774484 a40.17654498781964,40.17654498781964 0 0,0 -0.42317989804939454,0.5470170634531684 l -15.066049790590945 -11.863979997340904" fill="#ffe315" stroke="none" /><path d="M 116.498646956653 112.99209946851258 l 12.750697212921887 10.0407219403144 a37.229490950067564,37.229490950067564 0 0,0 -0.40080576414886643,0.5000668174792611 l -12.575973536718168 -10.258716591371913" fill="#ffbc11" stroke="none" /><path d="M 116.0416608686014 113.55231037782055 l 23.84444610633305 20.144256699301113 a52.21455891223131,52.21455891223131 0 0,0 -0.5859405674821504,0.6815812550010543 l -23.49416302928012 -20.551715053463695" fill="#8bff24" stroke="none" /><path d="M 115.32070863581623 114.36230785411682 l 10.781604223089088 10.107151222186381 a35.778277824275605,35.778277824275605 0 0,0 -0.42506885333809713,0.44568299332211425 l -10.606028818372026 -10.291241332091003" fill="#ffa90f" stroke="none" /><path d="M 115.07121518719521 114.62390073753431 l 15.874425146112342 15.403271383146421 a43.119180432881805,43.119180432881805 0 0,0 -0.5214533386120116,0.5282294789581792 l -15.606931182444795 -15.674241356085265" fill="#f6ff19" stroke="none" /><path d="M 114.81725581225074 114.88116024355365 l 10.426479235330767 10.47144695637629 a35.777099532891626,35.777099532891626 0 0,0 -0.440143588960881,0.43077313974383546 l -10.244685693994091 -10.649370199042698" fill="#ffa90f" stroke="none" /><path d="M 114.29624159901734 115.38237550388516 l 15.103270784289334 16.2507174302906 a43.185459323230575,43.185459323230575 0 0,0 -0.5488675499928886,0.5013774933945002 l -14.82130368482958 -16.508287690271683" fill="#f5ff19" stroke="none" /><path d="M 113.75828350139079 115.86535959552629 l 7.769249665666678 8.959107414872209 a32.85861906120101,32.85861906120101 0 0,0 -0.43050192836856627,0.36688308289557187 l -7.613882260721064 -9.091514887990728" fill="#ff810b" stroke="none" /><path d="M 113.20401910651253 116.32954008644616 l 7.4724651376687765 9.241271011941333 a32.88439418522553,32.88439418522553 0 0,0 -0.44322292288843784,0.3521230957497266 l -7.312284722062988 -9.368528021696184" fill="#ff810b" stroke="none" /><path d="M 112.92097659922987 116.55440617244103 l 7.279388548432029 9.326381314315064 a32.830929213677535,32.830929213677535 0 0,0 -0.4484881146794179,0.34388156182188045 l -7.117771705259117 -9.450302217964316" fill="#ff810b" stroke="none" /><path d="M 112.34349029814194 116.9893568818739 l 8.674420141955302 11.939315053958264 a35.757805011478986,35.757805011478986 0 0,0 -0.501073563380308,0.3575026831435974 l -8.46761925072611 -12.08686199894608" fill="#ffa90f" stroke="none" /><path d="M 112.04921762599082 117.19931262002967 l 8.471337640784114 12.09216970895979 a35.764285614090866,35.764285614090866 0 0,0 -0.5072450593589439,0.348887777134475 l -8.261935696802288 -12.23619827545936" fill="#ffa90f" stroke="none" /><path d="M 111.7513745106137 117.40417183066458 l 6.628867782191243 9.817571027100874 a32.84595242882325,32.84595242882325 0 0,0 -0.47130078622799876,0.3123524618655438 l -6.458892297223279 -9.930221510057734" fill="#ff810b" stroke="none" /><path d="M 111.1453310114006 117.79835938074945 l 3.931682809666777 6.278638431284257 a28.40806521749295,28.40806521749295 0 0,0 -0.4166797607936824,0.25595874163053645 l -3.8230238489407857 -6.345385639743172" fill="#ff4206" stroke="none" /><line stroke="#e1ed5e" stroke-width="0.3" x1="143.8653032363475" x2="146.44561519142675" y1="172.8068346515853" y2="177.08958963109032" /><path d="M 144.38136562736335 173.6633856474863 a86.0,86.0 0 0,1 -40.68145358897372,12.25698825130547" fill="none" id="id54" stroke="none" /><text fill="#e1ed5e" style="font-size:6.75px; font-family:Arial;" text-anchor="middle"><textPath startOffset="21.466115282336833" xlink:href="#id54">June</textPath></text><path d="M 110.5260780823613 118.17145234162733 l 5.919673105658542 10.219291256991747 a32.81001454161192,32.81001454161192 0 0,0 -0.49113659659471887,0.2788801774242825 l -5.742887742142623 -10.319674600210659" fill="#ff800b" stroke="none" /><path d="M 109.57404056367764 118.69057910512821 l 15.767359548403038 30.78126512608208 a55.58461955683152,55.58461955683152 0 0,0 -0.8553310763205008,0.42888075804897346 l -15.235174564399777 -31.048113725040356" fill="#66ff29" stroke="none" /><path d="M 109.2508944713604 118.85261126421891 l 2.6246243014799053 5.348782414890772 a26.95803038308497,26.95803038308497 0 0,0 -0.4183466951196298,0.20083183654421766 l -2.532164938360043 -5.39316852793455" fill="#ff2d04" stroke="none" /><path d="M 108.59647513512805 119.15986991738527 l 5.133008364670379 11.440476591394228 a33.53922962187133,33.53922962187133 0 0,0 -0.5287688340813257,0.23179671777762656 l -4.935318855931299 -11.52713786246631" fill="#ff8a0c" stroke="none" /><path d="M 108.2653958097858 119.30500536409082 l 4.670219741252567 10.907961243624959 a32.86568880950488,32.86568880950488 0 0,0 -0.5219831057735613,0.218188980547432 l -4.481765175981545 -10.986735267192364" fill="#ff810b" stroke="none" /><path d="M 107.59598834532513 119.57807347666477 l 8.537295777052737 22.004220703948985 a44.60235471246417,44.60235471246417 0 0,0 -0.7181611596427346,0.2715470999692049 l -8.157264396649726 -22.14791605402482" fill="#e4ff1a" stroke="none" /><path d="M 107.2578585660854 119.70592522655815 l 4.119559015351638 11.18507906757102 a32.91959564032188,32.91959564032188 0 0,0 -0.5334235461133426,0.19126670533551815 l -3.92641590860856 -11.2543333139465" fill="#ff820c" stroke="none" /><path d="M 106.91757812671514 119.82793768551818 l 4.038102956621817 11.574463247822347 a33.25864898606156,33.25864898606156 0 0,0 -0.54216391378788,0.18393143585928373 l -3.8382693098967096 -11.642257670579752" fill="#ff870c" stroke="none" /><path d="M 106.57524785965236 119.94407469862006 l 3.8082936394481597 11.551335317030832 a33.162912811113344,33.162912811113344 0 0,0 -0.5436801435941202,0.1740692131257796 l -3.608892150763099 -11.615177376816318" fill="#ff850c" stroke="none" /><path d="M 106.2309692047433 120.05430185196036 l 3.634457686100909 11.697459754697613 a33.249075368566736,33.249075368566736 0 0,0 -0.5480160505611121,0.16511274058985206 l -3.432566661099551 -11.758287864393191" fill="#ff860c" stroke="none" /><path d="M 104.48393922423573 120.51570834832081 l 2.596375854474076 11.879396024171463 a33.1598197962304,33.1598197962304 0 0,0 -0.5586774943509266,0.117076300860768 l -2.391506898693771 -11.922328305758773" fill="#ff850c" stroke="none" /><path d="M 104.13013068566511 120.58985236759428 l 1.1718989219050038 5.8422426862943695 a26.95861952877696,26.95861952877696 0 0,0 -0.4557706190074057,0.08734952387598496 l -1.0711606883258937 -5.861549408518823" fill="#ff2d04" stroke="none" /><path d="M 103.41894727170886 120.7198165907248 l 2.4075899002757617 14.590696256763776 a35.78799872819342,35.78799872819342 0 0,0 -0.608675698044509,0.09506262598658358 l -2.1560783386227356 -14.629977190097465" fill="#ffa90f" stroke="none" /><path d="M 103.06178313531738 120.77559828337769 l 1.0759669049400136 7.300927333942548 a28.379786224277478,28.379786224277478 0 0,0 -0.48390428738779134,0.06706472488603912 l -0.9501340263653918 -7.31836662432119" fill="#ff4206" stroke="none" /><path d="M 102.70371172650421 120.8252237178851 l 1.5577229763459028 11.998294476030104 a33.098990503532534,33.098990503532534 0 0,0 -0.5656342864952673,0.06849043485979224 l -1.3509612667992554 -12.023330439615247" fill="#ff840c" stroke="none" /><path d="M 102.34483914955558 120.86867818915974 l 0.8257464174273927 7.349005689541566 a28.395251298692187,28.395251298692187 0 0,0 -0.4861907989620066,0.05039566422665258 l -0.6991230218597835 -7.362130722223977" fill="#ff4206" stroke="none" /><path d="M 101.98527174616119 120.90594882070398 l 2.541544018722691 26.763786511203804 a47.884190789689015,47.884190789689015 0 0,0 -0.8212268287264111,0.07085890632479643 l -2.0804728722547385 -26.803569669807263" fill="#bcff1f" stroke="none" /><path d="M 101.62511606390274 120.93702456842531 l 0.9379053922052574 12.083412794715553 a33.11975788917515,33.11975788917515 0 0,0 -0.5687722880391604,0.03922586704398147 l -0.7297703433871667 -12.09776700627582" fill="#ff850c" stroke="none" /><path d="M 101.26447882468166 120.96189622390904 l 0.8904161319092316 14.760872375917204 a35.787704155347434,35.787704155347434 0 0,0 -0.6152280097223295,0.03180026071790159 l -0.6362000537734226 -14.774012443397307" fill="#ffa90f" stroke="none" /><line stroke="#e1ed5e" stroke-width="0.3" x1="102.19456741930631" x2="102.32365962044197" y1="184.97166512339345" y2="189.96999836594603" /><path d="M 102.22038585953345 185.97133177190398 a86.0,86.0 0 0,1 -42.740103519485714,-10.115201625700543" fill="none" id="id55" stroke="none" /><text fill="#e1ed5e" style="font-size:6.75px; font-family:Arial;" text-anchor="middle"><textPath startOffset="22.20632615414155" xlink:href="#id55">July</textPath></text><path d="M 99.45781275523022 120.99299961872073 l -0.19300632823099795 7.473030422699208 a28.475522399225696,28.475522399225696 0 0,0 -0.4898869865844326,-0.01687269833980223 l 0.32161366649007356 -7.468600925933312" fill="#ff4306" stroke="none" /><path d="M 99.09653310690486 120.98055641714683 l -0.542608607530519 12.60060616468516 a33.61228368767797,33.61228368767797 0 0,0 -0.5778302599582097,-0.02986722422741715 l 0.7594269359022175 -12.589399133695542" fill="#ff8b0c" stroke="none" /><path d="M 98.37488393609728 120.93702456842531 l -0.9402077837036082 12.113075431396107 a33.149509746620595,33.149509746620595 0 0,0 -0.5685230618727407,-0.04905456199866524 l 1.1485751633178904 -12.095096617118777" fill="#ff850c" stroke="none" /><path d="M 98.01472825383883 120.90594882070398 l -0.30269339518441984 3.187519613033798 a24.201859549537332,24.201859549537332 0 0,0 -0.4143904664544411,-0.04295326618839211 l 0.35751645824445427 -3.1818369783896454" fill="#ff0400" stroke="none" /><path d="M 97.65516085044442 120.86867818915974 l -2.6388197850689514 23.485056919247008 a44.6328430020246,44.6328430020246 0 0,0 -0.7627382564133015,-0.09235698067321448 l 3.0426854645336423 -23.436154409848445" fill="#e3ff1b" stroke="none" /><path d="M 96.93821686468263 120.77559828337769 l -2.153651749255233 14.61351167191095 a35.771355362394736,35.771355362394736 0 0,0 -0.6083926307410741,-0.09501841669536015 l 2.404880243604824 -14.574274947868485" fill="#ffa90f" stroke="none" /><path d="M 96.58105272829116 120.7198165907248 l -1.9737570817764158 11.961542977704688 a33.123292763327086,33.123292763327086 0 0,0 -0.5617568945662545,-0.09766863676048011 l 2.1793629478147203 -11.925795762423203" fill="#ff850c" stroke="none" /><path d="M 96.22490169976321 120.6578951692458 l -2.1505293016414226 11.768013794213859 a32.96289784868307,32.96289784868307 0 0,0 -0.5572807739927377,-0.10680418667512613 l 2.3527776902058557 -11.729252409190265" fill="#ff820c" stroke="none" /><path d="M 95.16358092515715 120.4354850818985 l -1.2315660569109086 5.20377771113501 a26.34752815976135,26.34752815976135 0 0,0 -0.4404387245533326,-0.1082491226742796 l 1.3209580662074518 -5.1818073301467" fill="#ff2403" stroke="none" /><path d="M 94.81253420990036 120.34920634021253 l -2.915334477845509 11.436170423260664 a32.80191378834707,32.80191378834707 0 0,0 -0.5459324934809947,-0.14418573343155042 l 3.111757414137993 -11.384293340525533" fill="#ff800b" stroke="none" /><path d="M 94.46302465271185 120.25689768951611 l -7.614444645223414 27.857271608825066 a49.87918538918684,49.87918538918684 0 0,0 -0.826257807487135,-0.23350870966202633 l 8.092833620815163 -27.722074105824518" fill="#a5ff21" stroke="none" /><path d="M 93.76903079525671 120.05430185196036 l -2.572592083300689 8.279857673056993 a29.67030986257943,29.67030986257943 0 0,0 -0.4864216366773263,-0.15573684737507443 l 2.7147350650689557 -8.23434797902221" fill="#ff5407" stroke="none" /><path d="M 93.42475214034765 119.94407469862007 l -4.652731334191856 14.11268795677595 a35.85987450261609,35.85987450261609 0 0,0 -0.584567638824673,-0.1983170816639042 l 4.8949687059537546 -14.030507888213924" fill="#ffaa0f" stroke="none" /><path d="M 93.08242187328487 119.8279376855182 l -2.6123222094603884 7.4877306818755125 a28.93034287344122,28.93034287344122 0 0,0 -0.4687823706717731,-0.16808867964503316 l 2.7408241407618883 -7.441654461190522" fill="#ff4a06" stroke="none" /><path d="M 92.7421414339146 119.70592522655815 l -5.95698984544916 16.173916231754536 a38.236046364830806,38.236046364830806 0 0,0 -0.6156545674447536,-0.2327878779403583 l 6.234514633654197 -16.068980103707545" fill="#ffca12" stroke="none" /><path d="M 92.06813273071674 119.44442032107085 l -6.653831901373459 16.311405605220955 a38.616339909009724,38.616339909009724 0 0,0 -0.6133167375905673,-0.25636644605431824 l 6.933620098461488 -16.194454116146662" fill="#ffcf13" stroke="none" /><path d="M 91.7346041902142 119.30500536409082 l -4.641756223800728 10.84148065760898 a32.793371175813235,32.793371175813235 0 0,0 -0.5170098668850692,-0.22664193212297565 l 4.8276867653435405 -10.759974172191551" fill="#ff800b" stroke="none" /><path d="M 91.40352486487194 119.15986991738527 l -4.596102985127423 10.243818999964551 a32.22764402508077,32.22764402508077 0 0,0 -0.504181546821616,-0.23144501960252356 l 4.771752527716458 -10.163186910027953" fill="#ff780b" stroke="none" /><path d="M 91.07499286063937 119.00905698771935 l -7.067113847916312 15.051995788472333 a37.628489869967126,37.628489869967126 0 0,0 -0.5839356271858812,-0.28032458675885213 l 7.325162143102435 -14.928116925213919" fill="#ffc212" stroke="none" /><path d="M 90.7491055286396 118.85261126421891 l -3.5251276308638553 7.183938924736245 a29.002218647863877,29.002218647863877 0 0,0 -0.44628350593273264,-0.22377581456828025 l 3.6482650444793485 -7.122195269258663" fill="#ff4b06" stroke="none" /><path d="M 90.42595943632237 118.69057910512821 l -8.584042447701352 16.757890604644693 a39.828507170277135,39.828507170277135 0 0,0 -0.6074968183537366,-0.31781362328989776 l 8.871230168581585 -16.60764756241008" fill="#ffde14" stroke="none" /><line stroke="#e1ed5e" stroke-width="0.3" x1="58.666819895761336" x2="56.23545636021788" y1="174.27360380694188" y2="178.64263932499728" /><path d="M 58.180547188652646 175.14741091055294 a86.0,86.0 0 0,1 -31.652253787137756,-30.449443065178592" fill="none" id="id56" stroke="none" /><text fill="#e1ed5e" style="font-size:6.75px; font-family:Arial;" text-anchor="middle"><textPath startOffset="22.20632615414155" xlink:href="#id56">August</textPath></text><path d="M 89.7882731507175 118.34994917583269 l -11.470949861185586 20.61270831642646 a44.58954079366341,44.58954079366341 0 0,0 -0.6674655776621535,-0.37900437477809434 l 11.824064205768947 -20.41220077585373" fill="#e4ff1a" stroke="none" /><path d="M 89.1626897886671 117.98757091392108 l -7.616784239189358 12.642200321550465 a35.75942516213196,35.75942516213196 0 0,0 -0.524506988019077,-0.32219503144108863 l 7.833270427140744 -12.509216823280997" fill="#ffa90f" stroke="none" /><path d="M 88.8546689885994 117.79835938074946 l -10.178663015590189 16.25465427466483 a40.1786069977416,40.1786069977416 0 0,0 -0.5830072724103187,-0.3721028252866511 l 10.456952090047432 -16.077037020554375" fill="#ffe315" stroke="none" /><path d="M 88.54995079064634 117.60387380957326 l -12.957215092754822 19.921065424768553 a44.76422249133816,44.76422249133816 0 0,0 -0.642313944184469,-0.4256906578966068 l 13.298203735679252 -19.69507674578063" fill="#e2ff1b" stroke="none" /><path d="M 88.24862548938628 117.40417183066458 l -4.967035322198182 7.356342541754539 a29.876216281929594,29.876216281929594 0 0,0 -0.4237345396709638,-0.2914484802035052 l 5.0929267464920365 -7.269753272185932" fill="#ff5708" stroke="none" /><path d="M 87.65650970185807 116.9893568818739 l -12.483363064824093 17.181875229101507 a42.23796576408923,42.23796576408923 0 0,0 -0.5845232223804981,-0.4324163059404535 l 12.777271257623156 -16.964448974421288" fill="#fffd17" stroke="none" /><path d="M 87.07902340077011 116.55440617244103 l -5.456777407754476 6.991244733463224 a29.86870467435673,29.86870467435673 0 0,0 -0.4025768123959379,-0.31983136732663126 l 5.576311712867772 -6.896279452131463" fill="#ff5708" stroke="none" /><path d="M 86.79598089348748 116.32954008644616 l -6.705205986290201 8.292394085297877 a31.664126170693272,31.664126170693272 0 0,0 -0.4208763556081128,-0.3463525875490634 l 6.846952470443002 -8.175746378891633" fill="#ff700a" stroke="none" /><path d="M 86.24171649860922 115.8653595955263 l -21.79981168764546 25.138444886986818 a54.274212251424935,54.274212251424935 0 0,0 -0.7005447747961759,-0.6181493128133222 l 22.229298815348223 -24.759472432401207" fill="#74ff27" stroke="none" /><path d="M 85.70375840098266 115.38237550388516 l -10.424333084272885 11.216304982624294 a36.31248568048665,36.31248568048665 0 0,0 -0.454189940593354,-0.4294649379377264 l 10.615858859257056 -11.035205407940637" fill="#ffb010" stroke="none" /><path d="M 84.43433777217949 114.09645910891817 l -3.5286554002282777 3.1955946255777117 a25.760591764117287,25.760591764117287 0 0,0 -0.29482525039654717,-0.33123929424154414 l 3.5831395002731634 -3.1343811615953032" fill="#ff1b02" stroke="none" /><path d="M 84.19399662182784 113.82643327865904 l -3.7380075740891905 3.269853300780646 a25.966350897044453,25.966350897044453 0 0,0 -0.2913888137143835,-0.3389510205755917 l 3.793738897374353 -3.205025181043524" fill="#ff1e03" stroke="none" /><path d="M 83.50135304334701 112.99209946851258 l -9.476062668693942 7.462063348890889 a33.06143246566823,33.06143246566823 0 0,0 -0.3482363559243352,-0.4501424327653853 l 9.603105841836346 -7.297842922012252" fill="#ff840c" stroke="none" /><path d="M 83.06392112726016 112.41649034213515 l -5.975168740224849 4.380625852838122 a28.408948936030935,28.408948936030935 0 0,0 -0.28574019488853425,-0.3968681391564819 l 6.049688727488991 -4.2771241082305025" fill="#ff4206" stroke="none" /><path d="M 82.85270091963577 112.12312394758628 l -18.100358870087327 12.79693630171408 a43.16719580677891,43.16719580677891 0 0,0 -0.4237355516173307,-0.6104226657955786 l 18.31795532886679 -12.48347237373149" fill="#f6ff19" stroke="none" /><path d="M 82.44556493220864 111.52570212397912 l -10.146973844587286 6.662190924451924 a33.1386105513188,33.1386105513188 0 0,0 -0.30897041811382575,-0.4795289502457604 l 10.260149126078158 -6.486540374284715" fill="#ff850c" stroke="none" /><path d="M 82.24976979558568 111.22182372390057 l -12.472028875189734 7.884906725433371 a35.755448428711034,35.755448428711034 0 0,0 -0.3244132023903941,-0.5230573776657205 l 12.605906717248084 -7.669053016402387" fill="#ffa90f" stroke="none" /><line stroke="#e1ed5e" stroke-width="0.3" x1="26.63291911575756" x2="22.317208475507996" y1="142.92168965132927" y2="145.44649492493687" /><path d="M 25.769776987707644 143.4266507060508 a86.0,86.0 0 0,1 -11.730757126820373,-40.83630448921669" fill="none" id="id57" stroke="none" /><text fill="#e1ed5e" style="font-size:6.75px; font-family:Arial;" text-anchor="middle"><textPath startOffset="21.46611528233685" xlink:href="#id57">September</textPath></text><path d="M 81.51974371655577 109.97397251340807 l -6.51853972997707 3.51811874776839 a28.407328785377963,28.407328785377963 0 0,0 -0.22854033077717145,-0.43231217815802236 l 6.578132568979129 -3.4053915545242415" fill="#ff4206" stroke="none" /><path d="M 81.35079622478065 109.6543875284942 l -6.559689940087337 3.3958441074315058 a28.386561399735353,28.386561399735353 0 0,0 -0.2209033154351698,-0.4358631984565619 l 6.617171925308774 -3.282426697272259" fill="#ff4206" stroke="none" /><path d="M 81.18737489456691 109.33194174019688 l -6.635512275403843 3.2915243685234956 a28.40703421253197,28.40703421253197 0 0,0 -0.21352180188963965,-0.4399181549613046 l 6.691187333908202 -3.1768172575969063" fill="#ff4206" stroke="none" /><path d="M 81.02952815118164 109.00673069616217 l -6.686264408249931 3.174479969099571 a28.401584614881074,28.401584614881074 0 0,0 -0.2058781952550645,-0.44344331679532883 l 6.739917220344822 -3.058916585025415" fill="#ff4206" stroke="none" /><path d="M 80.58989483394504 108.01547362559985 l -28.935186652082457 11.948890718386284 a52.30528734879763,52.30528734879763 0 0,0 -0.33649083720660417,-0.8351426625340742 l 29.13658010354645 -11.449048688009404" fill="#8aff24" stroke="none" /><path d="M 80.32549172779594 107.34259656027581 l -11.321657511440597 4.225282906692526 a33.084409147655805,33.084409147655805 0 0,0 -0.19452961279582448,-0.5352619472698585 l 11.392711385241645 -4.029773162416551" fill="#ff840c" stroke="none" /><path d="M 80.20201598880116 107.00284435728193 l -10.815626196056616 3.8256494618180756 a32.472286773679215,32.472286773679215 0 0,0 -0.18185898403931455,-0.5285673339217116 l 10.87987601103916 -3.6389094248070672" fill="#ff7c0b" stroke="none" /><path d="M 80.0844068197444 106.66101706037122 l -11.572413342216468 3.8705371215652717 a33.2025328588996,33.2025328588996 0 0,0 -0.17661810505841385,-0.543574634305372 l 11.637323698291132 -3.6707635872820963" fill="#ff860c" stroke="none" /><path d="M 79.97269907076064 106.31721596034903 l -13.487659430497795 4.254415396420013 a35.142736909042455,35.142736909042455 0 0,0 -0.17700765265892174,-0.5784712504835998 l 13.558893855662847 -4.0216171733843655" fill="#ffa00e" stroke="none" /><path d="M 79.76711848015287 105.62410040840567 l -30.43418214596589 8.459738968407338 a52.58807728095236,52.58807728095236 0 0,0 -0.2349232710101688,-0.8742368850307581 l 30.575293493317837 -7.934611150201041" fill="#87ff25" stroke="none" /><path d="M 79.67330655649465 105.27499134158121 l -12.41519410382755 3.2218738174882735 a33.82643814671598,33.82643814671598 0 0,0 -0.1414085022371282,-0.5648566738285418 l 12.468813920359738 -3.00768930426234" fill="#ff8e0d" stroke="none" /><path d="M 79.50377843672027 104.57218783832718 l -7.39796592992251 1.6502988001334802 a28.57980118670775,28.57980118670775 0 0,0 -0.10297705380269576,-0.4810745125397482 l 7.425277022449647 -1.5227104681775683" fill="#ff4406" stroke="none" /><path d="M 79.35854240842038 103.8639653848113 l -14.616299229225392 2.736089446455072 a35.87018455222589,35.87018455222589 0 0,0 -0.10838527732326705,-0.6078821947560158 l 14.661230948887848 -2.4840885009658424" fill="#ffaa0f" stroke="none" /><path d="M 79.23777060512086 103.15116336523772 l -30.906131090311003 4.690742318695469 a52.26007041693747,52.26007041693747 0 0,0 -0.12733029032485552,-0.8905477539678184 l 30.982295431652457 -4.158049092747251" fill="#8aff24" stroke="none" /><path d="M 79.18660465613746 102.79330883721812 l -15.377723085453097 2.0638021370960877 a36.51559365779987,36.51559365779987 0 0,0 -0.07824507635982661,-0.6236902446051484 l 15.410969671059773 -1.7987941382035308" fill="#ffb310" stroke="none" /><path d="M 79.10278846688536 102.07522291339032 l -19.625560384524984 1.948940055162528 a40.72209389860147,40.72209389860147 0 0,0 -0.06326546447070096,-0.698129128608067 l 19.65620044527276 -1.6108295380058948" fill="#ffea16" stroke="none" /><path d="M 79.04373962182676 101.35467743843564 l -15.058065047369052 0.9733998632415036 a36.08949403606881,36.08949403606881 0 0,0 -0.03473811281388641,-0.6202723400362273 l 15.07258951107047 -0.7140558068698386" fill="#ffad10" stroke="none" /><path d="M 79.0095281055655 100.63252640178507 l -20.71203056462742 0.6241358570971391 a41.721432278637856,41.721432278637856 0 0,0 -0.015452699283569134,-0.718026215491532 l 20.719705326595996 -0.2675198258154783" fill="#fff617" stroke="none" /><line stroke="#e1ed5e" stroke-width="0.3" x1="15.007084014347285" x2="10.007500721073583" y1="101.09737516637583" y2="101.16192664675087" /><path d="M 14.007167355692545 101.11028546245083 a86.0,86.0 0 0,1 10.666146001902534,-42.60595125391555" fill="none" id="id58" stroke="none" /><text fill="#e1ed5e" style="font-size:6.75px; font-family:Arial;" text-anchor="middle"><textPath startOffset="22.20632615414155" xlink:href="#id58">October</textPath></text><path d="M 79.01574976396665 99.18683210126434 l -38.51432975338173 -1.4924820398391154 a59.54323674772875,59.54323674772875 0 0,0 0.048503330231056116,-1.0238286412057882 l 38.48293281491718 2.1552217876679127" fill="#3dff2e" stroke="none" /><path d="M 79.03285615573316 98.82574320788736 l -14.750156140054177 -0.8260767971464396 a35.7732700858937,35.7732700858937 0 0,0 0.03972435791631174,-0.614518234548335 l 14.733751191133452 1.0798540959477863" fill="#ffa90f" stroke="none" /><path d="M 79.12142395522702 97.74499172005258 l -14.882168641296392 -1.6073612222275553 a35.968719169211056,35.968719169211056 0 0,0 0.07178268206165143,-0.6149901829590384 l 14.85229560623115 1.8632951435114553" fill="#ffab0f" stroke="none" /><path d="M 79.21141760316559 97.0276538004421 l -11.825693899957788 -1.6908346923177933 a32.94595991003838,32.94595991003838 0 0,0 0.08510115048117138,-0.560710253092489 l 11.794836856037314 1.8941440578023743" fill="#ff820c" stroke="none" /><path d="M 79.26566170972629 96.67025291283419 l -11.863476591153269 -1.9051669780840113 a33.01547910169309,33.01547910169309 0 0,0 0.09494015828424882,-0.5603421884478665 l 11.828924571348796 2.109094954847706" fill="#ff830c" stroke="none" /><path d="M 79.32604984820605 96.31383870115002 l -14.549697572449436 -2.5942082527891173 a35.77916154281359,35.77916154281359 0 0,0 0.11332500138725546,-0.6053866888652242 l 14.50288684715232 2.844273019116914" fill="#ffa90f" stroke="none" /><path d="M 79.46518482838121 95.60439243477599 l -30.41047806371286 -6.509555908917262 a52.09938092944746,52.09938092944746 0 0,0 0.19526255775554835,-0.8753237592781715 l 30.29392111895527 7.032057837745393" fill="#8cff24" stroke="none" /><path d="M 79.62865764111835 94.90015583598534 l -5.283457647595615 -1.3226821372505912 a26.446504636015504,26.446504636015504 0 0,0 0.11435426810281571,-0.44065364304192234 l 5.259907047622492 1.4134322058413773" fill="#ff2503" stroke="none" /><path d="M 80.14247586403 93.16781622104843 l -15.359778995568208 -5.284688674340417 a37.2434831602523,37.2434831602523 0 0,0 0.21378986451810253,-0.6044127362454536 l 15.266536050240294 5.548299037012482" fill="#ffbc11" stroke="none" /><path d="M 80.52162464483688 92.15188598940014 l -8.223224364587676 -3.3132538608216042 a29.865611659473792,29.865611659473792 0 0,0 0.19622889128028756,-0.4751838249712512 l 8.16497378642119 3.454312256246167" fill="#ff5708" stroke="none" /><path d="M 81.26839172434947 90.50648371742162 l -51.874369292818216 -26.29086420571918 a79.15633869331225,79.15633869331225 0 0,0 0.6264303236386458,-1.2100639965025193 l 51.41412953601945 27.179900924482038" fill="#47fffd" stroke="none" /><line stroke="#e1ed5e" stroke-width="0.3" x1="26.266209847984243" x2="21.928928074336255" y1="57.711370442889674" y2="55.22380399835377" /><path d="M 25.398753493254645 57.213857153982495 a86.0,86.0 0 0,1 29.58750427330803,-30.492523968695096" fill="none" id="id59" stroke="none" /><text fill="#e1ed5e" style="font-size:6.75px; font-family:Arial;" text-anchor="middle"><textPath startOffset="21.46611528233685" xlink:href="#id59">November</textPath></text><path d="M 81.96595687620814 89.24020034530311 l -5.4066966743867075 -3.2258419596084997 a27.295905437440677,27.295905437440677 0 0,0 0.24421282872230723,-0.40142167897971087 l 5.350368047378183 3.318431411795285" fill="#ff3204" stroke="none" /><path d="M 82.15384107792192 88.93136811851018 l -6.474488560022721 -4.0156389285064025 a28.618684802379025,28.618684802379025 0 0,0 0.2632542921692711,-0.4164050695567782 l 6.404406671607487 4.126491645777396" fill="#ff4506" stroke="none" /><path d="M 82.7489923806493 88.02491185347247 l -6.0605064664814225 -4.207006381894269 a28.37757692793252,28.37757692793252 0 0,0 0.2820020088287689,-0.39887184256770486 l 5.987191837848775 4.3107047247937595" fill="#ff4206" stroke="none" /><path d="M 82.95767976084542 87.72973835380427 l -9.968931396691227 -7.177508394035719 a33.28398225081709,33.28398225081709 0 0,0 0.3387634005443924,-0.4620728976325885 l 9.843905383633201 7.348043735339808" fill="#ff870c" stroke="none" /><path d="M 83.39014120810768 87.1503855733568 l -5.8450480552890225 -4.5218092914989745 a28.389948987464287,28.389948987464287 0 0,0 0.3023474401519863,-0.3839505451297538 l 5.766346534543065 4.621752230581776" fill="#ff4206" stroke="none" /><path d="M 84.07557802195018 86.31012108654704 l -17.168702428583504 -14.759559729853246 a43.64086894313809,43.64086894313809 0 0,0 0.4946134232857077,-0.5654286453911419 l 16.912097141719954 15.05290393144733" fill="#f0ff19" stroke="none" /><path d="M 84.5562425177563 85.77008943001954 l -8.697308915995947 -8.013718696140497 a32.82636333456462,32.82636333456462 0 0,0 0.38646427224644025,-0.4122531401903677 l 8.558077321779052 8.162241253208915" fill="#ff810b" stroke="none" /><path d="M 84.80347519578584 85.50635884689758 l -8.749180536648593 -8.344505386305666 a33.090447890998696,33.090447890998696 0 0,0 0.396668964963531,-0.40880223658133147 l 8.604247307981943 8.493871818437121" fill="#ff840c" stroke="none" /><path d="M 85.57189188830299 84.74124197986013 l -15.70412497659419 -16.608237274131497 a43.85723269852106,43.85723269852106 0 0,0 0.5530023551020392,-0.5139554206934783 l 15.415914737697294 16.87609728089962" fill="#edff1a" stroke="none" /><path d="M 86.10567301691215 84.25364557470407 l -9.786493238409355 -11.09097197009457 a35.79138631592237,35.79138631592237 0 0,0 0.4654690265670195,-0.40365015303096324 l 9.594130413195561 11.257787116545213" fill="#ffa90f" stroke="none" /><path d="M 86.93701828274178 83.55741782278169 l -4.586174311055798 -5.772690310739402 a28.372716475973608,28.372716475973608 0 0,0 0.3850143103497269,-0.3005097762237564 l 4.4861274455466456 5.85077847618638" fill="#ff4106" stroke="none" /><path d="M 87.22198572758235 83.33499621200491 l -2.7094929992051413 -3.533703291658367 a25.45291042647602,25.45291042647602 0 0,0 0.3499821801756252,-0.26359932221676213 l 2.6482646652711264 3.5798192033809837" fill="#ff1702" stroke="none" /><path d="M 87.80319425747018 82.90503203632743 l -18.48229333031919 -25.90466873431334 a52.82211540709499,52.82211540709499 0 0,0 0.7447135006361426,-0.5217193987001799 l 18.03364869009939 26.21897297577746" fill="#84ff25" stroke="none" /><path d="M 88.09926311788651 82.69761687909137 l -2.5131221924417875 -3.6538076115807203 a25.434646910024362,25.434646910024362 0 0,0 0.36286194350811973,-0.24500600403749934 l 2.449855554527128 3.6965255279168847" fill="#ff1602" stroke="none" /><path d="M 88.39885842347998 82.49532879139004 l -8.207248001396335 -12.383710417148366 a35.85648691488715,35.85648691488715 0 0,0 0.5174141845116687,-0.3365405784182768 l 7.992866791100379 12.523149919726178" fill="#ffaa0f" stroke="none" /><path d="M 89.00827224532344 82.1063720568725 l -7.741117348176395 -12.601901792320563 a35.7896188788464,35.7896188788464 0 0,0 0.5277058876430387,-0.31793689276345743 l 7.5230493943157075 12.73328529454264" fill="#ffa90f" stroke="none" /><line stroke="#e1ed5e" stroke-width="0.3" x1="56.762969772571076" x2="54.21961505331055" y1="26.818313649435495" y2="22.513508569990535" /><path d="M 56.25429882871897 25.957352633546506 a86.0,86.0 0 0,1 42.265352541879196,-11.944610805530505" fill="none" id="id60" stroke="none" /><text fill="#e1ed5e" style="font-size:6.75px; font-family:Arial;" text-anchor="middle"><textPath startOffset="22.20632615414155" xlink:href="#id60">December</textPath></text><path d="M 89.94658935756843 81.56283822128135 l -15.407357490877983 -28.255877805580592 a53.18355628913026,53.18355628913026 0 0,0 0.807516207906185,-0.43134719220621703 l 14.918696236443493 28.51690372428856" fill="#80ff25" stroke="none" /><path d="M 90.58718382345135 81.22770947309562 l -2.0058278237524663 -4.000288749741218 a25.47500338992561,25.47500338992561 0 0,0 0.3936843130017934,-0.1931791826377798 l 1.9366722437402468 4.034223092513828" fill="#ff1702" stroke="none" /><path d="M 90.91171255644093 81.06846463323043 l -5.1209660464683395 -10.667328737434358 a32.83284393717649,32.83284393717649 0 0,0 0.5116010438687475,-0.2402035499174301 l 4.936586791299983 10.753897269991796" fill="#ff810b" stroke="none" /><path d="M 91.90106846888425 80.62456947434976 l -2.85787171020692 -6.837012334231571 a28.41027451383791,28.41027451383791 0 0,0 0.45282748329541334,-0.18471970025717793 l 2.739760357323126 6.885192920672326" fill="#ff4206" stroke="none" /><path d="M 92.23578459929587 80.48803036053334 l -22.987695931779097 -57.769549394712485 a83.17519603121536,83.17519603121536 0 0,0 1.3348305389034134,-0.5178935112578598 l 21.98988222787601 58.156685609860894" fill="#4cdaff" stroke="none" /><path d="M 92.91201910852362 80.23233633223022 l -4.22939381329788 -11.795352682222646 a33.53068700933749,33.53068700933749 0 0,0 0.5449822329718241,-0.1901336000772179 l 4.025729576262771 11.866407135472073" fill="#ff8a0c" stroke="none" /><path d="M 93.94186890950719 79.89281104454417 l -3.532028460127896 -11.722949302845494 a33.24347848449284,33.24347848449284 0 0,0 0.5493243919533328,-0.16036285347782886 l 3.329713850451142 11.78201048524202" fill="#ff860c" stroke="none" /><path d="M 94.28887869178378 79.79150937346287 l -2.0174075580493924 -7.138486389370658 a28.418080694256766,28.418080694256766 0 0,0 0.47187832010942454,-0.12898217019271757 l 1.8942313487162454 7.172155100389671" fill="#ff4206" stroke="none" /><path d="M 94.63758080256005 79.69619591428918 l -3.0157261285707015 -11.418486738204017 a32.81001454161192,32.81001454161192 0 0,0 0.5472884026686938,-0.1395159997248559 l 2.8187288372170083 11.468705734097735" fill="#ff800b" stroke="none" /><path d="M 95.33964822691252 79.52364482259891 l -4.123047985044781 -18.115584201772236 a39.578856683296785,39.578856683296785 0 0,0 0.6655981527329192,-0.14547397603564982 l 3.8106071081583415 18.183871675903752" fill="#ffdb14" stroke="none" /><path d="M 96.04723909329186 79.375362276772 l -1.7871785895871324 -9.325105116879213 a30.494819258518064,30.494819258518064 0 0,0 0.5163860242578321,-0.09436624527671886 l 1.6263974442264069 9.354486843506667" fill="#ff6008" stroke="none" /><path d="M 96.40284397218896 79.31037775812273 l -2.822082762991972 -16.23166352813106 a37.47516470362699,37.47516470362699 0 0,0 0.6364903211866023,-0.10502635665530637 l 2.542263235666484 16.277836147725996" fill="#ffc011" stroke="none" /><path d="M 97.11714578562143 79.19881850522333 l -4.32634369009625 -31.216653224302213 a52.51502321514572,52.51502321514572 0 0,0 0.896469635937984,-0.11638748759557957 l 3.7883593256504087 31.28649903506193" fill="#87ff25" stroke="none" /><path d="M 97.83486435360386 79.11191278185805 l -1.7599667867668078 -16.979231672717045 a38.070201852535895,38.070201852535895 0 0,0 0.6524051930157335,-0.06195373421464662 l 1.467436466660838 17.007010951446873" fill="#ffc712" stroke="none" /><path d="M 98.19473922651362 79.07773832637324 l -1.0405810800231323 -12.059925063803185 a33.10473467402943,33.10473467402943 0 0,0 0.5681557692893865,-0.04409982251554752 l 0.8328351213714117 12.076050148507194" fill="#ff840c" stroke="none" /><path d="M 98.55514903715128 79.0497635885617 l -1.02033829410044 -14.79483284483655 a35.82997535874764,35.82997535874764 0 0,0 0.6156578523132044,-0.03713816294019614 l 0.7655183929476126 14.810204277157052" fill="#ffaa0f" stroke="none" /><path d="M 98.91598698831166 79.02799685794201 l -0.6585459256349944 -12.740647088816836 a33.75765538717626,33.75765538717626 0 0,0 0.5805660342914584,-0.025000394689687316 l 0.43913905895421185 12.750095210030715" fill="#ff8d0d" stroke="none" /><path d="M 99.63851952072746 79.00311137660856 l -0.2966623165661069 -17.23187274795951 a38.23442621417783,38.23442621417783 0 0,0 0.6581427958386383,-0.005664842826879187 l 4.221216979666823e-15 17.23442621417783" fill="#ffca12" stroke="none" /></svg>