<?xml version="1.0" encoding="utf-8" ?>
<svg baseProfile="full" height="200mm" version="1.1" viewBox="0,0,200,200" width="200mm" xmlns="http://www.w3.org/2000/svg" xmlns:ev="http://www.w3.org/2001/xml-events" xmlns:xlink="http://www.w3.org/1999/xlink"><defs /><rect fill="#1a1a1a" height="200" width="200" x="0" y="0" /><rect fill="#1a1a1a" height="200" width="180" x="10" y="0" /><text alignment-baseline="middle" fill="#e1ed5e" style="dominant-baseline: central; font-size:9.0px; font-family:Arial;" text-anchor="middle" x="100.0" y="100.0">2020</text><line stroke="#e1ed5e" stroke-width="0.3" x1="100.0" x2="100.0" y1="15.0" y2="10.0" /><path d="M 100.0 14.0 a86.0,86.0 0 0,1 42.35913384403234,11.155469271406648" fill="none" id="id13" stroke="none" /><text fill="#e1ed5e" style="font-size:6.75px; font-family:Arial;" text-anchor="middle"><textPath startOffset="22.145653131862478" xlink:href="#id13">January</textPath></text><path d="M 101.80034050326958 79.07731436759882 l 0.33203789939498946 -3.8587836992322337 a24.873042835303405,24.873042835303405 0 0,0 0.42509266350160324,0.04025671720077766 l -0.3982301262816056 3.8525152265262723" fill="#ff0000" stroke="none" /><path d="M 104.29559338865022 79.4440306129975 l 1.7857351838490048 -8.545389298130909 a29.729978717239035,29.729978717239035 0 0,0 0.49866742177737394,0.10868224361133405 l -1.932165022245513 8.513475596385856" fill="#ff4906" stroke="none" /><path d="M 104.9986988182912 79.60360301121754 l 2.2017430012481145 -8.98386279173378 a30.249727720546357,30.249727720546357 0 0,0 0.5032902260443787,0.12793440735936198 l -2.355638520517888 8.94474315253915" fill="#ff5007" stroke="none" /><line stroke="#e1ed5e" stroke-width="0.3" x1="143.13028292997686" x2="145.6673583964461" y1="26.7553504044142" y2="22.446841604673864" /><path d="M 143.63769802327073 25.89364864446614 a86.0,86.0 0 0,1 29.32050498858742,28.57503671076993" fill="none" id="id14" stroke="none" /><text fill="#e1ed5e" style="font-size:6.75px; font-family:Arial;" text-anchor="middle"><textPath startOffset="20.669276256404974" xlink:href="#id14">February</textPath></text><line stroke="#e1ed5e" stroke-width="0.3" x1="172.87174338648825" x2="177.1583165268699" y1="56.24261187166439" y2="53.66864786411523" /><path d="M 173.72905801456457 55.72781907015455 a86.0,86.0 0 0,1 12.242430191666344,42.057860355516425" fill="none" id="id15" stroke="none" /><text fill="#e1ed5e" style="font-size:6.75px; font-family:Arial;" text-anchor="middle"><textPath startOffset="22.145653131862474" xlink:href="#id15">March</textPath></text><line stroke="#e1ed5e" stroke-width="0.3" x1="184.99686870605535" x2="189.99668451229388" y1="99.2704041080226" y2="99.22748670261217" /><path d="M 185.99683186730306 99.26182062694052 a86.0,86.0 0 0,1 -10.086455211305974,41.156179273409016" fill="none" id="id16" stroke="none" /><text fill="#e1ed5e" style="font-size:6.75px; font-family:Arial;" text-anchor="middle"><textPath startOffset="21.40746469413373" xlink:href="#id16">April</textPath></text><line stroke="#e1ed5e" stroke-width="0.3" x1="174.33088141563837" x2="178.70328620479359" y1="141.23008692659167" y2="143.65538615756765" /><path d="M 175.20536237346943 141.71514677278685 a86.0,86.0 0 0,1 -30.301960400862466,31.631185727798858" fill="none" id="id17" stroke="none" /><text fill="#e1ed5e" style="font-size:6.75px; font-family:Arial;" text-anchor="middle"><textPath startOffset="22.145653131862474" xlink:href="#id17">May</textPath></text><line stroke="#e1ed5e" stroke-width="0.3" x1="143.1302829299769" x2="145.66735839644613" y1="173.24464959558577" y2="177.55315839532614" /><path d="M 143.63769802327073 174.10635135553383 a86.0,86.0 0 0,1 -40.68552437913181,11.842963189579606" fill="none" id="id18" stroke="none" /><text fill="#e1ed5e" style="font-size:6.75px; font-family:Arial;" text-anchor="middle"><textPath startOffset="21.407464694133747" xlink:href="#id18">June</textPath></text><line stroke="#e1ed5e" stroke-width="0.3" x1="101.45913802915013" x2="101.54496967792366" y1="184.9874750549273" y2="189.98673829345242" /><path d="M 101.47630435890484 185.9873277026323 a86.0,86.0 0 0,1 -42.54439059252881,-10.42667462771756" fill="none" id="id19" stroke="none" /><text fill="#e1ed5e" style="font-size:6.75px; font-family:Arial;" text-anchor="middle"><textPath startOffset="22.145653131862474" xlink:href="#id19">July</textPath></text><path d="M 95.35216902796893 120.47920084513623 l -1.4208994356597435 6.260745087057366 a27.419959832535646,27.419959832535646 0 0,0 -0.45813248814193175,-0.10811801977140448 l 1.5281640775415632 -6.2354309236397345" fill="#ff2703" stroke="none" /><path d="M 95.00130118170881 120.39639698878247 l -1.5053385126495353 6.142294829637142 a27.32406750532069,27.32406750532069 0 0,0 -0.45461355018626104,-0.11556098670488955 l 1.610557356061175 -6.1155486110969886" fill="#ff2503" stroke="none" /><path d="M 93.61358852112213 120.00534299687104 l -1.9474276387365737 6.100289341418556 a27.40359308959743,27.40359308959743 0 0,0 -0.44690988285431144,-0.14690815525241943 l 2.051860259238629 -6.065960264764115" fill="#ff2603" stroke="none" /><path d="M 93.27111125876986 119.89276391827306 l -2.0226805176923417 5.979695543782802 a27.31252685324887,27.31252685324887 0 0,0 -0.4428456068760278,-0.15404469004815524 l 2.1250318966133914 -5.944092421166057" fill="#ff2503" stroke="none" /><path d="M 92.59220618246901 119.65005319985036 l -2.23142015184807 5.919107061439123 a27.325746145622045,27.325746145622045 0 0,0 -0.4375082762961282,-0.16923760001957666 l 2.3327006906377266 -5.879929573281506" fill="#ff2503" stroke="none" /><path d="M 91.26138138417905 119.09545874513695 l -4.391618408102744 9.596478782640146 a31.553611574624554,31.553611574624554 0 0,0 -0.49060049034429076,-0.22962580135209407 l 4.555707612318525 -9.519676749717524" fill="#ff6309" stroke="none" /><path d="M 90.28995756902619 118.62028667847754 l -4.890676740445518 9.378517509704098 a31.577112538843537,31.577112538843537 0 0,0 -0.47848525595363844,-0.25476644800609194 l 5.050950812185719 -9.293180593975434" fill="#ff6409" stroke="none" /><line stroke="#e1ed5e" stroke-width="0.3" x1="58.13341422392154" x2="55.67067388415222" y1="173.97424548756322" y2="178.32567169271397" /><path d="M 57.64086615596768 174.84453072859336 a86.0,86.0 0 0,1 -31.369924170532247,-30.572349798747897" fill="none" id="id20" stroke="none" /><text fill="#e1ed5e" style="font-size:6.75px; font-family:Arial;" text-anchor="middle"><textPath startOffset="22.145653131862474" xlink:href="#id20">August</textPath></text><path d="M 87.54013794807813 116.9041958592261 l -6.264977150276402 8.499644728050045 a31.559067155603962,31.559067155603962 0 0,0 -0.4333315565277526,-0.3251800785604697 l 6.409961695714921 -8.39084562222556" fill="#ff6309" stroke="none" /><path d="M 87.2517909369889 116.68781488649013 l -10.147386402880207 13.283254536849782 a37.7156902908644,37.7156902908644 0 0,0 -0.5111195422856039,-0.3974496475601978 l 10.373915889801038 -13.107103837668792" fill="#ffb911" stroke="none" /><path d="M 85.60350026404147 115.28858382429668 l -15.120920681695349 16.05789376463659 a43.05670406970354,43.05670406970354 0 0,0 -0.5337545112999392,-0.511324747809825 l 15.394347678860603 -15.795956886521182" fill="#ffff18" stroke="none" /><path d="M 84.3458050057657 113.99807769240083 l -15.799661180070157 14.128154452764258 a42.19514193503262,42.19514193503262 0 0,0 -0.4781893778683138,-0.5440917320007796 l 16.039861621897064 -13.854850442952179" fill="#fff417" stroke="none" /><path d="M 83.8745106332314 113.45245675266167 l -6.5600181261040245 5.472600435925577 a29.543020153675524,29.543020153675524 0 0,0 -0.32153101073427626,-0.392215552884767 l 6.65299595607693 -5.359182601342315" fill="#ff4606" stroke="none" /><path d="M 83.20337586046588 112.60449989151573 l -16.873993907305472 12.66255960764555 a42.09673164736564,42.09673164736564 0 0,0 -0.4287812324520458,-0.5817240916412661 l 17.08887715934135 -12.371029206735404" fill="#fff316" stroke="none" /><path d="M 82.78059297857968 112.02048342749411 l -31.134331361278715 21.734181304199833 a58.97000429651981,58.97000429651981 0 0,0 -0.5723186712226247,-0.8350300452645163 l 31.502839769316665 -21.196516523865267" fill="#47ff2c" stroke="none" /><line stroke="#e1ed5e" stroke-width="0.3" x1="26.387840678322732" x2="22.057713659400548" y1="142.50000000000003" y2="145.00000000000006" /><path d="M 25.521815274538298 143.00000000000003 a86.0,86.0 0 0,1 -11.493303480769221,-40.785679425670985" fill="none" id="id21" stroke="none" /><text fill="#e1ed5e" style="font-size:6.75px; font-family:Arial;" text-anchor="middle"><textPath startOffset="21.40746469413373" xlink:href="#id21">September</textPath></text><path d="M 81.81346652052679 110.50000000000001 l -25.632252674804345 14.79878798173481 a50.597575963469595,50.597575963469595 0 0,0 -0.4278305381861185,-0.7559355670444763 l 25.882516578011842 -14.356595644591213" fill="#a3ff22" stroke="none" /><path d="M 81.4637452351635 109.86951160357371 l -5.379497803226147 2.8642795787991586 a27.09451344411027,27.09451344411027 0 0,0 -0.21506841743728283,-0.41242204826978107 l 5.427874289638378 -2.7715112874248744" fill="#ff2203" stroke="none" /><path d="M 80.68587082218212 108.24405325689762 l -33.22487207002986 14.181722213679562 a57.12496877529201,57.12496877529201 0 0,0 -0.3772265143234883,-0.9052063098856706 l 33.46342442888984 -13.60928339435261" fill="#5aff2a" stroke="none" /><path d="M 79.94057633289273 106.21446072829308 l -20.09510054296527 6.2255135156317 a42.03734974670517,42.03734974670517 0 0,0 -0.20763183871536886,-0.6911388624877295 l 20.199008701684267 -5.879637049553247" fill="#fff216" stroke="none" /><path d="M 79.64726062577567 105.17358676015961 l -20.482891483011247 5.2066709172573775 a42.13429122410847,42.13429122410847 0 0,0 -0.1721737023058845,-0.7025274598279831 l 20.569252711833425 -4.854287632821294" fill="#fff316" stroke="none" /><path d="M 79.34024301695615 103.76489593502545 l -20.725814698639947 3.776933851305348 a42.06714561205423,42.06714561205423 0 0,0 -0.12336727809995782,-0.7115496765021706 l 20.78759679423214 -3.420591141882585" fill="#fff216" stroke="none" /><path d="M 79.17382384314188 102.69636545807758 l -20.856557764944593 2.7002989655053593 a42.03063518549975,42.03063518549975 0 0,0 -0.08649887456659866,-0.7163347664674388 l 20.899838725770852 -2.3418705221145215" fill="#fff216" stroke="none" /><line stroke="#e1ed5e" stroke-width="0.3" x1="15.003131293944662" x2="10.003315487706104" y1="100.72959589197737" y2="100.7725132973878" /><path d="M 14.003168132696942 100.73817937305945 a86.0,86.0 0 0,1 10.791469493833604,-42.45332614584628" fill="none" id="id22" stroke="none" /><text fill="#e1ed5e" style="font-size:6.75px; font-family:Arial;" text-anchor="middle"><textPath startOffset="22.145653131862435" xlink:href="#id22">October</textPath></text><path d="M 79.94057633289273 93.78553927170692 l -20.087283699378407 -6.22309183750694 a42.02916637523606,42.02916637523606 0 0,0 0.2194228381520929,-0.6873389153044089 l 19.977496145449056 6.56699978650274" fill="#fff216" stroke="none" /><path d="M 80.83023694016515 91.42560881287825 l -19.188534222991333 -8.582787289642079 a42.020563343691606,42.020563343691606 0 0,0 0.30017796652839535,-0.6559430303623056 l 19.03837179160789 8.910919302219055" fill="#fff216" stroke="none" /><line stroke="#e1ed5e" stroke-width="0.3" x1="26.387840678322718" x2="22.05771365940052" y1="57.49999999999999" y2="54.99999999999999" /><path d="M 25.521815274538284 56.99999999999999 a86.0,86.0 0 0,1 29.574782752854787,-30.34633250058573" fill="none" id="id23" stroke="none" /><text fill="#e1ed5e" style="font-size:6.75px; font-family:Arial;" text-anchor="middle"><textPath startOffset="21.40746469413373" xlink:href="#id23">November</textPath></text><path d="M 81.99639281039701 89.18935116829357 l -18.428868002306913 -11.06600573099954 a42.49603820905067,42.49603820905067 0 0,0 0.38091027498433344,-0.6221883076683965 l 18.236189762867188 11.38073115479248" fill="#fff817" stroke="none" /><path d="M 82.78059297857968 87.97951657250589 l -17.22680537377412 -12.025648052022076 a42.00902269161979,42.00902269161979 0 0,0 0.4178595507519599,-0.5877717881178295 l 17.01783072449219 12.319597066849425" fill="#fff216" stroke="none" /><path d="M 83.8745106332314 86.54754324733833 l -15.30439951142091 -12.767474392257963 a40.93070612803629,40.93070612803629 0 0,0 0.4547312504363586,-0.5356722696085648 l 15.082973697477437 13.028313444316085" fill="#ffe415" stroke="none" /><path d="M 85.34317274990677 84.96080404539775 l -14.66371038356266 -15.046258655912848 a42.009862011770466,42.009862011770466 0 0,0 0.5207772831745693,-0.4988928568224981 l 14.403260614522791 15.295763643040914" fill="#fff216" stroke="none" /><path d="M 86.96720088162412 83.53348406188908 l -13.040612469032869 -16.476387851424 a42.012589802260166,42.012589802260166 0 0,0 0.5693507265639036,-0.44273056866317495 l 12.75585179783372 16.69781947170798" fill="#fff216" stroke="none" /><path d="M 87.83215693770416 82.88440491214696 l -15.829952762233027 -22.26681099937692 a48.32029056464265,48.32029056464265 0 0,0 0.680176908896112,-0.47481630761031585 l 15.44538076216315 22.53527212279236" fill="#beff1f" stroke="none" /><path d="M 89.03521579738668 82.08984904055464 l -23.293031394220787 -38.047416243191 a65.61133481879678,65.61133481879678 0 0,0 0.9656340186206074,-0.579835483262789 l 22.636464619042744 38.44166572698972" fill="#35ff66" stroke="none" /><line stroke="#e1ed5e" stroke-width="0.3" x1="56.869717070023135" x2="54.33264160355391" y1="26.7553504044142" y2="22.446841604673864" /><path d="M 56.362301976729285 25.89364864446614 a86.0,86.0 0 0,1 42.16139366436587,-11.88097634709845" fill="none" id="id24" stroke="none" /><text fill="#e1ed5e" style="font-size:6.75px; font-family:Arial;" text-anchor="middle"><textPath startOffset="22.145653131862474" xlink:href="#id24">December</textPath></text><path d="M 94.6519064749342 79.69241777938228 l -5.38218674624657 -20.437039734598937 a42.13387156403313,42.13387156403313 0 0,0 0.701016747637854,-0.17819571594487651 l 5.030564705383338 20.526420682379076" fill="#fff316" stroke="none" /><path d="M 96.41257539226777 79.30868818359171 l -3.6070319383986815 -20.804401689247044 a42.11477703060521,42.11477703060521 0 0,0 0.7133892211280942,-0.11738792486019223 l 3.2493652142175145 20.863255612602906" fill="#fff316" stroke="none" /><path d="M 98.1996594967304 79.07731436759882 l -5.4010215098087775 -62.76805689720356 a84.0,84.0 0 0,0 1.4377240208991313,-0.1112889320197854 l 4.322728494134429 62.8515235962184" fill="#4dd2ff" stroke="none" /></svg>