<?xml version="1.0" encoding="utf-8" ?>
<svg baseProfile="full" height="200mm" version="1.1" viewBox="0,0,200,200" width="200mm" xmlns="http://www.w3.org/2000/svg" xmlns:ev="http://www.w3.org/2001/xml-events" xmlns:xlink="http://www.w3.org/1999/xlink"><defs /><rect fill="#1a1a1a" height="200" width="200" x="0" y="0" /><rect fill="#1a1a1a" height="200" width="180" x="10" y="0" /><text alignment-baseline="middle" fill="#e1ed5e" style="dominant-baseline: central; font-size:9.0px; font-family:Arial;" text-anchor="middle" x="100.0" y="100.0">2026</text><line stroke="#e1ed5e" stroke-width="0.3" x1="100.0" x2="100.0" y1="15.0" y2="10.0" /><path d="M 100.0 14.0 a86.0,86.0 0 0,1 42.46469731375804,11.215312516191453" fill="none" id="id85" stroke="none" /><text fill="#e1ed5e" style="font-size:6.75px; font-family:Arial;" text-anchor="middle"><textPath startOffset="22.20632615414155" xlink:href="#id85">January</textPath></text><path d="M 100.0 79.0 l 0.0 -21.095480074886332 a42.09548007488633,42.09548007488633 0 0,0 0.7246044910798609,0.006236899620526537 l -0.36312401180733256 21.092354551874365" fill="#ffd814" stroke="none" /><path d="M 100.36148047927253 79.00311137660856 l 0.21491967396116693 -12.4837846464623 a33.48563452794865,33.48563452794865 0 0,0 0.576229353428558,0.014882304156872552 l -0.4297756625845927 12.478235550163069" fill="#ff5b08" stroke="none" /><path d="M 100.72285384407766 79.0124445844662 l 0.2300290480617153 -6.6787324061862 a27.682692564856914,27.682692564856914 0 0,0 0.4760884859021792,0.020501371681680713 l -0.3449583663532261 6.673783307980324" fill="#ff0000" stroke="none" /><path d="M 101.08401301168833 79.027996857942 l 0.5649102308838484 -10.929111559855578 a31.943701524471784,31.943701524471784 0 0,0 0.5488809433604459,0.03310999743234034 l -0.7529532230839062 10.917768293042933" fill="#ff4306" stroke="none" /><path d="M 101.44485096284872 79.0497635885617 l 2.2341235038975182 -32.39463223716913 a53.47157996790585,53.47157996790585 0 0,0 0.9176991433680657,0.07123111571289137 l -2.7914128366279254 32.351375859267776" fill="#93ff23" stroke="none" /><path d="M 102.16513564639614 79.11191278185805 l 4.444810964056547 -42.88119279727572 a64.11093875367746,64.11093875367746 0 0,0 1.0967039937890313,0.12322747213794752 l -5.1822816613553035 42.79832937166718" fill="#32ff47" stroke="none" /><path d="M 102.52436894288641 79.15227682838746 l 1.2724298040744688 -10.5084735673867 a31.585230008023537,31.585230008023537 0 0,0 0.5391828454556402,0.07000140799142111 l -1.453127378037955 10.485013836231143" fill="#ff3e05" stroke="none" /><path d="M 103.2404852339499 79.25152402106235 l 3.2548936498403607 -20.84073150532166 a42.093373896763836,42.093373896763836 0 0,0 0.7149274801929479,0.11796915996686692 l -3.6131503361721835 20.78161608241517" fill="#ffd814" stroke="none" /><path d="M 103.59715602781102 79.31037775812273 l 1.8128887108602323 -10.427121399314652 a31.58354506552554,31.58354506552554 0 0,0 0.5348220341984421,0.09773530825335403 l -1.9921058661615751 10.39437060971056" fill="#ff3e05" stroke="none" /><path d="M 103.95276090670814 79.375362276772 l 3.8085099771225908 -19.87196807430197 a41.23363198716234,41.23363198716234 0 0,0 0.6959325826629114,0.13959752908835815 l -4.150008969252627 19.803466589136402" fill="#ffcc13" stroke="none" /><path d="M 104.307194497241 79.44645832069477 l 4.766108273073682 -22.7434366155163 a44.237463225461354,44.237463225461354 0 0,0 0.7439420001458295,0.16259690664218712 l -5.156892997373039 22.658026210778242" fill="#fff517" stroke="none" /><path d="M 104.66035177308747 79.52364482259891 l 2.43037220324849 -10.678413748589106 a31.951494383525006,31.951494383525006 0 0,0 0.5352275662035268,0.12667107241126346 l -2.6138234564145404 10.634996764036973" fill="#ff4306" stroke="none" /><path d="M 105.71112130821622 79.79150937346287 l 17.13336392464865 -60.62547187961136 a84.0,84.0 0 0,0 1.3880391291062915,0.40520668432518603 l -18.174393271478365 60.321566866367476" fill="#4dd2ff" stroke="none" /><path d="M 106.0581310904928 79.89281104454417 l 3.1582808312765627 -10.482465384172844 a31.94791388071677,31.94791388071677 0 0,0 0.5251851039524624,0.16317756826812044 l -3.338251307939743 10.426547681022203" fill="#ff4306" stroke="none" /><path d="M 106.74666289553966 80.11325718540242 l 4.560222644911734 -13.441901028821102 a35.19437683872693,35.19437683872693 0 0,0 0.5720225795636292,0.1995674460519726 l -4.790927228538638 13.361412729596921" fill="#ff740a" stroke="none" /><path d="M 107.08798089147638 80.2323363322302 l 7.27162575610911 -20.279830669057624 a42.54409601497727,42.54409601497727 0 0,0 0.6872242524908947,0.2531104919164392 l -7.619632334372581 20.15165690933486" fill="#ffde14" stroke="none" /><path d="M 108.09893153111575 80.62456947434976 l 5.045451311065005 -12.070455340004996 a34.082525407863066,34.082525407863066 0 0,0 0.5393417508836742,0.23091799063099677 l -5.252476819738995 11.981817821411209" fill="#ff6409" stroke="none" /><line stroke="#e1ed5e" stroke-width="0.3" x1="143.23703022742887" x2="145.7803849466894" y1="26.81831364943548" y2="22.513508569990506" /><path d="M 143.74570117128098 25.957352633546492 a86.0,86.0 0 0,1 28.547481713284135,27.462654790039103" fill="none" id="id86" stroke="none" /><text fill="#e1ed5e" style="font-size:6.75px; font-family:Arial;" text-anchor="middle"><textPath startOffset="19.985693538727396" xlink:href="#id86">February</textPath></text><line stroke="#e1ed5e" stroke-width="0.3" x1="172.23445277983987" x2="176.4835382374775" y1="55.19839476539836" y2="52.563006222186495" /><path d="M 173.08426987136738 54.67131705675599 a86.0,86.0 0 0,1 12.851231095245387,41.99856678651699" fill="none" id="id87" stroke="none" /><text fill="#e1ed5e" style="font-size:6.75px; font-family:Arial;" text-anchor="middle"><textPath startOffset="22.20632615414155" xlink:href="#id87">March</textPath></text><line stroke="#e1ed5e" stroke-width="0.3" x1="184.98032266829074" x2="189.97916517819016" y1="98.17113171792111" y2="98.06355123074" /><path d="M 185.9800911702706 98.14961562048488 a86.0,86.0 0 0,1 -9.607161424134198,41.387399972396054" fill="none" id="id88" stroke="none" /><text fill="#e1ed5e" style="font-size:6.75px; font-family:Arial;" text-anchor="middle"><textPath startOffset="21.466115282336823" xlink:href="#id88">April</textPath></text><line stroke="#e1ed5e" stroke-width="0.3" x1="174.80103733775053" x2="179.2010983576182" y1="140.37084112569926" y2="142.7455964860345" /><path d="M 175.68104954172406 140.8457921977663 a86.0,86.0 0 0,1 -30.038265399797805,32.042727171017184" fill="none" id="id89" stroke="none" /><text fill="#e1ed5e" style="font-size:6.75px; font-family:Arial;" text-anchor="middle"><textPath startOffset="22.206326154141568" xlink:href="#id89">May</textPath></text><line stroke="#e1ed5e" stroke-width="0.3" x1="143.8653032363475" x2="146.44561519142675" y1="172.8068346515853" y2="177.08958963109032" /><path d="M 144.38136562736335 173.6633856474863 a86.0,86.0 0 0,1 -40.68145358897372,12.25698825130547" fill="none" id="id90" stroke="none" /><text fill="#e1ed5e" style="font-size:6.75px; font-family:Arial;" text-anchor="middle"><textPath startOffset="21.466115282336833" xlink:href="#id90">June</textPath></text><line stroke="#e1ed5e" stroke-width="0.3" x1="102.19456741930631" x2="102.32365962044197" y1="184.97166512339345" y2="189.96999836594603" /><path d="M 102.22038585953345 185.97133177190398 a86.0,86.0 0 0,1 -42.740103519485714,-10.115201625700543" fill="none" id="id91" stroke="none" /><text fill="#e1ed5e" style="font-size:6.75px; font-family:Arial;" text-anchor="middle"><textPath startOffset="22.20632615414155" xlink:href="#id91">July</textPath></text><line stroke="#e1ed5e" stroke-width="0.3" x1="58.666819895761336" x2="56.23545636021788" y1="174.27360380694188" y2="178.64263932499728" /><path d="M 58.180547188652646 175.14741091055294 a86.0,86.0 0 0,1 -31.652253787137756,-30.449443065178592" fill="none" id="id92" stroke="none" /><text fill="#e1ed5e" style="font-size:6.75px; font-family:Arial;" text-anchor="middle"><textPath startOffset="22.20632615414155" xlink:href="#id92">August</textPath></text><line stroke="#e1ed5e" stroke-width="0.3" x1="26.63291911575756" x2="22.317208475507996" y1="142.92168965132927" y2="145.44649492493687" /><path d="M 25.769776987707644 143.4266507060508 a86.0,86.0 0 0,1 -11.730757126820373,-40.83630448921669" fill="none" id="id93" stroke="none" /><text fill="#e1ed5e" style="font-size:6.75px; font-family:Arial;" text-anchor="middle"><textPath startOffset="21.46611528233685" xlink:href="#id93">September</textPath></text><line stroke="#e1ed5e" stroke-width="0.3" x1="15.007084014347285" x2="10.007500721073583" y1="101.09737516637583" y2="101.16192664675087" /><path d="M 14.007167355692545 101.11028546245083 a86.0,86.0 0 0,1 10.666146001902534,-42.60595125391555" fill="none" id="id94" stroke="none" /><text fill="#e1ed5e" style="font-size:6.75px; font-family:Arial;" text-anchor="middle"><textPath startOffset="22.20632615414155" xlink:href="#id94">October</textPath></text><line stroke="#e1ed5e" stroke-width="0.3" x1="26.266209847984243" x2="21.928928074336255" y1="57.711370442889674" y2="55.22380399835377" /><path d="M 25.398753493254645 57.213857153982495 a86.0,86.0 0 0,1 29.58750427330803,-30.492523968695096" fill="none" id="id95" stroke="none" /><text fill="#e1ed5e" style="font-size:6.75px; font-family:Arial;" text-anchor="middle"><textPath startOffset="21.46611528233685" xlink:href="#id95">November</textPath></text><line stroke="#e1ed5e" stroke-width="0.3" x1="56.762969772571076" x2="54.21961505331055" y1="26.818313649435495" y2="22.513508569990535" /><path d="M 56.25429882871897 25.957352633546506 a86.0,86.0 0 0,1 42.265352541879196,-11.944610805530505" fill="none" id="id96" stroke="none" /><text fill="#e1ed5e" style="font-size:6.75px; font-family:Arial;" text-anchor="middle"><textPath startOffset="22.20632615414155" xlink:href="#id96">December</textPath></text></svg>