<?xml version="1.0" encoding="utf-8" ?>
<svg baseProfile="full" height="200mm" version="1.1" viewBox="0,0,200,200" width="200mm" xmlns="http://www.w3.org/2000/svg" xmlns:ev="http://www.w3.org/2001/xml-events" xmlns:xlink="http://www.w3.org/1999/xlink"><defs /><rect fill="#1a1a1a" height="200" width="200" x="0" y="0" /><text alignment-baseline="middle" fill="#e1ed5e" style="dominant-baseline: central; font-size:9.0px; font-family:Arial;" text-anchor="middle" x="100.0" y="100.0">2022</text><line stroke="#e1ed5e" stroke-width="0.3" x1="100.0" x2="100.0" y1="15.0" y2="10.0" /><path d="M 100.0 14.0 a86.0,86.0 0 0,1 42.46469731375804,11.215312516191453" fill="none" id="id37" stroke="none" /><text fill="#e1ed5e" style="font-size:6.75px; font-family:Arial;" text-anchor="middle"><textPath startOffset="22.20632615414155" xlink:href="#id37">January</textPath></text><path d="M 100.36148047927253 79.00311137660856 l 0.11683433301895665 -6.786417575643875 a27.787423205634084,27.787423205634084 0 0,0 0.4781730772897239,0.012349799838400097 l -0.23363404550354835 6.783400983663115" fill="#ff4006" stroke="none" /><path d="M 102.88285421437855 79.19881850522331 l 6.517662999555748 -47.02807734756536 a68.47757354777482,68.47757354777482 0 0,0 1.166176402174401,0.17186408748765045 l -7.326208382158805 46.90891877591674" fill="#39ff8c" stroke="none" /><path d="M 104.66035177308747 79.52364482259891 l 4.496529336573563 -19.75656264683343 a41.261800109884625,41.261800109884625 0 0,0 0.6911868529497407,0.16358159674163097 l -4.835939876485827 19.67623513795093" fill="#fff517" stroke="none" /><path d="M 105.71112130821622 79.79150937346287 l 1.9199191831052016 -6.7935291025377404 a28.05961240697268,28.05961240697268 0 0,0 0.4636647615289815,0.1353564584152292 l -2.0365741623576104 6.759474315203808" fill="#ff4406" stroke="none" /><path d="M 110.05341064243156 81.56283822128135 l 1.970302635164122 -3.6133795514365312 a25.115653563758052,25.115653563758052 0 0,0 0.3777823784763458,0.21023548460578378 l -2.032209102712503 3.5789286692705677" fill="#ff1902" stroke="none" /><line stroke="#e1ed5e" stroke-width="0.3" x1="143.23703022742887" x2="145.7803849466894" y1="26.81831364943548" y2="22.513508569990506" /><path d="M 143.74570117128098 25.957352633546492 a86.0,86.0 0 0,1 28.547481713284135,27.462654790039103" fill="none" id="id38" stroke="none" /><text fill="#e1ed5e" style="font-size:6.75px; font-family:Arial;" text-anchor="middle"><textPath startOffset="19.985693538727396" xlink:href="#id38">February</textPath></text><path d="M 112.19680574252982 82.90503203632743 l 1.4235713210659626 -1.9952688139294743 a23.451051396034163,23.451051396034163 0 0,0 0.3265890389142006,0.23728082595156308 l -1.457705676333952 1.9704687531612364" fill="#ff0000" stroke="none" /><path d="M 116.82858285166822 87.43820079747576 l 3.2646228337369285 -2.436897798872811 a25.073847460166824,25.073847460166824 0 0,0 0.2552008881127572,0.3480937245852743 l -3.3060863343633122 2.380341630616043" fill="#ff1802" stroke="none" /><path d="M 117.45458315368197 88.32363383020206 l 39.65756218681392 -26.529205161630706 a68.71290145347385,68.71290145347385 0 0,0 0.6491843258423116,0.9887522662343822 l -40.10834314801416 25.84263483141865" fill="#3aff8f" stroke="none" /><line stroke="#e1ed5e" stroke-width="0.3" x1="172.23445277983987" x2="176.4835382374775" y1="55.19839476539836" y2="52.563006222186495" /><path d="M 173.08426987136738 54.67131705675599 a86.0,86.0 0 0,1 12.851231095245387,41.99856678651699" fill="none" id="id39" stroke="none" /><text fill="#e1ed5e" style="font-size:6.75px; font-family:Arial;" text-anchor="middle"><textPath startOffset="22.20632615414155" xlink:href="#id39">March</textPath></text><path d="M 118.73160827565052 90.50648371742162 l 10.308753301094644 -5.224661752308986 a32.55714000299685,32.55714000299685 0 0,0 0.24904659754073774,0.5020627436127525 l -10.397159911588789 5.0464394201972835" fill="#ff830c" stroke="none" /><path d="M 119.196687751892 91.48605970444005 l 20.873814232188877 -9.257764173194397 a43.83467359272763,43.83467359272763 0 0,0 0.2999738012518417,0.6923808917845148 l -21.0300787432834 8.897084136823281" fill="#e9ff1a" stroke="none" /><path d="M 120.83666639777658 97.38593545837742 l 32.267714482951796 -4.048146985646721 a53.52065331402027,53.52065331402027 0 0,0 0.106811032733709,0.9150917000639858 l -32.332615868689096 3.492111547257882" fill="#7aff26" stroke="none" /><path d="M 120.98425023603335 99.18683210126433 l 47.61041247174457 -1.844967469988831 a68.64614654612656,68.64614654612656 0 0,0 0.0355923913350853,1.1811381910168486 l -47.6351165575353 1.0251591315469835" fill="#39ff8e" stroke="none" /><line stroke="#e1ed5e" stroke-width="0.3" x1="184.98032266829074" x2="189.97916517819016" y1="98.17113171792111" y2="98.06355123074" /><path d="M 185.9800911702706 98.14961562048488 a86.0,86.0 0 0,1 -9.607161424134198,41.387399972396054" fill="none" id="id40" stroke="none" /><text fill="#e1ed5e" style="font-size:6.75px; font-family:Arial;" text-anchor="middle"><textPath startOffset="21.466115282336823" xlink:href="#id40">April</textPath></text><path d="M 120.9764740272857 100.99374915477107 l 6.764777043919729 0.3204776675462935 a27.772364017781328,27.772364017781328 0 0,0 -0.02673242006091613,0.47732531801169814 l -6.7582582729712835 -0.436874701893415" fill="#ff3f05" stroke="none" /><path d="M 120.95626037817324 101.35467743843564 l 20.22408395668919 1.3073472916804476 a41.26629538984067,41.26629538984067 0 0,0 -0.05192369216064607,0.708457525966526 l -20.198583705864205 -1.655277954143744" fill="#fff517" stroke="none" /><path d="M 120.8583938346157 102.4346265915055 l 15.646809229095636 1.826321725604329 a36.75303431397033,36.75303431397033 0 0,0 -0.07875386070130798,0.6277457564041578 l -15.61305385914748 -2.095385236295882" fill="#ffbb11" stroke="none" /><path d="M 120.81339534386255 102.79330883721812 l 5.581643921052394 0.7490971575417638 a26.631686728934618,26.631686728934618 0 0,0 -0.06488740592926304,0.4538223659404045 l -5.56792246410653 -0.8450649954625776" fill="#ff2f04" stroke="none" /><path d="M 120.49622156327973 104.57218783832717 l 7.415432840198628 1.654195225359514 a28.5976974177114,28.5976974177114 0 0,0 -0.11131236202919147,0.47953074230658066 l -7.3858599122388835 -1.7815946250146595" fill="#ff4b07" stroke="none" /><path d="M 120.32669344350535 105.2749913415812 l 3.835322326366841 0.9953065962246971 a24.96236451725688,24.96236451725688 0 0,0 -0.11151273497245864,0.4149803705881598 l -3.817621515052605 -1.0611778999884052" fill="#ff1602" stroke="none" /><path d="M 119.41010516605496 108.01547362559984 l 10.405437905758182 4.29696348282966 a32.25775435792418,32.25775435792418 0 0,0 -0.21635585953586386,0.5114013414550613 l -10.32993106503001 -4.475439349950884" fill="#ff7f0b" stroke="none" /><path d="M 118.97047184881838 109.00673069616215 l 43.090152987632074 20.458183998212096 a68.70008990559911,68.70008990559911 0 0,0 -0.5163850219940552,1.0639060934990157 l -42.731614709023304 -21.196879047676386" fill="#3aff8f" stroke="none" /><line stroke="#e1ed5e" stroke-width="0.3" x1="174.80103733775053" x2="179.2010983576182" y1="140.37084112569926" y2="142.7455964860345" /><path d="M 175.68104954172406 140.8457921977663 a86.0,86.0 0 0,1 -30.038265399797805,32.042727171017184" fill="none" id="id41" stroke="none" /><text fill="#e1ed5e" style="font-size:6.75px; font-family:Arial;" text-anchor="middle"><textPath startOffset="22.206326154141568" xlink:href="#id41">May</textPath></text><path d="M 117.55443506779139 111.5257021239791 l 8.972305781365025 5.890940004728939 a31.733379951051393,31.733379951051393 0 0,0 -0.30372908690395306,0.4540337744177373 l -8.86957358905035 -6.044510693352483" fill="#ff770b" stroke="none" /><path d="M 115.07121518719521 114.62390073753431 l 7.047220944060709 6.838059060358759 a30.819489535987216,30.819489535987216 0 0,0 -0.372709442793656,0.3775526977998165 l -6.9284708762115175 -6.958352252139241" fill="#ff6b09" stroke="none" /><path d="M 111.7513745106137 117.40417183066458 l 5.551354115053735 8.221737876194739 a30.92040857100045,30.92040857100045 0 0,0 -0.4436714965590527,0.2940412752520833 l -5.4090079197547185 -8.31607717253814" fill="#ff6c09" stroke="none" /><path d="M 111.45004920935366 117.60387380957326 l 26.974205455591722 41.47148193615 a70.47212926427252,70.47212926427252 0 0,0 -1.022578106444043,0.6526577291411627 l -26.25634554710075 -41.92965409411497" fill="#3cffa2" stroke="none" /><line stroke="#e1ed5e" stroke-width="0.3" x1="143.8653032363475" x2="146.44561519142675" y1="172.8068346515853" y2="177.08958963109032" /><path d="M 144.38136562736335 173.6633856474863 a86.0,86.0 0 0,1 -40.68145358897372,12.25698825130547" fill="none" id="id42" stroke="none" /><text fill="#e1ed5e" style="font-size:6.75px; font-family:Arial;" text-anchor="middle"><textPath startOffset="21.466115282336833" xlink:href="#id42">June</textPath></text><path d="M 103.7750983002368 120.6578951692458 l 2.3931914952481277 13.095897138801709 a34.312771589830675,34.312771589830675 0 0,0 -0.5819299473029914,0.10117598055839762 l -2.1674125764730863 -13.135151697881112" fill="#ff9b0e" stroke="none" /><path d="M 102.34483914955558 120.86867818915974 l 4.643633807687335 41.32756806764163 a62.58763298536536,62.58763298536536 0 0,0 -1.0716415560547312,0.11108002896303686 l -3.931559655027001 -41.40137746506042" fill="#32ff47" stroke="none" /><line stroke="#e1ed5e" stroke-width="0.3" x1="102.19456741930631" x2="102.32365962044197" y1="184.97166512339345" y2="189.96999836594603" /><path d="M 102.22038585953345 185.97133177190398 a86.0,86.0 0 0,1 -42.740103519485714,-10.115201625700543" fill="none" id="id43" stroke="none" /><text fill="#e1ed5e" style="font-size:6.75px; font-family:Arial;" text-anchor="middle"><textPath startOffset="22.20632615414155" xlink:href="#id43">July</textPath></text><path d="M 99.09653310690486 120.98055641714683 l -0.8742123763315551 20.30119999124394 a41.32001398531542,41.32001398531542 0 0,0 -0.7103341934295415,-0.036716164074024095 l 1.2235346381745855 -20.283144020407715" fill="#fff617" stroke="none" /><path d="M 98.73552117531835 120.96189622390904 l -1.223033888427749 20.27484284207048 a41.311697717396726,41.311697717396726 0 0,0 -0.7094541243970158,-0.04892811014640286 l 1.5718507736036949 -20.250786387407793" fill="#fff617" stroke="none" /><path d="M 98.01472825383883 120.90594882070398 l -1.8496357570248176 19.47763098330296 a40.56525648069527,40.56525648069527 0 0,0 -0.6945687590853202,-0.07199489179950273 l 2.1846371127157314 -19.442906723047695" fill="#ffec16" stroke="none" /><path d="M 97.2962882734958 120.8252237178851 l -2.0446980296189 15.749198956720353 a36.88137455671545,36.88137455671545 0 0,0 -0.6288650355471079,-0.08715496369557096 l 2.3154916563528394 -15.711669427532176" fill="#ffbd11" stroke="none" /><path d="M 96.58105272829116 120.7198165907248 l -3.2069509265059515 19.43505697279934 a40.697867239398626,40.697867239398626 0 0,0 -0.690218441724085,-0.12000332336318748 l 3.5410183397020867 -19.376975070915147" fill="#ffee16" stroke="none" /><path d="M 96.22490169976321 120.6578951692458 l -2.437152196697215 13.336456586497414 a34.55731481943959,34.55731481943959 0 0,0 -0.58423647211155,-0.11197031037469861 l 2.6663562833804604 -13.292529077774248" fill="#ff9e0e" stroke="none" /><path d="M 95.86986931433489 120.58985236759428 l -2.17373593088217 10.836679347300487 a32.052544827930674,32.052544827930674 0 0,0 -0.5400220972875819,-0.1131668810231188 l 2.359949489599139 -10.797656485550828" fill="#ff7c0b" stroke="none" /><path d="M 94.81253420990036 120.34920634021253 l -5.5949209865534835 21.94755709615493 a43.64946805853853,43.64946805853853 0 0,0 -0.7264717263168498,-0.19186778571905255 l 5.971883155681823 -21.847997961132297" fill="#ebff1a" stroke="none" /><path d="M 94.11515582081647 120.15858648285463 l -5.693661381493808 19.503688095757965 a41.3177663453374,41.3177663453374 0 0,0 -0.6810053777310408,-0.20518133393806592 l 6.028541733665094 -19.402791392714175" fill="#fff617" stroke="none" /><path d="M 93.42475214034765 119.94407469862007 l -6.922525965192582 20.997440385500173 a43.10913540782179,43.10913540782179 0 0,0 -0.7027410398573776,-0.23840791541279938 l 7.282936737987185 -20.87516948318925" fill="#f2ff19" stroke="none" /><path d="M 92.7421414339146 119.70592522655815 l -19.917460983941464 54.07820960944054 a78.62948903651166,78.62948903651166 0 0,0 -1.266046274745116,-0.47871036983520543 l 20.84537747944686 -53.7273509894987" fill="#46fff8" stroke="none" /><path d="M 91.40352486487194 119.15986991738527 l -10.76333622115582 23.98938153519766 a47.293341990909546,47.293341990909546 0 0,0 -0.7398750681490655,-0.3396403552067433 l 11.174679285072305 -23.80055410965684" fill="#c0ff1e" stroke="none" /><path d="M 91.07499286063937 119.00905698771935 l -6.973308609959466 14.852203330469212 a37.407771839568454,37.407771839568454 0 0,0 -0.5805104267072686,-0.2786802823800278 l 7.227931704666977 -14.729968771589622" fill="#ffc412" stroke="none" /><path d="M 90.7491055286396 118.85261126421891 l -4.989847208060233 10.168924742644256 a32.327206433245095,32.327206433245095 0 0,0 -0.497448115925518,-0.24943081217854296 l 5.164149231668512 -10.081526089556412" fill="#ff800b" stroke="none" /><path d="M 90.10565033884886 118.52300852407294 l -22.039526730109714 41.25974475020321 a67.77720893062285,67.77720893062285 0 0,0 -1.0243304757044163,-0.5585466477655128 l 22.74648001768277 -40.87425745067793" fill="#38ff84" stroke="none" /><line stroke="#e1ed5e" stroke-width="0.3" x1="58.666819895761336" x2="56.23545636021788" y1="174.27360380694188" y2="178.64263932499728" /><path d="M 58.180547188652646 175.14741091055294 a86.0,86.0 0 0,1 -31.652253787137756,-30.449443065178592" fill="none" id="id44" stroke="none" /><text fill="#e1ed5e" style="font-size:6.75px; font-family:Arial;" text-anchor="middle"><textPath startOffset="22.20632615414155" xlink:href="#id44">August</textPath></text><path d="M 89.7882731507175 118.34994917583269 l -6.562932800404568 11.793253492702942 a34.496403776035166,34.496403776035166 0 0,0 -0.5163803363705036,-0.29321423169011146 l 6.764961903696279 -11.678536095218197" fill="#ff9d0e" stroke="none" /><path d="M 89.1626897886671 117.98757091392108 l -8.251224420002329 13.695232625736084 a36.988811747664954,36.988811747664954 0 0,0 -0.5425392089556655,-0.33327189433200877 l 8.485742828890304 -13.551172264575698" fill="#ffbe11" stroke="none" /><path d="M 88.8546689885994 117.79835938074946 l -11.411902179889504 18.224055975355636 a42.50227261375556,42.50227261375556 0 0,0 -0.6167245676082852,-0.39362279836060166 l 11.723908549544712 -18.02491874817123" fill="#faff18" stroke="none" /><path d="M 88.24862548938628 117.40417183066458 l -10.753178060731793 15.925810085082107 a40.216197992108285,40.216197992108285 0 0,0 -0.5703865570758189,-0.3923170750190528 l 11.025721502430503 -15.738352220697953" fill="#ffe815" stroke="none" /><path d="M 87.65650970185807 116.9893568818739 l -10.576171152369879 14.556850761930685 a38.99325708006593,38.99325708006593 0 0,0 -0.5396203123714233,-0.39919820659270616 l 10.825176435159866 -14.37264260659821" fill="#ffd814" stroke="none" /><path d="M 87.07902340077011 116.55440617244103 l -12.66149128282259 16.221952561786964 a41.578267818790266,41.578267818790266 0 0,0 -0.5604008177095038,-0.44521630223132386 l 12.938849593249452 -16.00160234555051" fill="#fff917" stroke="none" /><path d="M 86.79598089348748 116.32954008644616 l -9.497769928064256 11.745985333789175 a36.105489236301885,36.105489236301885 0 0,0 -0.47991050330286034,-0.39493367207752694 l 9.698550559911805 -11.580756542854466" fill="#ffb310" stroke="none" /><path d="M 85.97065885151581 115.62618273729859 l -16.737367269263043 18.64244063371735 a46.05354377903201,46.05354377903201 0 0,0 -0.5853195992034085,-0.5346755760785619 l 17.05578641793331 -18.35157229105221" fill="#cfff1d" stroke="none" /><path d="M 85.70375840098266 115.38237550388516 l -7.816993170410338 8.41087662276375 a32.482518355726484,32.482518355726484 0 0,0 -0.40628540860913664,-0.3841682128965228 l 7.960614413410292 -8.275073773121298" fill="#ff820b" stroke="none" /><path d="M 85.18274418774928 114.88116024355367 l -9.00916896025965 9.048024050987141 a33.76839318715349,33.76839318715349 0 0,0 -0.40837142984230906,-0.4136781023997046 l 9.163581015157492 -8.891605454606772" fill="#ff930d" stroke="none" /><path d="M 84.67929136418377 114.36230785411682 l -10.796165482031421 10.120801588409288 a35.79823685130613,35.79823685130613 0 0,0 -0.4175669859117667,-0.4531864927259055 l 10.968778875938918 -9.93346384088204" fill="#ffae10" stroke="none" /><path d="M 84.43433777217949 114.09645910891817 l -12.814373924278824 11.604857884371324 a38.28817241896009,38.28817241896009 0 0,0 -0.4382011144778873,-0.49232359745403065 l 13.01223388840505 -11.382560117176428" fill="#ffcf13" stroke="none" /><path d="M 83.95833913139862 113.55231037782056 l -14.163264073206674 11.965403847853997 a39.541006942710155,39.541006942710155 0 0,0 -0.4347703176813916,-0.5237088554048307 l 14.367130390781602 -11.719833735335406" fill="#ffdf14" stroke="none" /><path d="M 83.50135304334701 112.99209946851258 l -14.812193682751072 11.66407731365963 a39.85342889965536,39.85342889965536 0 0,0 -0.41977651348038963,-0.5426177301168726 l 15.01077701344953 -11.407381589429505" fill="#ffe315" stroke="none" /><path d="M 83.06392112726016 112.41649034213515 l -18.15377456912408 13.309229858018643 a43.5098896159033,43.5098896159033 0 0,0 -0.4376270437326426,-0.6078256878017387 l 18.38018140523233 -12.994770564765766" fill="#edff1a" stroke="none" /><path d="M 82.6465618267979 111.8261652097733 l -39.220290819295535 26.7281696096744 a68.46184006792868,68.46184006792868 0 0,0 -0.6552674881676617,-0.9795359869503535 l 39.67456141287393 -26.049096708518224" fill="#39ff8c" stroke="none" /><path d="M 82.44556493220864 111.52570212397912 l -16.92833644501417 11.11462502588419 a41.25101143799011,41.25101143799011 0 0,0 -0.3846070200160155,-0.5969186360665939 l 17.117148328407232 -10.821584789896148" fill="#fff517" stroke="none" /><path d="M 82.05923443525364 110.91462005526583 l -18.297284306480535 11.131515292794392 a42.417311822586285,42.417311822586285 0 0,0 -0.3741189214768794,-0.627044831675409 l 18.486184103655646 -10.81490836723287" fill="#fbff18" stroke="none" /><line stroke="#e1ed5e" stroke-width="0.3" x1="26.63291911575756" x2="22.317208475507996" y1="142.92168965132927" y2="145.44649492493687" /><path d="M 25.769776987707644 143.4266507060508 a86.0,86.0 0 0,1 -11.730757126820373,-40.83630448921669" fill="none" id="id45" stroke="none" /><text fill="#e1ed5e" style="font-size:6.75px; font-family:Arial;" text-anchor="middle"><textPath startOffset="21.46611528233685" xlink:href="#id45">September</textPath></text><path d="M 81.87401531095188 110.60418214915194 l -16.224881925918577 9.491986573004151 a39.79746266420259,39.79746266420259 0 0,0 -0.34083305801700625,-0.5942711655566154 l 16.385866980087958 -9.21129556158923" fill="#ffe215" stroke="none" /><path d="M 81.51974371655577 109.97397251340807 l -23.941905373356807 12.921677191587758 a48.206333349982515,48.206333349982515 0 0,0 -0.3878256717692653,-0.7336200150670159 l 24.160783553350957 -12.507642161434616" fill="#b5ff1f" stroke="none" /><path d="M 81.35079622478065 109.6543875284942 l -9.997331590604542 5.175454919678912 a32.25752959392638,32.25752959392638 0 0,0 -0.2510270664594436,-0.4953002170684552 l 10.084937326850254 -5.002600490907772" fill="#ff7f0b" stroke="none" /><path d="M 81.18737489456691 109.33194174019688 l -14.114804668214724 7.001603130867603 a36.75595624594176,36.75595624594176 0 0,0 -0.2762765711158946,-0.5692115669160491 l 14.233234495945338 -6.75760260798627" fill="#ffbb11" stroke="none" /><path d="M 81.02952815118164 109.00673069616217 l -12.200582419784013 5.7925475479498845 a34.50584386394286,34.50584386394286 0 0,0 -0.2501269192120865,-0.5387511316474705 l 12.298483955835925 -5.581676349023587" fill="#ff9d0e" stroke="none" /><path d="M 80.87730276802145 108.67885076344099 l -14.6927269173658 6.668305348189455 a37.13513311023425,37.13513311023425 0 0,0 -0.25916594414264116,-0.5843507862305751 l 14.80533394623972 -6.414406225466184" fill="#ffc011" stroke="none" /><path d="M 80.73074385275274 108.34839909993369 l -16.85618216055997 7.302935562338261 a39.3701863043804,39.3701863043804 0 0,0 -0.26405962434514607,-0.6241589499998829 l 16.979392766097423 -7.011702086672219" fill="#ffdd14" stroke="none" /><path d="M 80.45479744820244 107.68017299344265 l -23.263542512239294 9.141272926735324 a45.99510513960342,45.99510513960342 0 0,0 -0.2832109621547006,-0.7393744541029148 l 23.417447753987503 -8.739474905799252" fill="#cfff1d" stroke="none" /><path d="M 80.0844068197444 106.66101706037122 l -14.989451376362906 5.01340785784603 a36.805629089456076,36.805629089456076 0 0,0 -0.1957844750244758,-0.6025626556173314 l 15.073528102403632 -4.754646302250896" fill="#ffbc11" stroke="none" /><path d="M 79.97269907076064 106.31721596034903 l -15.083173994308009 4.757688908067097 a36.81574346935717,36.81574346935717 0 0,0 -0.18543428615906007,-0.6060099763238033 l 15.162835052973199 -4.4973519591912465" fill="#ffbc11" stroke="none" /><path d="M 79.86692584326677 105.97154293290107 l -18.551340598378708 5.502395013482843 a40.35015733479847,40.35015733479847 0 0,0 -0.19177346689605057,-0.6675885965804345 l 18.643306702160864 -5.182248941397813" fill="#ffe915" stroke="none" /><path d="M 79.67330655649465 105.27499134158121 l -26.93145106250786 6.988995606481102 a48.82353528794765,48.82353528794765 0 0,0 -0.20410257116179786,-0.8152883146515373 l 27.04776494796472 -6.524379452432172" fill="#aeff20" stroke="none" /><path d="M 79.4281124754447 104.21870165774334 l -15.60517124607018 3.2001711912231605 a36.92992358024075,36.92992358024075 0 0,0 -0.12234367898480308,-0.6238277833580882 l 15.65794485803065 -2.931079680797118" fill="#ffbd11" stroke="none" /><path d="M 79.35854240842038 103.8639653848113 l -24.122301904983388 4.515559967085178 a45.54130662804056,45.54130662804056 0 0,0 -0.13760752028909803,-0.77177605219185 l 24.196455867611675 -4.099665164160115" fill="#d5ff1c" stroke="none" /><path d="M 79.29508885075956 103.50808413554451 l -18.84002575435605 3.192112005973571 a40.10853603716098,40.10853603716098 0 0,0 -0.10947385337081023,-0.6816937894409998 l 18.892181362088152 -2.867338986839357" fill="#ffe615" stroke="none" /><path d="M 79.18660465613746 102.79330883721812 l -24.890621083767087 3.340502147221094 a46.11378053044303,46.11378053044303 0 0,0 -0.09881192984723884,-0.7876283028074704 l 24.944434522861176 -2.911556090126215" fill="#ceff1d" stroke="none" /><path d="M 79.10278846688536 102.07522291339032 l -25.798282878787013 2.5619297422216576 a46.925178562509366,46.925178562509366 0 0,0 -0.0729025188272475,-0.804473220389772 l 25.838559993891337 -2.1174751332833193" fill="#c4ff1e" stroke="none" /><path d="M 79.07016306316243 101.71520430193888 l -22.460891388780592 1.8406745189501428 a43.53618700364617,43.53618700364617 0 0,0 -0.05477980396520812,-0.7474269023483355 l 22.489247751410137 -1.4537744801050467" fill="#edff1a" stroke="none" /><path d="M 79.0235259727143 100.99374915477108 l -25.02772180637867 1.1856748354648414 a46.055791419010035,46.055791419010035 0 0,0 -0.030699183319814558,-0.7922095127297119 l 25.044423122549684 -0.7546880757211328" fill="#ceff1d" stroke="none" /><path d="M 79.0095281055655 100.63252640178507 l -42.634111162638185 1.28473533432846 a63.65346386294391,63.65346386294391 0 0,0 -0.02357584056229147,-1.0954766714429969 l 42.64990906588548 -0.5506688470953341" fill="#33ff54" stroke="none" /><line stroke="#e1ed5e" stroke-width="0.3" x1="15.007084014347285" x2="10.007500721073583" y1="101.09737516637583" y2="101.16192664675087" /><path d="M 14.007167355692545 101.11028546245083 a86.0,86.0 0 0,1 10.666146001902534,-42.60595125391555" fill="none" id="id46" stroke="none" /><text fill="#e1ed5e" style="font-size:6.75px; font-family:Arial;" text-anchor="middle"><textPath startOffset="22.20632615414155" xlink:href="#id46">October</textPath></text><path d="M 79.00175016825051 100.2711162175752 l -23.40160078771842 0.302146776117414 a44.40355127116527,44.40355127116527 0 0,0 -0.0032894630984877968,-0.7643553770773042 l 23.40333454810641 0.1007180791635655" fill="#e2ff1b" stroke="none" /><path d="M 79.00486145842228 99.54816195383935 l -22.475241353559323 -0.4836914564802926 a43.4804455321912,43.4804455321912 0 0,0 0.022544208388532393,-0.7481325225734383 l 22.463585450715147 0.8704941264787254" fill="#eeff19" stroke="none" /><path d="M 79.03285615573316 98.82574320788736 l -25.96922002756824 -1.45439613662869 a47.00991458968083,47.00991458968083 0 0,0 0.052202067864970066,-0.8075428846889265 l 25.940337368698856 1.9011980855706283" fill="#c3ff1e" stroke="none" /><path d="M 79.05617556472873 98.46500227214037 l -23.281318851165253 -1.7063154653803534 a44.34376404774986,44.34376404774986 0 0,0 0.06234631061410677,-0.7607829069060165 l 23.24849805673165 2.1068122894941483" fill="#e3ff1b" stroke="none" /><path d="M 79.08570108090925 98.10471618934814 l -15.693894595147809 -1.4222032719016624 a36.758203885919784,36.758203885919784 0 0,0 0.06252898559827266,-0.629658351672421 l 15.667088483867307 1.6921371542785137" fill="#ffbb11" stroke="none" /><path d="M 79.12142395522702 97.74499172005258 l -19.671793842865828 -2.124668746659419 a40.78619949053494,40.78619949053494 0 0,0 0.08139691537969149,-0.6973590627146621 l 19.632306574482545 2.4629715476989427" fill="#ffef16" stroke="none" /><path d="M 79.21141760316559 97.0276538004421 l -23.85568706706885 -3.410880041654122 a45.09829678837221,45.09829678837221 0 0,0 0.11649127698544937,-0.7675319667509092 l 23.793439896644095 3.821011120797123" fill="#daff1c" stroke="none" /><path d="M 79.26566170972629 96.67025291283419 l -11.817050450085818 -1.8977113599772975 a32.96845811897507,32.96845811897507 0 0,0 0.09480494354063781,-0.5595441433770068 l 11.782633645024957 2.100841291670132" fill="#ff880c" stroke="none" /><path d="M 79.32604984820605 96.31383870115002 l -20.366083883041885 -3.6312688028943083 a41.68727835772439,41.68727835772439 0 0,0 0.1320380543872443,-0.7053525662580722 l 20.30056010474478 3.981299446614953" fill="#fffa17" stroke="none" /><path d="M 79.3925641242962 95.95851677861259 l -20.512741100189857 -4.022911898458105 a41.903501323610215,41.903501323610215 0 0,0 0.14490770332131098,-0.7066214243180696 l 20.440454100953552 4.375408978939578" fill="#fffd17" stroke="none" /><path d="M 79.62865764111835 94.90015583598534 l -18.173690428237887 -4.5496750992773585 a39.73452874481794,39.73452874481794 0 0,0 0.17181147435400865,-0.6620596969972959 l 18.09268262201357 4.861831221823518" fill="#ffe215" stroke="none" /><path d="M 79.81627453868168 94.20196356495316 l -21.73386587818703 -6.243334337739209 a43.612831526896755,43.612831526896755 0 0,0 0.2134829472012198,-0.7197583699045942 l 21.6231770338741 6.616522094390342" fill="#ecff1a" stroke="none" /><path d="M 79.91906864156998 93.8553929516997 l -21.902152490750545 -6.701886389901774 a43.90457519604415,43.90457519604415 0 0,0 0.22735151381220656,-0.7207664281883425 l 21.783545493170134 7.07790298451653" fill="#e8ff1a" stroke="none" /><path d="M 80.14247586403 93.16781622104843 l -16.608415086458212 -5.7142946608460194 a38.56395784426352,38.56395784426352 0 0,0 0.22136982428125454,-0.6258423032242437 l 16.507592181367148 5.999334590496874" fill="#ffd313" stroke="none" /><path d="M 80.2630227832202 92.82701384747504 l -22.07075045450781 -8.021146584261402 a44.48311772638729,44.48311772638729 0 0,0 0.2677362842741555,-0.717400131748921 l 21.929409581732028 8.399869853039664" fill="#e1ff1b" stroke="none" /><path d="M 80.65960295795068 91.81776055985345 l -16.73232006788869 -7.078854114885711 a39.16812347035612,39.16812347035612 0 0,0 0.2680392009866245,-0.6186714314311821 l 16.607990157059383 7.365824690903493" fill="#ffda14" stroke="none" /><path d="M 80.803312248108 91.48605970444005 l -23.99109979561555 -10.64031430445909 a47.24479296738424,47.24479296738424 0 0,0 0.3361077430892069,-0.740568859127419 l 23.804389735562992 11.051705172428582" fill="#c0ff1e" stroke="none" /><path d="M 81.26839172434947 90.50648371742162 l -42.21899502436288 -21.397346709353236 a68.33170171320114,68.33170171320114 0 0,0 0.5407659162309955,-1.0445876278241777 l 41.844419674971775 22.12090705943775" fill="#39ff8a" stroke="none" /><line stroke="#e1ed5e" stroke-width="0.3" x1="26.266209847984243" x2="21.928928074336255" y1="57.711370442889674" y2="55.22380399835377" /><path d="M 25.398753493254645 57.213857153982495 a86.0,86.0 0 0,1 29.58750427330803,-30.492523968695096" fill="none" id="id47" stroke="none" /><text fill="#e1ed5e" style="font-size:6.75px; font-family:Arial;" text-anchor="middle"><textPath startOffset="21.46611528233685" xlink:href="#id47">November</textPath></text><path d="M 81.78341655067845 89.55222093294921 l -14.858304226160174 -8.521701135551305 a38.12858998052045,38.12858998052045 0 0,0 0.3314288203348433,-0.5665192881828335 l 14.709415731355005 8.776199836088031" fill="#ffcd13" stroke="none" /><path d="M 82.15384107792192 88.93136811851018 l -22.75519923407215 -14.113340848954799 a47.77658458618451,47.77658458618451 0 0,0 0.4394817946510167,-0.6951546573566395 l 22.508889843175172 14.502943154025655" fill="#baff1f" stroke="none" /><path d="M 82.7489923806493 88.02491185347247 l -18.757410405322677 -13.020783942635921 a43.83377453673643,43.83377453673643 0 0,0 0.435597884389476,-0.61612231588933 l 18.530499901129325 13.341732758857036" fill="#e9ff1a" stroke="none" /><path d="M 83.6137871275137 86.86637796730984 l -10.544692316767742 -8.451617491920587 a34.51371060386594,34.51371060386594 0 0,0 0.37554451985820797,-0.4603731764622974 l 10.397649304833143 8.631874837990967" fill="#ff9d0e" stroke="none" /><path d="M 84.07557802195018 86.31012108654704 l -12.6803835935441 -10.90104973424055 a37.72199190849608,37.72199190849608 0 0,0 0.4275305236320389,-0.4887412946352493 l 12.490861206334218 11.117706585078741" fill="#ffc812" stroke="none" /><path d="M 84.5562425177563 85.77008943001954 l -13.35618841730742 -12.306420050470875 a39.16138055042205,39.16138055042205 0 0,0 0.46104633280071167,-0.49181208230587586 l 13.142374762536251 12.5345015496548" fill="#ffda14" stroke="none" /><path d="M 85.05521093208273 85.24692304244772 l -12.720724384441946 -12.557542628846075 a38.87480645322411,38.87480645322411 0 0,0 0.4742063661305106,-0.47216997329205934 l 12.502682218144122 12.774648452788243" fill="#ffd714" stroke="none" /><path d="M 85.31137513191541 84.99185889309783 l -11.541638844201753 -11.792699856815878 a37.50082413465861,37.50082413465861 0 0,0 0.46521871740105014,-0.4475400375474987 l 11.336936883188274 11.98962298112569" fill="#ffc512" stroke="none" /><path d="M 85.57189188830299 84.74124197986013 l -11.037816187643338 -11.673281415287557 a37.06545627091553,37.06545627091553 0 0,0 0.46736383828975925,-0.43436375253919096 l 10.835244465558723 11.861549753901395" fill="#ffbf11" stroke="none" /><path d="M 85.83668400450813 84.49514656593479 l -22.768763147340476 -24.92540133869967 a54.759327705908795,54.759327705908795 0 0,0 0.70141226092957,-0.6297348533383271 l 22.336339898814934 25.313635200807276" fill="#6cff28" stroke="none" /><path d="M 86.37877921826538 84.01681056812374 l -5.866823763961032 -6.88415209513116 a30.044952799560463,30.044952799560463 0 0,0 0.3965110581341647,-0.33206660813978667 l 5.7474551688677575 6.98411986066476" fill="#ff6008" stroke="none" /><path d="M 86.93701828274178 83.55741782278169 l -14.023315514149429 -17.651369551702814 a43.543828979571444,43.543828979571444 0 0,0 0.5908844610896871,-0.46119469433451604 l 13.717398497900316 17.890142635260553" fill="#edff1a" stroke="none" /><path d="M 87.22198572758235 83.33499621200491 l -7.576845405604942 -9.881672902652745 a33.452150242245644,33.452150242245644 0 0,0 0.45997319273812554,-0.34644227252600684 l 7.405626059108426 10.010631764684605" fill="#ff8f0d" stroke="none" /><path d="M 87.80319425747018 82.90503203632743 l -15.114267542688427 -21.18406449122004 a47.02317566555117,47.02317566555117 0 0,0 0.6629570491646235,-0.46444377973376405 l 14.747379353940143 21.44109311371775" fill="#c3ff1e" stroke="none" /><path d="M 88.39885842347998 82.49532879139004 l -12.990038619921894 -19.60034308081317 a44.51413515808402,44.51413515808402 0 0,0 0.64234527483783,-0.4177992347507727 l 12.650726319299777 19.821041239723474" fill="#e1ff1b" stroke="none" /><path d="M 89.00827224532344 82.1063720568725 l -9.674770584043921 -15.749730081546257 a39.483916887268364,39.483916887268364 0 0,0 0.5821770686956117,-0.3507551698654283 l 9.402231449130662 15.913931860870305" fill="#ffde14" stroke="none" /><line stroke="#e1ed5e" stroke-width="0.3" x1="56.762969772571076" x2="54.21961505331055" y1="26.818313649435495" y2="22.513508569990535" /><path d="M 56.25429882871897 25.957352633546506 a86.0,86.0 0 0,1 42.265352541879196,-11.944610805530505" fill="none" id="id48" stroke="none" /><text fill="#e1ed5e" style="font-size:6.75px; font-family:Arial;" text-anchor="middle"><textPath startOffset="22.20632615414155" xlink:href="#id48">December</textPath></text><path d="M 90.26544431104013 81.39251694778311 l -22.287157135993706 -42.601625789703476 a69.0792667698916,69.0792667698916 0 0,0 1.0583585527747925,-0.5421323576004576 l 21.55053809563015 42.978950672616435" fill="#3aff93" stroke="none" /><path d="M 90.91171255644093 81.06846463323043 l -10.311066012031812 -21.47866824065061 a44.82543329504021,44.82543329504021 0 0,0 0.6984694505749116,-0.3279407724977469 l 9.939818350157292 21.652973995788365" fill="#ddff1b" stroke="none" /><path d="M 91.56875222667455 80.76684994638697 l -7.469529528165862 -17.039302616585775 a39.60461515408821,39.60461515408821 0 0,0 0.6267265181984574,-0.2683315875702792 l 7.175119252177096 17.16535373211884" fill="#ffe015" stroke="none" /><path d="M 92.23578459929587 80.48803036053334 l -6.722851997370241 -16.894956836388076 a39.183407422206685,39.183407422206685 0 0,0 0.6288318073314423,-0.24397697175631633 l 6.431037025039122 17.008176512034943" fill="#ffdb14" stroke="none" /><path d="M 92.57280143429618 80.3572730644239 l -6.74599090258183 -17.841135663341277 a40.07392238149943,40.07392238149943 0 0,0 0.6473229879725148,-0.2384145194536961 l 6.437885588836745 17.954613450601297" fill="#ffe615" stroke="none" /><path d="M 92.91201910852362 80.23233633223022 l -7.789764182236273 -21.72486646949921 a44.07921682233655,44.07921682233655 0 0,0 0.7164299975361824,-0.24994835866861967 l 7.414652180636805 21.85573568134004" fill="#e6ff1a" stroke="none" /><path d="M 93.59665428221793 80.00007090966166 l -12.926034261417344 -40.372608327194015 a63.39138904150642,63.39138904150642 0 0,0 1.0420778448244208,-0.3237786589619689 l 12.229171043882195 40.58912712103851" fill="#33ff51" stroke="none" /><path d="M 94.28887869178378 79.79150937346287 l -4.290951218301099 -15.183296378106409 a36.777983117726386,36.777983117726386 0 0,0 0.6106933496783566,-0.16692556154202812 l 4.028959979399019 15.254908480474732" fill="#ffbb11" stroke="none" /><path d="M 94.63758080256005 79.69619591428918 l -9.352389364982908 -35.41108488693919 a57.625293441886015,57.625293441886015 0 0,0 0.9612203847433937,-0.24503647853573707 l 8.741460091554515 35.566824361643796" fill="#4eff2b" stroke="none" /><path d="M 94.98787191387505 79.60689891045804 l -3.5139650312193123 -14.297448683553943 a35.722940912042354,35.722940912042354 0 0,0 0.5984040211854054,-0.1416228981560785 l 3.267337323071373 14.355817493850893" fill="#ffad10" stroke="none" /><path d="M 95.33964822691252 79.52364482259891 l -5.127111872575466 -22.527175811789196 a44.10326657010139,44.10326657010139 0 0,0 0.7416852132299092,-0.16210366043293156 l 4.738583935192036 22.612092970317995" fill="#e6ff1a" stroke="none" /><path d="M 95.692805502759 79.44645832069477 l -6.780772591031396 -32.357232104779044 a54.06008690874581,54.06008690874581 0 0,0 0.9124147955993063,-0.18302182444447626 l 6.222791385964953 32.46915788530073" fill="#74ff27" stroke="none" /><path d="M 96.40284397218896 79.31037775812273 l -0.7049832392978209 -4.054824643456669 a25.115653563758052,25.115653563758052 0 0,0 0.4265723854726814,-0.07038809861623031 l 0.6350816476862539 4.066359005012527" fill="#ff1902" stroke="none" /><path d="M 97.11714578562143 79.19881850522333 l -1.235848357601356 -8.917241065562841 a30.002472403975826,30.002472403975826 0 0,0 0.51216402215118,-0.06649358928108332 l 1.0821696069423181 8.937192978008062" fill="#ff5f08" stroke="none" /><path d="M 97.83486435360386 79.11191278185805 l -1.3990335423972116 -13.49713802150954 a34.56945207532091,34.56945207532091 0 0,0 0.5924131986745846,-0.05625677148012638 l 1.1664952166323905 13.519220337504848" fill="#ff9e0e" stroke="none" /><path d="M 98.19473922651362 79.07773832637324 l -2.023880407496462 -23.45597716610818 a44.54312971380051,44.54312971380051 0 0,0 0.764465759302849,-0.05933725595470897 l 1.619824458831279 23.487339684251353" fill="#e1ff1b" stroke="none" /><path d="M 98.55514903715128 79.0497635885617 l -1.5529877174657964 -22.518211678262247 a43.571699715298934,43.571699715298934 0 0,0 0.7486820406592214,-0.045162545254528175 l 1.165143627966952 22.541607492897082" fill="#ecff1a" stroke="none" /><path d="M 98.91598698831166 79.02799685794201 l -0.9918177232210915 -19.188334626486768 a40.21395035213026,40.21395035213026 0 0,0 0.6916017540720196,-0.029781826353279892 l 0.6613751367597478 19.20256417936424" fill="#ffe815" stroke="none" /><path d="M 99.63851952072746 79.00311137660856 l -1.0844414378176228 -62.990665870174325 a84.0,84.0 0 0,0 1.445921917090143,-0.012445506434235476 l 1.543054966925665e-14 63.0" fill="#4dd2ff" stroke="none" /></svg>