<?xml version="1.0" encoding="utf-8" ?>
<svg baseProfile="full" height="200mm" version="1.1" viewBox="0,0,200,200" width="200mm" xmlns="http://www.w3.org/2000/svg" xmlns:ev="http://www.w3.org/2001/xml-events" xmlns:xlink="http://www.w3.org/1999/xlink"><defs /><rect fill="#1a1a1a" height="200" width="200" x="0" y="0" /><rect fill="#1a1a1a" height="200" width="180" x="10" y="0" /><text alignment-baseline="middle" fill="#e1ed5e" style="dominant-baseline: central; font-size:9.0px; font-family:Arial;" text-anchor="middle" x="100.0" y="100.0">2026</text><line stroke="#e1ed5e" stroke-width="0.3" x1="100.0" x2="100.0" y1="15.0" y2="10.0" /><path d="M 100.0 14.0 a86.0,86.0 0 0,1 42.46469731375804,11.215312516191453" fill="none" id="id85" stroke="none" /><text fill="#e1ed5e" style="font-size:6.75px; font-family:Arial;" text-anchor="middle"><textPath startOffset="22.20632615414155" xlink:href="#id85">January</textPath></text><path d="M 100.0 79.0 l 0.0 -21.095480074886332 a42.09548007488633,42.09548007488633 0 0,0 0.7246044910798609,0.006236899620526537 l -0.36312401180733256 21.092354551874365" fill="#ffd814" stroke="none" /><path d="M 100.36148047927253 79.00311137660856 l 0.21491967396116693 -12.4837846464623 a33.48563452794865,33.48563452794865 0 0,0 0.576229353428558,0.014882304156872552 l -0.4297756625845927 12.478235550163069" fill="#ff5b08" stroke="none" /><path d="M 100.72285384407766 79.0124445844662 l 0.2300290480617153 -6.6787324061862 a27.682692564856914,27.682692564856914 0 0,0 0.4760884859021792,0.020501371681680713 l -0.3449583663532261 6.673783307980324" fill="#ff0100" stroke="none" /><path d="M 101.08401301168833 79.027996857942 l 0.5649102308838484 -10.929111559855578 a31.943701524471784,31.943701524471784 0 0,0 0.5488809433604459,0.03310999743234034 l -0.7529532230839062 10.917768293042933" fill="#ff4406" stroke="none" /><path d="M 101.44485096284872 79.0497635885617 l 2.2341235038975182 -32.39463223716913 a53.47157996790585,53.47157996790585 0 0,0 0.9176991433680657,0.07123111571289137 l -2.7914128366279254 32.351375859267776" fill="#93ff23" stroke="none" /><path d="M 102.16513564639614 79.11191278185805 l 4.444810964056547 -42.88119279727572 a64.11093875367746,64.11093875367746 0 0,0 1.0967039937890313,0.12322747213794752 l -5.1822816613553035 42.79832937166718" fill="#32ff47" stroke="none" /><path d="M 102.52436894288641 79.15227682838746 l 1.2724298040744688 -10.5084735673867 a31.585230008023537,31.585230008023537 0 0,0 0.5391828454556402,0.07000140799142111 l -1.453127378037955 10.485013836231143" fill="#ff3e05" stroke="none" /><path d="M 103.2404852339499 79.25152402106235 l 3.2548936498403607 -20.84073150532166 a42.093373896763836,42.093373896763836 0 0,0 0.7149274801929479,0.11796915996686692 l -3.6131503361721835 20.78161608241517" fill="#ffd814" stroke="none" /><path d="M 103.59715602781102 79.31037775812273 l 1.8128887108602323 -10.427121399314652 a31.58354506552554,31.58354506552554 0 0,0 0.5348220341984421,0.09773530825335403 l -1.9921058661615751 10.39437060971056" fill="#ff3e05" stroke="none" /><path d="M 103.95276090670814 79.375362276772 l 3.8085099771225908 -19.87196807430197 a41.23363198716234,41.23363198716234 0 0,0 0.6959325826629114,0.13959752908835815 l -4.150008969252627 19.803466589136402" fill="#ffcc13" stroke="none" /><path d="M 104.307194497241 79.44645832069477 l 4.766108273073682 -22.7434366155163 a44.237463225461354,44.237463225461354 0 0,0 0.7439420001458295,0.16259690664218712 l -5.156892997373039 22.658026210778242" fill="#fff517" stroke="none" /><path d="M 104.66035177308747 79.52364482259891 l 2.43037220324849 -10.678413748589106 a31.951494383525006,31.951494383525006 0 0,0 0.5352275662035268,0.12667107241126346 l -2.6138234564145404 10.634996764036973" fill="#ff4406" stroke="none" /><path d="M 105.71112130821622 79.79150937346287 l 17.13336392464865 -60.62547187961136 a84.0,84.0 0 0,0 1.3880391291062915,0.40520668432518603 l -18.174393271478365 60.321566866367476" fill="#4dd2ff" stroke="none" /><path d="M 106.0581310904928 79.89281104454417 l 3.1582808312765627 -10.482465384172844 a31.94791388071677,31.94791388071677 0 0,0 0.5251851039524624,0.16317756826812044 l -3.338251307939743 10.426547681022203" fill="#ff4406" stroke="none" /><path d="M 106.74666289553966 80.11325718540242 l 4.560222644911734 -13.441901028821102 a35.19437683872693,35.19437683872693 0 0,0 0.5720225795636292,0.1995674460519726 l -4.790927228538638 13.361412729596921" fill="#ff750a" stroke="none" /><path d="M 107.08798089147638 80.2323363322302 l 7.27162575610911 -20.279830669057624 a42.54409601497727,42.54409601497727 0 0,0 0.6872242524908947,0.2531104919164392 l -7.619632334372581 20.15165690933486" fill="#ffde14" stroke="none" /><path d="M 108.09893153111575 80.62456947434976 l 5.045451311065005 -12.070455340004996 a34.082525407863066,34.082525407863066 0 0,0 0.5393417508836742,0.23091799063099677 l -5.252476819738995 11.981817821411209" fill="#ff6409" stroke="none" /><path d="M 108.76106565485865 80.91482961587045 l 7.097130980304893 -15.460442751332018 a38.01160069537309,38.01160069537309 0 0,0 0.5922963795669252,0.27809109203404386 l -7.362205571171416 15.33598667665797" fill="#ff9e0e" stroke="none" /><path d="M 109.08828744355905 81.06846463323043 l 4.73798991691829 -9.869562801196997 a31.94791388071677,31.94791388071677 0 0,0 0.4937150482556596,0.24226382999813906 l -4.907176232184382 9.786543811064027" fill="#ff4406" stroke="none" /><path d="M 109.41281617654863 81.2277094730956 l 7.551084996296653 -15.059378477717724 a37.84647633056967,37.84647633056967 0 0,0 0.5798431829086281,0.2970181995172099 l -7.809188666794036 14.927167752888012" fill="#ff9c0e" stroke="none" /><path d="M 110.05341064243156 81.56283822128135 l 14.193922200579026 -26.030533238352536 a50.648880048141216,50.648880048141216 0 0,0 0.7618457677470397,0.42396634491831614 l -14.6398920573981 25.78235149587404" fill="#b6ff1f" stroke="none" /><line stroke="#e1ed5e" stroke-width="0.3" x1="143.23703022742887" x2="145.7803849466894" y1="26.81831364943548" y2="22.513508569990506" /><path d="M 143.74570117128098 25.957352633546492 a86.0,86.0 0 0,1 28.547481713284135,27.462654790039103" fill="none" id="id86" stroke="none" /><text fill="#e1ed5e" style="font-size:6.75px; font-family:Arial;" text-anchor="middle"><textPath startOffset="19.985693538727396" xlink:href="#id86">February</textPath></text><path d="M 110.99172775467656 82.1063720568725 l 9.79047213719736 -15.938082685502335 a39.70496790585718,39.70496790585718 0 0,0 0.5792781772394575,0.3627439414442662 l -10.063369466809082 15.767194402735125" fill="#ffb710" stroke="none" /><path d="M 111.2981086023043 82.29822771554956 l 11.589588623981152 -18.158460492257017 a42.541779219042525,42.541779219042525 0 0,0 0.6138838992940457,0.39928716439243406 l -11.900439549059477 17.956274403705056" fill="#ffde14" stroke="none" /><path d="M 112.19680574252982 82.90503203632743 l 11.03437414949679 -15.465710987514587 a39.99856913613266,39.99856913613266 0 0,0 0.5570366134766089,0.4047107893468381 l -11.298956079327189 15.273480963351073" fill="#ffbb11" stroke="none" /><path d="M 112.77801427241765 83.33499621200491 l 27.66120554184232 -36.07556583579361 a66.45974859588125,66.45974859588125 0 0,0 0.9018507020054723,0.7039087778340705 l -28.278088799007225 35.594078668736316" fill="#35ff66" stroke="none" /><path d="M 113.89432698308785 84.25364557470407 l 12.432988634304937 -14.09022875593311 a39.79132120887938,39.79132120887938 0 0,0 0.5096870568679619,0.4576020721106499 l -12.67368667876889 13.874127675053161" fill="#ffb811" stroke="none" /><path d="M 115.68641384162765 86.03803664274999 l 19.32462140607257 -17.200212788490248 a46.87060711420166,46.87060711420166 0 0,0 0.5312183739155232,0.6072744317665579 l -19.61783164356594 16.86502280052074" fill="#e6ff1a" stroke="none" /><path d="M 116.15771136456269 86.58626213691792 l 5.111134826540926 -4.2431394644451235 a27.6428857983418,27.6428857983418 0 0,0 0.3007829089657488,0.3687242814205214 l -5.183416227583083 4.154531013416501" fill="#ff0000" stroke="none" /><path d="M 116.82858285166822 87.43820079747576 l 20.55245253257192 -15.341504635845585 a46.64693099759294,46.64693099759294 0 0,0 0.47477110312774545,0.6475872511077475 l -20.81348624821329 14.985454941066344" fill="#e9ff1a" stroke="none" /><path d="M 117.2510076193507 88.02491185347247 l 18.826044454348253 -13.068427466137278 a43.917324150842475,43.917324150842475 0 0,0 0.4257377490670094,0.6247176134768563 l -19.048206669083996 12.742431829390014" fill="#fff116" stroke="none" /><path d="M 117.45458315368197 88.32363383020206 l 15.55139637393692 -10.403215987169025 a39.71023335116341,39.71023335116341 0 0,0 0.3751735194091793,0.5714150092358523 l -15.728166528704024 10.1339829139555" fill="#ffb710" stroke="none" /><line stroke="#e1ed5e" stroke-width="0.3" x1="172.23445277983987" x2="176.4835382374775" y1="55.19839476539836" y2="52.563006222186495" /><path d="M 173.08426987136738 54.67131705675599 a86.0,86.0 0 0,1 12.851231095245387,41.99856678651699" fill="none" id="id87" stroke="none" /><text fill="#e1ed5e" style="font-size:6.75px; font-family:Arial;" text-anchor="middle"><textPath startOffset="22.20632615414155" xlink:href="#id87">March</textPath></text><path d="M 117.84615892207809 88.93136811851018 l 18.704101437789113 -11.600749180419422 a43.00956138004814,43.00956138004814 0 0,0 0.3848008145690475,0.6325113625898561 l -18.90101805064438 11.277070044622484" fill="#ffe515" stroke="none" /><path d="M 118.03404312379186 89.2402003453031 l 15.246158033903988 -9.096440815993903 a38.75360724792725,38.75360724792725 0 0,0 0.3368617182136059,0.575805871757362 l -15.400479426587921 8.832655531882645" fill="#ffa90f" stroke="none" /><path d="M 118.21658344932153 89.55222093294921 l 18.84075356088912 -10.805760103618738 a42.7195406525809,42.7195406525809 0 0,0 0.36035429495723703,0.6410300813161514 l -19.02396549713879 10.479846512367793" fill="#ffe115" stroke="none" /><path d="M 118.56541770881063 90.18545643968196 l 41.605168117575964 -21.994427554976046 a68.0610758224124,68.0610758224124 0 0,0 0.538624227174239,1.0404505662524437 l -41.97760177791032 21.27500426646326" fill="#37ff7a" stroke="none" /><path d="M 118.73160827565052 90.50648371742162 l 21.238382410694282 -10.763994541443106 a44.810343674779354,44.810343674779354 0 0,0 0.3427777632128517,0.6910190540544774 l -21.420520186860543 10.396815898889677" fill="#fffd17" stroke="none" /><path d="M 118.89224826269711 90.83032412892265 l 18.95919725694176 -9.202170710684664 a42.07441829366141,42.07441829366141 0 0,0 0.31063303834793904,0.6542724000622632 l -19.114788489131456 8.87445589498186" fill="#ffd814" stroke="none" /><path d="M 119.34039704204932 91.81776055985345 l 24.77713575989072 -10.482331721922163 a47.9032662476598,47.9032662476598 0 0,0 0.3147434223568312,0.7621761624613865 l -24.953900869133747 10.054280989007474" fill="#d8ff1c" stroke="none" /><path d="M 119.47837535516314 92.15188598940014 l 10.385167496795322 -4.184331446945923 a32.196442899170904,32.196442899170904 0 0,0 0.20269416295885326,0.5158345358210528 l -10.455655209635875 4.004947906229086" fill="#ff4806" stroke="none" /><path d="M 119.61058180528143 92.48833698450437 l 20.68099491418364 -7.921675458842776 a43.14625234019791,43.14625234019791 0 0,0 0.25968991995962043,0.6958398757866199 l -20.814289422644887 7.564512446026823" fill="#ffe615" stroke="none" /><path d="M 119.97218684219823 93.5106431181261 l 41.14956883183453 -13.370305404954745 a64.26721717036641,64.26721717036641 0 0,0 0.33279559241691087,1.0550529725581428 l -41.37361990801964 12.660002265970185" fill="#32ff49" stroke="none" /><path d="M 120.08093135843002 93.85539295169968 l 10.472804533013782 -3.2045958128338095 a31.952126236961753,31.952126236961753 0 0,0 0.15640429294772015,0.527317523080768 l -10.526414723073204 3.023848903006512" fill="#ff4406" stroke="none" /><path d="M 120.18372546131832 94.20196356495316 l 31.51851485350958 -9.054101426886806 a53.793193367210485,53.793193367210485 0 0,0 0.2479948938775116,0.8921695810856201 l -31.669696517953454 8.510220542382235" fill="#8fff24" stroke="none" /><path d="M 120.28053869075195 94.5502522615342 l 25.151881776647738 -6.758765776421437 a47.044156191495055,47.044156191495055 0 0,0 0.20341818791686486,0.7838532575448715 l -25.264496296434906 6.324816093327715" fill="#e4ff1b" stroke="none" /><path d="M 120.37134235888165 94.90015583598534 l 17.26238348390523 -4.321534836362639 a38.79509895694036,38.79509895694036 0 0,0 0.1565977096278209,0.6491986053668386 l -17.334213993793867 4.023750999336395" fill="#ffaa0f" stroke="none" /><path d="M 120.53481517161879 95.60439243477599 l 26.2856892921273 -5.6266186836340735 a47.88115137737363,47.88115137737363 0 0,0 0.16557918692502327,0.8074229196977517 l -26.378647774967323 5.17332010777291" fill="#d9ff1c" stroke="none" /><path d="M 120.6074358757038 95.95851677861258 l 13.372029557256214 -2.6224918722306625 a34.62676183471516,34.62676183471516 0 0,0 0.10967495222770436,0.5858879803027118 l -13.415190233393778 2.3919258144653877" fill="#ff6c0a" stroke="none" /><path d="M 120.67395015179393 96.31383870115 l 10.786228472482486 -1.9231824428273927 a31.956338593206738,31.956338593206738 0 0,0 0.09189446667967666,0.5423663441909498 l -10.817734800682386 1.737230310320605" fill="#ff4406" stroke="none" /><path d="M 120.73433829027371 96.67025291283417 l 18.686482726922694 -3.000880016437894 a39.92590599090666,39.92590599090666 0 0,0 0.10313071900491598,0.6795025828428726 l -18.73536933936691 2.6787783212029392" fill="#ffba11" stroke="none" /><path d="M 120.78858239683441 97.02765380044208 l 23.62067230279524 -3.3772776907052275 a44.860891949719175,44.860891949719175 0 0,0 0.10271862717983836,0.7653730830573018 l -23.675306929032914 2.970186265583261" fill="#fffe18" stroke="none" /><path d="M 120.83666639777658 97.38593545837742 l 18.556349887575934 -2.327987372693668 a39.70180863867344,39.70180863867344 0 0,0 0.07923279929361277,0.6788182376925788 l -18.593673039873135 2.0082253966762367" fill="#ffb610" stroke="none" /><path d="M 120.91429891909075 98.10471618934814 l 15.093576564465906 -1.3678015896270015 a36.15542591602033,36.15542591602033 0 0,0 0.050833695852215095,0.6202998464270325 l -15.114884744137616 1.1077878259922" fill="#ff830c" stroke="none" /><path d="M 120.94382443527127 98.46500227214037 l 9.86436486331346 -0.7229709979073574 a30.890823081037713,30.890823081037713 0 0,0 0.03430265417318856,0.5306468773451182 l -9.875348108491064 0.553065056309204" fill="#ff3304" stroke="none" /><path d="M 120.96714384426684 98.82574320788733 l 10.935411348517967 -0.6124334886009928 a31.952547472586254,31.952547472586254 0 0,0 0.026028228333517263,0.5494147622596303 l -10.94433318508498 0.42410761971836275" fill="#ff4406" stroke="none" /><path d="M 120.98425023603335 99.18683210126433 l 9.710617537014366 -0.3762994802854748 a30.717905857181066,30.717905857181066 0 0,0 0.01592694974551036,0.528537923561333 l -9.715656181215522 0.20909140929914274" fill="#ff3104" stroke="none" /><line stroke="#e1ed5e" stroke-width="0.3" x1="184.98032266829074" x2="189.97916517819016" y1="98.17113171792111" y2="98.06355123074" /><path d="M 185.9800911702706 98.14961562048488 a86.0,86.0 0 0,1 -9.607161424134198,41.387399972396054" fill="none" id="id88" stroke="none" /><text fill="#e1ed5e" style="font-size:6.75px; font-family:Arial;" text-anchor="middle"><textPath startOffset="21.466115282336823" xlink:href="#id88">April</textPath></text><path d="M 120.99980553446 99.90962569577887 l 27.883012721610946 -0.1199967242634424 a48.88327092805562,48.88327092805562 0 0,0 -0.0036213255752730804,0.8414685292806418 l -27.88094709874617 -0.3599812832208841" fill="#ccff1d" stroke="none" /><path d="M 120.9764740272857 100.99374915477107 l 10.937752922023778 0.5181701513427485 a31.950020058839264,31.950020058839264 0 0,0 -0.030753642600275112,0.5491269477564596 l -10.927212928535972 -0.7063688154346315" fill="#ff4406" stroke="none" /><path d="M 120.95626037817324 101.35467743843564 l 21.496700979126786 1.3896131891714405 a42.54156860123027,42.54156860123027 0 0,0 -0.053528316298174394,0.7303513474432871 l -21.469596104164275 -1.7594376731114978" fill="#ffde14" stroke="none" /><path d="M 120.8583938346157 102.4346265915055 l 28.303178010101263 3.3035942438266876 a49.49532629045199,49.49532629045199 0 0,0 -0.10605785630500661,0.8453854660065458 l -28.242118644549407 -3.7902974641206284" fill="#c4ff1e" stroke="none" /><path d="M 120.81339534386255 102.79330883721812 l 28.169266194278528 3.780520136116592 a49.421820673976995,49.421820673976995 0 0,0 -0.12041496929863733,0.8421820148168994 l -28.10001717396329 -4.2648476229139005" fill="#c5ff1e" stroke="none" /><path d="M 120.64145759157962 103.86396538481128 l 22.995985984949172 4.304719927903555 a44.395426584648305,44.395426584648305 0 0,0 -0.1470758477651412,0.749936579136515 l -22.918480204208365 -4.699920234108015" fill="#fff717" stroke="none" /><path d="M 120.5718875245553 104.21870165774334 l 23.525073036404724 4.824314954024088 a45.014642952661134,45.014642952661134 0 0,0 -0.16219410621376565,0.7577168670324308 l -23.438544891466517 -5.228545640472688" fill="#feff18" stroke="none" /><path d="M 120.41448212921028 104.9243191809786 l 16.539334043837993 3.9895677665096096 a38.013706873495586,38.013706873495586 0 0,0 -0.15891301739033278,0.6347785105639409 l -16.4682097121526 -4.273674116470946" fill="#ff9e0e" stroke="none" /><path d="M 119.79798401119884 107.00284435728193 l 10.327026114319741 3.6528242729794957 a31.954021797272,31.954021797272 0 0,0 -0.18788316453682158,0.5169737761970127 l -10.262618688777692 -3.8300458461826397" fill="#ff4406" stroke="none" /><path d="M 119.54520255179757 107.68017299344265 l 21.47378189559372 8.437996963426132 a44.07212824284568,44.07212824284568 0 0,0 -0.28352520522482816,0.7036863076351785 l -21.3253540761115 -8.806382638904124" fill="#fff316" stroke="none" /><line stroke="#e1ed5e" stroke-width="0.3" x1="174.80103733775053" x2="179.2010983576182" y1="140.37084112569926" y2="142.7455964860345" /><path d="M 175.68104954172406 140.8457921977663 a86.0,86.0 0 0,1 -30.038265399797805,32.042727171017184" fill="none" id="id89" stroke="none" /><text fill="#e1ed5e" style="font-size:6.75px; font-family:Arial;" text-anchor="middle"><textPath startOffset="22.206326154141568" xlink:href="#id89">May</textPath></text><line stroke="#e1ed5e" stroke-width="0.3" x1="143.8653032363475" x2="146.44561519142675" y1="172.8068346515853" y2="177.08958963109032" /><path d="M 144.38136562736335 173.6633856474863 a86.0,86.0 0 0,1 -40.68145358897372,12.25698825130547" fill="none" id="id90" stroke="none" /><text fill="#e1ed5e" style="font-size:6.75px; font-family:Arial;" text-anchor="middle"><textPath startOffset="21.466115282336833" xlink:href="#id90">June</textPath></text><line stroke="#e1ed5e" stroke-width="0.3" x1="102.19456741930631" x2="102.32365962044197" y1="184.97166512339345" y2="189.96999836594603" /><path d="M 102.22038585953345 185.97133177190398 a86.0,86.0 0 0,1 -42.740103519485714,-10.115201625700543" fill="none" id="id91" stroke="none" /><text fill="#e1ed5e" style="font-size:6.75px; font-family:Arial;" text-anchor="middle"><textPath startOffset="22.20632615414155" xlink:href="#id91">July</textPath></text><line stroke="#e1ed5e" stroke-width="0.3" x1="58.666819895761336" x2="56.23545636021788" y1="174.27360380694188" y2="178.64263932499728" /><path d="M 58.180547188652646 175.14741091055294 a86.0,86.0 0 0,1 -31.652253787137756,-30.449443065178592" fill="none" id="id92" stroke="none" /><text fill="#e1ed5e" style="font-size:6.75px; font-family:Arial;" text-anchor="middle"><textPath startOffset="22.20632615414155" xlink:href="#id92">August</textPath></text><line stroke="#e1ed5e" stroke-width="0.3" x1="26.63291911575756" x2="22.317208475507996" y1="142.92168965132927" y2="145.44649492493687" /><path d="M 25.769776987707644 143.4266507060508 a86.0,86.0 0 0,1 -11.730757126820373,-40.83630448921669" fill="none" id="id93" stroke="none" /><text fill="#e1ed5e" style="font-size:6.75px; font-family:Arial;" text-anchor="middle"><textPath startOffset="21.46611528233685" xlink:href="#id93">September</textPath></text><line stroke="#e1ed5e" stroke-width="0.3" x1="15.007084014347285" x2="10.007500721073583" y1="101.09737516637583" y2="101.16192664675087" /><path d="M 14.007167355692545 101.11028546245083 a86.0,86.0 0 0,1 10.666146001902534,-42.60595125391555" fill="none" id="id94" stroke="none" /><text fill="#e1ed5e" style="font-size:6.75px; font-family:Arial;" text-anchor="middle"><textPath startOffset="22.20632615414155" xlink:href="#id94">October</textPath></text><line stroke="#e1ed5e" stroke-width="0.3" x1="26.266209847984243" x2="21.928928074336255" y1="57.711370442889674" y2="55.22380399835377" /><path d="M 25.398753493254645 57.213857153982495 a86.0,86.0 0 0,1 29.58750427330803,-30.492523968695096" fill="none" id="id95" stroke="none" /><text fill="#e1ed5e" style="font-size:6.75px; font-family:Arial;" text-anchor="middle"><textPath startOffset="21.46611528233685" xlink:href="#id95">November</textPath></text><line stroke="#e1ed5e" stroke-width="0.3" x1="56.762969772571076" x2="54.21961505331055" y1="26.818313649435495" y2="22.513508569990535" /><path d="M 56.25429882871897 25.957352633546506 a86.0,86.0 0 0,1 42.265352541879196,-11.944610805530505" fill="none" id="id96" stroke="none" /><text fill="#e1ed5e" style="font-size:6.75px; font-family:Arial;" text-anchor="middle"><textPath startOffset="22.20632615414155" xlink:href="#id96">December</textPath></text></svg>