<?xml version="1.0" encoding="utf-8" ?>
<svg baseProfile="full" height="200mm" version="1.1" viewBox="0,0,200,200" width="200mm" xmlns="http://www.w3.org/2000/svg" xmlns:ev="http://www.w3.org/2001/xml-events" xmlns:xlink="http://www.w3.org/1999/xlink"><defs /><rect fill="#1a1a1a" height="200" width="200" x="0" y="0" /><text alignment-baseline="middle" fill="#e1ed5e" style="dominant-baseline: central; font-size:9.0px; font-family:Arial;" text-anchor="middle" x="100.0" y="100.0">2021</text><line stroke="#e1ed5e" stroke-width="0.3" x1="100.0" x2="100.0" y1="15.0" y2="10.0" /><path d="M 100.0 14.0 a86.0,86.0 0 0,1 42.46469731375804,11.215312516191453" fill="none" id="id25" stroke="none" /><text fill="#e1ed5e" style="font-size:6.75px; font-family:Arial;" text-anchor="middle"><textPath startOffset="22.20632615414155" xlink:href="#id25">January</textPath></text><path d="M 104.66035177308747 79.52364482259891 l 4.22041811098152 -18.543402825650112 a40.01761597534847,40.01761597534847 0 0,0 0.6703452097313192,0.15864905315831618 l -4.538987007675363 18.468007860350927" fill="#ffc412" stroke="none" /><path d="M 108.09893153111575 80.62456947434976 l 7.366422665654331 -17.623017311926564 a40.10065239895039,40.10065239895039 0 0,0 0.6345761007321892,0.2716923691582241 l -7.668682524176836 17.493605414805547" fill="#ffc512" stroke="none" /><line stroke="#e1ed5e" stroke-width="0.3" x1="143.23703022742887" x2="145.7803849466894" y1="26.81831364943548" y2="22.513508569990506" /><path d="M 143.74570117128098 25.957352633546492 a86.0,86.0 0 0,1 28.547481713284135,27.462654790039103" fill="none" id="id26" stroke="none" /><text fill="#e1ed5e" style="font-size:6.75px; font-family:Arial;" text-anchor="middle"><textPath startOffset="19.985693538727396" xlink:href="#id26">February</textPath></text><path d="M 115.68641384162765 86.03803664274999 l 14.33081298248365 -12.755387417490072 a40.185205469558724,40.185205469558724 0 0,0 0.4554478983595682,0.520655679955007 l -14.548252744421067 12.506816181332116" fill="#ffc612" stroke="none" /><line stroke="#e1ed5e" stroke-width="0.3" x1="172.23445277983987" x2="176.4835382374775" y1="55.19839476539836" y2="52.563006222186495" /><path d="M 173.08426987136738 54.67131705675599 a86.0,86.0 0 0,1 12.851231095245387,41.99856678651699" fill="none" id="id27" stroke="none" /><text fill="#e1ed5e" style="font-size:6.75px; font-family:Arial;" text-anchor="middle"><textPath startOffset="22.20632615414155" xlink:href="#id27">March</textPath></text><path d="M 119.47837535516314 92.15188598940014 l 17.63593881197828 -7.105770165974362 a40.01363477695659,40.01363477695659 0 0,0 0.2519076481043604,0.6410774875449378 l -17.755640009964342 6.801143673533639" fill="#ffc412" stroke="none" /><path d="M 120.28053869075195 94.5502522615342 l 18.358381661803485 -4.933229361847683 a40.00965357856472,40.00965357856472 0 0,0 0.17300110978724512,0.6666438476043821 l -18.440579103461033 4.6164890886944505" fill="#ffc412" stroke="none" /><line stroke="#e1ed5e" stroke-width="0.3" x1="184.98032266829074" x2="189.97916517819016" y1="98.17113171792111" y2="98.06355123074" /><path d="M 185.9800911702706 98.14961562048488 a86.0,86.0 0 0,1 -9.607161424134198,41.387399972396054" fill="none" id="id28" stroke="none" /><text fill="#e1ed5e" style="font-size:6.75px; font-family:Arial;" text-anchor="middle"><textPath startOffset="21.466115282336823" xlink:href="#id28">April</textPath></text><path d="M 120.92983693683757 101.71520430193887 l 18.96541310002168 1.5542193775982711 a40.02899082789668,40.02899082789668 0 0,0 -0.06218866601816083,0.6862467474124461 l -18.935849837726444 -1.8804475135592877" fill="#ffc412" stroke="none" /><path d="M 119.54520255179757 107.68017299344265 l 17.735969133516424 6.969245306656469 a40.05610089313657,40.05610089313657 0 0,0 -0.2576892625573752,0.6395636167247969 l -17.613377256701654 -7.273508291224079" fill="#ffc512" stroke="none" /><line stroke="#e1ed5e" stroke-width="0.3" x1="174.80103733775053" x2="179.2010983576182" y1="140.37084112569926" y2="142.7455964860345" /><path d="M 175.68104954172406 140.8457921977663 a86.0,86.0 0 0,1 -30.038265399797805,32.042727171017184" fill="none" id="id29" stroke="none" /><text fill="#e1ed5e" style="font-size:6.75px; font-family:Arial;" text-anchor="middle"><textPath startOffset="22.206326154141568" xlink:href="#id29">May</textPath></text><path d="M 113.48314897796784 116.09983520530334 l 12.194526203165067 14.5611283090118 a39.99297046149402,39.99297046149402 0 0,0 -0.5315825097158472,0.43745621554313613 l -11.942073564904529 -14.768879643412115" fill="#ffc412" stroke="none" /><line stroke="#e1ed5e" stroke-width="0.3" x1="143.8653032363475" x2="146.44561519142675" y1="172.8068346515853" y2="177.08958963109032" /><path d="M 144.38136562736335 173.6633856474863 a86.0,86.0 0 0,1 -40.68145358897372,12.25698825130547" fill="none" id="id30" stroke="none" /><text fill="#e1ed5e" style="font-size:6.75px; font-family:Arial;" text-anchor="middle"><textPath startOffset="21.466115282336833" xlink:href="#id30">June</textPath></text><path d="M 101.98527174616119 120.90594882070398 l 1.798705954492916 18.94131355107254 a40.026526276511234,40.026526276511234 0 0,0 -0.686465756169191,0.05923115393953872 l -1.4723958805821833 -18.96946895729074" fill="#ffc412" stroke="none" /><line stroke="#e1ed5e" stroke-width="0.3" x1="102.19456741930631" x2="102.32365962044197" y1="184.97166512339345" y2="189.96999836594603" /><path d="M 102.22038585953345 185.97133177190398 a86.0,86.0 0 0,1 -42.740103519485714,-10.115201625700543" fill="none" id="id31" stroke="none" /><text fill="#e1ed5e" style="font-size:6.75px; font-family:Arial;" text-anchor="middle"><textPath startOffset="22.20632615414155" xlink:href="#id31">July</textPath></text><path d="M 92.7421414339146 119.70592522655815 l -3.3000551097112703 8.960031205260368 a30.548430390717158,30.548430390717158 0 0,0 -0.49187304876824073,-0.18598429914042358 l 3.453798379239794 -8.90189865601331" fill="#ff3a05" stroke="none" /><path d="M 91.7346041902142 119.30500536409082 l -3.790553219297996 8.853375194056916 a30.630708490815863,30.630708490815863 0 0,0 -0.48291401437593573,-0.21169531236771313 l 3.942387908331675 -8.786815328394752" fill="#ff3c05" stroke="none" /><path d="M 91.40352486487194 119.15986991738527 l -3.904981786839236 8.703444364058406 a30.539330508678592,30.539330508678592 0 0,0 -0.47776892666368437,-0.21932028114522864 l 4.05421870927034 -8.634937012579103" fill="#ff3a05" stroke="none" /><line stroke="#e1ed5e" stroke-width="0.3" x1="58.666819895761336" x2="56.23545636021788" y1="174.27360380694188" y2="178.64263932499728" /><path d="M 58.180547188652646 175.14741091055294 a86.0,86.0 0 0,1 -31.652253787137756,-30.449443065178592" fill="none" id="id32" stroke="none" /><text fill="#e1ed5e" style="font-size:6.75px; font-family:Arial;" text-anchor="middle"><textPath startOffset="22.20632615414155" xlink:href="#id32">August</textPath></text><path d="M 89.7882731507175 118.34994917583269 l -5.332338625293682 9.58193890285498 a31.965737018223837,31.965737018223837 0 0,0 -0.4784985165690988,-0.2717039457521076 l 5.4964859087839875 -9.48873179130824" fill="#ff5007" stroke="none" /><path d="M 88.8546689885994 117.79835938074946 l -5.051540318360864 8.066977097455771 a30.518097450588606,30.518097450588606 0 0,0 -0.4428295076237971,-0.28263474351850143 l 5.1896516280315845 -7.978827925113465" fill="#ff3a05" stroke="none" /><path d="M 87.95078237400918 117.19931262002967 l -11.003587802516725 15.706758100974044 a40.17762223452659,40.17762223452659 0 0,0 -0.5630083931253388,-0.40169153969495897 l 11.27232352349095 -15.515022299434866" fill="#ffc612" stroke="none" /><path d="M 87.36589467227662 116.77436683061367 l -5.725289954642596 7.601497013014707 a30.516391222706375,30.516391222706375 0 0,0 -0.4168702834213323,-0.3196383570666696 l 5.855288966557415 -7.50181931412067" fill="#ff3a05" stroke="none" /><path d="M 86.24171649860922 115.8653595955263 l -6.225284618429735 7.178684684459546 a30.50198307614531,30.50198307614531 0 0,0 -0.3937045602049062,-0.34739849913653587 l 6.347931531541229 -7.070463043550722" fill="#ff3a05" stroke="none" /><path d="M 85.70375840098266 115.38237550388516 l -6.802967009248565 7.319811458977926 a30.992997544476278,30.992997544476278 0 0,0 -0.38765475427368196,-0.3665517663555393 l 6.927957597913064 -7.201625055876456" fill="#ff4106" stroke="none" /><path d="M 84.9287848128048 114.62390073753433 l -6.85513709398074 6.651676268927358 a30.55184284648162,30.55184284648162 0 0,0 -0.3629754587379441,-0.3805783173299735 l 6.968619104097642 -6.5326908350148845" fill="#ff3b05" stroke="none" /><path d="M 84.19399662182784 113.82643327865904 l -7.269405035938946 6.358972682731449 a30.65819771780736,30.65819771780736 0 0,0 -0.3440397112029219,-0.40019590918498593 l 7.377787256712647 -6.2328996743849325" fill="#ff3c05" stroke="none" /><path d="M 83.72743513129214 113.27417163493432 l -7.457981414344597 6.083768978210351 a30.624641902790152,30.624641902790152 0 0,0 -0.32969918971214257,-0.41135043273381083 l 7.561598516111601 -5.954490711898281" fill="#ff3c05" stroke="none" /><path d="M 83.50135304334701 112.99209946851258 l -7.530767069278259 5.930212040740012 a30.585398661498836,30.585398661498836 0 0,0 -0.3221562703138646,-0.41643040648293256 l 7.631730156810192 -5.799703640143828" fill="#ff3b05" stroke="none" /><path d="M 83.06392112726016 112.41649034213515 l -12.316462568361336 9.029672079260205 a36.271877031223674,36.271877031223674 0 0,0 -0.3648263522600714,-0.5067118946747506 l 12.470068712997016 -8.816326579134316" fill="#ff8f0d" stroke="none" /><path d="M 82.6465618267979 111.8261652097733 l -18.833309752893403 12.834680387918434 a43.79084414646478,43.79084414646478 0 0,0 -0.41913446118486264,-0.626549150560894 l 19.051447319488993 -12.50859432315172" fill="#fff717" stroke="none" /><path d="M 82.44556493220864 111.52570212397912 l -7.975912659129418 5.236738927854652 a30.54141589831243,30.54141589831243 0 0,0 -0.2847552713556453,-0.4419465047291821 l 8.064872793862108 -5.098670823204021" fill="#ff3a05" stroke="none" /><line stroke="#e1ed5e" stroke-width="0.3" x1="26.63291911575756" x2="22.317208475507996" y1="142.92168965132927" y2="145.44649492493687" /><path d="M 25.769776987707644 143.4266507060508 a86.0,86.0 0 0,1 -11.730757126820373,-40.83630448921669" fill="none" id="id33" stroke="none" /><text fill="#e1ed5e" style="font-size:6.75px; font-family:Arial;" text-anchor="middle"><textPath startOffset="21.46611528233685" xlink:href="#id33">September</textPath></text><path d="M 81.69416730710424 110.29060199501025 l -8.356974651355163 4.697863323795168 a30.58691530850526,30.58691530850526 0 0,0 -0.2540514091386601,-0.4611771018067489 l 8.43660246994534 -4.553315703590597" fill="#ff3b05" stroke="none" /><path d="M 80.87730276802145 108.67885076344099 l -8.669295206873345 3.9345662597662416 a30.520372421098244,30.520372421098244 0 0,0 -0.21300155598254855,-0.4802622779721125 l 8.735737847587172 -3.7847556453014333" fill="#ff3a05" stroke="none" /><path d="M 80.32549172779594 107.34259656027581 l -8.963685412864917 3.3452793213074403 a30.567578059173307,30.567578059173307 0 0,0 -0.17973115667318632,-0.49454295170436235 l 9.019940830543328 -3.1904885725969607" fill="#ff3b05" stroke="none" /><path d="M 79.97269907076064 106.31721596034903 l -9.095127830882294 2.8688781827200747 a30.536865957293145,30.536865957293145 0 0,0 -0.15380870808812244,-0.5026557573442776 l 9.143163311476547 -2.7118954528237493" fill="#ff3a05" stroke="none" /><path d="M 79.86692584326677 105.97154293290107 l -9.137165410884585 2.7101164537194227 a30.530609788391633,30.530609788391633 0 0,0 -0.14510379320184139,-0.5051253399648992 l 9.18246184097253 -2.5524336382499277" fill="#ff3a05" stroke="none" /><path d="M 79.50377843672027 104.57218783832718 l -23.264375948259985 5.18969296113936 a44.83619309564506,44.83619309564506 0 0,0 -0.1615511262151703,-0.7547130785380447 l 23.350261113199597 -4.788466063185152" fill="#f9ff18" stroke="none" /><path d="M 79.23777060512086 103.15116336523772 l -9.46168666662804 1.4360365561027009 a30.57004261055875,30.57004261055875 0 0,0 -0.0744831066967735,-0.5209346747590735 l 9.485003824341414 -1.2729564093632266" fill="#ff3b05" stroke="none" /><path d="M 79.10278846688536 102.07522291339032 l -9.690158077936704 0.9622928899313914 a30.737821685644818,30.737821685644818 0 0,0 -0.047753992478925276,-0.5269613277289342 l 9.705286666692706 -0.795350173653891" fill="#ff3d05" stroke="none" /><path d="M 79.0095281055655 100.63252640178507 l -9.510746988206874 0.2865966330339525 a30.515064156575747,30.515064156575747 0 0,0 -0.011302107436801047,-0.525164521809718 l 9.514271158328683 -0.12284229543410564" fill="#ff3a05" stroke="none" /><line stroke="#e1ed5e" stroke-width="0.3" x1="15.007084014347285" x2="10.007500721073583" y1="101.09737516637583" y2="101.16192664675087" /><path d="M 14.007167355692545 101.11028546245083 a86.0,86.0 0 0,1 10.666146001902534,-42.60595125391555" fill="none" id="id34" stroke="none" /><text fill="#e1ed5e" style="font-size:6.75px; font-family:Arial;" text-anchor="middle"><textPath startOffset="22.20632615414155" xlink:href="#id34">October</textPath></text><path d="M 79.00175016825051 100.2711162175752 l -40.09964832590274 0.5177414816627525 a61.1029905630853,61.1029905630853 0 0,0 -0.004526575620879219,-1.0518167591412193 l 40.10261919881312 0.17258475568214215" fill="#38ff2e" stroke="none" /><path d="M 79.08570108090925 98.10471618934814 l -62.742896757272284 -5.685851431955563 a84.0,84.0 0 0,0 0.1428914972710853,-1.4388978771822787 l 62.635728134318974 6.7650248398422725" fill="#4dd2ff" stroke="none" /><path d="M 79.3925641242962 95.95851677861259 l -19.721589979424316 -3.867753148993037 a41.097279063049186,41.097279063049186 0 0,0 0.14211968293031352,-0.6930260467462777 l 19.65209100057901 4.206654851902718" fill="#ffd313" stroke="none" /><path d="M 79.71946130924805 94.55025226153421 l -19.438771104382695 -5.223549555563399 a41.12837032668095,41.12837032668095 0 0,0 0.18960811203184014,-0.6821212615991785 l 19.345976221784493 5.55738212058152" fill="#ffd313" stroke="none" /><path d="M 80.38941819471856 92.48833698450439 l -9.020954969018112 -3.455398441415711 a30.660093526565397,30.660093526565397 0 0,0 0.19302200597345492,-0.4912199512858043 l 8.960139413162967 3.6101673975972783" fill="#ff3c05" stroke="none" /><path d="M 80.803312248108 91.48605970444005 l -9.69100224264367 -4.298065143549243 a31.601362574929585,31.601362574929585 0 0,0 0.22481763569026342,-0.4953558595366039 l 9.615582289990055 4.464243011927918" fill="#ff4a06" stroke="none" /><line stroke="#e1ed5e" stroke-width="0.3" x1="26.266209847984243" x2="21.928928074336255" y1="57.711370442889674" y2="55.22380399835377" /><path d="M 25.398753493254645 57.213857153982495 a86.0,86.0 0 0,1 29.58750427330803,-30.492523968695096" fill="none" id="id35" stroke="none" /><text fill="#e1ed5e" style="font-size:6.75px; font-family:Arial;" text-anchor="middle"><textPath startOffset="21.46611528233685" xlink:href="#id35">November</textPath></text><path d="M 81.96595687620814 89.24020034530311 l -8.200336293323193 -4.892634170364848 a30.548999133344566,30.548999133344566 0 0,0 0.273317824539214,-0.4492626394593312 l 8.114902670497761 5.033064583031253" fill="#ff3a05" stroke="none" /><path d="M 82.34701348167596 88.62581576622439 l -8.006665684661872 -5.1588602586345385 a30.524732781241728,30.524732781241728 0 0,0 0.2883909375523213,-0.4392391832571428 l 7.916678111751629 5.295917505869348" fill="#ff3a05" stroke="none" /><path d="M 84.07557802195018 86.31012108654704 l -7.247099439702473 -6.2301736251421325 a30.556961530128316,30.556961530128316 0 0,0 0.3463240699290175,-0.3959082800977632 l 7.138783506195612 6.353997461442839" fill="#ff3b05" stroke="none" /><path d="M 84.5562425177563 85.77008943001954 l -7.015664885768523 -6.464248355895215 a30.5397096704302,30.5397096704302 0 0,0 0.35954353371739156,-0.38353597332179085 l 6.903354030080675 6.584053746095056" fill="#ff3a05" stroke="none" /><path d="M 85.83668400450813 84.49514656593479 l -3.905660798270554 -4.27560172064466 a26.790937432292544,26.790937432292544 0 0,0 0.34316513339478544,-0.30809704504280394 l 3.8314846772797972 4.342197774456744" fill="#ff0000" stroke="none" /><path d="M 86.37877921826538 84.01681056812374 l -10.081388856584153 -11.829537925650683 a36.542598521871014,36.542598521871014 0 0,0 0.4822621790602717,-0.4038807058451831 l 9.876269140564771 12.00131978888968" fill="#ff930d" stroke="none" /><path d="M 88.09926311788651 82.69761687909137 l -5.372972557819559 -7.8117204518021754 a30.48112917980693,30.48112917980693 0 0,0 0.4348572957837144,-0.29361758727430914 l 5.237710567629305 7.90304995137515" fill="#ff3905" stroke="none" /><path d="M 88.39885842347998 82.49532879139004 l -5.2476600288263375 -7.918062443534489 a30.49913936300826,30.49913936300826 0 0,0 0.4401069005805674,-0.28625777050748585 l 5.110586102461483 8.00721913820151" fill="#ff3a05" stroke="none" /><line stroke="#e1ed5e" stroke-width="0.3" x1="56.762969772571076" x2="54.21961505331055" y1="26.818313649435495" y2="22.513508569990535" /><path d="M 56.25429882871897 25.957352633546506 a86.0,86.0 0 0,1 42.265352541879196,-11.944610805530505" fill="none" id="id36" stroke="none" /><text fill="#e1ed5e" style="font-size:6.75px; font-family:Arial;" text-anchor="middle"><textPath startOffset="22.20632615414155" xlink:href="#id36">December</textPath></text><path d="M 89.63071344664047 81.73862282372117 l -9.450344447758651 -16.643025874365534 a40.138947735862686,40.138947735862686 0 0,0 0.6037584133216752,-0.33599090333815007 l 9.16246194536493 16.80323217526387" fill="#ffc612" stroke="none" /><path d="M 90.58718382345135 81.22770947309562 l -18.319658643566214 -36.5355009553408 a61.871172271840926,61.871172271840926 0 0,0 0.9561415783790571,-0.46917452003331794 l 17.68804579817673 36.84543063550895" fill="#30ff2f" stroke="none" /><path d="M 91.90106846888425 80.62456947434976 l -3.665371417684843 -8.768829441415578 a30.50406846577915,30.50406846577915 0 0,0 0.48620017898460494,-0.19833326076728475 l 3.5138873691118575 8.83062358836644" fill="#ff3a05" stroke="none" /><path d="M 93.94186890950719 79.89281104454417 l -2.8270743668277483 -9.383177358796154 a30.79981463203255,30.79981463203255 0 0,0 0.5089446176009809,-0.14857489005805755 l 2.665139531503346 9.430450577772909" fill="#ff3e05" stroke="none" /><path d="M 97.83486435360386 79.11191278185805 l -0.9821529402499473 -9.475293758912077 a30.526059847372352,30.526059847372352 0 0,0 0.5231219956194745,-0.04967673682766481 l 0.8189058175402364 9.490796040254923" fill="#ff3a05" stroke="none" /></svg>