<?xml version="1.0" encoding="utf-8" ?>
<svg baseProfile="full" height="200mm" version="1.1" viewBox="0,0,200,200" width="200mm" xmlns="http://www.w3.org/2000/svg" xmlns:ev="http://www.w3.org/2001/xml-events" xmlns:xlink="http://www.w3.org/1999/xlink"><defs /><rect fill="#1a1a1a" height="200" width="200" x="0" y="0" /><text alignment-baseline="middle" fill="#e1ed5e" style="dominant-baseline: central; font-size:9.0px; font-family:Arial;" text-anchor="middle" x="100.0" y="100.0">2025</text><line stroke="#e1ed5e" stroke-width="0.3" x1="100.0" x2="100.0" y1="15.0" y2="10.0" /><path d="M 100.0 14.0 a86.0,86.0 0 0,1 42.46469731375804,11.215312516191453" fill="none" id="id73" stroke="none" /><text fill="#e1ed5e" style="font-size:6.75px; font-family:Arial;" text-anchor="middle"><textPath startOffset="22.20632615414155" xlink:href="#id73">January</textPath></text><path d="M 100.0 79.0 l 0.0 -22.34517805389919 a43.34517805389919,43.34517805389919 0 0,0 0.7461159874798361,0.0064220558614629135 l -0.38463550820730774 22.341867374646284" fill="#eeff19" stroke="none" /><path d="M 101.08401301168833 79.027996857942 l 1.2576017037995577 -24.330360059483194 a45.362840201205906,45.362840201205906 0 0,0 0.7794587770009155,0.04701908203828388 l -1.676222529640085 24.305107708064607" fill="#d6ff1c" stroke="none" /><path d="M 101.80526077348638 79.07773832637324 l 1.8089712431797071 -20.965264556642946 a42.043162663646356,42.043162663646356 0 0,0 0.7204894200144725,0.06841915194713827 l -2.1695857902844238 20.93101986018063" fill="#feff18" stroke="none" /><path d="M 102.16513564639614 79.11191278185805 l 1.6002125993126943 -15.438007497428499 a36.52072021053333,36.52072021053333 0 0,0 0.6247361291156613,0.07019638332691125 l -1.8657154319380809 15.408175160630988" fill="#ffba11" stroke="none" /><path d="M 102.88285421437855 79.19881850522331 l 1.4845081025778744 -10.711440876258614 a31.813821246543853,31.813821246543853 0 0,0 0.5417909204219986,0.07984589807665807 l -1.6686680034285288 10.684300494020986" fill="#ff7a0b" stroke="none" /><path d="M 103.2404852339499 79.25152402106235 l 3.3660609184381927 -21.55252348572662 a42.813794596755386,42.813794596755386 0 0,0 0.7271633384300895,0.11998818141687427 l -3.7365534630071573 21.49138904137012" fill="#f5ff19" stroke="none" /><path d="M 104.307194497241 79.44645832069477 l 4.403255882227273 -21.011937900175162 a42.468353376195076,42.468353376195076 0 0,0 0.7141908565724941,0.15609445898747257 l -4.764289462953296 20.93302994309182" fill="#f9ff18" stroke="none" /><path d="M 105.01212808612495 79.60689891045804 l 5.125664416401277 -20.855052145236307 a42.47569872414138,42.47569872414138 0 0,0 0.7085171290456928,0.18061679198569847 l -5.483890434131994 20.763732357081743" fill="#f9ff18" stroke="none" /><path d="M 105.36241919743992 79.69619591428918 l 5.48410479513792 -20.764543995207685 a42.476538192478095,42.476538192478095 0 0,0 0.7053170726755607,0.19278979946900668 l -5.840719757037191 20.667067654912383" fill="#f9ff18" stroke="none" /><path d="M 105.71112130821622 79.79150937346287 l 5.841119282495977 -20.668481353913542 a42.47800726206736,42.47800726206736 0 0,0 0.701918288169175,0.20490919618337486 l -6.196027788388579 20.564873828811464" fill="#f9ff18" stroke="none" /><path d="M 106.74666289553966 80.11325718540242 l 3.510022222714602 -10.346286793548774 a31.925470535327626,31.925470535327626 0 0,0 0.5188922677359539,0.18103132349631632 l -3.68759649451383 10.284334616880251" fill="#ff7c0b" stroke="none" /><path d="M 107.08798089147638 80.2323363322302 l 11.073981405133013 -30.884216990913654 a53.80957060528332,53.80957060528332 0 0,0 0.869197971042883,0.32013294819852117 l -11.603961701948473 30.68902077490881" fill="#76ff27" stroke="none" /><path d="M 107.4271985657038 80.35727306442388 l 7.596926345312476 -20.091606334550267 a42.479896065824974,42.479896065824974 0 0,0 0.6817352439641633,0.26450268326561294 l -7.9416447542763065 19.957860947394106" fill="#f9ff18" stroke="none" /><path d="M 109.08828744355905 81.06846463323043 l 13.851774389725088 -28.854210254698952 a53.006829008294744,53.006829008294744 0 0,0 0.8191542408503134,0.40195542843744 l -14.346399897585833 28.61149966612668" fill="#7eff26" stroke="none" /><path d="M 110.05341064243156 81.56283822128135 l 11.520949382400744 -21.128512020710225 a45.06545854292281,45.06545854292281 0 0,0 0.6778615604110563,0.37722922446361334 l -11.882935031883836 20.927067398686432" fill="#d9ff1c" stroke="none" /><path d="M 110.36928655335952 81.73862282372117 l 11.625732234734313 -20.47410689215866 a44.544568439988005,44.544568439988005 0 0,0 0.6635088837595268,0.38434717200858254 l -11.976437850959169 20.270955562760026" fill="#dfff1b" stroke="none" /><line stroke="#e1ed5e" stroke-width="0.3" x1="143.23703022742887" x2="145.7803849466894" y1="26.81831364943548" y2="22.513508569990506" /><path d="M 143.74570117128098 25.957352633546492 a86.0,86.0 0 0,1 28.547481713284135,27.462654790039103" fill="none" id="id74" stroke="none" /><text fill="#e1ed5e" style="font-size:6.75px; font-family:Arial;" text-anchor="middle"><textPath startOffset="19.985693538727396" xlink:href="#id74">February</textPath></text><path d="M 110.68208982089419 81.91981866633111 l 2.0115522018898955 -3.4046922636029446 a24.954525467204103,24.954525467204103 0 0,0 0.3679460811516392,0.22168339691706074 l -2.069860349259172 3.3695622572272694" fill="#ff1802" stroke="none" /><path d="M 111.2981086023043 82.29822771554956 l 33.894325806912875 -53.10531685335132 a84.0,84.0 0 0,0 1.2121318968628794,0.7884043033618879 l -34.803424729560035 52.514013625829904" fill="#4dd2ff" stroke="none" /><path d="M 111.60114157652 82.49532879139004 l 1.272535360377265 -1.9200966506449557 a23.303501115959893,23.303501115959893 0 0,0 0.33245807324921417,0.22447717511873017 l -1.305398128033021 1.8979075632275555" fill="#ff0000" stroke="none" /><path d="M 112.19680574252982 82.90503203632743 l 12.46821605719753 -17.4753749925454 a42.46730404077418,42.46730404077418 0 0,0 0.5914172365977183,0.4296897741836483 l -12.767178610149037 17.258165983545076" fill="#f9ff18" stroke="none" /><line stroke="#e1ed5e" stroke-width="0.3" x1="172.23445277983987" x2="176.4835382374775" y1="55.19839476539836" y2="52.563006222186495" /><path d="M 173.08426987136738 54.67131705675599 a86.0,86.0 0 0,1 12.851231095245387,41.99856678651699" fill="none" id="id75" stroke="none" /><text fill="#e1ed5e" style="font-size:6.75px; font-family:Arial;" text-anchor="middle"><textPath startOffset="22.20632615414155" xlink:href="#id75">March</textPath></text><line stroke="#e1ed5e" stroke-width="0.3" x1="184.98032266829074" x2="189.97916517819016" y1="98.17113171792111" y2="98.06355123074" /><path d="M 185.9800911702706 98.14961562048488 a86.0,86.0 0 0,1 -9.607161424134198,41.387399972396054" fill="none" id="id76" stroke="none" /><text fill="#e1ed5e" style="font-size:6.75px; font-family:Arial;" text-anchor="middle"><textPath startOffset="21.466115282336823" xlink:href="#id76">April</textPath></text><line stroke="#e1ed5e" stroke-width="0.3" x1="174.80103733775053" x2="179.2010983576182" y1="140.37084112569926" y2="142.7455964860345" /><path d="M 175.68104954172406 140.8457921977663 a86.0,86.0 0 0,1 -30.038265399797805,32.042727171017184" fill="none" id="id77" stroke="none" /><text fill="#e1ed5e" style="font-size:6.75px; font-family:Arial;" text-anchor="middle"><textPath startOffset="22.206326154141568" xlink:href="#id77">May</textPath></text><line stroke="#e1ed5e" stroke-width="0.3" x1="143.8653032363475" x2="146.44561519142675" y1="172.8068346515853" y2="177.08958963109032" /><path d="M 144.38136562736335 173.6633856474863 a86.0,86.0 0 0,1 -40.68145358897372,12.25698825130547" fill="none" id="id78" stroke="none" /><text fill="#e1ed5e" style="font-size:6.75px; font-family:Arial;" text-anchor="middle"><textPath startOffset="21.466115282336833" xlink:href="#id78">June</textPath></text><line stroke="#e1ed5e" stroke-width="0.3" x1="102.19456741930631" x2="102.32365962044197" y1="184.97166512339345" y2="189.96999836594603" /><path d="M 102.22038585953345 185.97133177190398 a86.0,86.0 0 0,1 -42.740103519485714,-10.115201625700543" fill="none" id="id79" stroke="none" /><text fill="#e1ed5e" style="font-size:6.75px; font-family:Arial;" text-anchor="middle"><textPath startOffset="22.20632615414155" xlink:href="#id79">July</textPath></text><line stroke="#e1ed5e" stroke-width="0.3" x1="58.666819895761336" x2="56.23545636021788" y1="174.27360380694188" y2="178.64263932499728" /><path d="M 58.180547188652646 175.14741091055294 a86.0,86.0 0 0,1 -31.652253787137756,-30.449443065178592" fill="none" id="id80" stroke="none" /><text fill="#e1ed5e" style="font-size:6.75px; font-family:Arial;" text-anchor="middle"><textPath startOffset="22.20632615414155" xlink:href="#id80">August</textPath></text><line stroke="#e1ed5e" stroke-width="0.3" x1="26.63291911575756" x2="22.317208475507996" y1="142.92168965132927" y2="145.44649492493687" /><path d="M 25.769776987707644 143.4266507060508 a86.0,86.0 0 0,1 -11.730757126820373,-40.83630448921669" fill="none" id="id81" stroke="none" /><text fill="#e1ed5e" style="font-size:6.75px; font-family:Arial;" text-anchor="middle"><textPath startOffset="21.46611528233685" xlink:href="#id81">September</textPath></text><line stroke="#e1ed5e" stroke-width="0.3" x1="15.007084014347285" x2="10.007500721073583" y1="101.09737516637583" y2="101.16192664675087" /><path d="M 14.007167355692545 101.11028546245083 a86.0,86.0 0 0,1 10.666146001902534,-42.60595125391555" fill="none" id="id82" stroke="none" /><text fill="#e1ed5e" style="font-size:6.75px; font-family:Arial;" text-anchor="middle"><textPath startOffset="22.20632615414155" xlink:href="#id82">October</textPath></text><line stroke="#e1ed5e" stroke-width="0.3" x1="26.266209847984243" x2="21.928928074336255" y1="57.711370442889674" y2="55.22380399835377" /><path d="M 25.398753493254645 57.213857153982495 a86.0,86.0 0 0,1 29.58750427330803,-30.492523968695096" fill="none" id="id83" stroke="none" /><text fill="#e1ed5e" style="font-size:6.75px; font-family:Arial;" text-anchor="middle"><textPath startOffset="21.46611528233685" xlink:href="#id83">November</textPath></text><line stroke="#e1ed5e" stroke-width="0.3" x1="56.762969772571076" x2="54.21961505331055" y1="26.818313649435495" y2="22.513508569990535" /><path d="M 56.25429882871897 25.957352633546506 a86.0,86.0 0 0,1 42.265352541879196,-11.944610805530505" fill="none" id="id84" stroke="none" /><text fill="#e1ed5e" style="font-size:6.75px; font-family:Arial;" text-anchor="middle"><textPath startOffset="22.20632615414155" xlink:href="#id84">December</textPath></text></svg>