<?xml version="1.0" encoding="utf-8" ?>
<svg baseProfile="full" height="200mm" version="1.1" viewBox="0,0,200,200" width="200mm" xmlns="http://www.w3.org/2000/svg" xmlns:ev="http://www.w3.org/2001/xml-events" xmlns:xlink="http://www.w3.org/1999/xlink"><defs /><rect fill="#1a1a1a" height="200" width="200" x="0" y="0" /><rect fill="#1a1a1a" height="200" width="180" x="10" y="0" /><text alignment-baseline="middle" fill="#e1ed5e" style="dominant-baseline: central; font-size:9.0px; font-family:Arial;" text-anchor="middle" x="100.0" y="100.0">2019</text><line stroke="#e1ed5e" stroke-width="0.3" x1="100.0" x2="100.0" y1="15.0" y2="10.0" /><path d="M 100.0 14.0 a86.0,86.0 0 0,1 42.46469731375804,11.215312516191453" fill="none" id="id1" stroke="none" /><text fill="#e1ed5e" style="font-size:6.75px; font-family:Arial;" text-anchor="middle"><textPath startOffset="22.20632615414155" xlink:href="#id1">January</textPath></text><line stroke="#e1ed5e" stroke-width="0.3" x1="143.23703022742887" x2="145.7803849466894" y1="26.81831364943548" y2="22.513508569990506" /><path d="M 143.74570117128098 25.957352633546492 a86.0,86.0 0 0,1 28.547481713284135,27.462654790039103" fill="none" id="id2" stroke="none" /><text fill="#e1ed5e" style="font-size:6.75px; font-family:Arial;" text-anchor="middle"><textPath startOffset="19.985693538727396" xlink:href="#id2">February</textPath></text><line stroke="#e1ed5e" stroke-width="0.3" x1="172.23445277983987" x2="176.4835382374775" y1="55.19839476539836" y2="52.563006222186495" /><path d="M 173.08426987136738 54.67131705675599 a86.0,86.0 0 0,1 12.851231095245387,41.99856678651699" fill="none" id="id3" stroke="none" /><text fill="#e1ed5e" style="font-size:6.75px; font-family:Arial;" text-anchor="middle"><textPath startOffset="22.20632615414155" xlink:href="#id3">March</textPath></text><line stroke="#e1ed5e" stroke-width="0.3" x1="184.98032266829074" x2="189.97916517819016" y1="98.17113171792111" y2="98.06355123074" /><path d="M 185.9800911702706 98.14961562048488 a86.0,86.0 0 0,1 -9.607161424134198,41.387399972396054" fill="none" id="id4" stroke="none" /><text fill="#e1ed5e" style="font-size:6.75px; font-family:Arial;" text-anchor="middle"><textPath startOffset="21.466115282336823" xlink:href="#id4">April</textPath></text><line stroke="#e1ed5e" stroke-width="0.3" x1="174.80103733775053" x2="179.2010983576182" y1="140.37084112569926" y2="142.7455964860345" /><path d="M 175.68104954172406 140.8457921977663 a86.0,86.0 0 0,1 -30.038265399797805,32.042727171017184" fill="none" id="id5" stroke="none" /><text fill="#e1ed5e" style="font-size:6.75px; font-family:Arial;" text-anchor="middle"><textPath startOffset="22.206326154141568" xlink:href="#id5">May</textPath></text><line stroke="#e1ed5e" stroke-width="0.3" x1="143.8653032363475" x2="146.44561519142675" y1="172.8068346515853" y2="177.08958963109032" /><path d="M 144.38136562736335 173.6633856474863 a86.0,86.0 0 0,1 -40.68145358897372,12.25698825130547" fill="none" id="id6" stroke="none" /><text fill="#e1ed5e" style="font-size:6.75px; font-family:Arial;" text-anchor="middle"><textPath startOffset="21.466115282336833" xlink:href="#id6">June</textPath></text><line stroke="#e1ed5e" stroke-width="0.3" x1="102.19456741930631" x2="102.32365962044197" y1="184.97166512339345" y2="189.96999836594603" /><path d="M 102.22038585953345 185.97133177190398 a86.0,86.0 0 0,1 -42.740103519485714,-10.115201625700543" fill="none" id="id7" stroke="none" /><text fill="#e1ed5e" style="font-size:6.75px; font-family:Arial;" text-anchor="middle"><textPath startOffset="22.20632615414155" xlink:href="#id7">July</textPath></text><line stroke="#e1ed5e" stroke-width="0.3" x1="58.666819895761336" x2="56.23545636021788" y1="174.27360380694188" y2="178.64263932499728" /><path d="M 58.180547188652646 175.14741091055294 a86.0,86.0 0 0,1 -31.652253787137756,-30.449443065178592" fill="none" id="id8" stroke="none" /><text fill="#e1ed5e" style="font-size:6.75px; font-family:Arial;" text-anchor="middle"><textPath startOffset="22.20632615414155" xlink:href="#id8">August</textPath></text><line stroke="#e1ed5e" stroke-width="0.3" x1="26.63291911575756" x2="22.317208475507996" y1="142.92168965132927" y2="145.44649492493687" /><path d="M 25.769776987707644 143.4266507060508 a86.0,86.0 0 0,1 -11.730757126820373,-40.83630448921669" fill="none" id="id9" stroke="none" /><text fill="#e1ed5e" style="font-size:6.75px; font-family:Arial;" text-anchor="middle"><textPath startOffset="21.46611528233685" xlink:href="#id9">September</textPath></text><line stroke="#e1ed5e" stroke-width="0.3" x1="15.007084014347285" x2="10.007500721073583" y1="101.09737516637583" y2="101.16192664675087" /><path d="M 14.007167355692545 101.11028546245083 a86.0,86.0 0 0,1 10.666146001902534,-42.60595125391555" fill="none" id="id10" stroke="none" /><text fill="#e1ed5e" style="font-size:6.75px; font-family:Arial;" text-anchor="middle"><textPath startOffset="22.20632615414155" xlink:href="#id10">October</textPath></text><line stroke="#e1ed5e" stroke-width="0.3" x1="26.266209847984243" x2="21.928928074336255" y1="57.711370442889674" y2="55.22380399835377" /><path d="M 25.398753493254645 57.213857153982495 a86.0,86.0 0 0,1 29.58750427330803,-30.492523968695096" fill="none" id="id11" stroke="none" /><text fill="#e1ed5e" style="font-size:6.75px; font-family:Arial;" text-anchor="middle"><textPath startOffset="21.46611528233685" xlink:href="#id11">November</textPath></text><path d="M 82.34701348167596 88.62581576622439 l -11.180875521943424 -7.204069291589204 a34.300774105111785,34.300774105111785 0 0,0 0.3240661424896238,-0.4935749679117803 l 11.05521274409588 7.395462323478651" fill="#ff890c" stroke="none" /><path d="M 82.54541684631803 88.32363383020206 l -11.080753566209305 -7.4125480360762115 a34.33150284034765,34.33150284034765 0 0,0 0.3328120969104253,-0.4883606853602851 l 10.95151700363014 7.602186744706913" fill="#ff890c" stroke="none" /><path d="M 82.7489923806493 88.02491185347247 l -10.892979506631045 -7.561551919083455 a34.260243962947236,34.260243962947236 0 0,0 0.34046097892892646,-0.4815579100014253 l 10.76120590789824 7.7479363294166665" fill="#ff880c" stroke="none" /><path d="M 83.17141714833178 87.43820079747576 l -10.655750850283672 -7.954050778561029 a34.297065464652285,34.297065464652285 0 0,0 0.357218733182298,-0.4700579801586667 l 10.517256176877265 8.136293534600721" fill="#ff890c" stroke="none" /><path d="M 83.39014120810768 87.1503855733568 l -3.1646473283838206 -2.4482145498965924 a25.001093250022077,25.001093250022077 0 0,0 0.2662567850503358,-0.3381190782140661 l 3.122036462739514 2.502326022063706" fill="#ff0000" stroke="none" /><path d="M 84.07557802195018 86.31012108654704 l -14.241404160520467 -12.243025133584572 a39.78055528691506,39.78055528691506 0 0,0 0.45086170617510557,-0.5154128694846836 l 14.028550590767518 12.4863535592722" fill="#ffd313" stroke="none" /><path d="M 84.5562425177563 85.77008943001954 l -13.527306294528566 -12.46408842182295 a39.39406197045702,39.39406197045702 0 0,0 0.4637856875913289,-0.49473423500051705 l 13.310753284966781 12.695092073701518" fill="#ffce13" stroke="none" /><path d="M 85.05521093208273 85.24692304244772 l -22.374860885245305 -22.087835636515504 a52.440529301203,52.440529301203 0 0,0 0.6396850584402491,-0.6369380475080647 l 21.991340026637744 22.469709534673676" fill="#8fff24" stroke="none" /><path d="M 85.57189188830299 84.74124197986013 l -7.296652749810302 -7.716733046661939 a31.62022176156217,31.62022176156217 0 0,0 0.3987040683390471,-0.37055197918205146 l 7.162740797676398 7.8411896119186375" fill="#ff6309" stroke="none" /><path d="M 86.10567301691215 84.25364557470407 l -12.142630948919898 -13.761168195479442 a39.35247221673261,39.35247221673261 0 0,0 0.5117811524271537,-0.443811572209605 l 11.903955997845971 13.968144761108727" fill="#ffce13" stroke="none" /><path d="M 86.37877921826538 84.01681056812374 l -5.751803219224799 -6.749186574453159 a29.8676242415578,29.8676242415578 0 0,0 0.39417080702310053,-0.3301067151362894 l 5.634774875242588 6.847194446983261" fill="#ff4906" stroke="none" /><path d="M 87.22198572758235 83.33499621200491 l -16.022338142738846 -20.896230051773234 a47.331877068239834,47.331877068239834 0 0,0 0.6508219787280626,-0.4901856214233544 l 15.660270010252393 21.16893226270244" fill="#cbff1d" stroke="none" /><path d="M 87.80319425747018 82.90503203632743 l -10.73804884121869 -15.050383256732102 a39.48836739928434,39.48836739928434 0 0,0 0.556727425505136,-0.39002313967227453 l 10.477390276129894 15.23299123916832" fill="#ffcf13" stroke="none" /><path d="M 88.70189139769569 82.29822771554957 l -5.307554725048648 -8.315827758188464 a30.865248525163672,30.865248525163672 0 0,0 0.45031052406576405,-0.28198440885841586 l 5.163625048610642 8.405956508369808" fill="#ff5808" stroke="none" /><line stroke="#e1ed5e" stroke-width="0.3" x1="56.762969772571076" x2="54.21961505331055" y1="26.818313649435495" y2="22.513508569990535" /><path d="M 56.25429882871897 25.957352633546506 a86.0,86.0 0 0,1 42.265352541879196,-11.944610805530505" fill="none" id="id12" stroke="none" /><text fill="#e1ed5e" style="font-size:6.75px; font-family:Arial;" text-anchor="middle"><textPath startOffset="22.20632615414155" xlink:href="#id12">December</textPath></text><path d="M 89.63071344664047 81.73862282372117 l -13.10824877314269 -23.084970574884764 a47.546978214890906,47.546978214890906 0 0,0 0.7151878597857271,-0.39800126965329347 l 12.708936824284919 23.307187242098244" fill="#c8ff1d" stroke="none" /><path d="M 90.26544431104013 81.39251694778311 l -6.169261313834376 -11.792466858252276 a34.30872119181072,34.30872119181072 0 0,0 0.52564148703363,-0.2692539856847458 l 5.965359339211982 11.896913369249527" fill="#ff890c" stroke="none" /><path d="M 91.56875222667455 80.76684994638697 l -10.657867481676831 -24.312458848041118 a47.545918603331046,47.545918603331046 0 0,0 0.7523943334603261,-0.32213598772975655 l 10.237789390426197 24.49231436373366" fill="#c8ff1d" stroke="none" /><path d="M 92.57280143429618 80.3572730644239 l -4.694984604406002 -12.416835195026428 a34.27481362189528,34.27481362189528 0 0,0 0.5536486933999034,-0.20391348621271163 l 4.480553585233529 12.495811949045462" fill="#ff880c" stroke="none" /><path d="M 93.94186890950719 79.89281104454417 l -18.17439327147842 -60.321566866367455 a84.0,84.0 0 0,0 1.3880391291063148,-0.4052066843252047 l 17.133363924648684 60.625471879611354" fill="#4dd2ff" stroke="none" /><path d="M 94.63758080256005 79.69619591428918 l -2.0432494032688733 -7.736384280069392 a29.00165669426422,29.00165669426422 0 0,0 0.4837629787338067,-0.12332195471128699 l 1.9097775358500673 7.770409230949542" fill="#ff3c05" stroke="none" /><path d="M 96.40284397218896 79.31037775812273 l -9.653618280595833 -55.52434032569598 a77.35729513125308,77.35729513125308 0 0,0 1.3138613269244073,-0.21679837654078293 l 8.696427747532539 55.682284965176386" fill="#44ffea" stroke="none" /></svg>