<?xml version="1.0" encoding="utf-8" ?>
<svg baseProfile="full" height="200mm" version="1.1" viewBox="0,0,200,200" width="200mm" xmlns="http://www.w3.org/2000/svg" xmlns:ev="http://www.w3.org/2001/xml-events" xmlns:xlink="http://www.w3.org/1999/xlink"><defs /><rect fill="#1a1a1a" height="200" width="200" x="0" y="0" /><rect fill="#1a1a1a" height="200" width="180" x="10" y="0" /><text alignment-baseline="middle" fill="#e1ed5e" style="dominant-baseline: central; font-size:9.0px; font-family:Arial;" text-anchor="middle" x="100.0" y="100.0">2025</text><line stroke="#e1ed5e" stroke-width="0.3" x1="100.0" x2="100.0" y1="15.0" y2="10.0" /><path d="M 100.0 14.0 a86.0,86.0 0 0,1 42.46469731375804,11.215312516191453" fill="none" id="id73" stroke="none" /><text fill="#e1ed5e" style="font-size:6.75px; font-family:Arial;" text-anchor="middle"><textPath startOffset="22.20632615414155" xlink:href="#id73">January</textPath></text><path d="M 100.0 79.0 l 0.0 -15.000389109409063 a36.00038910940906,36.00038910940906 0 0,0 0.6196875194888904,0.005333846122572991 l -0.25820704021636204 14.998166639895048" fill="#ffba11" stroke="none" /><path d="M 101.08401301168833 79.027996857942 l 0.8442320242938204 -16.333048104782822 a37.35485212724325,37.35485212724325 0 0,0 0.6418594432139866,0.03871871445677518 l -1.1252535163474189 16.316096120945744" fill="#ffcc13" stroke="none" /><path d="M 101.80526077348638 79.07773832637324 l 1.2143681500310088 -14.07404878908402 a35.12634203611562,35.12634203611562 0 0,0 0.60195656552532,0.05716302915513607 l -1.456449842646573 14.051060215413706" fill="#ffaf10" stroke="none" /><path d="M 102.16513564639614 79.11191278185805 l 1.0742278083248789 -10.363583542579663 a31.419108850002793,31.419108850002793 0 0,0 0.5374661926177746,0.06039058912065572 l -1.2524607044523788 10.343556999988406" fill="#ff7e0b" stroke="none" /><path d="M 102.88285421437855 79.19881850522331 l 0.9965550116013913 -7.190624334195948 a28.259352602448704,28.259352602448704 0 0,0 0.48125814683999285,0.07092494077091063 l -1.12018213887004 7.172404909264069" fill="#ff5207" stroke="none" /><path d="M 103.2404852339499 79.25152402106235 l 2.2596474022607724 -14.468277576296247 a35.643669704254485,35.643669704254485 0 0,0 0.605383617597151,0.09989348403052666 l -2.5083602259967988 14.427237829326094" fill="#ffb610" stroke="none" /><path d="M 104.307194497241 79.44645832069477 l 2.9559196808538166 -14.105380753068896 a35.41177391401577,35.41177391401577 0 0,0 0.5955202670649986,0.13015766450679905 l -3.1982826720723434 14.052409590466226" fill="#ffb310" stroke="none" /><path d="M 105.01212808612495 79.60689891045804 l 3.4408748278850534 -14.000062846712105 a35.416704869458265,35.416704869458265 0 0,0 0.5907693765636677,0.15060026811495672 l -3.681353093133746 13.93875958242828" fill="#ffb310" stroke="none" /><path d="M 105.36241919743992 79.69619591428918 l 3.681496994358924 -13.939304437684115 a35.41726840722312,35.41726840722312 0 0,0 0.5880988691204325,0.16074963649409815 l -3.9208937527030674 13.873868260363723" fill="#ffb310" stroke="none" /><path d="M 105.71112130821622 79.79150937346287 l 3.921161955414473 -13.874817281000292 a35.41825459831162,35.41825459831162 0 0,0 0.5852609912750638,0.1708537322662753 l -4.159413164412964 13.805265219815313" fill="#ffb310" stroke="none" /><path d="M 106.74666289553966 80.11325718540242 l 2.3562890837741293 -6.945495236888032 a28.334303125174706,28.334303125174706 0 0,0 0.4605241694737311,0.160667840100279 l -2.4754952573111337 6.903906543615546" fill="#ff5307" stroke="none" /><path d="M 107.08798089147638 80.2323363322302 l 7.433998944500206 -20.73267311120338 a43.02516911723598,43.02516911723598 0 0,0 0.6949951333900172,0.25597257293274767 l -7.789776403662799 20.601637270464305" fill="#ecff1a" stroke="none" /><path d="M 107.4271985657038 80.35727306442388 l 5.099840822048086 -13.487559245415431 a35.41952255828255,35.41952255828255 0 0,0 0.5684273995150134,0.2205409999623242 l -5.331251386562766 13.397775541562561" fill="#ffb310" stroke="none" /><path d="M 109.08828744355905 81.06846463323043 l 9.298740211441995 -19.369923131566114 a42.48628612959132,42.48628612959132 0 0,0 0.6565724098604064,0.3221772300558323 l -9.630783888312832 19.206990741375453" fill="#f2ff19" stroke="none" /><path d="M 110.05341064243156 81.56283822128135 l 7.734049969481479 -14.18363733101583 a37.1552188740426,37.1552188740426 0 0,0 0.5588780289317201,0.311015018016099 l -7.977052087485234 14.048406915439552" fill="#ffc912" stroke="none" /><path d="M 110.36928655335952 81.73862282372117 l 7.804391031575767 -13.744333086503287 a36.80554369094873,36.80554369094873 0 0,0 0.5482330633294706,0.3175719762761334 l -8.039820827370566 13.607956952837105" fill="#ffc512" stroke="none" /><line stroke="#e1ed5e" stroke-width="0.3" x1="143.23703022742887" x2="145.7803849466894" y1="26.81831364943548" y2="22.513508569990506" /><path d="M 143.74570117128098 25.957352633546492 a86.0,86.0 0 0,1 28.547481713284135,27.462654790039103" fill="none" id="id74" stroke="none" /><text fill="#e1ed5e" style="font-size:6.75px; font-family:Arial;" text-anchor="middle"><textPath startOffset="19.985693538727396" xlink:href="#id74">February</textPath></text><path d="M 110.68208982089419 81.91981866633111 l 1.3503613920396442 -2.2855807471593184 a23.65468552580086,23.65468552580086 0 0,0 0.3487803785943112,0.21013627557278025 l -1.3895038368515928 2.2619978621279238" fill="#ff1001" stroke="none" /><path d="M 111.2981086023043 82.29822771554956 l 22.753368734784317 -35.64976813598151 a63.292100408117626,63.292100408117626 0 0,0 0.913313972906279,0.5940448134591981 l -23.363649733474876 35.25282439836278" fill="#33ff53" stroke="none" /><path d="M 111.60114157652 82.49532879139004 l 0.8542570354596091 -1.2889669895613767 a22.546347626768043,22.546347626768043 0 0,0 0.32165618605990054,0.21718369266992024 l -0.8763179159260515 1.2740713845927862" fill="#ff0000" stroke="none" /><path d="M 112.19680574252982 82.90503203632743 l 8.3699531016048 -11.731274823083142 a35.4110694918097,35.4110694918097 0 0,0 0.4931491964667243,0.35829386388474405 l -8.570647614425313 11.585461724381723" fill="#ffb310" stroke="none" /><path d="M 112.48926042617603 83.11751280151076 l 6.724636193553102 -9.090096657302066 a32.307103482976466,32.307103482976466 0 0,0 0.444228590077876,0.33458376422215425 l -6.880110937389361 8.972996303574064" fill="#ff8a0c" stroke="none" /><path d="M 112.77801427241765 83.33499621200491 l 8.766230711672803 -11.432861546555902 a35.406842958573264,35.406842958573264 0 0,0 0.48046655084647333,0.3750117639698196 l -8.961729817678707 11.280271393362858" fill="#ffb310" stroke="none" /><path d="M 113.06298171725822 83.55741782278167 l 1.753522901642219 -2.207187075198489 a23.818956784256724,23.818956784256724 0 0,0 0.3188298953235153,0.25780493555194034 l -1.7912561955302253 2.176676042382419" fill="#ff1302" stroke="none" /><path d="M 113.34407831869373 83.78471172551755 l 4.657051254319449 -5.659096626556841 a28.328949516408567,28.328949516408567 0 0,0 0.3738645163970615,0.31310078071463565 l -4.753773307675628 5.5780946884483855" fill="#ff5307" stroke="none" /><path d="M 113.6212207817346 84.01681056812373 l 10.15526090774865 -11.916219656047923 a36.65648795214402,36.65648795214402 0 0,0 0.47671972283622416,0.4134066459694176 l -10.358874429231637 11.739648016658835" fill="#ffc312" stroke="none" /><path d="M 113.89432698308785 84.25364557470407 l 9.534396391559055 -10.805272180184906 a35.41036506960362,35.41036506960362 0 0,0 0.4535713870922919,0.40722086972144383 l -9.718978766247336 10.639552301694165" fill="#ffb310" stroke="none" /><path d="M 114.16331599549186 84.49514656593476 l 7.38342127419709 -8.082772758499733 a31.94742550455638,31.94742550455638 0 0,0 0.4028298288884747,0.37438642397111377 l -7.521458986880411 7.954481748453977" fill="#ff850c" stroke="none" /><path d="M 114.42810811169701 84.74124197986012 l 12.715481112046142 -13.447532268009228 a39.50728462011517,39.50728462011517 0 0,0 0.49010998299587616,0.47148541532840227 l -12.945074338654436 13.226663765918524" fill="#ffe715" stroke="none" /><path d="M 115.4437574822437 85.77008943001954 l 5.220848255360382 -4.810500544225296 a28.099166992788057,28.099166992788057 0 0,0 0.32468769353295274,0.35852826075071653 l -5.30287958950937 4.71991949620503" fill="#ff5007" stroke="none" /><path d="M 115.68641384162765 86.03803664274999 l 6.337356794607152 -5.640673785700874 a29.484061049924527,29.484061049924527 0 0,0 0.3341641154594995,0.3820073500784308 l -6.4335127736445 5.530750879419496" fill="#ff6309" stroke="none" /><path d="M 116.38621287248628 86.86637796730983 l 8.824205113933969 -7.072639395521039 a32.308794096271036,32.308794096271036 0 0,0 0.3440823790743258,0.43694967931172113 l -8.94464157360226 6.91969732225628" fill="#ff8a0c" stroke="none" /><path d="M 116.82858285166822 87.43820079747576 l 50.48574855500462 -37.68539760757273 a84.0,84.0 0 0,0 0.8549495499454944,1.1661502253140252 l -51.126960717463746 36.81078493858721" fill="#4dd2ff" stroke="none" /><path d="M 117.2510076193507 88.02491185347247 l 8.10873549175728 -5.628820322457459 a30.870927489237992,30.870927489237992 0 0,0 0.29926502661540055,0.43913449919338676 l -8.204424984041413 5.488407799993666" fill="#ff760a" stroke="none" /><line stroke="#e1ed5e" stroke-width="0.3" x1="172.23445277983987" x2="176.4835382374775" y1="55.19839476539836" y2="52.563006222186495" /><path d="M 173.08426987136738 54.67131705675599 a86.0,86.0 0 0,1 12.851231095245387,41.99856678651699" fill="none" id="id75" stroke="none" /><text fill="#e1ed5e" style="font-size:6.75px; font-family:Arial;" text-anchor="middle"><textPath startOffset="22.20632615414155" xlink:href="#id75">March</textPath></text><path d="M 118.03404312379186 89.2402003453031 l 3.651734937812331 -2.1787646870535013 a25.252315089170907,25.252315089170907 0 0,0 0.21950313413119635,0.3752020092165573 l -3.688697746413855 2.115583265483049" fill="#ff2703" stroke="none" /><path d="M 118.21658344932153 89.55222093294921 l 6.123142934386025 -3.511813549034132 a28.05873315815956,28.05873315815956 0 0,0 0.23668524638012403,0.421036643260736 l -6.182685822058582 3.405893395838602" fill="#ff4f07" stroke="none" /><path d="M 118.3937258080291 89.86733742301442 l 12.620068239864498 -6.952093040185492 a35.408251802985404,35.408251802985404 0 0,0 0.28949095501932304,0.5363827735944006 l -12.737867294102285 6.733829283258633" fill="#ffb310" stroke="none" /><path d="M 118.56541770881063 90.18545643968196 l 12.73911280767363 -6.734487719680191 a35.40966064739755,35.40966064739755 0 0,0 0.28022626545709145,0.5413079506342396 l -12.853148506290838 6.514207046785606" fill="#ffb310" stroke="none" /><path d="M 118.89224826269711 90.83032412892265 l 6.593349227084028 -3.2001948352835994 a28.328949516408567,28.328949516408567 0 0,0 0.20915102378998532,0.4405253962628316 l -6.647458444715769 3.0862270233802276" fill="#ff5307" stroke="none" /><path d="M 119.04729006885535 91.15688171328212 l 13.071039086330059 -6.068513912104025 a35.4110694918097,35.4110694918097 0 0,0 0.25192055885363235,0.5550735580984778 l -13.173561962147039 5.842618345163483" fill="#ffb310" stroke="none" /><path d="M 119.196687751892 91.48605970444005 l 12.89280758657288 -5.718100718880793 a35.103941409962545,35.103941409962545 0 0,0 0.24022678579761153,0.5544765425745882 l -12.989325082213172 5.495325031719601" fill="#ffaf10" stroke="none" /><path d="M 119.34039704204932 91.81776055985345 l 6.680854544832245 -2.8264337816725824 a28.254139878123777,28.254139878123777 0 0,0 0.18564088375547327,0.44954412491669354 l -6.728517115473916 2.7110150863025857" fill="#ff5207" stroke="none" /><path d="M 119.7369772167798 92.82701384747503 l 10.989061641471393 -3.99374160074033 a32.692281545256336,32.692281545256336 0 0,0 0.18766446769423667,0.5305527213406068 l -11.05617918997544 3.8039912529731086" fill="#ff8f0d" stroke="none" /><path d="M 119.97218684219823 93.5106431181261 l 8.667886659643175 -2.8163671004325215 a30.113955386593616,30.113955386593616 0 0,0 0.1559394052543307,0.49437052894144706 l -8.715081548665712 2.6667464050646554" fill="#ff6c09" stroke="none" /><path d="M 120.08093135843002 93.85539295169968 l 28.67081441293281 -8.773043698904946 a50.983026779225135,50.983026779225135 0 0,0 0.2495597381095479,0.8413913741140069 l -28.81758004815406 8.27822293804441" fill="#90ff24" stroke="none" /><path d="M 120.18372546131832 94.20196356495316 l 13.853887087147534 -3.9797084166770027 a35.41416894951641,35.41416894951641 0 0,0 0.16326476493862438,0.5873502259013379 l -13.920338622652523 3.740646887356713" fill="#ffb310" stroke="none" /><path d="M 120.28053869075195 94.5502522615342 l 6.862751975590285 -1.844145642722971 a28.106211214848773,28.106211214848773 0 0,0 0.12153081312077642,0.4683077984930749 l -6.893479120581365 1.7257414186810456" fill="#ff5007" stroke="none" /><path d="M 120.45610955862082 95.25157060432595 l 14.041260241451042 -3.259365261598193 a35.41459160284005,35.41459160284005 0 0,0 0.13272986386542945,0.5950019539978335 l -14.095284492318507 3.017185138050396" fill="#ffb310" stroke="none" /><path d="M 120.6074358757038 95.95851677861258 l 14.735324729978284 -2.8898582054119153 a36.01602728238385,36.01602728238385 0 0,0 0.11407523725383428,0.6093944788636867 l -14.782885691141978 2.635785649085666" fill="#ffbb11" stroke="none" /><path d="M 120.67395015179393 96.31383870115 l 31.37881913574234 -5.594837360665213 a52.8736959803209,52.8736959803209 0 0,0 0.152044955942726,0.8973779367454346 l -31.470475953205288 5.053873635603941" fill="#7cff26" stroke="none" /><path d="M 120.73433829027371 96.67025291283417 l 8.360040685942531 -1.342546877209145 a29.467154916978814,29.467154916978814 0 0,0 0.0761152138741551,0.5015041582194404 l -8.381911793255986 1.1984436065976223" fill="#ff6309" stroke="none" /><path d="M 120.78858239683441 97.02765380044208 l 14.27295928322492 -2.040744071534121 a35.41811371387041,35.41811371387041 0 0,0 0.0810973625327338,0.6042695477308447 l -14.305972644815489 1.7947561817386117" fill="#ffb310" stroke="none" /><path d="M 120.83666639777658 97.38593545837742 l 7.013197650873491 -0.8798408993338495 a28.068172415720916,28.068172415720916 0 0,0 0.0560155808465365,0.47990728855439235 l -7.027303584723616 0.7589898724546044" fill="#ff4f07" stroke="none" /><path d="M 120.91429891909075 98.10471618934814 l 14.34804857695234 -1.3002407724756055 a35.406842958573264,35.406842958573264 0 0,0 0.04978120546066492,0.607456797789717 l -14.368304266232501 1.0530700574781198" fill="#ffb310" stroke="none" /><path d="M 120.94382443527127 98.46500227214037 l 14.370411879805683 -1.0532245269760876 a35.40895622519148,35.40895622519148 0 0,0 0.03931980630104703,0.6082600001189946 l -14.386412277111146 0.8057054626040578" fill="#ffb310" stroke="none" /><path d="M 120.98425023603335 99.18683210126433 l 7.36596807804533 -0.2854411626245634 a28.371496617655282,28.371496617655282 0 0,0 0.014710358282079207,0.4881651757233105 l -7.369790130783054 0.15860583947625384" fill="#ff5407" stroke="none" /><line stroke="#e1ed5e" stroke-width="0.3" x1="184.98032266829074" x2="189.97916517819016" y1="98.17113171792111" y2="98.06355123074" /><path d="M 185.9800911702706 98.14961562048488 a86.0,86.0 0 0,1 -9.607161424134198,41.387399972396054" fill="none" id="id76" stroke="none" /><text fill="#e1ed5e" style="font-size:6.75px; font-family:Arial;" text-anchor="middle"><textPath startOffset="21.466115282336823" xlink:href="#id76">April</textPath></text><path d="M 120.99513854157772 99.54816195383933 l 14.407733357754688 -0.3100699753459474 a35.4110694918097,35.4110694918097 0 0,0 0.007869676632016945,0.6095151278376439 l -14.41093604150442 0.062018589447840757" fill="#ffb310" stroke="none" /><path d="M 120.99980553446 99.90962569577887 l 10.18021544979088 -0.04381135275687723 a31.180309722144575,31.180309722144575 0 0,0 -0.002309871064232184,0.5367326872013698 l -10.179461281437145 -0.13143081264817724" fill="#ff7a0b" stroke="none" /><path d="M 120.9904718944345 100.63252640178507 l 15.508141320411843 0.4673219771860085 a36.51518085760608,36.51518085760608 0 0,0 -0.024339745264717053,0.6281006740555206 l -15.497799442295923 -0.7341998982555352" fill="#ffc112" stroke="none" /><path d="M 120.95626037817324 101.35467743843564 l 19.518248750277564 1.2617199224779114 a40.55898697377984,40.55898697377984 0 0,0 -0.05103371490169352,0.6963144933583427 l -19.493638476711535 -1.5975075523330242" fill="#fff417" stroke="none" /><path d="M 120.89721153311464 102.0752229133903 l 16.865441141166382 1.6748430691397314 a37.948398278079054,37.948398278079054 0 0,0 -0.0701461658512607,0.649466377129641 l -16.834112673814072 -1.9649057681541637" fill="#ffd313" stroke="none" /><path d="M 120.81339534386255 102.79330883721812 l 14.725509204909045 1.9762702968469956 a35.85753228601778,35.85753228601778 0 0,0 -0.08736593655318838,0.6110371567695299 l -14.689309217339254 -2.229452925596935" fill="#ffb911" stroke="none" /><path d="M 120.76222939487914 103.15116336523771 l 13.952608163370341 2.1176409747583884 a35.1123944764354,35.1123944764354 0 0,0 -0.0958371834077935,0.5967782325640656 l -13.91408922560126 -2.3574984370156593" fill="#ffaf10" stroke="none" /><path d="M 120.70491114924044 103.5080841355445 l 13.922423510851697 2.358910535510428 a35.12084754290826,35.12084754290826 0 0,0 -0.10612108212669008,0.5951833856608748 l -13.879755986385819 -2.598212671904521" fill="#ffaf10" stroke="none" /><path d="M 120.5718875245553 104.21870165774334 l 14.117280985431394 2.895047750235809 a35.4110694918097,35.4110694918097 0 0,0 -0.12759107680444418,0.5960630335737348 l -14.065355869902508 -3.137624603225713" fill="#ffb310" stroke="none" /><path d="M 120.32669344350535 105.2749913415812 l 21.971511249181514 5.7018389106427945 a43.699301168446354,43.699301168446354 0 0,0 -0.19521502405390356,0.7264677262760467 l -21.87010814878583 -6.079197570094389" fill="#e4ff1b" stroke="none" /><path d="M 120.13307415673323 105.97154293290107 l 7.293154618439988 2.1631761538878056 a28.607196287806786,28.607196287806786 0 0,0 -0.14408930861485256,0.47089219750493927 l -7.254838537319002 -2.288395323944802" fill="#ff5708" stroke="none" /><path d="M 120.02730092923936 106.31721596034902 l 14.103913455430968 4.448800539764683 a35.788921563146424,35.788921563146424 0 0,0 -0.1903761841131041,0.5859176477151498 l -14.025245020301618 -4.6909170874576285" fill="#ffb811" stroke="none" /><path d="M 119.9155931802556 106.66101706037122 l 13.665568539005154 4.570618828879759 a35.40966064739755,35.40966064739755 0 0,0 -0.19830956025345745,0.5763804087440514 l -13.584868147808466 -4.805171940713111" fill="#ffb310" stroke="none" /><path d="M 119.67450827220406 107.3425965602758 l 13.503706051127956 5.0396311933279065 a35.41346452731034,35.41346452731034 0 0,0 -0.21805540679969795,0.5692738591052576 l -13.414956364734751 -5.271328619266308" fill="#ffb310" stroke="none" /><path d="M 119.41010516605496 108.01547362559984 l 13.316892591793659 5.499259299797122 a35.40768826522055,35.40768826522055 0 0,0 -0.23748276906690055,0.5613391147982462 l -13.220258841534449 -5.727672940261531" fill="#ffb310" stroke="none" /><path d="M 119.26925614724726 108.34839909993367 l 19.411672184741885 8.410100802902937 a42.15520769273775,42.15520769273775 0 0,0 -0.29420102439883544,0.6633456432172113 l -19.264030075611775 -8.742994782612836" fill="#f6ff19" stroke="none" /><path d="M 118.97047184881838 109.00673069616215 l 10.571199190741106 5.018954984634342 a32.70214345614133,32.70214345614133 0 0,0 -0.24580604029858763,0.5064332483592885 l -10.483239893827804 -5.2001771889589055" fill="#ff8f0d" stroke="none" /><path d="M 118.64920377521936 109.65438752849418 l 21.31057558472486 11.032136150690986 a44.99684687202996,44.99684687202996 0 0,0 -0.3620049722294299,0.6847769823223437 l -21.117518104270534 -11.397328148099465" fill="#d4ff1c" stroke="none" /><line stroke="#e1ed5e" stroke-width="0.3" x1="174.80103733775053" x2="179.2010983576182" y1="140.37084112569926" y2="142.7455964860345" /><path d="M 175.68104954172406 140.8457921977663 a86.0,86.0 0 0,1 -30.038265399797805,32.042727171017184" fill="none" id="id77" stroke="none" /><text fill="#e1ed5e" style="font-size:6.75px; font-family:Arial;" text-anchor="middle"><textPath startOffset="22.206326154141568" xlink:href="#id77">May</textPath></text><path d="M 118.12598468904814 110.60418214915192 l 12.444881353455719 7.280585908050821 a35.41811371387041,35.41811371387041 0 0,0 -0.3123862860239851,0.5235773838017995 l -12.317714191733506 -7.493725385738725" fill="#ffb310" stroke="none" /><path d="M 117.94076556474637 110.91462005526583 l 8.707494950175496 5.297377008318037 a31.192284899647788,31.192284899647788 0 0,0 -0.28301110680637864,0.4563040168700658 l -8.615019203701154 -5.446477356553376" fill="#ff7b0b" stroke="none" /><path d="M 117.75023020441432 111.22182372390056 l 7.241403245242479 4.578067427631637 a29.567182870240956,29.567182870240956 0 0,0 -0.2756719337921221,0.4278489631161259 l -7.161526448073307 -4.702037990669216" fill="#ff6409" stroke="none" /><path d="M 117.55443506779139 111.5257021239791 l 12.988731326393767 8.528001479870216 a36.53814502152401,36.53814502152401 0 0,0 -0.349716842065669,0.5227792286839447 l -12.840011378917378 -8.750317622759967" fill="#ffc112" stroke="none" /><path d="M 117.35343817320211 111.8261652097733 l 11.909811987154303 8.116397613639903 a35.41247833622184,35.41247833622184 0 0,0 -0.3476141028271083,0.500764041407331 l -11.768336977165058 -8.320202917234253" fill="#ffb310" stroke="none" /><path d="M 117.14729908036423 112.12312394758627 l 11.769372314729027 8.32093489989559 a35.41374629619276,35.41374629619276 0 0,0 -0.35619518311616966,0.49472395563725846 l -11.624397339237255 -8.52229246098398" fill="#ffb310" stroke="none" /><path d="M 116.498646956653 112.99209946851258 l 17.099855548722463 13.465529917082849 a42.76523732319562,42.76523732319562 0 0,0 -0.46040257835703596,0.5744230066330503 l -16.865535058310574 -13.75788075729415" fill="#efff19" stroke="none" /><path d="M 116.27256486870786 113.27417163493432 l 10.955119704197461 8.936522325033774 a35.13775367585397,35.13775367585397 0 0,0 -0.3863546608814301,0.46538907786895306 l -10.799669043422487 -9.123772660016497" fill="#ffaf10" stroke="none" /><path d="M 116.0416608686014 113.55231037782055 l 11.007590922763718 9.29942915009275 a35.40994241627998,35.40994241627998 0 0,0 -0.39736276981256075,0.4622226730320915 l -10.845885643380377 -9.487528922286371" fill="#ffb310" stroke="none" /><path d="M 115.56566222782051 114.09645910891815 l 5.427261792168309 4.914996407281453 a28.322046178789066,28.322046178789066 0 0,0 -0.3303612830669247,0.35854192562332016 l -5.341854101105663 -5.007689587706108" fill="#ff5307" stroke="none" /><path d="M 115.07121518719521 114.62390073753431 l 10.131172997754522 9.830479256896776 a35.11662100967183,35.11662100967183 0 0,0 -0.4246759581799002,0.43019450352458993 l -9.960456414519086 -10.003414254402031" fill="#ffaf10" stroke="none" /><path d="M 114.81725581225074 114.88116024355365 l 7.961506134683114 7.995842824843443 a32.28357578129368,32.28357578129368 0 0,0 -0.3971649209798513,0.38870946731387873 l -7.822691261327469 -8.131702395079893" fill="#ff890c" stroke="none" /><path d="M 114.0293411484842 115.62618273729858 l 8.35313262320997 9.303899264953865 a33.50349415776821,33.50349415776821 0 0,0 -0.43244658551488263,0.3815838320145465 l -8.1917436847885 -9.4463062387407" fill="#ff9a0e" stroke="none" /><path d="M 113.20401910651253 116.32954008644616 l 5.658586927969455 6.998030018552652 a29.99955722032761,29.99955722032761 0 0,0 -0.40434047109575333,0.3212325244625872 l -5.5372889641563505 -7.094396457020365" fill="#ff6a09" stroke="none" /><path d="M 112.92097659922987 116.55440617244103 l 3.5523114286561683 4.551235410834464 a26.773444400961594,26.773444400961594 0 0,0 -0.3657396208529811,0.2804335453325614 l -3.4734430793096935 -4.611708297994397" fill="#ff3d05" stroke="none" /><path d="M 112.63410532772338 116.77436683061366 l 8.670724258839016 11.512165335974393 a35.41219656733941,35.41219656733941 0 0,0 -0.4900626929981408,0.36253666453569877 l -8.47127659542231 -11.65971194924986" fill="#ffb310" stroke="none" /><path d="M 112.34349029814194 116.9893568818739 l 8.472270312984188 11.661079684136084 a35.41388718063398,35.41388718063398 0 0,0 -0.496254248185871,0.3540642297131213 l -8.270288736949434 -11.805188175693425" fill="#ffb310" stroke="none" /><path d="M 111.7513745106137 117.40417183066458 l 8.062466486791067 11.94077782036054 a35.407829149661765,35.407829149661765 0 0,0 -0.5080607040707481,0.3367149309546645 l -7.855731083980355 -12.077790772406521" fill="#ffb310" stroke="none" /><line stroke="#e1ed5e" stroke-width="0.3" x1="143.8653032363475" x2="146.44561519142675" y1="172.8068346515853" y2="177.08958963109032" /><path d="M 144.38136562736335 173.6633856474863 a86.0,86.0 0 0,1 -40.68145358897372,12.25698825130547" fill="none" id="id78" stroke="none" /><text fill="#e1ed5e" style="font-size:6.75px; font-family:Arial;" text-anchor="middle"><textPath startOffset="21.466115282336833" xlink:href="#id78">June</textPath></text><path d="M 110.8373102113329 117.98757091392108 l 3.6468909053533323 6.053043374801462 a28.066763571308773,28.066763571308773 0 0,0 -0.41596564664959423,0.2457598360279066 l -3.5421573876753563 -6.114921783123118" fill="#ff4f07" stroke="none" /><path d="M 110.5260780823613 118.17145234162733 l 6.102029901695126 10.534098709722262 a33.173824565326775,33.173824565326775 0 0,0 -0.4965825075262042,0.2819725077807245 l -5.919798627247722 -10.637574383297615" fill="#ff950d" stroke="none" /><path d="M 109.89434966115114 118.52300852407294 l 6.79017792299074 12.71175245012478 a35.41163302957455,35.41163302957455 0 0,0 -0.5401270578936173,0.2825689487086794 l -6.5703599625706275 -12.826750817778176" fill="#ffb310" stroke="none" /><path d="M 109.2508944713604 118.85261126421891 l 5.511933967808558 11.232897395040466 a33.51236987756471,33.51236987756471 0 0,0 -0.5200598480185205,0.24966033103380766 l -5.317761451789805 -11.326112002573833" fill="#ff9a0e" stroke="none" /><path d="M 108.92500713936063 119.00905698771935 l 2.421143324339596 5.156707519575688 a26.696803264941018,26.696803264941018 0 0,0 -0.41765496586828443,0.19172491014764778 l -2.3320203627038922 -5.19761950005741" fill="#ff3c05" stroke="none" /><path d="M 108.59647513512805 119.15986991738527 l 2.944207427450698 6.562065315496857 a28.192291608430704,28.192291608430704 0 0,0 -0.44447070883671935,0.1948428969639329 l -2.830816043956225 -6.611772765755244" fill="#ff5107" stroke="none" /><path d="M 108.2653958097858 119.30500536409082 l 5.671502320735003 13.246598861558958 a35.40966064739755,35.40966064739755 0 0,0 -0.5623872588293662,0.23507791980163228 l -5.442643602408176 -13.342261824380563" fill="#ffb310" stroke="none" /><path d="M 107.93186726928326 119.44442032107085 l 2.7826765926938872 6.821537911442441 a28.367270084418852,28.367270084418852 0 0,0 -0.45371276912306485,0.1805416743984714 l -2.6648427475289562 -6.868426430246981" fill="#ff5407" stroke="none" /><path d="M 107.59598834532513 119.57807347666477 l 5.215739299898431 13.443165340213383 a35.41952255828255,35.41952255828255 0 0,0 -0.5703045401623117,0.2156403780697184 l -4.983564538975844 -13.530953968389733" fill="#ffb310" stroke="none" /><path d="M 107.2578585660854 119.70592522655815 l 4.980983894905834 13.52394722134211 a35.4120556828982,35.4120556828982 0 0,0 -0.5738109460371855,0.20574819003334588 l -4.747453388238914 -13.607682952415416" fill="#ffb310" stroke="none" /><path d="M 105.88484417918355 120.15858648285463 l 4.039213336874394 13.836361489758083 a35.41388718063398,35.41388718063398 0 0,0 -0.5866375031620199,0.1657896181572228 l -3.8004446656077686 -13.903839901253825" fill="#ffb310" stroke="none" /><path d="M 105.53697534728816 120.25689768951611 l 1.1304753446236075 4.135818196802443 a25.28753619947448,25.28753619947448 0 0,0 -0.4208683609269788,0.11115515933382217 l -1.0591165408851313 -4.154664705439849" fill="#ff2803" stroke="none" /><path d="M 105.18746579009965 120.34920634021253 l 3.5604106342389574 13.966652231286071 a35.41332364286912,35.41332364286912 0 0,0 -0.5919871876740375,0.14549604775356004 l -3.319470161821709 -14.02586953735366" fill="#ffb310" stroke="none" /><path d="M 104.83641907484287 120.43548508189849 l 3.3192105899364375 14.024772759488247 a35.41219656733941,35.41219656733941 0 0,0 -0.5943850359869712,0.135280099039099 l -3.0773054045566037 -14.07982959210503" fill="#ffb310" stroke="none" /><path d="M 104.13013068566511 120.58985236759428 l 4.272596757843524 21.300085436907498 a42.72438083524347,42.72438083524347 0 0,0 -0.7223113735182594,0.13843269385033244 l -3.9053177697535606 -21.3704753291063" fill="#efff19" stroke="none" /><path d="M 103.7750983002368 120.6578951692458 l 2.590882022346234 14.177688885652234 a35.41247833622184,35.41247833622184 0 0,0 -0.600580503912817,0.10441861888918716 l -2.346452546961367 -14.220186083062428" fill="#ffb310" stroke="none" /><path d="M 103.41894727170886 120.7198165907248 l 2.3453286351842304 14.21337485023672 a35.40557499860234,35.40557499860234 0 0,0 -0.6021715056104611,0.09404680489385867 l -2.100321265965252 -14.251639962477684" fill="#ffb310" stroke="none" /><path d="M 103.06178313531738 120.77559828337769 l 2.1012045220159163 14.257633258566587 a35.41163302957455,35.41163302957455 0 0,0 -0.6038044441559394,0.08368179408138779 l -1.8554714866731468 -14.291689618140577" fill="#ffb310" stroke="none" /><path d="M 102.34483914955558 120.86867818915974 l 1.0470564798641693 9.318628413510185 a30.377268407223124,30.377268407223124 0 0,0 -0.5201274058761847,0.053913332291721135 l -0.8864964773823818 -9.335271114257665" fill="#ff6f0a" stroke="none" /><path d="M 101.62511606390274 120.93702456842531 l 0.8168191122553322 10.523409497398726 a31.555062335774586,31.555062335774586 0 0,0 -0.5419014554391669,0.037372697103930076 l -0.635554896037235 -10.535910539018941" fill="#ff7f0b" stroke="none" /><path d="M 100.90346689309514 120.98055641714683 l 0.3060220716642073 7.106528627128033 a28.11311455246827,28.11311455246827 0 0,0 -0.48365219708790247,0.016657959583175185 l -0.18364952290165254 -7.110743385137302" fill="#ff5007" stroke="none" /><line stroke="#e1ed5e" stroke-width="0.3" x1="102.19456741930631" x2="102.32365962044197" y1="184.97166512339345" y2="189.96999836594603" /><path d="M 102.22038585953345 185.97133177190398 a86.0,86.0 0 0,1 -42.740103519485714,-10.115201625700543" fill="none" id="id79" stroke="none" /><text fill="#e1ed5e" style="font-size:6.75px; font-family:Arial;" text-anchor="middle"><textPath startOffset="22.20632615414155" xlink:href="#id79">July</textPath></text><path d="M 100.54218724476979 120.99299961872073 l 0.7725508956224522 29.91247177740323 a50.92244646950299,50.92244646950299 0 0,0 -0.8764488020648179,0.015088860959869442 l -0.25754240366496634 -29.92133811564226" fill="#91ff24" stroke="none" /><path d="M 100.18074693466247 120.99922214144158 l 0.14429601653243404 16.76434574643438 a37.764966735618046,37.764966735618046 0 0,0 -0.6500859023897674,0.0 l 0.1442960165324225 -16.76434574643438" fill="#ffd113" stroke="none" /><path d="M 99.81925306533755 120.99922214144158 l -0.12146533535061732 14.111871740872381 a35.1123944764354,35.1123944764354 0 0,0 -0.6043349880082753,-0.010404174876796577 l 0.36436001325156064 -14.107690088716424" fill="#ffaf10" stroke="none" /><path d="M 99.09653310690486 120.98055641714683 l -1.2855666655688636 29.85378231466714 a50.88144909710964,50.88144909710964 0 0,0 -0.8747052485937281,-0.04521227011291685 l 1.7992599825760807 -29.827230237792023" fill="#91ff24" stroke="none" /><path d="M 98.01472825383883 120.90594882070398 l -1.182439261748908 12.45170326808587 a33.50772069100464,33.50772069100464 0 0,0 -0.5737278153585511,-0.05946923389341506 l 1.3965996737130524 -12.429504665736696" fill="#ff9a0e" stroke="none" /><path d="M 97.65516085044442 120.86867818915974 l -1.7678516707802745 15.733585653700038 a36.832593503661876,36.832593503661876 0 0,0 -0.6294384641123711,-0.07621623220837082 l 2.038417557944035 -15.70082389276632" fill="#ffc512" stroke="none" /><path d="M 97.2962882734958 120.8252237178851 l -1.2571874082674952 9.683432141018276 a30.764700620562422,30.764700620562422 0 0,0 -0.5245695091866742,-0.07270055408501608 l 1.4236855086410005 -9.660357021440655" fill="#ff750a" stroke="none" /><path d="M 96.93821686468263 120.77559828337769 l -2.055398452411673 13.946818135816441 a35.097460725666686,35.097460725666686 0 0,0 -0.5969311547436538,-0.09322836986172216 l 2.295165470763844 -13.909371458607612" fill="#ffaf10" stroke="none" /><path d="M 96.22490169976321 120.6578951692458 l -3.450457152731667 18.88141088740235 a40.19409627103483,40.19409627103483 0 0,0 -0.6795336132971634,-0.13023423429202854 l 3.7749583806005256 -18.819219454761853" fill="#fff016" stroke="none" /><path d="M 95.86986931433489 120.58985236759428 l -2.5549685281501353 12.737230078711027 a33.99095432436965,33.99095432436965 0 0,0 -0.5726804701964616,-0.12001076059758675 l 2.773840459775984 -12.6913633373869" fill="#ffa00e" stroke="none" /><path d="M 95.51606077576429 120.51570834832081 l -2.756693848106184 12.612911140203186 a33.91065019287751,33.91065019287751 0 0,0 -0.5691819482845885,-0.12954395833224194 l 2.973395945783635 -12.563590448293258" fill="#ff9f0e" stroke="none" /><path d="M 95.16358092515715 120.4354850818985 l -4.579496985900286 19.349903490529357 a40.88443003298485,40.88443003298485 0 0,0 -0.6834449937250173,-0.16797415132352458 l 4.911895264368514 -19.268208080891803" fill="#fff817" stroke="none" /><path d="M 94.11515582081647 120.15858648285463 l -4.774965264799231 16.35668631355959 a38.03940962710348,38.03940962710348 0 0,0 -0.6269710299742453,-0.18890122820945693 l 5.055811269213722 -16.272069716244406" fill="#ffd513" stroke="none" /><path d="M 93.76903079525671 120.05430185196036 l -7.071681514170666 22.76012463328317 a44.833420920221386,44.833420920221386 0 0,0 -0.7350090404469292,-0.23532668393062675 l 7.462411899708536 -22.635025102692836" fill="#d6ff1c" stroke="none" /><path d="M 93.08242187328487 119.8279376855182 l -5.106423367397901 14.636602936744705 a36.501796835690726,36.501796835690726 0 0,0 -0.5914689269072997,-0.21207971373250062 l 5.357611854934927 -14.546535681972246" fill="#ffc111" stroke="none" /><path d="M 92.40401165467489 119.57807347666478 l -5.6611282738223325 14.591121032186667 a36.650852574495445,36.650852574495445 0 0,0 -0.5862023297557155,-0.23326200484711215 l 5.911451679619907 -14.491512182933487" fill="#ffc312" stroke="none" /><path d="M 91.7346041902142 119.30500536409082 l -8.851602614968009 20.674174582231682 a43.48938335103706,43.48938335103706 0 0,0 -0.685639795210101,-0.30056433712388464 l 9.206163084835852 -20.518745691813344" fill="#e6ff1a" stroke="none" /><path d="M 91.40352486487194 119.15986991738527 l -4.836941038183194 10.7806001451631 a32.81597808464248,32.81597808464248 0 0,0 -0.5133856690952397,-0.23567018070465445 l 5.021794703045853 -10.695742894124372" fill="#ff900d" stroke="none" /><path d="M 90.7491055286396 118.85261126421891 l -5.02890353227036 10.248518526793708 a32.4158662715939,32.4158662715939 0 0,0 -0.49881240546398914,-0.2501148952753186 l 5.204569845417109 -10.160435790609087" fill="#ff8b0c" stroke="none" /><line stroke="#e1ed5e" stroke-width="0.3" x1="58.666819895761336" x2="56.23545636021788" y1="174.27360380694188" y2="178.64263932499728" /><path d="M 58.180547188652646 175.14741091055294 a86.0,86.0 0 0,1 -31.652253787137756,-30.449443065178592" fill="none" id="id80" stroke="none" /><text fill="#e1ed5e" style="font-size:6.75px; font-family:Arial;" text-anchor="middle"><textPath startOffset="22.20632615414155" xlink:href="#id80">August</textPath></text><path d="M 89.7882731507175 118.34994917583269 l -5.409412100537902 9.720435983163744 a32.12423547828031,32.12423547828031 0 0,0 -0.48087109687194846,-0.27305115876860786 l 5.575931964331058 -9.625881658600504" fill="#ff870c" stroke="none" /><path d="M 89.1626897886671 117.98757091392108 l -3.7784872478311913 6.271464597058053 a28.321764409906635,28.321764409906635 0 0,0 -0.41541393013657646,-0.25518116505351945 l 3.8858803779000763 -6.205494965176155" fill="#ff5307" stroke="none" /><path d="M 88.8546689885994 117.79835938074946 l -7.9444831662859965 12.686816241099994 a35.968971879018284,35.968971879018284 0 0,0 -0.5219238234856827,-0.3331164781195903 l 8.161688791818603 -12.5481853341566" fill="#ffba11" stroke="none" /><path d="M 88.54995079064634 117.60387380957326 l -7.690653726675714 11.823992652094965 a35.105068485492254,35.105068485492254 0 0,0 -0.5037164446259632,-0.33383579267988556 l 7.8930448700416385 -11.68985883832376" fill="#ffaf10" stroke="none" /><path d="M 88.24862548938628 117.40417183066458 l -9.855465942227225 14.596268936443533 a38.611963996198355,38.611963996198355 0 0,0 -0.5476336974979292,-0.37666745072973 l 10.105256524348045 -14.424460696348701" fill="#ffdc14" stroke="none" /><path d="M 87.65650970185807 116.9893568818739 l -6.484172710852193 8.92469808842952 a32.031533515961314,32.031533515961314 0 0,0 -0.4432783362038022,-0.32792671583525734 l 6.636836017474559 -8.811761423854495" fill="#ff860c" stroke="none" /><path d="M 87.36589467227662 116.77436683061367 l -5.343236986815103 7.0942433163876695 a29.881355174148823,29.881355174148823 0 0,0 -0.4081953501498001,-0.3129867881521902 l 5.46456106545839 -7.0012171864081125" fill="#ff6909" stroke="none" /><path d="M 87.07902340077011 116.55440617244103 l -13.74331906921162 17.607994587866028 a43.33652373231956,43.33652373231956 0 0,0 -0.5840989682909259,-0.46404354630049843 l 14.044375530219902 -17.368817127560398" fill="#e8ff1a" stroke="none" /><path d="M 86.79598089348748 116.32954008644616 l -4.612865819550735 5.704776455268727 a28.336416391792923,28.336416391792923 0 0,0 -0.3766447745212063,-0.309953007585249 l 4.71038072261663 -5.624528328826297" fill="#ff5307" stroke="none" /><path d="M 86.51685102203217 116.09983520530335 l -9.779236669024975 11.677101474012748 a36.23115782411808,36.23115782411808 0 0,0 -0.47468773052381785,-0.404539182082789 l 9.97878987612585 -11.507037901707008" fill="#ffbd11" stroke="none" /><path d="M 86.24171649860922 115.8653595955263 l -13.423383482577924 15.47916976112745 a41.48882428579415,41.48882428579415 0 0,0 -0.5355172900752088,-0.47253174496370515 l 13.68784312555972 -15.245814874391456" fill="#feff18" stroke="none" /><path d="M 85.70375840098266 115.38237550388516 l -9.59506637478991 10.324036071960728 a35.094361267959975,35.094361267959975 0 0,0 -0.4389538628588542,-0.4150582754517341 l 9.771356072039582 -10.157343159763064" fill="#ffaf10" stroke="none" /><path d="M 85.44109423537348 115.13401014063109 l -3.4527242272905307 3.5891133793569137 a25.980264996925143,25.980264996925143 0 0,0 -0.31961917615452845,-0.3128146347865185 l 3.5139933558208534 -3.5291486416478257" fill="#ff3204" stroke="none" /><path d="M 85.18274418774928 114.88116024355367 l -21.591923530915057 21.68504600996673 a51.60150947615587,51.60150947615587 0 0,0 -0.6240327187026439,-0.63214184941371 l 21.961996874673233 -21.310163666572354" fill="#89ff24" stroke="none" /><path d="M 84.67929136418377 114.36230785411682 l -10.93511617441375 10.251060094590413 a35.988695700788284,35.988695700788284 0 0,0 -0.4197885849265122,-0.45559759968527747 l 11.109951167335991 -10.061311240103791" fill="#ffba11" stroke="none" /><path d="M 84.43433777217949 114.09645910891817 l -15.180501938111036 13.747653115648916 a41.4803712193213,41.4803712193213 0 0,0 -0.4747352445650305,-0.5333700799025903 l 15.414896032324403 -13.484308866005462" fill="#feff18" stroke="none" /><path d="M 83.95833913139862 113.55231037782056 l -11.701524814064038 9.885678139746831 a36.31836529322972,36.31836529322972 0 0,0 -0.39933599159688093,-0.48102592696867247 l 11.869956805554455 -9.682790955664398" fill="#ffbf11" stroke="none" /><path d="M 83.50135304334701 112.99209946851258 l -26.409641620332554 20.79665634161415 a54.61502767372952,54.61502767372952 0 0,0 -0.5752605618512145,-0.7436018220968076 l 26.76370899940184 -20.33897652540409" fill="#69ff28" stroke="none" /><path d="M 83.06392112726016 112.41649034213515 l -11.385112615543019 8.346863633384924 a35.11704366299547,35.11704366299547 0 0,0 -0.3532109168406077,-0.4905790707918065 l 11.527103324759235 -8.14965095714198" fill="#ffaf10" stroke="none" /><path d="M 82.85270091963577 112.12312394758628 l -12.787569290143376 9.040799181620336 a36.660714485380446,36.660714485380446 0 0,0 -0.35986697270496876,-0.5184152143286135 l 12.941297170010479 -8.819342705104711" fill="#ffc312" stroke="none" /><path d="M 82.6465618267979 111.8261652097733 l -4.0910145965650235 2.787978613326551 a25.95067926427014,25.95067926427014 0 0,0 -0.24838123545716428,-0.3712962461998869 l 4.138398937432918 -2.7171454529208434" fill="#ff3104" stroke="none" /><path d="M 82.44556493220864 111.52570212397912 l -8.599131337920873 5.645925143310224 a31.28695924414379,31.28695924414379 0 0,0 -0.291706402843997,-0.452734815163489 l 8.695042604141916 -5.497068728225287" fill="#ff7c0b" stroke="none" /><path d="M 82.24976979558568 111.22182372390057 l -5.978176709713253 3.7794464890965926 a28.072680717839773,28.072680717839773 0 0,0 -0.2547065874314299,-0.4106681192824756 l 6.0423479368126385 -3.675982038448853" fill="#ff4f07" stroke="none" /><path d="M 82.05923443525364 110.91462005526583 l -25.39490440994578 15.449493053908673 a50.72520825180298,50.72520825180298 0 0,0 -0.44739422154398906,-0.7498584493752702 l 25.657079507188005 -15.010072510647293" fill="#93ff23" stroke="none" /><line stroke="#e1ed5e" stroke-width="0.3" x1="26.63291911575756" x2="22.317208475507996" y1="142.92168965132927" y2="145.44649492493687" /><path d="M 25.769776987707644 143.4266507060508 a86.0,86.0 0 0,1 -11.730757126820373,-40.83630448921669" fill="none" id="id81" stroke="none" /><text fill="#e1ed5e" style="font-size:6.75px; font-family:Arial;" text-anchor="middle"><textPath startOffset="21.46611528233685" xlink:href="#id81">September</textPath></text><path d="M 81.87401531095188 110.60418214915194 l -4.275571901382674 2.501323045994402 a25.953496953094426,25.953496953094426 0 0,0 -0.22227069618473297,-0.38754769405082434 l 4.317994593719783 -2.4273555060852705" fill="#ff3104" stroke="none" /><path d="M 81.69416730710424 110.29060199501025 l -10.134146640476754 5.6968984359115575 a32.62564320456197,32.62564320456197 0 0,0 -0.2709848491282585,-0.49191621403800284 l 10.23070789905653 -5.521611703475732" fill="#ff8e0d" stroke="none" /><path d="M 81.35079622478065 109.6543875284942 l -11.707992441983016 6.0610360408942245 a34.183825124392015,34.183825124392015 0 0,0 -0.26601743683913237,-0.5248776399643879 l 11.810588548608415 -5.858604189227152" fill="#ffa30f" stroke="none" /><path d="M 81.18737489456691 109.33194174019688 l -6.345829643659701 3.147828237471454 a28.083669704254486,28.083669704254486 0 0,0 -0.21109122881544998,-0.4349104545165097 l 6.399074129089869 -3.03812882698966" fill="#ff5007" stroke="none" /><path d="M 81.02952815118164 109.00673069616217 l -14.406698336094756 6.83995913059671 a36.94797786101638,36.94797786101638 0 0,0 -0.2678295279469914,-0.5768809759644494 l 14.522302480881573 -6.590958087353433" fill="#ffc712" stroke="none" /><path d="M 80.58989483394504 108.01547362559985 l -9.336643643357565 3.855600999310173 a31.10141443506457,31.10141443506457 0 0,0 -0.2000818944321317,-0.4965868533838118 l 9.401628152047085 -3.694314778083556" fill="#ff790b" stroke="none" /><path d="M 80.45479744820244 107.68017299344265 l -7.082035376458344 2.7828443677028303 a28.609168669983788,28.609168669983788 0 0,0 -0.17615853167157444,-0.4598943388324618 l 7.128888187723428 -2.6605264620372107" fill="#ff5708" stroke="none" /><path d="M 80.32549172779594 107.34259656027581 l -4.647438494533268 1.734440598561936 a25.96054117515514,25.96054117515514 0 0,0 -0.15264271458602766,-0.42000719310344586 l 4.67660547012452 -1.654185608452373" fill="#ff3204" stroke="none" /><path d="M 80.0844068197444 106.66101706037122 l -10.943945238853265 3.660338172404586 a32.53984457986247,32.53984457986247 0 0,0 -0.17309299001416842,-0.5327254457670489 l 11.005330479883682 -3.4714138266597336" fill="#ff8d0d" stroke="none" /><path d="M 79.97269907076064 106.31721596034903 l -6.5068630180721145 2.0524612405237974 a27.822892603566835,27.822892603566835 0 0,0 -0.14013891185212274,-0.45798207231591354 l 6.5412287024303675 -1.940152195655836" fill="#ff4c07" stroke="none" /><path d="M 79.86692584326677 105.97154293290107 l -13.539258814586715 4.015793348872391 a35.1222563873204,35.1222563873204 0 0,0 -0.16692665698231607,-0.5810935916754966 l 13.606378108455136 -3.7821422816922983" fill="#ffaf10" stroke="none" /><path d="M 79.76711848015287 105.62410040840567 l -17.717882427141355 4.925010295583558 a39.38964611170124,39.38964611170124 0 0,0 -0.17596278447406763,-0.654822980790561 l 17.8000332879572 -4.619296381617458" fill="#ffe615" stroke="none" /><path d="M 79.50377843672027 104.57218783832718 l -12.0213484888672 2.6816583335321966 a33.316822273159275,33.316822273159275 0 0,0 -0.12004520875931235,-0.5608112502156931 l 12.065727736350954 -2.47433326390034" fill="#ff970d" stroke="none" /><path d="M 79.4281124754447 104.21870165774334 l -10.059718555363125 2.0629585542544557 a31.269066920109577,31.269066920109577 0 0,0 -0.10359005149620924,-0.5282034408239227 l 10.093738539835 -1.8894913863625784" fill="#ff7c0b" stroke="none" /><path d="M 79.35854240842038 103.8639653848113 l -8.608412163401056 1.6114465981869024 a29.757940403645105,29.757940403645105 0 0,0 -0.08991653272712764,-0.5042996669740855 l 8.634875138467372 -1.4630281804796033" fill="#ff6709" stroke="none" /><path d="M 79.29508885075956 103.50808413554451 l -8.173155735593273 1.38479792386944 a29.289640521048806,29.289640521048806 0 0,0 -0.07994432428833177,-0.49781338365626676 l 8.195781814242896 -1.2439053105199593" fill="#ff6008" stroke="none" /><path d="M 79.23777060512086 103.15116336523772 l -6.988143671321654 1.0606174274096938 a28.068172415720916,28.068172415720916 0 0,0 -0.06838736561333711,-0.4783010758190737 l 7.00536508795159 -0.9401708796102194" fill="#ff4f07" stroke="none" /><path d="M 79.1416061653843 102.43462659150553 l -14.312774002519124 1.6706109042256536 a35.40994241627998,35.40994241627998 0 0,0 -0.06545392707525098,-0.6060220736313854 l 14.339410231095428 -1.4239925087094862" fill="#ffb310" stroke="none" /><path d="M 79.07016306316243 101.71520430193888 l -14.078161643391573 1.1537081481813343 a35.125355845027116,35.125355845027116 0 0,0 -0.04419679902692474,-0.6030302082020381 l 14.095935001082832 -0.9112048034825355" fill="#ffaf10" stroke="none" /><path d="M 79.04373962182676 101.35467743843564 l -14.073159258825788 0.909732509112144 a35.1025325655504,35.1025325655504 0 0,0 -0.03378810839233475,-0.6033093729125483 l 14.086733718105654 -0.6673514198641581" fill="#ffaf10" stroke="none" /><path d="M 79.0235259727143 100.99374915477108 l -14.098414026783004 0.6679047681943152 a35.114225974171184,35.114225974171184 0 0,0 -0.02340591762949334,-0.6040027321601302 l 14.1078220772637 -0.4251247890201882" fill="#ffaf10" stroke="none" /><line stroke="#e1ed5e" stroke-width="0.3" x1="15.007084014347285" x2="10.007500721073583" y1="101.09737516637583" y2="101.16192664675087" /><path d="M 14.007167355692545 101.11028546245083 a86.0,86.0 0 0,1 10.666146001902534,-42.60595125391555" fill="none" id="id82" stroke="none" /><text fill="#e1ed5e" style="font-size:6.75px; font-family:Arial;" text-anchor="middle"><textPath startOffset="22.20632615414155" xlink:href="#id82">October</textPath></text><path d="M 79.00175016825051 100.2711162175752 l -7.605717057636196 0.09820024321720992 a28.6063509811595,28.6063509811595 0 0,0 -0.00211918941708657,-0.4924249877556262 l 7.606280544342785 0.03273422274209168" fill="#ff5708" stroke="none" /><path d="M 79.00019446554 99.90962569577889 l -14.116490286037179 -0.06075141912868284 a35.11662100967183,35.11662100967183 0 0,0 0.007804239062000903,-0.6044469159251536 l 14.113353039857461 0.30373459311430845" fill="#ffaf10" stroke="none" /><path d="M 79.01574976396665 99.18683210126434 l -16.922876300933638 -0.6557842004077657 a37.93557779392855,37.93557779392855 0 0,0 0.03090194550626309,-0.6522912288203052 l 16.909080747193876 0.9469865358510801" fill="#ffd313" stroke="none" /><path d="M 79.03285615573316 98.82574320788736 l -21.36756741094665 -1.1966823592947142 a42.401051042656675,42.401051042656675 0 0,0 0.047084164338403046,-0.7283711823706561 l 21.34380265560383 1.564312605918382" fill="#f3ff19" stroke="none" /><path d="M 79.05617556472873 98.46500227214037 l -12.0443090328716 -0.8827416910524586 a33.07661430088891,33.07661430088891 0 0,0 0.04650495765414999,-0.5674782761188784 l 12.027329591397955 1.0899338843791153" fill="#ff940d" stroke="none" /><path d="M 79.08570108090925 98.10471618934814 l -7.3283647288697535 -0.664106938650504 a28.358394364622352,28.358394364622352 0 0,0 0.048240159892438045,-0.4857718268042024 l 7.315847443295087 0.7901542961591367" fill="#ff5307" stroke="none" /><path d="M 79.21141760316559 97.0276538004421 l -6.994782097819642 -1.0001121571596827 a28.065918264661484,28.065918264661484 0 0,0 0.0724957457653396,-0.47765638568195284 l 6.9765304586150005 1.1203676552337276" fill="#ff4f07" stroke="none" /><path d="M 79.32604984820605 96.31383870115002 l -4.256473569911584 -0.758928411251124 a25.323602616425337,25.323602616425337 0 0,0 0.0802086236202793,-0.428477674630575 l 4.242779222381443 0.8320841633442717" fill="#ff2803" stroke="none" /><path d="M 79.3925641242962 95.95851677861259 l -14.137528211434923 -2.772619718582724 a35.406842958573264,35.406842958573264 0 0,0 0.12244142214660986,-0.5970678585728671 l 14.087707493373317 3.0155632333189937" fill="#ffb310" stroke="none" /><path d="M 79.46518482838121 95.60439243477599 l -7.3056046193388156 -1.563811052834992 a28.471101917593785,28.471101917593785 0 0,0 0.10670645376912771,-0.4783441092140526 l 7.27760377856765 1.689333331599004" fill="#ff5507" stroke="none" /><path d="M 79.54389044137918 95.25157060432595 l -14.037829351493212 -3.258568857048126 a35.4110694918097,35.4110694918097 0 0,0 0.14293796193287625,-0.5925701324836813 l 13.97965858929952 3.499724221191204" fill="#ffb310" stroke="none" /><path d="M 79.81627453868168 94.20196356495316 l -13.84941861547387 -3.978424790340401 a35.409519762956336,35.409519762956336 0 0,0 0.17332808655897047,-0.5843761418694436 l 13.778884631803193 4.2162303189563834" fill="#ffb310" stroke="none" /><path d="M 79.91906864156998 93.8553929516997 l -24.353082987622717 -7.451851844051523 a46.467680438307156,46.467680438307156 0 0,0 0.24062406807987663,-0.7628440522693785 l 24.221203435774633 7.8699460627473155" fill="#c3ff1e" stroke="none" /><path d="M 80.02781315780177 93.51064311812611 l -13.70507160163859 -4.453047701654638 a35.41036506960362,35.41036506960362 0 0,0 0.19334515654334536,-0.5780774086285714 l 13.62638915132347 4.688298213205532" fill="#ffb310" stroke="none" /><path d="M 80.14247586403 93.16781622104843 l -10.717001531674908 -3.687293719113577 a32.33358975792475,32.33358975792475 0 0,0 0.18560545865130115,-0.524731625507094 l 10.651942992213797 3.871222971047282" fill="#ff8a0c" stroke="none" /><path d="M 80.2630227832202 92.82701384747504 l -13.544728196585611 -4.922544456869697 a35.41149214513334,35.41149214513334 0 0,0 0.21313572006931003,-0.5710977653725655 l 13.457987888014674 5.154965359271604" fill="#ffb310" stroke="none" /><path d="M 80.52162464483688 92.15188598940014 l -7.311332930875228 -2.945839853925611 a28.882484485939507,28.882484485939507 0 0,0 0.1897693565669257,-0.45954154929714813 l 7.2595418874221025 3.0712559736760703" fill="#ff5b08" stroke="none" /><path d="M 80.65960295795068 91.81776055985345 l -8.559512399845374 -3.6212276197933284 a30.294005702465476,30.294005702465476 0 0,0 0.20731095502490932,-0.4785022669241066 l 8.495910734977786 3.768029031304034" fill="#ff6e0a" stroke="none" /><path d="M 80.803312248108 91.48605970444005 l -10.39048762446009 -4.6082945360034175 a32.36655671716889,32.36655671716889 0 0,0 0.23026136101996664,-0.5073503867074681 l 10.309623946476771 4.786466931552956" fill="#ff8a0c" stroke="none" /><path d="M 80.95270993114464 91.15688171328213 l -13.069122324317204 -6.067624013690862 a35.40895622519148,35.40895622519148 0 0,0 0.2614223108253354,-0.5506220575994605 l 12.962741819650118 6.291688486930855" fill="#ffb310" stroke="none" /><path d="M 81.10775173730289 90.83032412892265 l -12.96502321151278 -6.2927957994976085 a35.41149214513334,35.41149214513334 0 0,0 0.27088103045212114,-0.5460796280069415 l 12.854782168107244 6.5150350160035115" fill="#ffb310" stroke="none" /><path d="M 81.26839172434947 90.50648371742162 l -6.7344566723907535 -3.4131438759996113 a28.549997204673787,28.549997204673787 0 0,0 0.2259400104153284,-0.43644418486149794 l 6.674707228815311 3.5285607831214447" fill="#ff5608" stroke="none" /><path d="M 81.6062741919709 89.86733742301443 l -9.941064803006595 -5.476294273172409 a32.34965058422318,32.34965058422318 0 0,0 0.27288063846928534,-0.4854242069969787 l 9.84532652324488 5.646601990104172" fill="#ff8a0c" stroke="none" /><line stroke="#e1ed5e" stroke-width="0.3" x1="26.266209847984243" x2="21.928928074336255" y1="57.711370442889674" y2="55.22380399835377" /><path d="M 25.398753493254645 57.213857153982495 a86.0,86.0 0 0,1 29.58750427330803,-30.492523968695096" fill="none" id="id83" stroke="none" /><text fill="#e1ed5e" style="font-size:6.75px; font-family:Arial;" text-anchor="middle"><textPath startOffset="21.46611528233685" xlink:href="#id83">November</textPath></text><path d="M 81.78341655067845 89.55222093294921 l -8.427677719004059 -4.833536162333464 a30.715391066137418,30.715391066137418 0 0,0 0.2669903563801903,-0.45637306524934373 l 8.343227688153544 4.977888639936698" fill="#ff740a" stroke="none" /><path d="M 81.96595687620814 89.24020034530311 l -15.108549698973867 -9.014338421954973 a38.593367249958064,38.593367249958064 0 0,0 0.34528971415263,-0.5675655022496054 l 14.95114418653502 9.273071697411652" fill="#ffdc14" stroke="none" /><path d="M 82.15384107792192 88.93136811851018 l -16.039932485773885 -9.948365296094066 a39.87457035836083,39.87457035836083 0 0,0 0.36679364784685936,-0.5801794652086746 l 15.866311241681062 10.222992409016957" fill="#ffec16" stroke="none" /><path d="M 82.34701348167596 88.62581576622439 l -12.112315378823101 -7.804215251245035 a35.408815340750266,35.408815340750266 0 0,0 0.33453467150452104,-0.5095192558059619 l 11.97618407196066 8.011552571028664" fill="#ffb310" stroke="none" /><path d="M 82.7489923806493 88.02491185347247 l -27.192919453846127 -18.876439835082905 a54.10249007659194,54.10249007659194 0 0,0 0.5376431864843165,-0.7604581588891645 l 26.863963647557934 19.341724494303858" fill="#6fff28" stroke="none" /><path d="M 83.39014120810768 87.1503855733568 l -3.3727104336392144 -2.6091750199667474 a25.264149382232908,25.264149382232908 0 0,0 0.26905828174289226,-0.34167669451716937 l 3.327298071302351 2.6668441084369645" fill="#ff2803" stroke="none" /><path d="M 83.84228863543731 86.58626213691792 l -11.085922566694196 -9.203262511929806 a35.408251802985404,35.408251802985404 0 0,0 0.3933509209815187,-0.46560342117491144 l 10.925861032225553 9.392724882733834" fill="#ffb310" stroke="none" /><path d="M 84.07557802195018 86.31012108654704 l -17.109810773003343 -14.708931855572061 a43.56320679823335,43.56320679823335 0 0,0 0.4937332222200256,-0.564422423414928 l 16.854085687205473 15.001269835189932" fill="#e5ff1a" stroke="none" /><path d="M 84.31358615837235 86.03803664274999 l -5.475783561836498 -4.873815660766749 a28.330640129703138,28.330640129703138 0 0,0 0.32736238061384487,-0.36148171702967713 l 5.3910775406066085 4.967350165065983" fill="#ff5307" stroke="none" /><line stroke="#e1ed5e" stroke-width="0.3" x1="56.762969772571076" x2="54.21961505331055" y1="26.818313649435495" y2="22.513508569990535" /><path d="M 56.25429882871897 25.957352633546506 a86.0,86.0 0 0,1 42.265352541879196,-11.944610805530505" fill="none" id="id84" stroke="none" /><text fill="#e1ed5e" style="font-size:6.75px; font-family:Arial;" text-anchor="middle"><textPath startOffset="22.20632615414155" xlink:href="#id84">December</textPath></text></svg>